<?xml version="1.0" encoding="utf-8" standalone="no"?>
<!DOCTYPE svg PUBLIC "-//W3C//DTD SVG 1.1//EN"
  "http://www.w3.org/Graphics/SVG/1.1/DTD/svg11.dtd">
<svg xmlns:xlink="http://www.w3.org/1999/xlink" width="414.46375pt" height="310.86825pt" viewBox="0 0 414.46375 310.86825" xmlns="http://www.w3.org/2000/svg" version="1.1">
 <metadata>
  <rdf:RDF xmlns:dc="http://purl.org/dc/elements/1.1/" xmlns:cc="http://creativecommons.org/ns#" xmlns:rdf="http://www.w3.org/1999/02/22-rdf-syntax-ns#">
   <cc:Work>
    <dc:type rdf:resource="http://purl.org/dc/dcmitype/StillImage"/>
    <dc:date>2022-03-31T08:41:15.068829</dc:date>
    <dc:format>image/svg+xml</dc:format>
    <dc:creator>
     <cc:Agent>
      <dc:title>Matplotlib v3.5.1, https://matplotlib.org/</dc:title>
     </cc:Agent>
    </dc:creator>
   </cc:Work>
  </rdf:RDF>
 </metadata>
 <defs>
  <style type="text/css">*{stroke-linejoin: round; stroke-linecap: butt}</style>
 </defs>
 <g id="figure_1">
  <g id="patch_1">
   <path d="M 0 310.86825 
L 414.46375 310.86825 
L 414.46375 0 
L 0 0 
z
" style="fill: #ffffff"/>
  </g>
  <g id="axes_1">
   <g id="patch_2">
    <path d="M 50.14375 273.312 
L 407.26375 273.312 
L 407.26375 7.2 
L 50.14375 7.2 
z
" style="fill: #ffffff"/>
   </g>
   <g id="patch_3">
    <path d="M 67.03981 273.312 
L 68.65976 273.312 
L 68.65976 270.221268 
L 67.03981 270.221268 
z
" clip-path="url(#pbe03d1bc9d)" style="fill: #1f77b4"/>
   </g>
   <g id="patch_4">
    <path d="M 68.65976 273.312 
L 70.279711 273.312 
L 70.279711 272.075707 
L 68.65976 272.075707 
z
" clip-path="url(#pbe03d1bc9d)" style="fill: #1f77b4"/>
   </g>
   <g id="patch_5">
    <path d="M 70.279711 273.312 
L 71.899662 273.312 
L 71.899662 267.748683 
L 70.279711 267.748683 
z
" clip-path="url(#pbe03d1bc9d)" style="fill: #1f77b4"/>
   </g>
   <g id="patch_6">
    <path d="M 71.899662 273.312 
L 73.519613 273.312 
L 73.519613 268.984976 
L 71.899662 268.984976 
z
" clip-path="url(#pbe03d1bc9d)" style="fill: #1f77b4"/>
   </g>
   <g id="patch_7">
    <path d="M 73.519613 273.312 
L 75.139564 273.312 
L 75.139564 268.984976 
L 73.519613 268.984976 
z
" clip-path="url(#pbe03d1bc9d)" style="fill: #1f77b4"/>
   </g>
   <g id="patch_8">
    <path d="M 75.139564 273.312 
L 76.759515 273.312 
L 76.759515 262.185366 
L 75.139564 262.185366 
z
" clip-path="url(#pbe03d1bc9d)" style="fill: #1f77b4"/>
   </g>
   <g id="patch_9">
    <path d="M 76.759515 273.312 
L 78.379466 273.312 
L 78.379466 265.894244 
L 76.759515 265.894244 
z
" clip-path="url(#pbe03d1bc9d)" style="fill: #1f77b4"/>
   </g>
   <g id="patch_10">
    <path d="M 78.379466 273.312 
L 79.999417 273.312 
L 79.999417 262.803512 
L 78.379466 262.803512 
z
" clip-path="url(#pbe03d1bc9d)" style="fill: #1f77b4"/>
   </g>
   <g id="patch_11">
    <path d="M 79.999417 273.312 
L 81.619368 273.312 
L 81.619368 258.476488 
L 79.999417 258.476488 
z
" clip-path="url(#pbe03d1bc9d)" style="fill: #1f77b4"/>
   </g>
   <g id="patch_12">
    <path d="M 81.619368 273.312 
L 83.239319 273.312 
L 83.239319 264.039805 
L 81.619368 264.039805 
z
" clip-path="url(#pbe03d1bc9d)" style="fill: #1f77b4"/>
   </g>
   <g id="patch_13">
    <path d="M 83.239319 273.312 
L 84.85927 273.312 
L 84.85927 257.240195 
L 83.239319 257.240195 
z
" clip-path="url(#pbe03d1bc9d)" style="fill: #1f77b4"/>
   </g>
   <g id="patch_14">
    <path d="M 84.85927 273.312 
L 86.479221 273.312 
L 86.479221 254.76761 
L 84.85927 254.76761 
z
" clip-path="url(#pbe03d1bc9d)" style="fill: #1f77b4"/>
   </g>
   <g id="patch_15">
    <path d="M 86.479221 273.312 
L 88.099172 273.312 
L 88.099172 257.858341 
L 86.479221 257.858341 
z
" clip-path="url(#pbe03d1bc9d)" style="fill: #1f77b4"/>
   </g>
   <g id="patch_16">
    <path d="M 88.099172 273.312 
L 89.719123 273.312 
L 89.719123 255.385756 
L 88.099172 255.385756 
z
" clip-path="url(#pbe03d1bc9d)" style="fill: #1f77b4"/>
   </g>
   <g id="patch_17">
    <path d="M 89.719123 273.312 
L 91.339074 273.312 
L 91.339074 252.913171 
L 89.719123 252.913171 
z
" clip-path="url(#pbe03d1bc9d)" style="fill: #1f77b4"/>
   </g>
   <g id="patch_18">
    <path d="M 91.339074 273.312 
L 92.959024 273.312 
L 92.959024 261.56722 
L 91.339074 261.56722 
z
" clip-path="url(#pbe03d1bc9d)" style="fill: #1f77b4"/>
   </g>
   <g id="patch_19">
    <path d="M 92.959024 273.312 
L 94.578975 273.312 
L 94.578975 245.495415 
L 92.959024 245.495415 
z
" clip-path="url(#pbe03d1bc9d)" style="fill: #1f77b4"/>
   </g>
   <g id="patch_20">
    <path d="M 94.578975 273.312 
L 96.198926 273.312 
L 96.198926 254.149463 
L 94.578975 254.149463 
z
" clip-path="url(#pbe03d1bc9d)" style="fill: #1f77b4"/>
   </g>
   <g id="patch_21">
    <path d="M 96.198926 273.312 
L 97.818877 273.312 
L 97.818877 249.204293 
L 96.198926 249.204293 
z
" clip-path="url(#pbe03d1bc9d)" style="fill: #1f77b4"/>
   </g>
   <g id="patch_22">
    <path d="M 97.818877 273.312 
L 99.438828 273.312 
L 99.438828 248.586146 
L 97.818877 248.586146 
z
" clip-path="url(#pbe03d1bc9d)" style="fill: #1f77b4"/>
   </g>
   <g id="patch_23">
    <path d="M 99.438828 273.312 
L 101.058779 273.312 
L 101.058779 246.731707 
L 99.438828 246.731707 
z
" clip-path="url(#pbe03d1bc9d)" style="fill: #1f77b4"/>
   </g>
   <g id="patch_24">
    <path d="M 101.058779 273.312 
L 102.67873 273.312 
L 102.67873 251.058732 
L 101.058779 251.058732 
z
" clip-path="url(#pbe03d1bc9d)" style="fill: #1f77b4"/>
   </g>
   <g id="patch_25">
    <path d="M 102.67873 273.312 
L 104.298681 273.312 
L 104.298681 246.731707 
L 102.67873 246.731707 
z
" clip-path="url(#pbe03d1bc9d)" style="fill: #1f77b4"/>
   </g>
   <g id="patch_26">
    <path d="M 104.298681 273.312 
L 105.918632 273.312 
L 105.918632 247.968 
L 104.298681 247.968 
z
" clip-path="url(#pbe03d1bc9d)" style="fill: #1f77b4"/>
   </g>
   <g id="patch_27">
    <path d="M 105.918632 273.312 
L 107.538583 273.312 
L 107.538583 242.404683 
L 105.918632 242.404683 
z
" clip-path="url(#pbe03d1bc9d)" style="fill: #1f77b4"/>
   </g>
   <g id="patch_28">
    <path d="M 107.538583 273.312 
L 109.158534 273.312 
L 109.158534 239.932098 
L 107.538583 239.932098 
z
" clip-path="url(#pbe03d1bc9d)" style="fill: #1f77b4"/>
   </g>
   <g id="patch_29">
    <path d="M 109.158534 273.312 
L 110.778485 273.312 
L 110.778485 243.022829 
L 109.158534 243.022829 
z
" clip-path="url(#pbe03d1bc9d)" style="fill: #1f77b4"/>
   </g>
   <g id="patch_30">
    <path d="M 110.778485 273.312 
L 112.398436 273.312 
L 112.398436 239.313951 
L 110.778485 239.313951 
z
" clip-path="url(#pbe03d1bc9d)" style="fill: #1f77b4"/>
   </g>
   <g id="patch_31">
    <path d="M 112.398436 273.312 
L 114.018387 273.312 
L 114.018387 244.259122 
L 112.398436 244.259122 
z
" clip-path="url(#pbe03d1bc9d)" style="fill: #1f77b4"/>
   </g>
   <g id="patch_32">
    <path d="M 114.018387 273.312 
L 115.638338 273.312 
L 115.638338 231.896195 
L 114.018387 231.896195 
z
" clip-path="url(#pbe03d1bc9d)" style="fill: #1f77b4"/>
   </g>
   <g id="patch_33">
    <path d="M 115.638338 273.312 
L 117.258288 273.312 
L 117.258288 235.605073 
L 115.638338 235.605073 
z
" clip-path="url(#pbe03d1bc9d)" style="fill: #1f77b4"/>
   </g>
   <g id="patch_34">
    <path d="M 117.258288 273.312 
L 118.878239 273.312 
L 118.878239 228.187317 
L 117.258288 228.187317 
z
" clip-path="url(#pbe03d1bc9d)" style="fill: #1f77b4"/>
   </g>
   <g id="patch_35">
    <path d="M 118.878239 273.312 
L 120.49819 273.312 
L 120.49819 232.514341 
L 118.878239 232.514341 
z
" clip-path="url(#pbe03d1bc9d)" style="fill: #1f77b4"/>
   </g>
   <g id="patch_36">
    <path d="M 120.49819 273.312 
L 122.118141 273.312 
L 122.118141 241.16839 
L 120.49819 241.16839 
z
" clip-path="url(#pbe03d1bc9d)" style="fill: #1f77b4"/>
   </g>
   <g id="patch_37">
    <path d="M 122.118141 273.312 
L 123.738092 273.312 
L 123.738092 232.514341 
L 122.118141 232.514341 
z
" clip-path="url(#pbe03d1bc9d)" style="fill: #1f77b4"/>
   </g>
   <g id="patch_38">
    <path d="M 123.738092 273.312 
L 125.358043 273.312 
L 125.358043 226.951024 
L 123.738092 226.951024 
z
" clip-path="url(#pbe03d1bc9d)" style="fill: #1f77b4"/>
   </g>
   <g id="patch_39">
    <path d="M 125.358043 273.312 
L 126.977994 273.312 
L 126.977994 222.624 
L 125.358043 222.624 
z
" clip-path="url(#pbe03d1bc9d)" style="fill: #1f77b4"/>
   </g>
   <g id="patch_40">
    <path d="M 126.977994 273.312 
L 128.597945 273.312 
L 128.597945 226.951024 
L 126.977994 226.951024 
z
" clip-path="url(#pbe03d1bc9d)" style="fill: #1f77b4"/>
   </g>
   <g id="patch_41">
    <path d="M 128.597945 273.312 
L 130.217896 273.312 
L 130.217896 220.769561 
L 128.597945 220.769561 
z
" clip-path="url(#pbe03d1bc9d)" style="fill: #1f77b4"/>
   </g>
   <g id="patch_42">
    <path d="M 130.217896 273.312 
L 131.837847 273.312 
L 131.837847 231.896195 
L 130.217896 231.896195 
z
" clip-path="url(#pbe03d1bc9d)" style="fill: #1f77b4"/>
   </g>
   <g id="patch_43">
    <path d="M 131.837847 273.312 
L 133.457798 273.312 
L 133.457798 226.951024 
L 131.837847 226.951024 
z
" clip-path="url(#pbe03d1bc9d)" style="fill: #1f77b4"/>
   </g>
   <g id="patch_44">
    <path d="M 133.457798 273.312 
L 135.077749 273.312 
L 135.077749 223.860293 
L 133.457798 223.860293 
z
" clip-path="url(#pbe03d1bc9d)" style="fill: #1f77b4"/>
   </g>
   <g id="patch_45">
    <path d="M 135.077749 273.312 
L 136.6977 273.312 
L 136.6977 224.478439 
L 135.077749 224.478439 
z
" clip-path="url(#pbe03d1bc9d)" style="fill: #1f77b4"/>
   </g>
   <g id="patch_46">
    <path d="M 136.6977 273.312 
L 138.317651 273.312 
L 138.317651 226.332878 
L 136.6977 226.332878 
z
" clip-path="url(#pbe03d1bc9d)" style="fill: #1f77b4"/>
   </g>
   <g id="patch_47">
    <path d="M 138.317651 273.312 
L 139.937602 273.312 
L 139.937602 218.915122 
L 138.317651 218.915122 
z
" clip-path="url(#pbe03d1bc9d)" style="fill: #1f77b4"/>
   </g>
   <g id="patch_48">
    <path d="M 139.937602 273.312 
L 141.557553 273.312 
L 141.557553 224.478439 
L 139.937602 224.478439 
z
" clip-path="url(#pbe03d1bc9d)" style="fill: #1f77b4"/>
   </g>
   <g id="patch_49">
    <path d="M 141.557553 273.312 
L 143.177503 273.312 
L 143.177503 208.406634 
L 141.557553 208.406634 
z
" clip-path="url(#pbe03d1bc9d)" style="fill: #1f77b4"/>
   </g>
   <g id="patch_50">
    <path d="M 143.177503 273.312 
L 144.797454 273.312 
L 144.797454 209.02478 
L 143.177503 209.02478 
z
" clip-path="url(#pbe03d1bc9d)" style="fill: #1f77b4"/>
   </g>
   <g id="patch_51">
    <path d="M 144.797454 273.312 
L 146.417405 273.312 
L 146.417405 209.642927 
L 144.797454 209.642927 
z
" clip-path="url(#pbe03d1bc9d)" style="fill: #1f77b4"/>
   </g>
   <g id="patch_52">
    <path d="M 146.417405 273.312 
L 148.037356 273.312 
L 148.037356 203.461463 
L 146.417405 203.461463 
z
" clip-path="url(#pbe03d1bc9d)" style="fill: #1f77b4"/>
   </g>
   <g id="patch_53">
    <path d="M 148.037356 273.312 
L 149.657307 273.312 
L 149.657307 216.442537 
L 148.037356 216.442537 
z
" clip-path="url(#pbe03d1bc9d)" style="fill: #1f77b4"/>
   </g>
   <g id="patch_54">
    <path d="M 149.657307 273.312 
L 151.277258 273.312 
L 151.277258 218.915122 
L 149.657307 218.915122 
z
" clip-path="url(#pbe03d1bc9d)" style="fill: #1f77b4"/>
   </g>
   <g id="patch_55">
    <path d="M 151.277258 273.312 
L 152.897209 273.312 
L 152.897209 203.461463 
L 151.277258 203.461463 
z
" clip-path="url(#pbe03d1bc9d)" style="fill: #1f77b4"/>
   </g>
   <g id="patch_56">
    <path d="M 152.897209 273.312 
L 154.51716 273.312 
L 154.51716 204.07961 
L 152.897209 204.07961 
z
" clip-path="url(#pbe03d1bc9d)" style="fill: #1f77b4"/>
   </g>
   <g id="patch_57">
    <path d="M 154.51716 273.312 
L 156.137111 273.312 
L 156.137111 210.261073 
L 154.51716 210.261073 
z
" clip-path="url(#pbe03d1bc9d)" style="fill: #1f77b4"/>
   </g>
   <g id="patch_58">
    <path d="M 156.137111 273.312 
L 157.757062 273.312 
L 157.757062 206.552195 
L 156.137111 206.552195 
z
" clip-path="url(#pbe03d1bc9d)" style="fill: #1f77b4"/>
   </g>
   <g id="patch_59">
    <path d="M 157.757062 273.312 
L 159.377013 273.312 
L 159.377013 208.406634 
L 157.757062 208.406634 
z
" clip-path="url(#pbe03d1bc9d)" style="fill: #1f77b4"/>
   </g>
   <g id="patch_60">
    <path d="M 159.377013 273.312 
L 160.996964 273.312 
L 160.996964 194.189268 
L 159.377013 194.189268 
z
" clip-path="url(#pbe03d1bc9d)" style="fill: #1f77b4"/>
   </g>
   <g id="patch_61">
    <path d="M 160.996964 273.312 
L 162.616915 273.312 
L 162.616915 200.988878 
L 160.996964 200.988878 
z
" clip-path="url(#pbe03d1bc9d)" style="fill: #1f77b4"/>
   </g>
   <g id="patch_62">
    <path d="M 162.616915 273.312 
L 164.236866 273.312 
L 164.236866 207.788488 
L 162.616915 207.788488 
z
" clip-path="url(#pbe03d1bc9d)" style="fill: #1f77b4"/>
   </g>
   <g id="patch_63">
    <path d="M 164.236866 273.312 
L 165.856817 273.312 
L 165.856817 199.752585 
L 164.236866 199.752585 
z
" clip-path="url(#pbe03d1bc9d)" style="fill: #1f77b4"/>
   </g>
   <g id="patch_64">
    <path d="M 165.856817 273.312 
L 167.476767 273.312 
L 167.476767 201.607024 
L 165.856817 201.607024 
z
" clip-path="url(#pbe03d1bc9d)" style="fill: #1f77b4"/>
   </g>
   <g id="patch_65">
    <path d="M 167.476767 273.312 
L 169.096718 273.312 
L 169.096718 185.53522 
L 167.476767 185.53522 
z
" clip-path="url(#pbe03d1bc9d)" style="fill: #1f77b4"/>
   </g>
   <g id="patch_66">
    <path d="M 169.096718 273.312 
L 170.716669 273.312 
L 170.716669 188.007805 
L 169.096718 188.007805 
z
" clip-path="url(#pbe03d1bc9d)" style="fill: #1f77b4"/>
   </g>
   <g id="patch_67">
    <path d="M 170.716669 273.312 
L 172.33662 273.312 
L 172.33662 191.716683 
L 170.716669 191.716683 
z
" clip-path="url(#pbe03d1bc9d)" style="fill: #1f77b4"/>
   </g>
   <g id="patch_68">
    <path d="M 172.33662 273.312 
L 173.956571 273.312 
L 173.956571 188.625951 
L 172.33662 188.625951 
z
" clip-path="url(#pbe03d1bc9d)" style="fill: #1f77b4"/>
   </g>
   <g id="patch_69">
    <path d="M 173.956571 273.312 
L 175.576522 273.312 
L 175.576522 193.571122 
L 173.956571 193.571122 
z
" clip-path="url(#pbe03d1bc9d)" style="fill: #1f77b4"/>
   </g>
   <g id="patch_70">
    <path d="M 175.576522 273.312 
L 177.196473 273.312 
L 177.196473 200.988878 
L 175.576522 200.988878 
z
" clip-path="url(#pbe03d1bc9d)" style="fill: #1f77b4"/>
   </g>
   <g id="patch_71">
    <path d="M 177.196473 273.312 
L 178.816424 273.312 
L 178.816424 184.298927 
L 177.196473 184.298927 
z
" clip-path="url(#pbe03d1bc9d)" style="fill: #1f77b4"/>
   </g>
   <g id="patch_72">
    <path d="M 178.816424 273.312 
L 180.436375 273.312 
L 180.436375 175.644878 
L 178.816424 175.644878 
z
" clip-path="url(#pbe03d1bc9d)" style="fill: #1f77b4"/>
   </g>
   <g id="patch_73">
    <path d="M 180.436375 273.312 
L 182.056326 273.312 
L 182.056326 178.117463 
L 180.436375 178.117463 
z
" clip-path="url(#pbe03d1bc9d)" style="fill: #1f77b4"/>
   </g>
   <g id="patch_74">
    <path d="M 182.056326 273.312 
L 183.676277 273.312 
L 183.676277 192.334829 
L 182.056326 192.334829 
z
" clip-path="url(#pbe03d1bc9d)" style="fill: #1f77b4"/>
   </g>
   <g id="patch_75">
    <path d="M 183.676277 273.312 
L 185.296228 273.312 
L 185.296228 188.625951 
L 183.676277 188.625951 
z
" clip-path="url(#pbe03d1bc9d)" style="fill: #1f77b4"/>
   </g>
   <g id="patch_76">
    <path d="M 185.296228 273.312 
L 186.916179 273.312 
L 186.916179 175.026732 
L 185.296228 175.026732 
z
" clip-path="url(#pbe03d1bc9d)" style="fill: #1f77b4"/>
   </g>
   <g id="patch_77">
    <path d="M 186.916179 273.312 
L 188.53613 273.312 
L 188.53613 190.48039 
L 186.916179 190.48039 
z
" clip-path="url(#pbe03d1bc9d)" style="fill: #1f77b4"/>
   </g>
   <g id="patch_78">
    <path d="M 188.53613 273.312 
L 190.156081 273.312 
L 190.156081 169.463415 
L 188.53613 169.463415 
z
" clip-path="url(#pbe03d1bc9d)" style="fill: #1f77b4"/>
   </g>
   <g id="patch_79">
    <path d="M 190.156081 273.312 
L 191.776031 273.312 
L 191.776031 183.68078 
L 190.156081 183.68078 
z
" clip-path="url(#pbe03d1bc9d)" style="fill: #1f77b4"/>
   </g>
   <g id="patch_80">
    <path d="M 191.776031 273.312 
L 193.395982 273.312 
L 193.395982 188.007805 
L 191.776031 188.007805 
z
" clip-path="url(#pbe03d1bc9d)" style="fill: #1f77b4"/>
   </g>
   <g id="patch_81">
    <path d="M 193.395982 273.312 
L 195.015933 273.312 
L 195.015933 181.826341 
L 193.395982 181.826341 
z
" clip-path="url(#pbe03d1bc9d)" style="fill: #1f77b4"/>
   </g>
   <g id="patch_82">
    <path d="M 195.015933 273.312 
L 196.635884 273.312 
L 196.635884 162.045659 
L 195.015933 162.045659 
z
" clip-path="url(#pbe03d1bc9d)" style="fill: #1f77b4"/>
   </g>
   <g id="patch_83">
    <path d="M 196.635884 273.312 
L 198.255835 273.312 
L 198.255835 171.317854 
L 196.635884 171.317854 
z
" clip-path="url(#pbe03d1bc9d)" style="fill: #1f77b4"/>
   </g>
   <g id="patch_84">
    <path d="M 198.255835 273.312 
L 199.875786 273.312 
L 199.875786 168.845268 
L 198.255835 168.845268 
z
" clip-path="url(#pbe03d1bc9d)" style="fill: #1f77b4"/>
   </g>
   <g id="patch_85">
    <path d="M 199.875786 273.312 
L 201.495737 273.312 
L 201.495737 173.790439 
L 199.875786 173.790439 
z
" clip-path="url(#pbe03d1bc9d)" style="fill: #1f77b4"/>
   </g>
   <g id="patch_86">
    <path d="M 201.495737 273.312 
L 203.115688 273.312 
L 203.115688 166.372683 
L 201.495737 166.372683 
z
" clip-path="url(#pbe03d1bc9d)" style="fill: #1f77b4"/>
   </g>
   <g id="patch_87">
    <path d="M 203.115688 273.312 
L 204.735639 273.312 
L 204.735639 173.790439 
L 203.115688 173.790439 
z
" clip-path="url(#pbe03d1bc9d)" style="fill: #1f77b4"/>
   </g>
   <g id="patch_88">
    <path d="M 204.735639 273.312 
L 206.35559 273.312 
L 206.35559 161.427512 
L 204.735639 161.427512 
z
" clip-path="url(#pbe03d1bc9d)" style="fill: #1f77b4"/>
   </g>
   <g id="patch_89">
    <path d="M 206.35559 273.312 
L 207.975541 273.312 
L 207.975541 173.790439 
L 206.35559 173.790439 
z
" clip-path="url(#pbe03d1bc9d)" style="fill: #1f77b4"/>
   </g>
   <g id="patch_90">
    <path d="M 207.975541 273.312 
L 209.595492 273.312 
L 209.595492 164.518244 
L 207.975541 164.518244 
z
" clip-path="url(#pbe03d1bc9d)" style="fill: #1f77b4"/>
   </g>
   <g id="patch_91">
    <path d="M 209.595492 273.312 
L 211.215443 273.312 
L 211.215443 161.427512 
L 209.595492 161.427512 
z
" clip-path="url(#pbe03d1bc9d)" style="fill: #1f77b4"/>
   </g>
   <g id="patch_92">
    <path d="M 211.215443 273.312 
L 212.835394 273.312 
L 212.835394 157.718634 
L 211.215443 157.718634 
z
" clip-path="url(#pbe03d1bc9d)" style="fill: #1f77b4"/>
   </g>
   <g id="patch_93">
    <path d="M 212.835394 273.312 
L 214.455345 273.312 
L 214.455345 166.372683 
L 212.835394 166.372683 
z
" clip-path="url(#pbe03d1bc9d)" style="fill: #1f77b4"/>
   </g>
   <g id="patch_94">
    <path d="M 214.455345 273.312 
L 216.075296 273.312 
L 216.075296 158.33678 
L 214.455345 158.33678 
z
" clip-path="url(#pbe03d1bc9d)" style="fill: #1f77b4"/>
   </g>
   <g id="patch_95">
    <path d="M 216.075296 273.312 
L 217.695246 273.312 
L 217.695246 157.100488 
L 216.075296 157.100488 
z
" clip-path="url(#pbe03d1bc9d)" style="fill: #1f77b4"/>
   </g>
   <g id="patch_96">
    <path d="M 217.695246 273.312 
L 219.315197 273.312 
L 219.315197 165.13639 
L 217.695246 165.13639 
z
" clip-path="url(#pbe03d1bc9d)" style="fill: #1f77b4"/>
   </g>
   <g id="patch_97">
    <path d="M 219.315197 273.312 
L 220.935148 273.312 
L 220.935148 162.045659 
L 219.315197 162.045659 
z
" clip-path="url(#pbe03d1bc9d)" style="fill: #1f77b4"/>
   </g>
   <g id="patch_98">
    <path d="M 220.935148 273.312 
L 222.555099 273.312 
L 222.555099 150.919024 
L 220.935148 150.919024 
z
" clip-path="url(#pbe03d1bc9d)" style="fill: #1f77b4"/>
   </g>
   <g id="patch_99">
    <path d="M 222.555099 273.312 
L 224.17505 273.312 
L 224.17505 147.210146 
L 222.555099 147.210146 
z
" clip-path="url(#pbe03d1bc9d)" style="fill: #1f77b4"/>
   </g>
   <g id="patch_100">
    <path d="M 224.17505 273.312 
L 225.795001 273.312 
L 225.795001 140.410537 
L 224.17505 140.410537 
z
" clip-path="url(#pbe03d1bc9d)" style="fill: #1f77b4"/>
   </g>
   <g id="patch_101">
    <path d="M 225.795001 273.312 
L 227.414952 273.312 
L 227.414952 156.482341 
L 225.795001 156.482341 
z
" clip-path="url(#pbe03d1bc9d)" style="fill: #1f77b4"/>
   </g>
   <g id="patch_102">
    <path d="M 227.414952 273.312 
L 229.034903 273.312 
L 229.034903 149.064585 
L 227.414952 149.064585 
z
" clip-path="url(#pbe03d1bc9d)" style="fill: #1f77b4"/>
   </g>
   <g id="patch_103">
    <path d="M 229.034903 273.312 
L 230.654854 273.312 
L 230.654854 153.39161 
L 229.034903 153.39161 
z
" clip-path="url(#pbe03d1bc9d)" style="fill: #1f77b4"/>
   </g>
   <g id="patch_104">
    <path d="M 230.654854 273.312 
L 232.274805 273.312 
L 232.274805 158.33678 
L 230.654854 158.33678 
z
" clip-path="url(#pbe03d1bc9d)" style="fill: #1f77b4"/>
   </g>
   <g id="patch_105">
    <path d="M 232.274805 273.312 
L 233.894756 273.312 
L 233.894756 152.155317 
L 232.274805 152.155317 
z
" clip-path="url(#pbe03d1bc9d)" style="fill: #1f77b4"/>
   </g>
   <g id="patch_106">
    <path d="M 233.894756 273.312 
L 235.514707 273.312 
L 235.514707 147.210146 
L 233.894756 147.210146 
z
" clip-path="url(#pbe03d1bc9d)" style="fill: #1f77b4"/>
   </g>
   <g id="patch_107">
    <path d="M 235.514707 273.312 
L 237.134658 273.312 
L 237.134658 142.264976 
L 235.514707 142.264976 
z
" clip-path="url(#pbe03d1bc9d)" style="fill: #1f77b4"/>
   </g>
   <g id="patch_108">
    <path d="M 237.134658 273.312 
L 238.754609 273.312 
L 238.754609 147.210146 
L 237.134658 147.210146 
z
" clip-path="url(#pbe03d1bc9d)" style="fill: #1f77b4"/>
   </g>
   <g id="patch_109">
    <path d="M 238.754609 273.312 
L 240.37456 273.312 
L 240.37456 147.210146 
L 238.754609 147.210146 
z
" clip-path="url(#pbe03d1bc9d)" style="fill: #1f77b4"/>
   </g>
   <g id="patch_110">
    <path d="M 240.37456 273.312 
L 241.99451 273.312 
L 241.99451 121.248 
L 240.37456 121.248 
z
" clip-path="url(#pbe03d1bc9d)" style="fill: #1f77b4"/>
   </g>
   <g id="patch_111">
    <path d="M 241.99451 273.312 
L 243.614461 273.312 
L 243.614461 147.828293 
L 241.99451 147.828293 
z
" clip-path="url(#pbe03d1bc9d)" style="fill: #1f77b4"/>
   </g>
   <g id="patch_112">
    <path d="M 243.614461 273.312 
L 245.234412 273.312 
L 245.234412 122.484293 
L 243.614461 122.484293 
z
" clip-path="url(#pbe03d1bc9d)" style="fill: #1f77b4"/>
   </g>
   <g id="patch_113">
    <path d="M 245.234412 273.312 
L 246.854363 273.312 
L 246.854363 144.737561 
L 245.234412 144.737561 
z
" clip-path="url(#pbe03d1bc9d)" style="fill: #1f77b4"/>
   </g>
   <g id="patch_114">
    <path d="M 246.854363 273.312 
L 248.474314 273.312 
L 248.474314 133.610927 
L 246.854363 133.610927 
z
" clip-path="url(#pbe03d1bc9d)" style="fill: #1f77b4"/>
   </g>
   <g id="patch_115">
    <path d="M 248.474314 273.312 
L 250.094265 273.312 
L 250.094265 128.04761 
L 248.474314 128.04761 
z
" clip-path="url(#pbe03d1bc9d)" style="fill: #1f77b4"/>
   </g>
   <g id="patch_116">
    <path d="M 250.094265 273.312 
L 251.714216 273.312 
L 251.714216 120.011707 
L 250.094265 120.011707 
z
" clip-path="url(#pbe03d1bc9d)" style="fill: #1f77b4"/>
   </g>
   <g id="patch_117">
    <path d="M 251.714216 273.312 
L 253.334167 273.312 
L 253.334167 134.84722 
L 251.714216 134.84722 
z
" clip-path="url(#pbe03d1bc9d)" style="fill: #1f77b4"/>
   </g>
   <g id="patch_118">
    <path d="M 253.334167 273.312 
L 254.954118 273.312 
L 254.954118 124.956878 
L 253.334167 124.956878 
z
" clip-path="url(#pbe03d1bc9d)" style="fill: #1f77b4"/>
   </g>
   <g id="patch_119">
    <path d="M 254.954118 273.312 
L 256.574069 273.312 
L 256.574069 128.665756 
L 254.954118 128.665756 
z
" clip-path="url(#pbe03d1bc9d)" style="fill: #1f77b4"/>
   </g>
   <g id="patch_120">
    <path d="M 256.574069 273.312 
L 258.19402 273.312 
L 258.19402 112.593951 
L 256.574069 112.593951 
z
" clip-path="url(#pbe03d1bc9d)" style="fill: #1f77b4"/>
   </g>
   <g id="patch_121">
    <path d="M 258.19402 273.312 
L 259.813971 273.312 
L 259.813971 124.956878 
L 258.19402 124.956878 
z
" clip-path="url(#pbe03d1bc9d)" style="fill: #1f77b4"/>
   </g>
   <g id="patch_122">
    <path d="M 259.813971 273.312 
L 261.433922 273.312 
L 261.433922 110.739512 
L 259.813971 110.739512 
z
" clip-path="url(#pbe03d1bc9d)" style="fill: #1f77b4"/>
   </g>
   <g id="patch_123">
    <path d="M 261.433922 273.312 
L 263.053873 273.312 
L 263.053873 126.193171 
L 261.433922 126.193171 
z
" clip-path="url(#pbe03d1bc9d)" style="fill: #1f77b4"/>
   </g>
   <g id="patch_124">
    <path d="M 263.053873 273.312 
L 264.673824 273.312 
L 264.673824 129.283902 
L 263.053873 129.283902 
z
" clip-path="url(#pbe03d1bc9d)" style="fill: #1f77b4"/>
   </g>
   <g id="patch_125">
    <path d="M 264.673824 273.312 
L 266.293774 273.312 
L 266.293774 127.429463 
L 264.673824 127.429463 
z
" clip-path="url(#pbe03d1bc9d)" style="fill: #1f77b4"/>
   </g>
   <g id="patch_126">
    <path d="M 266.293774 273.312 
L 267.913725 273.312 
L 267.913725 100.849171 
L 266.293774 100.849171 
z
" clip-path="url(#pbe03d1bc9d)" style="fill: #1f77b4"/>
   </g>
   <g id="patch_127">
    <path d="M 267.913725 273.312 
L 269.533676 273.312 
L 269.533676 121.866146 
L 267.913725 121.866146 
z
" clip-path="url(#pbe03d1bc9d)" style="fill: #1f77b4"/>
   </g>
   <g id="patch_128">
    <path d="M 269.533676 273.312 
L 271.153627 273.312 
L 271.153627 118.775415 
L 269.533676 118.775415 
z
" clip-path="url(#pbe03d1bc9d)" style="fill: #1f77b4"/>
   </g>
   <g id="patch_129">
    <path d="M 271.153627 273.312 
L 272.773578 273.312 
L 272.773578 103.321756 
L 271.153627 103.321756 
z
" clip-path="url(#pbe03d1bc9d)" style="fill: #1f77b4"/>
   </g>
   <g id="patch_130">
    <path d="M 272.773578 273.312 
L 274.393529 273.312 
L 274.393529 132.374634 
L 272.773578 132.374634 
z
" clip-path="url(#pbe03d1bc9d)" style="fill: #1f77b4"/>
   </g>
   <g id="patch_131">
    <path d="M 274.393529 273.312 
L 276.01348 273.312 
L 276.01348 105.176195 
L 274.393529 105.176195 
z
" clip-path="url(#pbe03d1bc9d)" style="fill: #1f77b4"/>
   </g>
   <g id="patch_132">
    <path d="M 276.01348 273.312 
L 277.633431 273.312 
L 277.633431 116.302829 
L 276.01348 116.302829 
z
" clip-path="url(#pbe03d1bc9d)" style="fill: #1f77b4"/>
   </g>
   <g id="patch_133">
    <path d="M 277.633431 273.312 
L 279.253382 273.312 
L 279.253382 120.629854 
L 277.633431 120.629854 
z
" clip-path="url(#pbe03d1bc9d)" style="fill: #1f77b4"/>
   </g>
   <g id="patch_134">
    <path d="M 279.253382 273.312 
L 280.873333 273.312 
L 280.873333 115.066537 
L 279.253382 115.066537 
z
" clip-path="url(#pbe03d1bc9d)" style="fill: #1f77b4"/>
   </g>
   <g id="patch_135">
    <path d="M 280.873333 273.312 
L 282.493284 273.312 
L 282.493284 105.794341 
L 280.873333 105.794341 
z
" clip-path="url(#pbe03d1bc9d)" style="fill: #1f77b4"/>
   </g>
   <g id="patch_136">
    <path d="M 282.493284 273.312 
L 284.113235 273.312 
L 284.113235 96.522146 
L 282.493284 96.522146 
z
" clip-path="url(#pbe03d1bc9d)" style="fill: #1f77b4"/>
   </g>
   <g id="patch_137">
    <path d="M 284.113235 273.312 
L 285.733186 273.312 
L 285.733186 92.813268 
L 284.113235 92.813268 
z
" clip-path="url(#pbe03d1bc9d)" style="fill: #1f77b4"/>
   </g>
   <g id="patch_138">
    <path d="M 285.733186 273.312 
L 287.353137 273.312 
L 287.353137 119.393561 
L 285.733186 119.393561 
z
" clip-path="url(#pbe03d1bc9d)" style="fill: #1f77b4"/>
   </g>
   <g id="patch_139">
    <path d="M 287.353137 273.312 
L 288.973088 273.312 
L 288.973088 113.212098 
L 287.353137 113.212098 
z
" clip-path="url(#pbe03d1bc9d)" style="fill: #1f77b4"/>
   </g>
   <g id="patch_140">
    <path d="M 288.973088 273.312 
L 290.593039 273.312 
L 290.593039 109.50322 
L 288.973088 109.50322 
z
" clip-path="url(#pbe03d1bc9d)" style="fill: #1f77b4"/>
   </g>
   <g id="patch_141">
    <path d="M 290.593039 273.312 
L 292.212989 273.312 
L 292.212989 116.920976 
L 290.593039 116.920976 
z
" clip-path="url(#pbe03d1bc9d)" style="fill: #1f77b4"/>
   </g>
   <g id="patch_142">
    <path d="M 292.212989 273.312 
L 293.83294 273.312 
L 293.83294 98.376585 
L 292.212989 98.376585 
z
" clip-path="url(#pbe03d1bc9d)" style="fill: #1f77b4"/>
   </g>
   <g id="patch_143">
    <path d="M 293.83294 273.312 
L 295.452891 273.312 
L 295.452891 97.758439 
L 293.83294 97.758439 
z
" clip-path="url(#pbe03d1bc9d)" style="fill: #1f77b4"/>
   </g>
   <g id="patch_144">
    <path d="M 295.452891 273.312 
L 297.072842 273.312 
L 297.072842 102.085463 
L 295.452891 102.085463 
z
" clip-path="url(#pbe03d1bc9d)" style="fill: #1f77b4"/>
   </g>
   <g id="patch_145">
    <path d="M 297.072842 273.312 
L 298.692793 273.312 
L 298.692793 89.722537 
L 297.072842 89.722537 
z
" clip-path="url(#pbe03d1bc9d)" style="fill: #1f77b4"/>
   </g>
   <g id="patch_146">
    <path d="M 298.692793 273.312 
L 300.312744 273.312 
L 300.312744 87.249951 
L 298.692793 87.249951 
z
" clip-path="url(#pbe03d1bc9d)" style="fill: #1f77b4"/>
   </g>
   <g id="patch_147">
    <path d="M 300.312744 273.312 
L 301.932695 273.312 
L 301.932695 91.576976 
L 300.312744 91.576976 
z
" clip-path="url(#pbe03d1bc9d)" style="fill: #1f77b4"/>
   </g>
   <g id="patch_148">
    <path d="M 301.932695 273.312 
L 303.552646 273.312 
L 303.552646 71.796293 
L 301.932695 71.796293 
z
" clip-path="url(#pbe03d1bc9d)" style="fill: #1f77b4"/>
   </g>
   <g id="patch_149">
    <path d="M 303.552646 273.312 
L 305.172597 273.312 
L 305.172597 74.268878 
L 303.552646 74.268878 
z
" clip-path="url(#pbe03d1bc9d)" style="fill: #1f77b4"/>
   </g>
   <g id="patch_150">
    <path d="M 305.172597 273.312 
L 306.792548 273.312 
L 306.792548 108.885073 
L 305.172597 108.885073 
z
" clip-path="url(#pbe03d1bc9d)" style="fill: #1f77b4"/>
   </g>
   <g id="patch_151">
    <path d="M 306.792548 273.312 
L 308.412499 273.312 
L 308.412499 70.56 
L 306.792548 70.56 
z
" clip-path="url(#pbe03d1bc9d)" style="fill: #1f77b4"/>
   </g>
   <g id="patch_152">
    <path d="M 308.412499 273.312 
L 310.03245 273.312 
L 310.03245 100.231024 
L 308.412499 100.231024 
z
" clip-path="url(#pbe03d1bc9d)" style="fill: #1f77b4"/>
   </g>
   <g id="patch_153">
    <path d="M 310.03245 273.312 
L 311.652401 273.312 
L 311.652401 70.56 
L 310.03245 70.56 
z
" clip-path="url(#pbe03d1bc9d)" style="fill: #1f77b4"/>
   </g>
   <g id="patch_154">
    <path d="M 311.652401 273.312 
L 313.272352 273.312 
L 313.272352 89.10439 
L 311.652401 89.10439 
z
" clip-path="url(#pbe03d1bc9d)" style="fill: #1f77b4"/>
   </g>
   <g id="patch_155">
    <path d="M 313.272352 273.312 
L 314.892303 273.312 
L 314.892303 89.10439 
L 313.272352 89.10439 
z
" clip-path="url(#pbe03d1bc9d)" style="fill: #1f77b4"/>
   </g>
   <g id="patch_156">
    <path d="M 314.892303 273.312 
L 316.512253 273.312 
L 316.512253 97.758439 
L 314.892303 97.758439 
z
" clip-path="url(#pbe03d1bc9d)" style="fill: #1f77b4"/>
   </g>
   <g id="patch_157">
    <path d="M 316.512253 273.312 
L 318.132204 273.312 
L 318.132204 69.323707 
L 316.512253 69.323707 
z
" clip-path="url(#pbe03d1bc9d)" style="fill: #1f77b4"/>
   </g>
   <g id="patch_158">
    <path d="M 318.132204 273.312 
L 319.752155 273.312 
L 319.752155 68.705561 
L 318.132204 68.705561 
z
" clip-path="url(#pbe03d1bc9d)" style="fill: #1f77b4"/>
   </g>
   <g id="patch_159">
    <path d="M 319.752155 273.312 
L 321.372106 273.312 
L 321.372106 83.541073 
L 319.752155 83.541073 
z
" clip-path="url(#pbe03d1bc9d)" style="fill: #1f77b4"/>
   </g>
   <g id="patch_160">
    <path d="M 321.372106 273.312 
L 322.992057 273.312 
L 322.992057 69.941854 
L 321.372106 69.941854 
z
" clip-path="url(#pbe03d1bc9d)" style="fill: #1f77b4"/>
   </g>
   <g id="patch_161">
    <path d="M 322.992057 273.312 
L 324.612008 273.312 
L 324.612008 68.087415 
L 322.992057 68.087415 
z
" clip-path="url(#pbe03d1bc9d)" style="fill: #1f77b4"/>
   </g>
   <g id="patch_162">
    <path d="M 324.612008 273.312 
L 326.231959 273.312 
L 326.231959 75.505171 
L 324.612008 75.505171 
z
" clip-path="url(#pbe03d1bc9d)" style="fill: #1f77b4"/>
   </g>
   <g id="patch_163">
    <path d="M 326.231959 273.312 
L 327.85191 273.312 
L 327.85191 69.323707 
L 326.231959 69.323707 
z
" clip-path="url(#pbe03d1bc9d)" style="fill: #1f77b4"/>
   </g>
   <g id="patch_164">
    <path d="M 327.85191 273.312 
L 329.471861 273.312 
L 329.471861 65.614829 
L 327.85191 65.614829 
z
" clip-path="url(#pbe03d1bc9d)" style="fill: #1f77b4"/>
   </g>
   <g id="patch_165">
    <path d="M 329.471861 273.312 
L 331.091812 273.312 
L 331.091812 77.35961 
L 329.471861 77.35961 
z
" clip-path="url(#pbe03d1bc9d)" style="fill: #1f77b4"/>
   </g>
   <g id="patch_166">
    <path d="M 331.091812 273.312 
L 332.711763 273.312 
L 332.711763 74.887024 
L 331.091812 74.887024 
z
" clip-path="url(#pbe03d1bc9d)" style="fill: #1f77b4"/>
   </g>
   <g id="patch_167">
    <path d="M 332.711763 273.312 
L 334.331714 273.312 
L 334.331714 74.268878 
L 332.711763 74.268878 
z
" clip-path="url(#pbe03d1bc9d)" style="fill: #1f77b4"/>
   </g>
   <g id="patch_168">
    <path d="M 334.331714 273.312 
L 335.951665 273.312 
L 335.951665 73.032585 
L 334.331714 73.032585 
z
" clip-path="url(#pbe03d1bc9d)" style="fill: #1f77b4"/>
   </g>
   <g id="patch_169">
    <path d="M 335.951665 273.312 
L 337.571616 273.312 
L 337.571616 68.087415 
L 335.951665 68.087415 
z
" clip-path="url(#pbe03d1bc9d)" style="fill: #1f77b4"/>
   </g>
   <g id="patch_170">
    <path d="M 337.571616 273.312 
L 339.191567 273.312 
L 339.191567 70.56 
L 337.571616 70.56 
z
" clip-path="url(#pbe03d1bc9d)" style="fill: #1f77b4"/>
   </g>
   <g id="patch_171">
    <path d="M 339.191567 273.312 
L 340.811517 273.312 
L 340.811517 51.397463 
L 339.191567 51.397463 
z
" clip-path="url(#pbe03d1bc9d)" style="fill: #1f77b4"/>
   </g>
   <g id="patch_172">
    <path d="M 340.811517 273.312 
L 342.431468 273.312 
L 342.431468 56.96078 
L 340.811517 56.96078 
z
" clip-path="url(#pbe03d1bc9d)" style="fill: #1f77b4"/>
   </g>
   <g id="patch_173">
    <path d="M 342.431468 273.312 
L 344.051419 273.312 
L 344.051419 58.197073 
L 342.431468 58.197073 
z
" clip-path="url(#pbe03d1bc9d)" style="fill: #1f77b4"/>
   </g>
   <g id="patch_174">
    <path d="M 344.051419 273.312 
L 345.67137 273.312 
L 345.67137 77.35961 
L 344.051419 77.35961 
z
" clip-path="url(#pbe03d1bc9d)" style="fill: #1f77b4"/>
   </g>
   <g id="patch_175">
    <path d="M 345.67137 273.312 
L 347.291321 273.312 
L 347.291321 76.123317 
L 345.67137 76.123317 
z
" clip-path="url(#pbe03d1bc9d)" style="fill: #1f77b4"/>
   </g>
   <g id="patch_176">
    <path d="M 347.291321 273.312 
L 348.911272 273.312 
L 348.911272 51.397463 
L 347.291321 51.397463 
z
" clip-path="url(#pbe03d1bc9d)" style="fill: #1f77b4"/>
   </g>
   <g id="patch_177">
    <path d="M 348.911272 273.312 
L 350.531223 273.312 
L 350.531223 45.216 
L 348.911272 45.216 
z
" clip-path="url(#pbe03d1bc9d)" style="fill: #1f77b4"/>
   </g>
   <g id="patch_178">
    <path d="M 350.531223 273.312 
L 352.151174 273.312 
L 352.151174 69.941854 
L 350.531223 69.941854 
z
" clip-path="url(#pbe03d1bc9d)" style="fill: #1f77b4"/>
   </g>
   <g id="patch_179">
    <path d="M 352.151174 273.312 
L 353.771125 273.312 
L 353.771125 71.796293 
L 352.151174 71.796293 
z
" clip-path="url(#pbe03d1bc9d)" style="fill: #1f77b4"/>
   </g>
   <g id="patch_180">
    <path d="M 353.771125 273.312 
L 355.391076 273.312 
L 355.391076 53.251902 
L 353.771125 53.251902 
z
" clip-path="url(#pbe03d1bc9d)" style="fill: #1f77b4"/>
   </g>
   <g id="patch_181">
    <path d="M 355.391076 273.312 
L 357.011027 273.312 
L 357.011027 45.834146 
L 355.391076 45.834146 
z
" clip-path="url(#pbe03d1bc9d)" style="fill: #1f77b4"/>
   </g>
   <g id="patch_182">
    <path d="M 357.011027 273.312 
L 358.630978 273.312 
L 358.630978 48.924878 
L 357.011027 48.924878 
z
" clip-path="url(#pbe03d1bc9d)" style="fill: #1f77b4"/>
   </g>
   <g id="patch_183">
    <path d="M 358.630978 273.312 
L 360.250929 273.312 
L 360.250929 53.870049 
L 358.630978 53.870049 
z
" clip-path="url(#pbe03d1bc9d)" style="fill: #1f77b4"/>
   </g>
   <g id="patch_184">
    <path d="M 360.250929 273.312 
L 361.87088 273.312 
L 361.87088 68.705561 
L 360.250929 68.705561 
z
" clip-path="url(#pbe03d1bc9d)" style="fill: #1f77b4"/>
   </g>
   <g id="patch_185">
    <path d="M 361.87088 273.312 
L 363.490831 273.312 
L 363.490831 66.232976 
L 361.87088 66.232976 
z
" clip-path="url(#pbe03d1bc9d)" style="fill: #1f77b4"/>
   </g>
   <g id="patch_186">
    <path d="M 363.490831 273.312 
L 365.110782 273.312 
L 365.110782 53.870049 
L 363.490831 53.870049 
z
" clip-path="url(#pbe03d1bc9d)" style="fill: #1f77b4"/>
   </g>
   <g id="patch_187">
    <path d="M 365.110782 273.312 
L 366.730732 273.312 
L 366.730732 43.361561 
L 365.110782 43.361561 
z
" clip-path="url(#pbe03d1bc9d)" style="fill: #1f77b4"/>
   </g>
   <g id="patch_188">
    <path d="M 366.730732 273.312 
L 368.350683 273.312 
L 368.350683 46.452293 
L 366.730732 46.452293 
z
" clip-path="url(#pbe03d1bc9d)" style="fill: #1f77b4"/>
   </g>
   <g id="patch_189">
    <path d="M 368.350683 273.312 
L 369.970634 273.312 
L 369.970634 37.798244 
L 368.350683 37.798244 
z
" clip-path="url(#pbe03d1bc9d)" style="fill: #1f77b4"/>
   </g>
   <g id="patch_190">
    <path d="M 369.970634 273.312 
L 371.590585 273.312 
L 371.590585 61.905951 
L 369.970634 61.905951 
z
" clip-path="url(#pbe03d1bc9d)" style="fill: #1f77b4"/>
   </g>
   <g id="patch_191">
    <path d="M 371.590585 273.312 
L 373.210536 273.312 
L 373.210536 26.053463 
L 371.590585 26.053463 
z
" clip-path="url(#pbe03d1bc9d)" style="fill: #1f77b4"/>
   </g>
   <g id="patch_192">
    <path d="M 373.210536 273.312 
L 374.830487 273.312 
L 374.830487 19.872 
L 373.210536 19.872 
z
" clip-path="url(#pbe03d1bc9d)" style="fill: #1f77b4"/>
   </g>
   <g id="patch_193">
    <path d="M 374.830487 273.312 
L 376.450438 273.312 
L 376.450438 34.707512 
L 374.830487 34.707512 
z
" clip-path="url(#pbe03d1bc9d)" style="fill: #1f77b4"/>
   </g>
   <g id="patch_194">
    <path d="M 376.450438 273.312 
L 378.070389 273.312 
L 378.070389 53.251902 
L 376.450438 53.251902 
z
" clip-path="url(#pbe03d1bc9d)" style="fill: #1f77b4"/>
   </g>
   <g id="patch_195">
    <path d="M 378.070389 273.312 
L 379.69034 273.312 
L 379.69034 39.034537 
L 378.070389 39.034537 
z
" clip-path="url(#pbe03d1bc9d)" style="fill: #1f77b4"/>
   </g>
   <g id="patch_196">
    <path d="M 379.69034 273.312 
L 381.310291 273.312 
L 381.310291 30.998634 
L 379.69034 30.998634 
z
" clip-path="url(#pbe03d1bc9d)" style="fill: #1f77b4"/>
   </g>
   <g id="patch_197">
    <path d="M 381.310291 273.312 
L 382.930242 273.312 
L 382.930242 45.834146 
L 381.310291 45.834146 
z
" clip-path="url(#pbe03d1bc9d)" style="fill: #1f77b4"/>
   </g>
   <g id="patch_198">
    <path d="M 382.930242 273.312 
L 384.550193 273.312 
L 384.550193 40.888976 
L 382.930242 40.888976 
z
" clip-path="url(#pbe03d1bc9d)" style="fill: #1f77b4"/>
   </g>
   <g id="patch_199">
    <path d="M 384.550193 273.312 
L 386.170144 273.312 
L 386.170144 37.798244 
L 384.550193 37.798244 
z
" clip-path="url(#pbe03d1bc9d)" style="fill: #1f77b4"/>
   </g>
   <g id="patch_200">
    <path d="M 386.170144 273.312 
L 387.790095 273.312 
L 387.790095 45.216 
L 386.170144 45.216 
z
" clip-path="url(#pbe03d1bc9d)" style="fill: #1f77b4"/>
   </g>
   <g id="patch_201">
    <path d="M 387.790095 273.312 
L 389.410046 273.312 
L 389.410046 35.943805 
L 387.790095 35.943805 
z
" clip-path="url(#pbe03d1bc9d)" style="fill: #1f77b4"/>
   </g>
   <g id="patch_202">
    <path d="M 389.410046 273.312 
L 391.029996 273.312 
L 391.029996 43.979707 
L 389.410046 43.979707 
z
" clip-path="url(#pbe03d1bc9d)" style="fill: #1f77b4"/>
   </g>
   <g id="matplotlib.axis_1">
    <g id="xtick_1">
     <g id="line2d_1">
      <defs>
       <path id="ma8ab805768" d="M 0 0 
L 0 3.5 
" style="stroke: #000000; stroke-width: 0.8"/>
      </defs>
      <g>
       <use xlink:href="#ma8ab805768" x="66.376477" y="273.312" style="stroke: #000000; stroke-width: 0.8"/>
      </g>
     </g>
     <g id="text_1">
      <!-- 0.0 -->
      <g transform="translate(58.424915 287.910437)scale(0.1 -0.1)">
       <defs>
        <path id="DejaVuSans-30" d="M 2034 4250 
Q 1547 4250 1301 3770 
Q 1056 3291 1056 2328 
Q 1056 1369 1301 889 
Q 1547 409 2034 409 
Q 2525 409 2770 889 
Q 3016 1369 3016 2328 
Q 3016 3291 2770 3770 
Q 2525 4250 2034 4250 
z
M 2034 4750 
Q 2819 4750 3233 4129 
Q 3647 3509 3647 2328 
Q 3647 1150 3233 529 
Q 2819 -91 2034 -91 
Q 1250 -91 836 529 
Q 422 1150 422 2328 
Q 422 3509 836 4129 
Q 1250 4750 2034 4750 
z
" transform="scale(0.015625)"/>
        <path id="DejaVuSans-2e" d="M 684 794 
L 1344 794 
L 1344 0 
L 684 0 
L 684 794 
z
" transform="scale(0.015625)"/>
       </defs>
       <use xlink:href="#DejaVuSans-30"/>
       <use xlink:href="#DejaVuSans-2e" x="63.623047"/>
       <use xlink:href="#DejaVuSans-30" x="95.410156"/>
      </g>
     </g>
    </g>
    <g id="xtick_2">
     <g id="line2d_2">
      <g>
       <use xlink:href="#ma8ab805768" x="131.307386" y="273.312" style="stroke: #000000; stroke-width: 0.8"/>
      </g>
     </g>
     <g id="text_2">
      <!-- 0.2 -->
      <g transform="translate(123.355824 287.910437)scale(0.1 -0.1)">
       <defs>
        <path id="DejaVuSans-32" d="M 1228 531 
L 3431 531 
L 3431 0 
L 469 0 
L 469 531 
Q 828 903 1448 1529 
Q 2069 2156 2228 2338 
Q 2531 2678 2651 2914 
Q 2772 3150 2772 3378 
Q 2772 3750 2511 3984 
Q 2250 4219 1831 4219 
Q 1534 4219 1204 4116 
Q 875 4013 500 3803 
L 500 4441 
Q 881 4594 1212 4672 
Q 1544 4750 1819 4750 
Q 2544 4750 2975 4387 
Q 3406 4025 3406 3419 
Q 3406 3131 3298 2873 
Q 3191 2616 2906 2266 
Q 2828 2175 2409 1742 
Q 1991 1309 1228 531 
z
" transform="scale(0.015625)"/>
       </defs>
       <use xlink:href="#DejaVuSans-30"/>
       <use xlink:href="#DejaVuSans-2e" x="63.623047"/>
       <use xlink:href="#DejaVuSans-32" x="95.410156"/>
      </g>
     </g>
    </g>
    <g id="xtick_3">
     <g id="line2d_3">
      <g>
       <use xlink:href="#ma8ab805768" x="196.238295" y="273.312" style="stroke: #000000; stroke-width: 0.8"/>
      </g>
     </g>
     <g id="text_3">
      <!-- 0.4 -->
      <g transform="translate(188.286733 287.910437)scale(0.1 -0.1)">
       <defs>
        <path id="DejaVuSans-34" d="M 2419 4116 
L 825 1625 
L 2419 1625 
L 2419 4116 
z
M 2253 4666 
L 3047 4666 
L 3047 1625 
L 3713 1625 
L 3713 1100 
L 3047 1100 
L 3047 0 
L 2419 0 
L 2419 1100 
L 313 1100 
L 313 1709 
L 2253 4666 
z
" transform="scale(0.015625)"/>
       </defs>
       <use xlink:href="#DejaVuSans-30"/>
       <use xlink:href="#DejaVuSans-2e" x="63.623047"/>
       <use xlink:href="#DejaVuSans-34" x="95.410156"/>
      </g>
     </g>
    </g>
    <g id="xtick_4">
     <g id="line2d_4">
      <g>
       <use xlink:href="#ma8ab805768" x="261.169205" y="273.312" style="stroke: #000000; stroke-width: 0.8"/>
      </g>
     </g>
     <g id="text_4">
      <!-- 0.6 -->
      <g transform="translate(253.217642 287.910437)scale(0.1 -0.1)">
       <defs>
        <path id="DejaVuSans-36" d="M 2113 2584 
Q 1688 2584 1439 2293 
Q 1191 2003 1191 1497 
Q 1191 994 1439 701 
Q 1688 409 2113 409 
Q 2538 409 2786 701 
Q 3034 994 3034 1497 
Q 3034 2003 2786 2293 
Q 2538 2584 2113 2584 
z
M 3366 4563 
L 3366 3988 
Q 3128 4100 2886 4159 
Q 2644 4219 2406 4219 
Q 1781 4219 1451 3797 
Q 1122 3375 1075 2522 
Q 1259 2794 1537 2939 
Q 1816 3084 2150 3084 
Q 2853 3084 3261 2657 
Q 3669 2231 3669 1497 
Q 3669 778 3244 343 
Q 2819 -91 2113 -91 
Q 1303 -91 875 529 
Q 447 1150 447 2328 
Q 447 3434 972 4092 
Q 1497 4750 2381 4750 
Q 2619 4750 2861 4703 
Q 3103 4656 3366 4563 
z
" transform="scale(0.015625)"/>
       </defs>
       <use xlink:href="#DejaVuSans-30"/>
       <use xlink:href="#DejaVuSans-2e" x="63.623047"/>
       <use xlink:href="#DejaVuSans-36" x="95.410156"/>
      </g>
     </g>
    </g>
    <g id="xtick_5">
     <g id="line2d_5">
      <g>
       <use xlink:href="#ma8ab805768" x="326.100114" y="273.312" style="stroke: #000000; stroke-width: 0.8"/>
      </g>
     </g>
     <g id="text_5">
      <!-- 0.8 -->
      <g transform="translate(318.148551 287.910437)scale(0.1 -0.1)">
       <defs>
        <path id="DejaVuSans-38" d="M 2034 2216 
Q 1584 2216 1326 1975 
Q 1069 1734 1069 1313 
Q 1069 891 1326 650 
Q 1584 409 2034 409 
Q 2484 409 2743 651 
Q 3003 894 3003 1313 
Q 3003 1734 2745 1975 
Q 2488 2216 2034 2216 
z
M 1403 2484 
Q 997 2584 770 2862 
Q 544 3141 544 3541 
Q 544 4100 942 4425 
Q 1341 4750 2034 4750 
Q 2731 4750 3128 4425 
Q 3525 4100 3525 3541 
Q 3525 3141 3298 2862 
Q 3072 2584 2669 2484 
Q 3125 2378 3379 2068 
Q 3634 1759 3634 1313 
Q 3634 634 3220 271 
Q 2806 -91 2034 -91 
Q 1263 -91 848 271 
Q 434 634 434 1313 
Q 434 1759 690 2068 
Q 947 2378 1403 2484 
z
M 1172 3481 
Q 1172 3119 1398 2916 
Q 1625 2713 2034 2713 
Q 2441 2713 2670 2916 
Q 2900 3119 2900 3481 
Q 2900 3844 2670 4047 
Q 2441 4250 2034 4250 
Q 1625 4250 1398 4047 
Q 1172 3844 1172 3481 
z
" transform="scale(0.015625)"/>
       </defs>
       <use xlink:href="#DejaVuSans-30"/>
       <use xlink:href="#DejaVuSans-2e" x="63.623047"/>
       <use xlink:href="#DejaVuSans-38" x="95.410156"/>
      </g>
     </g>
    </g>
    <g id="xtick_6">
     <g id="line2d_6">
      <g>
       <use xlink:href="#ma8ab805768" x="391.031023" y="273.312" style="stroke: #000000; stroke-width: 0.8"/>
      </g>
     </g>
     <g id="text_6">
      <!-- 1.0 -->
      <g transform="translate(383.07946 287.910437)scale(0.1 -0.1)">
       <defs>
        <path id="DejaVuSans-31" d="M 794 531 
L 1825 531 
L 1825 4091 
L 703 3866 
L 703 4441 
L 1819 4666 
L 2450 4666 
L 2450 531 
L 3481 531 
L 3481 0 
L 794 0 
L 794 531 
z
" transform="scale(0.015625)"/>
       </defs>
       <use xlink:href="#DejaVuSans-31"/>
       <use xlink:href="#DejaVuSans-2e" x="63.623047"/>
       <use xlink:href="#DejaVuSans-30" x="95.410156"/>
      </g>
     </g>
    </g>
    <g id="text_7">
     <!-- Propagation direction -->
     <g transform="translate(175.221719 301.588562)scale(0.1 -0.1)">
      <defs>
       <path id="DejaVuSans-50" d="M 1259 4147 
L 1259 2394 
L 2053 2394 
Q 2494 2394 2734 2622 
Q 2975 2850 2975 3272 
Q 2975 3691 2734 3919 
Q 2494 4147 2053 4147 
L 1259 4147 
z
M 628 4666 
L 2053 4666 
Q 2838 4666 3239 4311 
Q 3641 3956 3641 3272 
Q 3641 2581 3239 2228 
Q 2838 1875 2053 1875 
L 1259 1875 
L 1259 0 
L 628 0 
L 628 4666 
z
" transform="scale(0.015625)"/>
       <path id="DejaVuSans-72" d="M 2631 2963 
Q 2534 3019 2420 3045 
Q 2306 3072 2169 3072 
Q 1681 3072 1420 2755 
Q 1159 2438 1159 1844 
L 1159 0 
L 581 0 
L 581 3500 
L 1159 3500 
L 1159 2956 
Q 1341 3275 1631 3429 
Q 1922 3584 2338 3584 
Q 2397 3584 2469 3576 
Q 2541 3569 2628 3553 
L 2631 2963 
z
" transform="scale(0.015625)"/>
       <path id="DejaVuSans-6f" d="M 1959 3097 
Q 1497 3097 1228 2736 
Q 959 2375 959 1747 
Q 959 1119 1226 758 
Q 1494 397 1959 397 
Q 2419 397 2687 759 
Q 2956 1122 2956 1747 
Q 2956 2369 2687 2733 
Q 2419 3097 1959 3097 
z
M 1959 3584 
Q 2709 3584 3137 3096 
Q 3566 2609 3566 1747 
Q 3566 888 3137 398 
Q 2709 -91 1959 -91 
Q 1206 -91 779 398 
Q 353 888 353 1747 
Q 353 2609 779 3096 
Q 1206 3584 1959 3584 
z
" transform="scale(0.015625)"/>
       <path id="DejaVuSans-70" d="M 1159 525 
L 1159 -1331 
L 581 -1331 
L 581 3500 
L 1159 3500 
L 1159 2969 
Q 1341 3281 1617 3432 
Q 1894 3584 2278 3584 
Q 2916 3584 3314 3078 
Q 3713 2572 3713 1747 
Q 3713 922 3314 415 
Q 2916 -91 2278 -91 
Q 1894 -91 1617 61 
Q 1341 213 1159 525 
z
M 3116 1747 
Q 3116 2381 2855 2742 
Q 2594 3103 2138 3103 
Q 1681 3103 1420 2742 
Q 1159 2381 1159 1747 
Q 1159 1113 1420 752 
Q 1681 391 2138 391 
Q 2594 391 2855 752 
Q 3116 1113 3116 1747 
z
" transform="scale(0.015625)"/>
       <path id="DejaVuSans-61" d="M 2194 1759 
Q 1497 1759 1228 1600 
Q 959 1441 959 1056 
Q 959 750 1161 570 
Q 1363 391 1709 391 
Q 2188 391 2477 730 
Q 2766 1069 2766 1631 
L 2766 1759 
L 2194 1759 
z
M 3341 1997 
L 3341 0 
L 2766 0 
L 2766 531 
Q 2569 213 2275 61 
Q 1981 -91 1556 -91 
Q 1019 -91 701 211 
Q 384 513 384 1019 
Q 384 1609 779 1909 
Q 1175 2209 1959 2209 
L 2766 2209 
L 2766 2266 
Q 2766 2663 2505 2880 
Q 2244 3097 1772 3097 
Q 1472 3097 1187 3025 
Q 903 2953 641 2809 
L 641 3341 
Q 956 3463 1253 3523 
Q 1550 3584 1831 3584 
Q 2591 3584 2966 3190 
Q 3341 2797 3341 1997 
z
" transform="scale(0.015625)"/>
       <path id="DejaVuSans-67" d="M 2906 1791 
Q 2906 2416 2648 2759 
Q 2391 3103 1925 3103 
Q 1463 3103 1205 2759 
Q 947 2416 947 1791 
Q 947 1169 1205 825 
Q 1463 481 1925 481 
Q 2391 481 2648 825 
Q 2906 1169 2906 1791 
z
M 3481 434 
Q 3481 -459 3084 -895 
Q 2688 -1331 1869 -1331 
Q 1566 -1331 1297 -1286 
Q 1028 -1241 775 -1147 
L 775 -588 
Q 1028 -725 1275 -790 
Q 1522 -856 1778 -856 
Q 2344 -856 2625 -561 
Q 2906 -266 2906 331 
L 2906 616 
Q 2728 306 2450 153 
Q 2172 0 1784 0 
Q 1141 0 747 490 
Q 353 981 353 1791 
Q 353 2603 747 3093 
Q 1141 3584 1784 3584 
Q 2172 3584 2450 3431 
Q 2728 3278 2906 2969 
L 2906 3500 
L 3481 3500 
L 3481 434 
z
" transform="scale(0.015625)"/>
       <path id="DejaVuSans-74" d="M 1172 4494 
L 1172 3500 
L 2356 3500 
L 2356 3053 
L 1172 3053 
L 1172 1153 
Q 1172 725 1289 603 
Q 1406 481 1766 481 
L 2356 481 
L 2356 0 
L 1766 0 
Q 1100 0 847 248 
Q 594 497 594 1153 
L 594 3053 
L 172 3053 
L 172 3500 
L 594 3500 
L 594 4494 
L 1172 4494 
z
" transform="scale(0.015625)"/>
       <path id="DejaVuSans-69" d="M 603 3500 
L 1178 3500 
L 1178 0 
L 603 0 
L 603 3500 
z
M 603 4863 
L 1178 4863 
L 1178 4134 
L 603 4134 
L 603 4863 
z
" transform="scale(0.015625)"/>
       <path id="DejaVuSans-6e" d="M 3513 2113 
L 3513 0 
L 2938 0 
L 2938 2094 
Q 2938 2591 2744 2837 
Q 2550 3084 2163 3084 
Q 1697 3084 1428 2787 
Q 1159 2491 1159 1978 
L 1159 0 
L 581 0 
L 581 3500 
L 1159 3500 
L 1159 2956 
Q 1366 3272 1645 3428 
Q 1925 3584 2291 3584 
Q 2894 3584 3203 3211 
Q 3513 2838 3513 2113 
z
" transform="scale(0.015625)"/>
       <path id="DejaVuSans-20" transform="scale(0.015625)"/>
       <path id="DejaVuSans-64" d="M 2906 2969 
L 2906 4863 
L 3481 4863 
L 3481 0 
L 2906 0 
L 2906 525 
Q 2725 213 2448 61 
Q 2172 -91 1784 -91 
Q 1150 -91 751 415 
Q 353 922 353 1747 
Q 353 2572 751 3078 
Q 1150 3584 1784 3584 
Q 2172 3584 2448 3432 
Q 2725 3281 2906 2969 
z
M 947 1747 
Q 947 1113 1208 752 
Q 1469 391 1925 391 
Q 2381 391 2643 752 
Q 2906 1113 2906 1747 
Q 2906 2381 2643 2742 
Q 2381 3103 1925 3103 
Q 1469 3103 1208 2742 
Q 947 2381 947 1747 
z
" transform="scale(0.015625)"/>
       <path id="DejaVuSans-65" d="M 3597 1894 
L 3597 1613 
L 953 1613 
Q 991 1019 1311 708 
Q 1631 397 2203 397 
Q 2534 397 2845 478 
Q 3156 559 3463 722 
L 3463 178 
Q 3153 47 2828 -22 
Q 2503 -91 2169 -91 
Q 1331 -91 842 396 
Q 353 884 353 1716 
Q 353 2575 817 3079 
Q 1281 3584 2069 3584 
Q 2775 3584 3186 3129 
Q 3597 2675 3597 1894 
z
M 3022 2063 
Q 3016 2534 2758 2815 
Q 2500 3097 2075 3097 
Q 1594 3097 1305 2825 
Q 1016 2553 972 2059 
L 3022 2063 
z
" transform="scale(0.015625)"/>
       <path id="DejaVuSans-63" d="M 3122 3366 
L 3122 2828 
Q 2878 2963 2633 3030 
Q 2388 3097 2138 3097 
Q 1578 3097 1268 2742 
Q 959 2388 959 1747 
Q 959 1106 1268 751 
Q 1578 397 2138 397 
Q 2388 397 2633 464 
Q 2878 531 3122 666 
L 3122 134 
Q 2881 22 2623 -34 
Q 2366 -91 2075 -91 
Q 1284 -91 818 406 
Q 353 903 353 1747 
Q 353 2603 823 3093 
Q 1294 3584 2113 3584 
Q 2378 3584 2631 3529 
Q 2884 3475 3122 3366 
z
" transform="scale(0.015625)"/>
      </defs>
      <use xlink:href="#DejaVuSans-50"/>
      <use xlink:href="#DejaVuSans-72" x="58.552734"/>
      <use xlink:href="#DejaVuSans-6f" x="97.416016"/>
      <use xlink:href="#DejaVuSans-70" x="158.597656"/>
      <use xlink:href="#DejaVuSans-61" x="222.074219"/>
      <use xlink:href="#DejaVuSans-67" x="283.353516"/>
      <use xlink:href="#DejaVuSans-61" x="346.830078"/>
      <use xlink:href="#DejaVuSans-74" x="408.109375"/>
      <use xlink:href="#DejaVuSans-69" x="447.318359"/>
      <use xlink:href="#DejaVuSans-6f" x="475.101562"/>
      <use xlink:href="#DejaVuSans-6e" x="536.283203"/>
      <use xlink:href="#DejaVuSans-20" x="599.662109"/>
      <use xlink:href="#DejaVuSans-64" x="631.449219"/>
      <use xlink:href="#DejaVuSans-69" x="694.925781"/>
      <use xlink:href="#DejaVuSans-72" x="722.708984"/>
      <use xlink:href="#DejaVuSans-65" x="761.572266"/>
      <use xlink:href="#DejaVuSans-63" x="823.095703"/>
      <use xlink:href="#DejaVuSans-74" x="878.076172"/>
      <use xlink:href="#DejaVuSans-69" x="917.285156"/>
      <use xlink:href="#DejaVuSans-6f" x="945.068359"/>
      <use xlink:href="#DejaVuSans-6e" x="1006.25"/>
     </g>
    </g>
   </g>
   <g id="matplotlib.axis_2">
    <g id="ytick_1">
     <g id="line2d_7">
      <defs>
       <path id="mc66df3e444" d="M 0 0 
L -3.5 0 
" style="stroke: #000000; stroke-width: 0.8"/>
      </defs>
      <g>
       <use xlink:href="#mc66df3e444" x="50.14375" y="273.312" style="stroke: #000000; stroke-width: 0.8"/>
      </g>
     </g>
     <g id="text_8">
      <!-- 0.00 -->
      <g transform="translate(20.878125 277.111219)scale(0.1 -0.1)">
       <use xlink:href="#DejaVuSans-30"/>
       <use xlink:href="#DejaVuSans-2e" x="63.623047"/>
       <use xlink:href="#DejaVuSans-30" x="95.410156"/>
       <use xlink:href="#DejaVuSans-30" x="159.033203"/>
      </g>
     </g>
    </g>
    <g id="ytick_2">
     <g id="line2d_8">
      <g>
       <use xlink:href="#mc66df3e444" x="50.14375" y="242.46793" style="stroke: #000000; stroke-width: 0.8"/>
      </g>
     </g>
     <g id="text_9">
      <!-- 0.25 -->
      <g transform="translate(20.878125 246.267149)scale(0.1 -0.1)">
       <defs>
        <path id="DejaVuSans-35" d="M 691 4666 
L 3169 4666 
L 3169 4134 
L 1269 4134 
L 1269 2991 
Q 1406 3038 1543 3061 
Q 1681 3084 1819 3084 
Q 2600 3084 3056 2656 
Q 3513 2228 3513 1497 
Q 3513 744 3044 326 
Q 2575 -91 1722 -91 
Q 1428 -91 1123 -41 
Q 819 9 494 109 
L 494 744 
Q 775 591 1075 516 
Q 1375 441 1709 441 
Q 2250 441 2565 725 
Q 2881 1009 2881 1497 
Q 2881 1984 2565 2268 
Q 2250 2553 1709 2553 
Q 1456 2553 1204 2497 
Q 953 2441 691 2322 
L 691 4666 
z
" transform="scale(0.015625)"/>
       </defs>
       <use xlink:href="#DejaVuSans-30"/>
       <use xlink:href="#DejaVuSans-2e" x="63.623047"/>
       <use xlink:href="#DejaVuSans-32" x="95.410156"/>
       <use xlink:href="#DejaVuSans-35" x="159.033203"/>
      </g>
     </g>
    </g>
    <g id="ytick_3">
     <g id="line2d_9">
      <g>
       <use xlink:href="#mc66df3e444" x="50.14375" y="211.623861" style="stroke: #000000; stroke-width: 0.8"/>
      </g>
     </g>
     <g id="text_10">
      <!-- 0.50 -->
      <g transform="translate(20.878125 215.423079)scale(0.1 -0.1)">
       <use xlink:href="#DejaVuSans-30"/>
       <use xlink:href="#DejaVuSans-2e" x="63.623047"/>
       <use xlink:href="#DejaVuSans-35" x="95.410156"/>
       <use xlink:href="#DejaVuSans-30" x="159.033203"/>
      </g>
     </g>
    </g>
    <g id="ytick_4">
     <g id="line2d_10">
      <g>
       <use xlink:href="#mc66df3e444" x="50.14375" y="180.779791" style="stroke: #000000; stroke-width: 0.8"/>
      </g>
     </g>
     <g id="text_11">
      <!-- 0.75 -->
      <g transform="translate(20.878125 184.57901)scale(0.1 -0.1)">
       <defs>
        <path id="DejaVuSans-37" d="M 525 4666 
L 3525 4666 
L 3525 4397 
L 1831 0 
L 1172 0 
L 2766 4134 
L 525 4134 
L 525 4666 
z
" transform="scale(0.015625)"/>
       </defs>
       <use xlink:href="#DejaVuSans-30"/>
       <use xlink:href="#DejaVuSans-2e" x="63.623047"/>
       <use xlink:href="#DejaVuSans-37" x="95.410156"/>
       <use xlink:href="#DejaVuSans-35" x="159.033203"/>
      </g>
     </g>
    </g>
    <g id="ytick_5">
     <g id="line2d_11">
      <g>
       <use xlink:href="#mc66df3e444" x="50.14375" y="149.935721" style="stroke: #000000; stroke-width: 0.8"/>
      </g>
     </g>
     <g id="text_12">
      <!-- 1.00 -->
      <g transform="translate(20.878125 153.73494)scale(0.1 -0.1)">
       <use xlink:href="#DejaVuSans-31"/>
       <use xlink:href="#DejaVuSans-2e" x="63.623047"/>
       <use xlink:href="#DejaVuSans-30" x="95.410156"/>
       <use xlink:href="#DejaVuSans-30" x="159.033203"/>
      </g>
     </g>
    </g>
    <g id="ytick_6">
     <g id="line2d_12">
      <g>
       <use xlink:href="#mc66df3e444" x="50.14375" y="119.091651" style="stroke: #000000; stroke-width: 0.8"/>
      </g>
     </g>
     <g id="text_13">
      <!-- 1.25 -->
      <g transform="translate(20.878125 122.89087)scale(0.1 -0.1)">
       <use xlink:href="#DejaVuSans-31"/>
       <use xlink:href="#DejaVuSans-2e" x="63.623047"/>
       <use xlink:href="#DejaVuSans-32" x="95.410156"/>
       <use xlink:href="#DejaVuSans-35" x="159.033203"/>
      </g>
     </g>
    </g>
    <g id="ytick_7">
     <g id="line2d_13">
      <g>
       <use xlink:href="#mc66df3e444" x="50.14375" y="88.247582" style="stroke: #000000; stroke-width: 0.8"/>
      </g>
     </g>
     <g id="text_14">
      <!-- 1.50 -->
      <g transform="translate(20.878125 92.0468)scale(0.1 -0.1)">
       <use xlink:href="#DejaVuSans-31"/>
       <use xlink:href="#DejaVuSans-2e" x="63.623047"/>
       <use xlink:href="#DejaVuSans-35" x="95.410156"/>
       <use xlink:href="#DejaVuSans-30" x="159.033203"/>
      </g>
     </g>
    </g>
    <g id="ytick_8">
     <g id="line2d_14">
      <g>
       <use xlink:href="#mc66df3e444" x="50.14375" y="57.403512" style="stroke: #000000; stroke-width: 0.8"/>
      </g>
     </g>
     <g id="text_15">
      <!-- 1.75 -->
      <g transform="translate(20.878125 61.202731)scale(0.1 -0.1)">
       <use xlink:href="#DejaVuSans-31"/>
       <use xlink:href="#DejaVuSans-2e" x="63.623047"/>
       <use xlink:href="#DejaVuSans-37" x="95.410156"/>
       <use xlink:href="#DejaVuSans-35" x="159.033203"/>
      </g>
     </g>
    </g>
    <g id="ytick_9">
     <g id="line2d_15">
      <g>
       <use xlink:href="#mc66df3e444" x="50.14375" y="26.559442" style="stroke: #000000; stroke-width: 0.8"/>
      </g>
     </g>
     <g id="text_16">
      <!-- 2.00 -->
      <g transform="translate(20.878125 30.358661)scale(0.1 -0.1)">
       <use xlink:href="#DejaVuSans-32"/>
       <use xlink:href="#DejaVuSans-2e" x="63.623047"/>
       <use xlink:href="#DejaVuSans-30" x="95.410156"/>
       <use xlink:href="#DejaVuSans-30" x="159.033203"/>
      </g>
     </g>
    </g>
    <g id="text_17">
     <!-- Probability density -->
     <g transform="translate(14.798438 186.606781)rotate(-90)scale(0.1 -0.1)">
      <defs>
       <path id="DejaVuSans-62" d="M 3116 1747 
Q 3116 2381 2855 2742 
Q 2594 3103 2138 3103 
Q 1681 3103 1420 2742 
Q 1159 2381 1159 1747 
Q 1159 1113 1420 752 
Q 1681 391 2138 391 
Q 2594 391 2855 752 
Q 3116 1113 3116 1747 
z
M 1159 2969 
Q 1341 3281 1617 3432 
Q 1894 3584 2278 3584 
Q 2916 3584 3314 3078 
Q 3713 2572 3713 1747 
Q 3713 922 3314 415 
Q 2916 -91 2278 -91 
Q 1894 -91 1617 61 
Q 1341 213 1159 525 
L 1159 0 
L 581 0 
L 581 4863 
L 1159 4863 
L 1159 2969 
z
" transform="scale(0.015625)"/>
       <path id="DejaVuSans-6c" d="M 603 4863 
L 1178 4863 
L 1178 0 
L 603 0 
L 603 4863 
z
" transform="scale(0.015625)"/>
       <path id="DejaVuSans-79" d="M 2059 -325 
Q 1816 -950 1584 -1140 
Q 1353 -1331 966 -1331 
L 506 -1331 
L 506 -850 
L 844 -850 
Q 1081 -850 1212 -737 
Q 1344 -625 1503 -206 
L 1606 56 
L 191 3500 
L 800 3500 
L 1894 763 
L 2988 3500 
L 3597 3500 
L 2059 -325 
z
" transform="scale(0.015625)"/>
       <path id="DejaVuSans-73" d="M 2834 3397 
L 2834 2853 
Q 2591 2978 2328 3040 
Q 2066 3103 1784 3103 
Q 1356 3103 1142 2972 
Q 928 2841 928 2578 
Q 928 2378 1081 2264 
Q 1234 2150 1697 2047 
L 1894 2003 
Q 2506 1872 2764 1633 
Q 3022 1394 3022 966 
Q 3022 478 2636 193 
Q 2250 -91 1575 -91 
Q 1294 -91 989 -36 
Q 684 19 347 128 
L 347 722 
Q 666 556 975 473 
Q 1284 391 1588 391 
Q 1994 391 2212 530 
Q 2431 669 2431 922 
Q 2431 1156 2273 1281 
Q 2116 1406 1581 1522 
L 1381 1569 
Q 847 1681 609 1914 
Q 372 2147 372 2553 
Q 372 3047 722 3315 
Q 1072 3584 1716 3584 
Q 2034 3584 2315 3537 
Q 2597 3491 2834 3397 
z
" transform="scale(0.015625)"/>
      </defs>
      <use xlink:href="#DejaVuSans-50"/>
      <use xlink:href="#DejaVuSans-72" x="58.552734"/>
      <use xlink:href="#DejaVuSans-6f" x="97.416016"/>
      <use xlink:href="#DejaVuSans-62" x="158.597656"/>
      <use xlink:href="#DejaVuSans-61" x="222.074219"/>
      <use xlink:href="#DejaVuSans-62" x="283.353516"/>
      <use xlink:href="#DejaVuSans-69" x="346.830078"/>
      <use xlink:href="#DejaVuSans-6c" x="374.613281"/>
      <use xlink:href="#DejaVuSans-69" x="402.396484"/>
      <use xlink:href="#DejaVuSans-74" x="430.179688"/>
      <use xlink:href="#DejaVuSans-79" x="469.388672"/>
      <use xlink:href="#DejaVuSans-20" x="528.568359"/>
      <use xlink:href="#DejaVuSans-64" x="560.355469"/>
      <use xlink:href="#DejaVuSans-65" x="623.832031"/>
      <use xlink:href="#DejaVuSans-6e" x="685.355469"/>
      <use xlink:href="#DejaVuSans-73" x="748.734375"/>
      <use xlink:href="#DejaVuSans-69" x="800.833984"/>
      <use xlink:href="#DejaVuSans-74" x="828.617188"/>
      <use xlink:href="#DejaVuSans-79" x="867.826172"/>
     </g>
    </g>
   </g>
   <g id="line2d_16">
    <path d="M 66.376477 273.312 
L 391.031023 26.559442 
L 391.031023 26.559442 
" clip-path="url(#pbe03d1bc9d)" style="fill: none; stroke: #ff7f0e; stroke-width: 1.5; stroke-linecap: square"/>
   </g>
   <g id="patch_203">
    <path d="M 50.14375 273.312 
L 50.14375 7.2 
" style="fill: none; stroke: #000000; stroke-width: 0.8; stroke-linejoin: miter; stroke-linecap: square"/>
   </g>
   <g id="patch_204">
    <path d="M 407.26375 273.312 
L 407.26375 7.2 
" style="fill: none; stroke: #000000; stroke-width: 0.8; stroke-linejoin: miter; stroke-linecap: square"/>
   </g>
   <g id="patch_205">
    <path d="M 50.14375 273.312 
L 407.26375 273.312 
" style="fill: none; stroke: #000000; stroke-width: 0.8; stroke-linejoin: miter; stroke-linecap: square"/>
   </g>
   <g id="patch_206">
    <path d="M 50.14375 7.2 
L 407.26375 7.2 
" style="fill: none; stroke: #000000; stroke-width: 0.8; stroke-linejoin: miter; stroke-linecap: square"/>
   </g>
  </g>
 </g>
 <defs>
  <clipPath id="pbe03d1bc9d">
   <rect x="50.14375" y="7.2" width="357.12" height="266.112"/>
  </clipPath>
 </defs>
</svg>
