<?xml version="1.0" encoding="utf-8" standalone="no"?>
<!DOCTYPE svg PUBLIC "-//W3C//DTD SVG 1.1//EN"
  "http://www.w3.org/Graphics/SVG/1.1/DTD/svg11.dtd">
<svg xmlns:xlink="http://www.w3.org/1999/xlink" width="408.10125pt" height="310.86825pt" viewBox="0 0 408.10125 310.86825" xmlns="http://www.w3.org/2000/svg" version="1.1">
 <metadata>
  <rdf:RDF xmlns:dc="http://purl.org/dc/elements/1.1/" xmlns:cc="http://creativecommons.org/ns#" xmlns:rdf="http://www.w3.org/1999/02/22-rdf-syntax-ns#">
   <cc:Work>
    <dc:type rdf:resource="http://purl.org/dc/dcmitype/StillImage"/>
    <dc:date>2022-03-31T08:41:16.100685</dc:date>
    <dc:format>image/svg+xml</dc:format>
    <dc:creator>
     <cc:Agent>
      <dc:title>Matplotlib v3.5.1, https://matplotlib.org/</dc:title>
     </cc:Agent>
    </dc:creator>
   </cc:Work>
  </rdf:RDF>
 </metadata>
 <defs>
  <style type="text/css">*{stroke-linejoin: round; stroke-linecap: butt}</style>
 </defs>
 <g id="figure_1">
  <g id="patch_1">
   <path d="M 0 310.86825 
L 408.10125 310.86825 
L 408.10125 0 
L 0 0 
z
" style="fill: #ffffff"/>
  </g>
  <g id="axes_1">
   <g id="patch_2">
    <path d="M 43.78125 273.312 
L 400.90125 273.312 
L 400.90125 7.2 
L 43.78125 7.2 
z
" style="fill: #ffffff"/>
   </g>
   <g id="patch_3">
    <path d="M 60.533653 273.312 
L 62.152216 273.312 
L 62.152216 269.595871 
L 60.533653 269.595871 
z
" clip-path="url(#pa98f942df1)" style="fill: #1f77b4"/>
   </g>
   <g id="patch_4">
    <path d="M 62.152216 273.312 
L 63.770779 273.312 
L 63.770779 265.879742 
L 62.152216 265.879742 
z
" clip-path="url(#pa98f942df1)" style="fill: #1f77b4"/>
   </g>
   <g id="patch_5">
    <path d="M 63.770779 273.312 
L 65.389342 273.312 
L 65.389342 263.650065 
L 63.770779 263.650065 
z
" clip-path="url(#pa98f942df1)" style="fill: #1f77b4"/>
   </g>
   <g id="patch_6">
    <path d="M 65.389342 273.312 
L 67.007905 273.312 
L 67.007905 256.961032 
L 65.389342 256.961032 
z
" clip-path="url(#pa98f942df1)" style="fill: #1f77b4"/>
   </g>
   <g id="patch_7">
    <path d="M 67.007905 273.312 
L 68.626467 273.312 
L 68.626467 260.677161 
L 67.007905 260.677161 
z
" clip-path="url(#pa98f942df1)" style="fill: #1f77b4"/>
   </g>
   <g id="patch_8">
    <path d="M 68.626467 273.312 
L 70.24503 273.312 
L 70.24503 251.015226 
L 68.626467 251.015226 
z
" clip-path="url(#pa98f942df1)" style="fill: #1f77b4"/>
   </g>
   <g id="patch_9">
    <path d="M 70.24503 273.312 
L 71.863593 273.312 
L 71.863593 239.866839 
L 70.24503 239.866839 
z
" clip-path="url(#pa98f942df1)" style="fill: #1f77b4"/>
   </g>
   <g id="patch_10">
    <path d="M 71.863593 273.312 
L 73.482156 273.312 
L 73.482156 249.528774 
L 71.863593 249.528774 
z
" clip-path="url(#pa98f942df1)" style="fill: #1f77b4"/>
   </g>
   <g id="patch_11">
    <path d="M 73.482156 273.312 
L 75.100719 273.312 
L 75.100719 245.069419 
L 73.482156 245.069419 
z
" clip-path="url(#pa98f942df1)" style="fill: #1f77b4"/>
   </g>
   <g id="patch_12">
    <path d="M 75.100719 273.312 
L 76.719282 273.312 
L 76.719282 244.326194 
L 75.100719 244.326194 
z
" clip-path="url(#pa98f942df1)" style="fill: #1f77b4"/>
   </g>
   <g id="patch_13">
    <path d="M 76.719282 273.312 
L 78.337845 273.312 
L 78.337845 241.35329 
L 76.719282 241.35329 
z
" clip-path="url(#pa98f942df1)" style="fill: #1f77b4"/>
   </g>
   <g id="patch_14">
    <path d="M 78.337845 273.312 
L 79.956408 273.312 
L 79.956408 236.893935 
L 78.337845 236.893935 
z
" clip-path="url(#pa98f942df1)" style="fill: #1f77b4"/>
   </g>
   <g id="patch_15">
    <path d="M 79.956408 273.312 
L 81.574971 273.312 
L 81.574971 227.232 
L 79.956408 227.232 
z
" clip-path="url(#pa98f942df1)" style="fill: #1f77b4"/>
   </g>
   <g id="patch_16">
    <path d="M 81.574971 273.312 
L 83.193534 273.312 
L 83.193534 226.488774 
L 81.574971 226.488774 
z
" clip-path="url(#pa98f942df1)" style="fill: #1f77b4"/>
   </g>
   <g id="patch_17">
    <path d="M 83.193534 273.312 
L 84.812096 273.312 
L 84.812096 216.826839 
L 83.193534 216.826839 
z
" clip-path="url(#pa98f942df1)" style="fill: #1f77b4"/>
   </g>
   <g id="patch_18">
    <path d="M 84.812096 273.312 
L 86.430659 273.312 
L 86.430659 219.799742 
L 84.812096 219.799742 
z
" clip-path="url(#pa98f942df1)" style="fill: #1f77b4"/>
   </g>
   <g id="patch_19">
    <path d="M 86.430659 273.312 
L 88.049222 273.312 
L 88.049222 217.570065 
L 86.430659 217.570065 
z
" clip-path="url(#pa98f942df1)" style="fill: #1f77b4"/>
   </g>
   <g id="patch_20">
    <path d="M 88.049222 273.312 
L 89.667785 273.312 
L 89.667785 203.448774 
L 88.049222 203.448774 
z
" clip-path="url(#pa98f942df1)" style="fill: #1f77b4"/>
   </g>
   <g id="patch_21">
    <path d="M 89.667785 273.312 
L 91.286348 273.312 
L 91.286348 210.881032 
L 89.667785 210.881032 
z
" clip-path="url(#pa98f942df1)" style="fill: #1f77b4"/>
   </g>
   <g id="patch_22">
    <path d="M 91.286348 273.312 
L 92.904911 273.312 
L 92.904911 211.624258 
L 91.286348 211.624258 
z
" clip-path="url(#pa98f942df1)" style="fill: #1f77b4"/>
   </g>
   <g id="patch_23">
    <path d="M 92.904911 273.312 
L 94.523474 273.312 
L 94.523474 206.421677 
L 92.904911 206.421677 
z
" clip-path="url(#pa98f942df1)" style="fill: #1f77b4"/>
   </g>
   <g id="patch_24">
    <path d="M 94.523474 273.312 
L 96.142037 273.312 
L 96.142037 193.043613 
L 94.523474 193.043613 
z
" clip-path="url(#pa98f942df1)" style="fill: #1f77b4"/>
   </g>
   <g id="patch_25">
    <path d="M 96.142037 273.312 
L 97.7606 273.312 
L 97.7606 199.732645 
L 96.142037 199.732645 
z
" clip-path="url(#pa98f942df1)" style="fill: #1f77b4"/>
   </g>
   <g id="patch_26">
    <path d="M 97.7606 273.312 
L 99.379162 273.312 
L 99.379162 194.530065 
L 97.7606 194.530065 
z
" clip-path="url(#pa98f942df1)" style="fill: #1f77b4"/>
   </g>
   <g id="patch_27">
    <path d="M 99.379162 273.312 
L 100.997725 273.312 
L 100.997725 184.868129 
L 99.379162 184.868129 
z
" clip-path="url(#pa98f942df1)" style="fill: #1f77b4"/>
   </g>
   <g id="patch_28">
    <path d="M 100.997725 273.312 
L 102.616288 273.312 
L 102.616288 181.895226 
L 100.997725 181.895226 
z
" clip-path="url(#pa98f942df1)" style="fill: #1f77b4"/>
   </g>
   <g id="patch_29">
    <path d="M 102.616288 273.312 
L 104.234851 273.312 
L 104.234851 192.300387 
L 102.616288 192.300387 
z
" clip-path="url(#pa98f942df1)" style="fill: #1f77b4"/>
   </g>
   <g id="patch_30">
    <path d="M 104.234851 273.312 
L 105.853414 273.312 
L 105.853414 164.801032 
L 104.234851 164.801032 
z
" clip-path="url(#pa98f942df1)" style="fill: #1f77b4"/>
   </g>
   <g id="patch_31">
    <path d="M 105.853414 273.312 
L 107.471977 273.312 
L 107.471977 184.868129 
L 105.853414 184.868129 
z
" clip-path="url(#pa98f942df1)" style="fill: #1f77b4"/>
   </g>
   <g id="patch_32">
    <path d="M 107.471977 273.312 
L 109.09054 273.312 
L 109.09054 165.544258 
L 107.471977 165.544258 
z
" clip-path="url(#pa98f942df1)" style="fill: #1f77b4"/>
   </g>
   <g id="patch_33">
    <path d="M 109.09054 273.312 
L 110.709103 273.312 
L 110.709103 174.462968 
L 109.09054 174.462968 
z
" clip-path="url(#pa98f942df1)" style="fill: #1f77b4"/>
   </g>
   <g id="patch_34">
    <path d="M 110.709103 273.312 
L 112.327666 273.312 
L 112.327666 169.260387 
L 110.709103 169.260387 
z
" clip-path="url(#pa98f942df1)" style="fill: #1f77b4"/>
   </g>
   <g id="patch_35">
    <path d="M 112.327666 273.312 
L 113.946229 273.312 
L 113.946229 152.166194 
L 112.327666 152.166194 
z
" clip-path="url(#pa98f942df1)" style="fill: #1f77b4"/>
   </g>
   <g id="patch_36">
    <path d="M 113.946229 273.312 
L 115.564791 273.312 
L 115.564791 149.936516 
L 113.946229 149.936516 
z
" clip-path="url(#pa98f942df1)" style="fill: #1f77b4"/>
   </g>
   <g id="patch_37">
    <path d="M 115.564791 273.312 
L 117.183354 273.312 
L 117.183354 152.909419 
L 115.564791 152.909419 
z
" clip-path="url(#pa98f942df1)" style="fill: #1f77b4"/>
   </g>
   <g id="patch_38">
    <path d="M 117.183354 273.312 
L 118.801917 273.312 
L 118.801917 152.166194 
L 117.183354 152.166194 
z
" clip-path="url(#pa98f942df1)" style="fill: #1f77b4"/>
   </g>
   <g id="patch_39">
    <path d="M 118.801917 273.312 
L 120.42048 273.312 
L 120.42048 143.99071 
L 118.801917 143.99071 
z
" clip-path="url(#pa98f942df1)" style="fill: #1f77b4"/>
   </g>
   <g id="patch_40">
    <path d="M 120.42048 273.312 
L 122.039043 273.312 
L 122.039043 164.057806 
L 120.42048 164.057806 
z
" clip-path="url(#pa98f942df1)" style="fill: #1f77b4"/>
   </g>
   <g id="patch_41">
    <path d="M 122.039043 273.312 
L 123.657606 273.312 
L 123.657606 146.963613 
L 122.039043 146.963613 
z
" clip-path="url(#pa98f942df1)" style="fill: #1f77b4"/>
   </g>
   <g id="patch_42">
    <path d="M 123.657606 273.312 
L 125.276169 273.312 
L 125.276169 132.099097 
L 123.657606 132.099097 
z
" clip-path="url(#pa98f942df1)" style="fill: #1f77b4"/>
   </g>
   <g id="patch_43">
    <path d="M 125.276169 273.312 
L 126.894732 273.312 
L 126.894732 107.572645 
L 125.276169 107.572645 
z
" clip-path="url(#pa98f942df1)" style="fill: #1f77b4"/>
   </g>
   <g id="patch_44">
    <path d="M 126.894732 273.312 
L 128.513295 273.312 
L 128.513295 140.274581 
L 126.894732 140.274581 
z
" clip-path="url(#pa98f942df1)" style="fill: #1f77b4"/>
   </g>
   <g id="patch_45">
    <path d="M 128.513295 273.312 
L 130.131857 273.312 
L 130.131857 117.234581 
L 128.513295 117.234581 
z
" clip-path="url(#pa98f942df1)" style="fill: #1f77b4"/>
   </g>
   <g id="patch_46">
    <path d="M 130.131857 273.312 
L 131.75042 273.312 
L 131.75042 106.086194 
L 130.131857 106.086194 
z
" clip-path="url(#pa98f942df1)" style="fill: #1f77b4"/>
   </g>
   <g id="patch_47">
    <path d="M 131.75042 273.312 
L 133.368983 273.312 
L 133.368983 140.274581 
L 131.75042 140.274581 
z
" clip-path="url(#pa98f942df1)" style="fill: #1f77b4"/>
   </g>
   <g id="patch_48">
    <path d="M 133.368983 273.312 
L 134.987546 273.312 
L 134.987546 132.099097 
L 133.368983 132.099097 
z
" clip-path="url(#pa98f942df1)" style="fill: #1f77b4"/>
   </g>
   <g id="patch_49">
    <path d="M 134.987546 273.312 
L 136.606109 273.312 
L 136.606109 104.599742 
L 134.987546 104.599742 
z
" clip-path="url(#pa98f942df1)" style="fill: #1f77b4"/>
   </g>
   <g id="patch_50">
    <path d="M 136.606109 273.312 
L 138.224672 273.312 
L 138.224672 123.923613 
L 136.606109 123.923613 
z
" clip-path="url(#pa98f942df1)" style="fill: #1f77b4"/>
   </g>
   <g id="patch_51">
    <path d="M 138.224672 273.312 
L 139.843235 273.312 
L 139.843235 108.315871 
L 138.224672 108.315871 
z
" clip-path="url(#pa98f942df1)" style="fill: #1f77b4"/>
   </g>
   <g id="patch_52">
    <path d="M 139.843235 273.312 
L 141.461798 273.312 
L 141.461798 110.545548 
L 139.843235 110.545548 
z
" clip-path="url(#pa98f942df1)" style="fill: #1f77b4"/>
   </g>
   <g id="patch_53">
    <path d="M 141.461798 273.312 
L 143.080361 273.312 
L 143.080361 109.059097 
L 141.461798 109.059097 
z
" clip-path="url(#pa98f942df1)" style="fill: #1f77b4"/>
   </g>
   <g id="patch_54">
    <path d="M 143.080361 273.312 
L 144.698924 273.312 
L 144.698924 113.518452 
L 143.080361 113.518452 
z
" clip-path="url(#pa98f942df1)" style="fill: #1f77b4"/>
   </g>
   <g id="patch_55">
    <path d="M 144.698924 273.312 
L 146.317486 273.312 
L 146.317486 105.342968 
L 144.698924 105.342968 
z
" clip-path="url(#pa98f942df1)" style="fill: #1f77b4"/>
   </g>
   <g id="patch_56">
    <path d="M 146.317486 273.312 
L 147.936049 273.312 
L 147.936049 113.518452 
L 146.317486 113.518452 
z
" clip-path="url(#pa98f942df1)" style="fill: #1f77b4"/>
   </g>
   <g id="patch_57">
    <path d="M 147.936049 273.312 
L 149.554612 273.312 
L 149.554612 115.004903 
L 147.936049 115.004903 
z
" clip-path="url(#pa98f942df1)" style="fill: #1f77b4"/>
   </g>
   <g id="patch_58">
    <path d="M 149.554612 273.312 
L 151.173175 273.312 
L 151.173175 115.004903 
L 149.554612 115.004903 
z
" clip-path="url(#pa98f942df1)" style="fill: #1f77b4"/>
   </g>
   <g id="patch_59">
    <path d="M 151.173175 273.312 
L 152.791738 273.312 
L 152.791738 83.046194 
L 151.173175 83.046194 
z
" clip-path="url(#pa98f942df1)" style="fill: #1f77b4"/>
   </g>
   <g id="patch_60">
    <path d="M 152.791738 273.312 
L 154.410301 273.312 
L 154.410301 77.100387 
L 152.791738 77.100387 
z
" clip-path="url(#pa98f942df1)" style="fill: #1f77b4"/>
   </g>
   <g id="patch_61">
    <path d="M 154.410301 273.312 
L 156.028864 273.312 
L 156.028864 98.653935 
L 154.410301 98.653935 
z
" clip-path="url(#pa98f942df1)" style="fill: #1f77b4"/>
   </g>
   <g id="patch_62">
    <path d="M 156.028864 273.312 
L 157.647427 273.312 
L 157.647427 73.384258 
L 156.028864 73.384258 
z
" clip-path="url(#pa98f942df1)" style="fill: #1f77b4"/>
   </g>
   <g id="patch_63">
    <path d="M 157.647427 273.312 
L 159.26599 273.312 
L 159.26599 91.221677 
L 157.647427 91.221677 
z
" clip-path="url(#pa98f942df1)" style="fill: #1f77b4"/>
   </g>
   <g id="patch_64">
    <path d="M 159.26599 273.312 
L 160.884552 273.312 
L 160.884552 84.532645 
L 159.26599 84.532645 
z
" clip-path="url(#pa98f942df1)" style="fill: #1f77b4"/>
   </g>
   <g id="patch_65">
    <path d="M 160.884552 273.312 
L 162.503115 273.312 
L 162.503115 95.681032 
L 160.884552 95.681032 
z
" clip-path="url(#pa98f942df1)" style="fill: #1f77b4"/>
   </g>
   <g id="patch_66">
    <path d="M 162.503115 273.312 
L 164.121678 273.312 
L 164.121678 85.275871 
L 162.503115 85.275871 
z
" clip-path="url(#pa98f942df1)" style="fill: #1f77b4"/>
   </g>
   <g id="patch_67">
    <path d="M 164.121678 273.312 
L 165.740241 273.312 
L 165.740241 71.897806 
L 164.121678 71.897806 
z
" clip-path="url(#pa98f942df1)" style="fill: #1f77b4"/>
   </g>
   <g id="patch_68">
    <path d="M 165.740241 273.312 
L 167.358804 273.312 
L 167.358804 57.03329 
L 165.740241 57.03329 
z
" clip-path="url(#pa98f942df1)" style="fill: #1f77b4"/>
   </g>
   <g id="patch_69">
    <path d="M 167.358804 273.312 
L 168.977367 273.312 
L 168.977367 74.127484 
L 167.358804 74.127484 
z
" clip-path="url(#pa98f942df1)" style="fill: #1f77b4"/>
   </g>
   <g id="patch_70">
    <path d="M 168.977367 273.312 
L 170.59593 273.312 
L 170.59593 85.275871 
L 168.977367 85.275871 
z
" clip-path="url(#pa98f942df1)" style="fill: #1f77b4"/>
   </g>
   <g id="patch_71">
    <path d="M 170.59593 273.312 
L 172.214493 273.312 
L 172.214493 85.275871 
L 170.59593 85.275871 
z
" clip-path="url(#pa98f942df1)" style="fill: #1f77b4"/>
   </g>
   <g id="patch_72">
    <path d="M 172.214493 273.312 
L 173.833056 273.312 
L 173.833056 54.803613 
L 172.214493 54.803613 
z
" clip-path="url(#pa98f942df1)" style="fill: #1f77b4"/>
   </g>
   <g id="patch_73">
    <path d="M 173.833056 273.312 
L 175.451619 273.312 
L 175.451619 68.181677 
L 173.833056 68.181677 
z
" clip-path="url(#pa98f942df1)" style="fill: #1f77b4"/>
   </g>
   <g id="patch_74">
    <path d="M 175.451619 273.312 
L 177.070181 273.312 
L 177.070181 52.573935 
L 175.451619 52.573935 
z
" clip-path="url(#pa98f942df1)" style="fill: #1f77b4"/>
   </g>
   <g id="patch_75">
    <path d="M 177.070181 273.312 
L 178.688744 273.312 
L 178.688744 51.087484 
L 177.070181 51.087484 
z
" clip-path="url(#pa98f942df1)" style="fill: #1f77b4"/>
   </g>
   <g id="patch_76">
    <path d="M 178.688744 273.312 
L 180.307307 273.312 
L 180.307307 64.465548 
L 178.688744 64.465548 
z
" clip-path="url(#pa98f942df1)" style="fill: #1f77b4"/>
   </g>
   <g id="patch_77">
    <path d="M 180.307307 273.312 
L 181.92587 273.312 
L 181.92587 61.492645 
L 180.307307 61.492645 
z
" clip-path="url(#pa98f942df1)" style="fill: #1f77b4"/>
   </g>
   <g id="patch_78">
    <path d="M 181.92587 273.312 
L 183.544433 273.312 
L 183.544433 53.317161 
L 181.92587 53.317161 
z
" clip-path="url(#pa98f942df1)" style="fill: #1f77b4"/>
   </g>
   <g id="patch_79">
    <path d="M 183.544433 273.312 
L 185.162996 273.312 
L 185.162996 67.438452 
L 183.544433 67.438452 
z
" clip-path="url(#pa98f942df1)" style="fill: #1f77b4"/>
   </g>
   <g id="patch_80">
    <path d="M 185.162996 273.312 
L 186.781559 273.312 
L 186.781559 48.114581 
L 185.162996 48.114581 
z
" clip-path="url(#pa98f942df1)" style="fill: #1f77b4"/>
   </g>
   <g id="patch_81">
    <path d="M 186.781559 273.312 
L 188.400122 273.312 
L 188.400122 68.181677 
L 186.781559 68.181677 
z
" clip-path="url(#pa98f942df1)" style="fill: #1f77b4"/>
   </g>
   <g id="patch_82">
    <path d="M 188.400122 273.312 
L 190.018685 273.312 
L 190.018685 66.695226 
L 188.400122 66.695226 
z
" clip-path="url(#pa98f942df1)" style="fill: #1f77b4"/>
   </g>
   <g id="patch_83">
    <path d="M 190.018685 273.312 
L 191.637247 273.312 
L 191.637247 28.79071 
L 190.018685 28.79071 
z
" clip-path="url(#pa98f942df1)" style="fill: #1f77b4"/>
   </g>
   <g id="patch_84">
    <path d="M 191.637247 273.312 
L 193.25581 273.312 
L 193.25581 42.168774 
L 191.637247 42.168774 
z
" clip-path="url(#pa98f942df1)" style="fill: #1f77b4"/>
   </g>
   <g id="patch_85">
    <path d="M 193.25581 273.312 
L 194.874373 273.312 
L 194.874373 41.425548 
L 193.25581 41.425548 
z
" clip-path="url(#pa98f942df1)" style="fill: #1f77b4"/>
   </g>
   <g id="patch_86">
    <path d="M 194.874373 273.312 
L 196.492936 273.312 
L 196.492936 55.546839 
L 194.874373 55.546839 
z
" clip-path="url(#pa98f942df1)" style="fill: #1f77b4"/>
   </g>
   <g id="patch_87">
    <path d="M 196.492936 273.312 
L 198.111499 273.312 
L 198.111499 21.358452 
L 196.492936 21.358452 
z
" clip-path="url(#pa98f942df1)" style="fill: #1f77b4"/>
   </g>
   <g id="patch_88">
    <path d="M 198.111499 273.312 
L 199.730062 273.312 
L 199.730062 58.519742 
L 198.111499 58.519742 
z
" clip-path="url(#pa98f942df1)" style="fill: #1f77b4"/>
   </g>
   <g id="patch_89">
    <path d="M 199.730062 273.312 
L 201.348625 273.312 
L 201.348625 29.533935 
L 199.730062 29.533935 
z
" clip-path="url(#pa98f942df1)" style="fill: #1f77b4"/>
   </g>
   <g id="patch_90">
    <path d="M 201.348625 273.312 
L 202.967188 273.312 
L 202.967188 23.588129 
L 201.348625 23.588129 
z
" clip-path="url(#pa98f942df1)" style="fill: #1f77b4"/>
   </g>
   <g id="patch_91">
    <path d="M 202.967188 273.312 
L 204.585751 273.312 
L 204.585751 63.722323 
L 202.967188 63.722323 
z
" clip-path="url(#pa98f942df1)" style="fill: #1f77b4"/>
   </g>
   <g id="patch_92">
    <path d="M 204.585751 273.312 
L 206.204314 273.312 
L 206.204314 41.425548 
L 204.585751 41.425548 
z
" clip-path="url(#pa98f942df1)" style="fill: #1f77b4"/>
   </g>
   <g id="patch_93">
    <path d="M 206.204314 273.312 
L 207.822876 273.312 
L 207.822876 43.655226 
L 206.204314 43.655226 
z
" clip-path="url(#pa98f942df1)" style="fill: #1f77b4"/>
   </g>
   <g id="patch_94">
    <path d="M 207.822876 273.312 
L 209.441439 273.312 
L 209.441439 33.99329 
L 207.822876 33.99329 
z
" clip-path="url(#pa98f942df1)" style="fill: #1f77b4"/>
   </g>
   <g id="patch_95">
    <path d="M 209.441439 273.312 
L 211.060002 273.312 
L 211.060002 50.344258 
L 209.441439 50.344258 
z
" clip-path="url(#pa98f942df1)" style="fill: #1f77b4"/>
   </g>
   <g id="patch_96">
    <path d="M 211.060002 273.312 
L 212.678565 273.312 
L 212.678565 27.304258 
L 211.060002 27.304258 
z
" clip-path="url(#pa98f942df1)" style="fill: #1f77b4"/>
   </g>
   <g id="patch_97">
    <path d="M 212.678565 273.312 
L 214.297128 273.312 
L 214.297128 39.939097 
L 212.678565 39.939097 
z
" clip-path="url(#pa98f942df1)" style="fill: #1f77b4"/>
   </g>
   <g id="patch_98">
    <path d="M 214.297128 273.312 
L 215.915691 273.312 
L 215.915691 33.250065 
L 214.297128 33.250065 
z
" clip-path="url(#pa98f942df1)" style="fill: #1f77b4"/>
   </g>
   <g id="patch_99">
    <path d="M 215.915691 273.312 
L 217.534254 273.312 
L 217.534254 19.872 
L 215.915691 19.872 
z
" clip-path="url(#pa98f942df1)" style="fill: #1f77b4"/>
   </g>
   <g id="patch_100">
    <path d="M 217.534254 273.312 
L 219.152817 273.312 
L 219.152817 23.588129 
L 217.534254 23.588129 
z
" clip-path="url(#pa98f942df1)" style="fill: #1f77b4"/>
   </g>
   <g id="patch_101">
    <path d="M 219.152817 273.312 
L 220.77138 273.312 
L 220.77138 33.250065 
L 219.152817 33.250065 
z
" clip-path="url(#pa98f942df1)" style="fill: #1f77b4"/>
   </g>
   <g id="patch_102">
    <path d="M 220.77138 273.312 
L 222.389943 273.312 
L 222.389943 35.479742 
L 220.77138 35.479742 
z
" clip-path="url(#pa98f942df1)" style="fill: #1f77b4"/>
   </g>
   <g id="patch_103">
    <path d="M 222.389943 273.312 
L 224.008505 273.312 
L 224.008505 36.222968 
L 222.389943 36.222968 
z
" clip-path="url(#pa98f942df1)" style="fill: #1f77b4"/>
   </g>
   <g id="patch_104">
    <path d="M 224.008505 273.312 
L 225.627068 273.312 
L 225.627068 51.83071 
L 224.008505 51.83071 
z
" clip-path="url(#pa98f942df1)" style="fill: #1f77b4"/>
   </g>
   <g id="patch_105">
    <path d="M 225.627068 273.312 
L 227.245631 273.312 
L 227.245631 54.803613 
L 225.627068 54.803613 
z
" clip-path="url(#pa98f942df1)" style="fill: #1f77b4"/>
   </g>
   <g id="patch_106">
    <path d="M 227.245631 273.312 
L 228.864194 273.312 
L 228.864194 48.857806 
L 227.245631 48.857806 
z
" clip-path="url(#pa98f942df1)" style="fill: #1f77b4"/>
   </g>
   <g id="patch_107">
    <path d="M 228.864194 273.312 
L 230.482757 273.312 
L 230.482757 43.655226 
L 228.864194 43.655226 
z
" clip-path="url(#pa98f942df1)" style="fill: #1f77b4"/>
   </g>
   <g id="patch_108">
    <path d="M 230.482757 273.312 
L 232.10132 273.312 
L 232.10132 55.546839 
L 230.482757 55.546839 
z
" clip-path="url(#pa98f942df1)" style="fill: #1f77b4"/>
   </g>
   <g id="patch_109">
    <path d="M 232.10132 273.312 
L 233.719883 273.312 
L 233.719883 28.047484 
L 232.10132 28.047484 
z
" clip-path="url(#pa98f942df1)" style="fill: #1f77b4"/>
   </g>
   <g id="patch_110">
    <path d="M 233.719883 273.312 
L 235.338446 273.312 
L 235.338446 27.304258 
L 233.719883 27.304258 
z
" clip-path="url(#pa98f942df1)" style="fill: #1f77b4"/>
   </g>
   <g id="patch_111">
    <path d="M 235.338446 273.312 
L 236.957009 273.312 
L 236.957009 48.114581 
L 235.338446 48.114581 
z
" clip-path="url(#pa98f942df1)" style="fill: #1f77b4"/>
   </g>
   <g id="patch_112">
    <path d="M 236.957009 273.312 
L 238.575571 273.312 
L 238.575571 65.208774 
L 236.957009 65.208774 
z
" clip-path="url(#pa98f942df1)" style="fill: #1f77b4"/>
   </g>
   <g id="patch_113">
    <path d="M 238.575571 273.312 
L 240.194134 273.312 
L 240.194134 31.020387 
L 238.575571 31.020387 
z
" clip-path="url(#pa98f942df1)" style="fill: #1f77b4"/>
   </g>
   <g id="patch_114">
    <path d="M 240.194134 273.312 
L 241.812697 273.312 
L 241.812697 45.884903 
L 240.194134 45.884903 
z
" clip-path="url(#pa98f942df1)" style="fill: #1f77b4"/>
   </g>
   <g id="patch_115">
    <path d="M 241.812697 273.312 
L 243.43126 273.312 
L 243.43126 46.628129 
L 241.812697 46.628129 
z
" clip-path="url(#pa98f942df1)" style="fill: #1f77b4"/>
   </g>
   <g id="patch_116">
    <path d="M 243.43126 273.312 
L 245.049823 273.312 
L 245.049823 35.479742 
L 243.43126 35.479742 
z
" clip-path="url(#pa98f942df1)" style="fill: #1f77b4"/>
   </g>
   <g id="patch_117">
    <path d="M 245.049823 273.312 
L 246.668386 273.312 
L 246.668386 39.939097 
L 245.049823 39.939097 
z
" clip-path="url(#pa98f942df1)" style="fill: #1f77b4"/>
   </g>
   <g id="patch_118">
    <path d="M 246.668386 273.312 
L 248.286949 273.312 
L 248.286949 38.452645 
L 246.668386 38.452645 
z
" clip-path="url(#pa98f942df1)" style="fill: #1f77b4"/>
   </g>
   <g id="patch_119">
    <path d="M 248.286949 273.312 
L 249.905512 273.312 
L 249.905512 60.006194 
L 248.286949 60.006194 
z
" clip-path="url(#pa98f942df1)" style="fill: #1f77b4"/>
   </g>
   <g id="patch_120">
    <path d="M 249.905512 273.312 
L 251.524075 273.312 
L 251.524075 51.087484 
L 249.905512 51.087484 
z
" clip-path="url(#pa98f942df1)" style="fill: #1f77b4"/>
   </g>
   <g id="patch_121">
    <path d="M 251.524075 273.312 
L 253.142638 273.312 
L 253.142638 30.277161 
L 251.524075 30.277161 
z
" clip-path="url(#pa98f942df1)" style="fill: #1f77b4"/>
   </g>
   <g id="patch_122">
    <path d="M 253.142638 273.312 
L 254.7612 273.312 
L 254.7612 33.99329 
L 253.142638 33.99329 
z
" clip-path="url(#pa98f942df1)" style="fill: #1f77b4"/>
   </g>
   <g id="patch_123">
    <path d="M 254.7612 273.312 
L 256.379763 273.312 
L 256.379763 46.628129 
L 254.7612 46.628129 
z
" clip-path="url(#pa98f942df1)" style="fill: #1f77b4"/>
   </g>
   <g id="patch_124">
    <path d="M 256.379763 273.312 
L 257.998326 273.312 
L 257.998326 42.912 
L 256.379763 42.912 
z
" clip-path="url(#pa98f942df1)" style="fill: #1f77b4"/>
   </g>
   <g id="patch_125">
    <path d="M 257.998326 273.312 
L 259.616889 273.312 
L 259.616889 57.776516 
L 257.998326 57.776516 
z
" clip-path="url(#pa98f942df1)" style="fill: #1f77b4"/>
   </g>
   <g id="patch_126">
    <path d="M 259.616889 273.312 
L 261.235452 273.312 
L 261.235452 51.83071 
L 259.616889 51.83071 
z
" clip-path="url(#pa98f942df1)" style="fill: #1f77b4"/>
   </g>
   <g id="patch_127">
    <path d="M 261.235452 273.312 
L 262.854015 273.312 
L 262.854015 42.168774 
L 261.235452 42.168774 
z
" clip-path="url(#pa98f942df1)" style="fill: #1f77b4"/>
   </g>
   <g id="patch_128">
    <path d="M 262.854015 273.312 
L 264.472578 273.312 
L 264.472578 64.465548 
L 262.854015 64.465548 
z
" clip-path="url(#pa98f942df1)" style="fill: #1f77b4"/>
   </g>
   <g id="patch_129">
    <path d="M 264.472578 273.312 
L 266.091141 273.312 
L 266.091141 63.722323 
L 264.472578 63.722323 
z
" clip-path="url(#pa98f942df1)" style="fill: #1f77b4"/>
   </g>
   <g id="patch_130">
    <path d="M 266.091141 273.312 
L 267.709704 273.312 
L 267.709704 29.533935 
L 266.091141 29.533935 
z
" clip-path="url(#pa98f942df1)" style="fill: #1f77b4"/>
   </g>
   <g id="patch_131">
    <path d="M 267.709704 273.312 
L 269.328266 273.312 
L 269.328266 72.641032 
L 267.709704 72.641032 
z
" clip-path="url(#pa98f942df1)" style="fill: #1f77b4"/>
   </g>
   <g id="patch_132">
    <path d="M 269.328266 273.312 
L 270.946829 273.312 
L 270.946829 62.979097 
L 269.328266 62.979097 
z
" clip-path="url(#pa98f942df1)" style="fill: #1f77b4"/>
   </g>
   <g id="patch_133">
    <path d="M 270.946829 273.312 
L 272.565392 273.312 
L 272.565392 70.411355 
L 270.946829 70.411355 
z
" clip-path="url(#pa98f942df1)" style="fill: #1f77b4"/>
   </g>
   <g id="patch_134">
    <path d="M 272.565392 273.312 
L 274.183955 273.312 
L 274.183955 77.100387 
L 272.565392 77.100387 
z
" clip-path="url(#pa98f942df1)" style="fill: #1f77b4"/>
   </g>
   <g id="patch_135">
    <path d="M 274.183955 273.312 
L 275.802518 273.312 
L 275.802518 91.221677 
L 274.183955 91.221677 
z
" clip-path="url(#pa98f942df1)" style="fill: #1f77b4"/>
   </g>
   <g id="patch_136">
    <path d="M 275.802518 273.312 
L 277.421081 273.312 
L 277.421081 68.181677 
L 275.802518 68.181677 
z
" clip-path="url(#pa98f942df1)" style="fill: #1f77b4"/>
   </g>
   <g id="patch_137">
    <path d="M 277.421081 273.312 
L 279.039644 273.312 
L 279.039644 73.384258 
L 277.421081 73.384258 
z
" clip-path="url(#pa98f942df1)" style="fill: #1f77b4"/>
   </g>
   <g id="patch_138">
    <path d="M 279.039644 273.312 
L 280.658207 273.312 
L 280.658207 58.519742 
L 279.039644 58.519742 
z
" clip-path="url(#pa98f942df1)" style="fill: #1f77b4"/>
   </g>
   <g id="patch_139">
    <path d="M 280.658207 273.312 
L 282.27677 273.312 
L 282.27677 69.668129 
L 280.658207 69.668129 
z
" clip-path="url(#pa98f942df1)" style="fill: #1f77b4"/>
   </g>
   <g id="patch_140">
    <path d="M 282.27677 273.312 
L 283.895333 273.312 
L 283.895333 90.478452 
L 282.27677 90.478452 
z
" clip-path="url(#pa98f942df1)" style="fill: #1f77b4"/>
   </g>
   <g id="patch_141">
    <path d="M 283.895333 273.312 
L 285.513895 273.312 
L 285.513895 88.248774 
L 283.895333 88.248774 
z
" clip-path="url(#pa98f942df1)" style="fill: #1f77b4"/>
   </g>
   <g id="patch_142">
    <path d="M 285.513895 273.312 
L 287.132458 273.312 
L 287.132458 83.046194 
L 285.513895 83.046194 
z
" clip-path="url(#pa98f942df1)" style="fill: #1f77b4"/>
   </g>
   <g id="patch_143">
    <path d="M 287.132458 273.312 
L 288.751021 273.312 
L 288.751021 86.762323 
L 287.132458 86.762323 
z
" clip-path="url(#pa98f942df1)" style="fill: #1f77b4"/>
   </g>
   <g id="patch_144">
    <path d="M 288.751021 273.312 
L 290.369584 273.312 
L 290.369584 83.046194 
L 288.751021 83.046194 
z
" clip-path="url(#pa98f942df1)" style="fill: #1f77b4"/>
   </g>
   <g id="patch_145">
    <path d="M 290.369584 273.312 
L 291.988147 273.312 
L 291.988147 89.735226 
L 290.369584 89.735226 
z
" clip-path="url(#pa98f942df1)" style="fill: #1f77b4"/>
   </g>
   <g id="patch_146">
    <path d="M 291.988147 273.312 
L 293.60671 273.312 
L 293.60671 91.964903 
L 291.988147 91.964903 
z
" clip-path="url(#pa98f942df1)" style="fill: #1f77b4"/>
   </g>
   <g id="patch_147">
    <path d="M 293.60671 273.312 
L 295.225273 273.312 
L 295.225273 104.599742 
L 293.60671 104.599742 
z
" clip-path="url(#pa98f942df1)" style="fill: #1f77b4"/>
   </g>
   <g id="patch_148">
    <path d="M 295.225273 273.312 
L 296.843836 273.312 
L 296.843836 88.992 
L 295.225273 88.992 
z
" clip-path="url(#pa98f942df1)" style="fill: #1f77b4"/>
   </g>
   <g id="patch_149">
    <path d="M 296.843836 273.312 
L 298.462399 273.312 
L 298.462399 98.653935 
L 296.843836 98.653935 
z
" clip-path="url(#pa98f942df1)" style="fill: #1f77b4"/>
   </g>
   <g id="patch_150">
    <path d="M 298.462399 273.312 
L 300.080961 273.312 
L 300.080961 86.762323 
L 298.462399 86.762323 
z
" clip-path="url(#pa98f942df1)" style="fill: #1f77b4"/>
   </g>
   <g id="patch_151">
    <path d="M 300.080961 273.312 
L 301.699524 273.312 
L 301.699524 109.059097 
L 300.080961 109.059097 
z
" clip-path="url(#pa98f942df1)" style="fill: #1f77b4"/>
   </g>
   <g id="patch_152">
    <path d="M 301.699524 273.312 
L 303.318087 273.312 
L 303.318087 118.721032 
L 301.699524 118.721032 
z
" clip-path="url(#pa98f942df1)" style="fill: #1f77b4"/>
   </g>
   <g id="patch_153">
    <path d="M 303.318087 273.312 
L 304.93665 273.312 
L 304.93665 104.599742 
L 303.318087 104.599742 
z
" clip-path="url(#pa98f942df1)" style="fill: #1f77b4"/>
   </g>
   <g id="patch_154">
    <path d="M 304.93665 273.312 
L 306.555213 273.312 
L 306.555213 121.693935 
L 304.93665 121.693935 
z
" clip-path="url(#pa98f942df1)" style="fill: #1f77b4"/>
   </g>
   <g id="patch_155">
    <path d="M 306.555213 273.312 
L 308.173776 273.312 
L 308.173776 113.518452 
L 306.555213 113.518452 
z
" clip-path="url(#pa98f942df1)" style="fill: #1f77b4"/>
   </g>
   <g id="patch_156">
    <path d="M 308.173776 273.312 
L 309.792339 273.312 
L 309.792339 119.464258 
L 308.173776 119.464258 
z
" clip-path="url(#pa98f942df1)" style="fill: #1f77b4"/>
   </g>
   <g id="patch_157">
    <path d="M 309.792339 273.312 
L 311.410902 273.312 
L 311.410902 109.059097 
L 309.792339 109.059097 
z
" clip-path="url(#pa98f942df1)" style="fill: #1f77b4"/>
   </g>
   <g id="patch_158">
    <path d="M 311.410902 273.312 
L 313.029465 273.312 
L 313.029465 122.437161 
L 311.410902 122.437161 
z
" clip-path="url(#pa98f942df1)" style="fill: #1f77b4"/>
   </g>
   <g id="patch_159">
    <path d="M 313.029465 273.312 
L 314.648028 273.312 
L 314.648028 136.558452 
L 313.029465 136.558452 
z
" clip-path="url(#pa98f942df1)" style="fill: #1f77b4"/>
   </g>
   <g id="patch_160">
    <path d="M 314.648028 273.312 
L 316.26659 273.312 
L 316.26659 121.693935 
L 314.648028 121.693935 
z
" clip-path="url(#pa98f942df1)" style="fill: #1f77b4"/>
   </g>
   <g id="patch_161">
    <path d="M 316.26659 273.312 
L 317.885153 273.312 
L 317.885153 129.869419 
L 316.26659 129.869419 
z
" clip-path="url(#pa98f942df1)" style="fill: #1f77b4"/>
   </g>
   <g id="patch_162">
    <path d="M 317.885153 273.312 
L 319.503716 273.312 
L 319.503716 112.032 
L 317.885153 112.032 
z
" clip-path="url(#pa98f942df1)" style="fill: #1f77b4"/>
   </g>
   <g id="patch_163">
    <path d="M 319.503716 273.312 
L 321.122279 273.312 
L 321.122279 146.220387 
L 319.503716 146.220387 
z
" clip-path="url(#pa98f942df1)" style="fill: #1f77b4"/>
   </g>
   <g id="patch_164">
    <path d="M 321.122279 273.312 
L 322.740842 273.312 
L 322.740842 155.882323 
L 321.122279 155.882323 
z
" clip-path="url(#pa98f942df1)" style="fill: #1f77b4"/>
   </g>
   <g id="patch_165">
    <path d="M 322.740842 273.312 
L 324.359405 273.312 
L 324.359405 130.612645 
L 322.740842 130.612645 
z
" clip-path="url(#pa98f942df1)" style="fill: #1f77b4"/>
   </g>
   <g id="patch_166">
    <path d="M 324.359405 273.312 
L 325.977968 273.312 
L 325.977968 146.963613 
L 324.359405 146.963613 
z
" clip-path="url(#pa98f942df1)" style="fill: #1f77b4"/>
   </g>
   <g id="patch_167">
    <path d="M 325.977968 273.312 
L 327.596531 273.312 
L 327.596531 160.341677 
L 325.977968 160.341677 
z
" clip-path="url(#pa98f942df1)" style="fill: #1f77b4"/>
   </g>
   <g id="patch_168">
    <path d="M 327.596531 273.312 
L 329.215094 273.312 
L 329.215094 149.936516 
L 327.596531 149.936516 
z
" clip-path="url(#pa98f942df1)" style="fill: #1f77b4"/>
   </g>
   <g id="patch_169">
    <path d="M 329.215094 273.312 
L 330.833656 273.312 
L 330.833656 160.341677 
L 329.215094 160.341677 
z
" clip-path="url(#pa98f942df1)" style="fill: #1f77b4"/>
   </g>
   <g id="patch_170">
    <path d="M 330.833656 273.312 
L 332.452219 273.312 
L 332.452219 165.544258 
L 330.833656 165.544258 
z
" clip-path="url(#pa98f942df1)" style="fill: #1f77b4"/>
   </g>
   <g id="patch_171">
    <path d="M 332.452219 273.312 
L 334.070782 273.312 
L 334.070782 149.19329 
L 332.452219 149.19329 
z
" clip-path="url(#pa98f942df1)" style="fill: #1f77b4"/>
   </g>
   <g id="patch_172">
    <path d="M 334.070782 273.312 
L 335.689345 273.312 
L 335.689345 161.084903 
L 334.070782 161.084903 
z
" clip-path="url(#pa98f942df1)" style="fill: #1f77b4"/>
   </g>
   <g id="patch_173">
    <path d="M 335.689345 273.312 
L 337.307908 273.312 
L 337.307908 166.287484 
L 335.689345 166.287484 
z
" clip-path="url(#pa98f942df1)" style="fill: #1f77b4"/>
   </g>
   <g id="patch_174">
    <path d="M 337.307908 273.312 
L 338.926471 273.312 
L 338.926471 178.922323 
L 337.307908 178.922323 
z
" clip-path="url(#pa98f942df1)" style="fill: #1f77b4"/>
   </g>
   <g id="patch_175">
    <path d="M 338.926471 273.312 
L 340.545034 273.312 
L 340.545034 183.381677 
L 338.926471 183.381677 
z
" clip-path="url(#pa98f942df1)" style="fill: #1f77b4"/>
   </g>
   <g id="patch_176">
    <path d="M 340.545034 273.312 
L 342.163597 273.312 
L 342.163597 191.557161 
L 340.545034 191.557161 
z
" clip-path="url(#pa98f942df1)" style="fill: #1f77b4"/>
   </g>
   <g id="patch_177">
    <path d="M 342.163597 273.312 
L 343.78216 273.312 
L 343.78216 188.584258 
L 342.163597 188.584258 
z
" clip-path="url(#pa98f942df1)" style="fill: #1f77b4"/>
   </g>
   <g id="patch_178">
    <path d="M 343.78216 273.312 
L 345.400723 273.312 
L 345.400723 174.462968 
L 343.78216 174.462968 
z
" clip-path="url(#pa98f942df1)" style="fill: #1f77b4"/>
   </g>
   <g id="patch_179">
    <path d="M 345.400723 273.312 
L 347.019285 273.312 
L 347.019285 185.611355 
L 345.400723 185.611355 
z
" clip-path="url(#pa98f942df1)" style="fill: #1f77b4"/>
   </g>
   <g id="patch_180">
    <path d="M 347.019285 273.312 
L 348.637848 273.312 
L 348.637848 193.786839 
L 347.019285 193.786839 
z
" clip-path="url(#pa98f942df1)" style="fill: #1f77b4"/>
   </g>
   <g id="patch_181">
    <path d="M 348.637848 273.312 
L 350.256411 273.312 
L 350.256411 209.394581 
L 348.637848 209.394581 
z
" clip-path="url(#pa98f942df1)" style="fill: #1f77b4"/>
   </g>
   <g id="patch_182">
    <path d="M 350.256411 273.312 
L 351.874974 273.312 
L 351.874974 188.584258 
L 350.256411 188.584258 
z
" clip-path="url(#pa98f942df1)" style="fill: #1f77b4"/>
   </g>
   <g id="patch_183">
    <path d="M 351.874974 273.312 
L 353.493537 273.312 
L 353.493537 207.164903 
L 351.874974 207.164903 
z
" clip-path="url(#pa98f942df1)" style="fill: #1f77b4"/>
   </g>
   <g id="patch_184">
    <path d="M 353.493537 273.312 
L 355.1121 273.312 
L 355.1121 203.448774 
L 353.493537 203.448774 
z
" clip-path="url(#pa98f942df1)" style="fill: #1f77b4"/>
   </g>
   <g id="patch_185">
    <path d="M 355.1121 273.312 
L 356.730663 273.312 
L 356.730663 210.881032 
L 355.1121 210.881032 
z
" clip-path="url(#pa98f942df1)" style="fill: #1f77b4"/>
   </g>
   <g id="patch_186">
    <path d="M 356.730663 273.312 
L 358.349226 273.312 
L 358.349226 214.597161 
L 356.730663 214.597161 
z
" clip-path="url(#pa98f942df1)" style="fill: #1f77b4"/>
   </g>
   <g id="patch_187">
    <path d="M 358.349226 273.312 
L 359.967789 273.312 
L 359.967789 222.029419 
L 358.349226 222.029419 
z
" clip-path="url(#pa98f942df1)" style="fill: #1f77b4"/>
   </g>
   <g id="patch_188">
    <path d="M 359.967789 273.312 
L 361.586351 273.312 
L 361.586351 221.286194 
L 359.967789 221.286194 
z
" clip-path="url(#pa98f942df1)" style="fill: #1f77b4"/>
   </g>
   <g id="patch_189">
    <path d="M 361.586351 273.312 
L 363.204914 273.312 
L 363.204914 231.691355 
L 361.586351 231.691355 
z
" clip-path="url(#pa98f942df1)" style="fill: #1f77b4"/>
   </g>
   <g id="patch_190">
    <path d="M 363.204914 273.312 
L 364.823477 273.312 
L 364.823477 222.772645 
L 363.204914 222.772645 
z
" clip-path="url(#pa98f942df1)" style="fill: #1f77b4"/>
   </g>
   <g id="patch_191">
    <path d="M 364.823477 273.312 
L 366.44204 273.312 
L 366.44204 233.177806 
L 364.823477 233.177806 
z
" clip-path="url(#pa98f942df1)" style="fill: #1f77b4"/>
   </g>
   <g id="patch_192">
    <path d="M 366.44204 273.312 
L 368.060603 273.312 
L 368.060603 226.488774 
L 366.44204 226.488774 
z
" clip-path="url(#pa98f942df1)" style="fill: #1f77b4"/>
   </g>
   <g id="patch_193">
    <path d="M 368.060603 273.312 
L 369.679166 273.312 
L 369.679166 245.812645 
L 368.060603 245.812645 
z
" clip-path="url(#pa98f942df1)" style="fill: #1f77b4"/>
   </g>
   <g id="patch_194">
    <path d="M 369.679166 273.312 
L 371.297729 273.312 
L 371.297729 236.15071 
L 369.679166 236.15071 
z
" clip-path="url(#pa98f942df1)" style="fill: #1f77b4"/>
   </g>
   <g id="patch_195">
    <path d="M 371.297729 273.312 
L 372.916292 273.312 
L 372.916292 243.582968 
L 371.297729 243.582968 
z
" clip-path="url(#pa98f942df1)" style="fill: #1f77b4"/>
   </g>
   <g id="patch_196">
    <path d="M 372.916292 273.312 
L 374.534855 273.312 
L 374.534855 249.528774 
L 372.916292 249.528774 
z
" clip-path="url(#pa98f942df1)" style="fill: #1f77b4"/>
   </g>
   <g id="patch_197">
    <path d="M 374.534855 273.312 
L 376.153418 273.312 
L 376.153418 248.042323 
L 374.534855 248.042323 
z
" clip-path="url(#pa98f942df1)" style="fill: #1f77b4"/>
   </g>
   <g id="patch_198">
    <path d="M 376.153418 273.312 
L 377.77198 273.312 
L 377.77198 256.217806 
L 376.153418 256.217806 
z
" clip-path="url(#pa98f942df1)" style="fill: #1f77b4"/>
   </g>
   <g id="patch_199">
    <path d="M 377.77198 273.312 
L 379.390543 273.312 
L 379.390543 256.217806 
L 377.77198 256.217806 
z
" clip-path="url(#pa98f942df1)" style="fill: #1f77b4"/>
   </g>
   <g id="patch_200">
    <path d="M 379.390543 273.312 
L 381.009106 273.312 
L 381.009106 263.650065 
L 379.390543 263.650065 
z
" clip-path="url(#pa98f942df1)" style="fill: #1f77b4"/>
   </g>
   <g id="patch_201">
    <path d="M 381.009106 273.312 
L 382.627669 273.312 
L 382.627669 265.879742 
L 381.009106 265.879742 
z
" clip-path="url(#pa98f942df1)" style="fill: #1f77b4"/>
   </g>
   <g id="patch_202">
    <path d="M 382.627669 273.312 
L 384.246232 273.312 
L 384.246232 268.852645 
L 382.627669 268.852645 
z
" clip-path="url(#pa98f942df1)" style="fill: #1f77b4"/>
   </g>
   <g id="matplotlib.axis_1">
    <g id="xtick_1">
     <g id="line2d_1">
      <defs>
       <path id="m82ee2d2f4d" d="M 0 0 
L 0 3.5 
" style="stroke: #000000; stroke-width: 0.8"/>
      </defs>
      <g>
       <use xlink:href="#m82ee2d2f4d" x="60.013977" y="273.312" style="stroke: #000000; stroke-width: 0.8"/>
      </g>
     </g>
     <g id="text_1">
      <!-- 0.0 -->
      <g transform="translate(52.062415 287.910437)scale(0.1 -0.1)">
       <defs>
        <path id="DejaVuSans-30" d="M 2034 4250 
Q 1547 4250 1301 3770 
Q 1056 3291 1056 2328 
Q 1056 1369 1301 889 
Q 1547 409 2034 409 
Q 2525 409 2770 889 
Q 3016 1369 3016 2328 
Q 3016 3291 2770 3770 
Q 2525 4250 2034 4250 
z
M 2034 4750 
Q 2819 4750 3233 4129 
Q 3647 3509 3647 2328 
Q 3647 1150 3233 529 
Q 2819 -91 2034 -91 
Q 1250 -91 836 529 
Q 422 1150 422 2328 
Q 422 3509 836 4129 
Q 1250 4750 2034 4750 
z
" transform="scale(0.015625)"/>
        <path id="DejaVuSans-2e" d="M 684 794 
L 1344 794 
L 1344 0 
L 684 0 
L 684 794 
z
" transform="scale(0.015625)"/>
       </defs>
       <use xlink:href="#DejaVuSans-30"/>
       <use xlink:href="#DejaVuSans-2e" x="63.623047"/>
       <use xlink:href="#DejaVuSans-30" x="95.410156"/>
      </g>
     </g>
    </g>
    <g id="xtick_2">
     <g id="line2d_2">
      <g>
       <use xlink:href="#m82ee2d2f4d" x="101.350278" y="273.312" style="stroke: #000000; stroke-width: 0.8"/>
      </g>
     </g>
     <g id="text_2">
      <!-- 0.2 -->
      <g transform="translate(93.398715 287.910437)scale(0.1 -0.1)">
       <defs>
        <path id="DejaVuSans-32" d="M 1228 531 
L 3431 531 
L 3431 0 
L 469 0 
L 469 531 
Q 828 903 1448 1529 
Q 2069 2156 2228 2338 
Q 2531 2678 2651 2914 
Q 2772 3150 2772 3378 
Q 2772 3750 2511 3984 
Q 2250 4219 1831 4219 
Q 1534 4219 1204 4116 
Q 875 4013 500 3803 
L 500 4441 
Q 881 4594 1212 4672 
Q 1544 4750 1819 4750 
Q 2544 4750 2975 4387 
Q 3406 4025 3406 3419 
Q 3406 3131 3298 2873 
Q 3191 2616 2906 2266 
Q 2828 2175 2409 1742 
Q 1991 1309 1228 531 
z
" transform="scale(0.015625)"/>
       </defs>
       <use xlink:href="#DejaVuSans-30"/>
       <use xlink:href="#DejaVuSans-2e" x="63.623047"/>
       <use xlink:href="#DejaVuSans-32" x="95.410156"/>
      </g>
     </g>
    </g>
    <g id="xtick_3">
     <g id="line2d_3">
      <g>
       <use xlink:href="#m82ee2d2f4d" x="142.686578" y="273.312" style="stroke: #000000; stroke-width: 0.8"/>
      </g>
     </g>
     <g id="text_3">
      <!-- 0.4 -->
      <g transform="translate(134.735016 287.910437)scale(0.1 -0.1)">
       <defs>
        <path id="DejaVuSans-34" d="M 2419 4116 
L 825 1625 
L 2419 1625 
L 2419 4116 
z
M 2253 4666 
L 3047 4666 
L 3047 1625 
L 3713 1625 
L 3713 1100 
L 3047 1100 
L 3047 0 
L 2419 0 
L 2419 1100 
L 313 1100 
L 313 1709 
L 2253 4666 
z
" transform="scale(0.015625)"/>
       </defs>
       <use xlink:href="#DejaVuSans-30"/>
       <use xlink:href="#DejaVuSans-2e" x="63.623047"/>
       <use xlink:href="#DejaVuSans-34" x="95.410156"/>
      </g>
     </g>
    </g>
    <g id="xtick_4">
     <g id="line2d_4">
      <g>
       <use xlink:href="#m82ee2d2f4d" x="184.022879" y="273.312" style="stroke: #000000; stroke-width: 0.8"/>
      </g>
     </g>
     <g id="text_4">
      <!-- 0.6 -->
      <g transform="translate(176.071316 287.910437)scale(0.1 -0.1)">
       <defs>
        <path id="DejaVuSans-36" d="M 2113 2584 
Q 1688 2584 1439 2293 
Q 1191 2003 1191 1497 
Q 1191 994 1439 701 
Q 1688 409 2113 409 
Q 2538 409 2786 701 
Q 3034 994 3034 1497 
Q 3034 2003 2786 2293 
Q 2538 2584 2113 2584 
z
M 3366 4563 
L 3366 3988 
Q 3128 4100 2886 4159 
Q 2644 4219 2406 4219 
Q 1781 4219 1451 3797 
Q 1122 3375 1075 2522 
Q 1259 2794 1537 2939 
Q 1816 3084 2150 3084 
Q 2853 3084 3261 2657 
Q 3669 2231 3669 1497 
Q 3669 778 3244 343 
Q 2819 -91 2113 -91 
Q 1303 -91 875 529 
Q 447 1150 447 2328 
Q 447 3434 972 4092 
Q 1497 4750 2381 4750 
Q 2619 4750 2861 4703 
Q 3103 4656 3366 4563 
z
" transform="scale(0.015625)"/>
       </defs>
       <use xlink:href="#DejaVuSans-30"/>
       <use xlink:href="#DejaVuSans-2e" x="63.623047"/>
       <use xlink:href="#DejaVuSans-36" x="95.410156"/>
      </g>
     </g>
    </g>
    <g id="xtick_5">
     <g id="line2d_5">
      <g>
       <use xlink:href="#m82ee2d2f4d" x="225.35918" y="273.312" style="stroke: #000000; stroke-width: 0.8"/>
      </g>
     </g>
     <g id="text_5">
      <!-- 0.8 -->
      <g transform="translate(217.407617 287.910437)scale(0.1 -0.1)">
       <defs>
        <path id="DejaVuSans-38" d="M 2034 2216 
Q 1584 2216 1326 1975 
Q 1069 1734 1069 1313 
Q 1069 891 1326 650 
Q 1584 409 2034 409 
Q 2484 409 2743 651 
Q 3003 894 3003 1313 
Q 3003 1734 2745 1975 
Q 2488 2216 2034 2216 
z
M 1403 2484 
Q 997 2584 770 2862 
Q 544 3141 544 3541 
Q 544 4100 942 4425 
Q 1341 4750 2034 4750 
Q 2731 4750 3128 4425 
Q 3525 4100 3525 3541 
Q 3525 3141 3298 2862 
Q 3072 2584 2669 2484 
Q 3125 2378 3379 2068 
Q 3634 1759 3634 1313 
Q 3634 634 3220 271 
Q 2806 -91 2034 -91 
Q 1263 -91 848 271 
Q 434 634 434 1313 
Q 434 1759 690 2068 
Q 947 2378 1403 2484 
z
M 1172 3481 
Q 1172 3119 1398 2916 
Q 1625 2713 2034 2713 
Q 2441 2713 2670 2916 
Q 2900 3119 2900 3481 
Q 2900 3844 2670 4047 
Q 2441 4250 2034 4250 
Q 1625 4250 1398 4047 
Q 1172 3844 1172 3481 
z
" transform="scale(0.015625)"/>
       </defs>
       <use xlink:href="#DejaVuSans-30"/>
       <use xlink:href="#DejaVuSans-2e" x="63.623047"/>
       <use xlink:href="#DejaVuSans-38" x="95.410156"/>
      </g>
     </g>
    </g>
    <g id="xtick_6">
     <g id="line2d_6">
      <g>
       <use xlink:href="#m82ee2d2f4d" x="266.69548" y="273.312" style="stroke: #000000; stroke-width: 0.8"/>
      </g>
     </g>
     <g id="text_6">
      <!-- 1.0 -->
      <g transform="translate(258.743918 287.910437)scale(0.1 -0.1)">
       <defs>
        <path id="DejaVuSans-31" d="M 794 531 
L 1825 531 
L 1825 4091 
L 703 3866 
L 703 4441 
L 1819 4666 
L 2450 4666 
L 2450 531 
L 3481 531 
L 3481 0 
L 794 0 
L 794 531 
z
" transform="scale(0.015625)"/>
       </defs>
       <use xlink:href="#DejaVuSans-31"/>
       <use xlink:href="#DejaVuSans-2e" x="63.623047"/>
       <use xlink:href="#DejaVuSans-30" x="95.410156"/>
      </g>
     </g>
    </g>
    <g id="xtick_7">
     <g id="line2d_7">
      <g>
       <use xlink:href="#m82ee2d2f4d" x="308.031781" y="273.312" style="stroke: #000000; stroke-width: 0.8"/>
      </g>
     </g>
     <g id="text_7">
      <!-- 1.2 -->
      <g transform="translate(300.080218 287.910437)scale(0.1 -0.1)">
       <use xlink:href="#DejaVuSans-31"/>
       <use xlink:href="#DejaVuSans-2e" x="63.623047"/>
       <use xlink:href="#DejaVuSans-32" x="95.410156"/>
      </g>
     </g>
    </g>
    <g id="xtick_8">
     <g id="line2d_8">
      <g>
       <use xlink:href="#m82ee2d2f4d" x="349.368081" y="273.312" style="stroke: #000000; stroke-width: 0.8"/>
      </g>
     </g>
     <g id="text_8">
      <!-- 1.4 -->
      <g transform="translate(341.416519 287.910437)scale(0.1 -0.1)">
       <use xlink:href="#DejaVuSans-31"/>
       <use xlink:href="#DejaVuSans-2e" x="63.623047"/>
       <use xlink:href="#DejaVuSans-34" x="95.410156"/>
      </g>
     </g>
    </g>
    <g id="xtick_9">
     <g id="line2d_9">
      <g>
       <use xlink:href="#m82ee2d2f4d" x="390.704382" y="273.312" style="stroke: #000000; stroke-width: 0.8"/>
      </g>
     </g>
     <g id="text_9">
      <!-- 1.6 -->
      <g transform="translate(382.752819 287.910437)scale(0.1 -0.1)">
       <use xlink:href="#DejaVuSans-31"/>
       <use xlink:href="#DejaVuSans-2e" x="63.623047"/>
       <use xlink:href="#DejaVuSans-36" x="95.410156"/>
      </g>
     </g>
    </g>
    <g id="text_10">
     <!-- Angle with normal (rad) -->
     <g transform="translate(163.023281 301.588562)scale(0.1 -0.1)">
      <defs>
       <path id="DejaVuSans-41" d="M 2188 4044 
L 1331 1722 
L 3047 1722 
L 2188 4044 
z
M 1831 4666 
L 2547 4666 
L 4325 0 
L 3669 0 
L 3244 1197 
L 1141 1197 
L 716 0 
L 50 0 
L 1831 4666 
z
" transform="scale(0.015625)"/>
       <path id="DejaVuSans-6e" d="M 3513 2113 
L 3513 0 
L 2938 0 
L 2938 2094 
Q 2938 2591 2744 2837 
Q 2550 3084 2163 3084 
Q 1697 3084 1428 2787 
Q 1159 2491 1159 1978 
L 1159 0 
L 581 0 
L 581 3500 
L 1159 3500 
L 1159 2956 
Q 1366 3272 1645 3428 
Q 1925 3584 2291 3584 
Q 2894 3584 3203 3211 
Q 3513 2838 3513 2113 
z
" transform="scale(0.015625)"/>
       <path id="DejaVuSans-67" d="M 2906 1791 
Q 2906 2416 2648 2759 
Q 2391 3103 1925 3103 
Q 1463 3103 1205 2759 
Q 947 2416 947 1791 
Q 947 1169 1205 825 
Q 1463 481 1925 481 
Q 2391 481 2648 825 
Q 2906 1169 2906 1791 
z
M 3481 434 
Q 3481 -459 3084 -895 
Q 2688 -1331 1869 -1331 
Q 1566 -1331 1297 -1286 
Q 1028 -1241 775 -1147 
L 775 -588 
Q 1028 -725 1275 -790 
Q 1522 -856 1778 -856 
Q 2344 -856 2625 -561 
Q 2906 -266 2906 331 
L 2906 616 
Q 2728 306 2450 153 
Q 2172 0 1784 0 
Q 1141 0 747 490 
Q 353 981 353 1791 
Q 353 2603 747 3093 
Q 1141 3584 1784 3584 
Q 2172 3584 2450 3431 
Q 2728 3278 2906 2969 
L 2906 3500 
L 3481 3500 
L 3481 434 
z
" transform="scale(0.015625)"/>
       <path id="DejaVuSans-6c" d="M 603 4863 
L 1178 4863 
L 1178 0 
L 603 0 
L 603 4863 
z
" transform="scale(0.015625)"/>
       <path id="DejaVuSans-65" d="M 3597 1894 
L 3597 1613 
L 953 1613 
Q 991 1019 1311 708 
Q 1631 397 2203 397 
Q 2534 397 2845 478 
Q 3156 559 3463 722 
L 3463 178 
Q 3153 47 2828 -22 
Q 2503 -91 2169 -91 
Q 1331 -91 842 396 
Q 353 884 353 1716 
Q 353 2575 817 3079 
Q 1281 3584 2069 3584 
Q 2775 3584 3186 3129 
Q 3597 2675 3597 1894 
z
M 3022 2063 
Q 3016 2534 2758 2815 
Q 2500 3097 2075 3097 
Q 1594 3097 1305 2825 
Q 1016 2553 972 2059 
L 3022 2063 
z
" transform="scale(0.015625)"/>
       <path id="DejaVuSans-20" transform="scale(0.015625)"/>
       <path id="DejaVuSans-77" d="M 269 3500 
L 844 3500 
L 1563 769 
L 2278 3500 
L 2956 3500 
L 3675 769 
L 4391 3500 
L 4966 3500 
L 4050 0 
L 3372 0 
L 2619 2869 
L 1863 0 
L 1184 0 
L 269 3500 
z
" transform="scale(0.015625)"/>
       <path id="DejaVuSans-69" d="M 603 3500 
L 1178 3500 
L 1178 0 
L 603 0 
L 603 3500 
z
M 603 4863 
L 1178 4863 
L 1178 4134 
L 603 4134 
L 603 4863 
z
" transform="scale(0.015625)"/>
       <path id="DejaVuSans-74" d="M 1172 4494 
L 1172 3500 
L 2356 3500 
L 2356 3053 
L 1172 3053 
L 1172 1153 
Q 1172 725 1289 603 
Q 1406 481 1766 481 
L 2356 481 
L 2356 0 
L 1766 0 
Q 1100 0 847 248 
Q 594 497 594 1153 
L 594 3053 
L 172 3053 
L 172 3500 
L 594 3500 
L 594 4494 
L 1172 4494 
z
" transform="scale(0.015625)"/>
       <path id="DejaVuSans-68" d="M 3513 2113 
L 3513 0 
L 2938 0 
L 2938 2094 
Q 2938 2591 2744 2837 
Q 2550 3084 2163 3084 
Q 1697 3084 1428 2787 
Q 1159 2491 1159 1978 
L 1159 0 
L 581 0 
L 581 4863 
L 1159 4863 
L 1159 2956 
Q 1366 3272 1645 3428 
Q 1925 3584 2291 3584 
Q 2894 3584 3203 3211 
Q 3513 2838 3513 2113 
z
" transform="scale(0.015625)"/>
       <path id="DejaVuSans-6f" d="M 1959 3097 
Q 1497 3097 1228 2736 
Q 959 2375 959 1747 
Q 959 1119 1226 758 
Q 1494 397 1959 397 
Q 2419 397 2687 759 
Q 2956 1122 2956 1747 
Q 2956 2369 2687 2733 
Q 2419 3097 1959 3097 
z
M 1959 3584 
Q 2709 3584 3137 3096 
Q 3566 2609 3566 1747 
Q 3566 888 3137 398 
Q 2709 -91 1959 -91 
Q 1206 -91 779 398 
Q 353 888 353 1747 
Q 353 2609 779 3096 
Q 1206 3584 1959 3584 
z
" transform="scale(0.015625)"/>
       <path id="DejaVuSans-72" d="M 2631 2963 
Q 2534 3019 2420 3045 
Q 2306 3072 2169 3072 
Q 1681 3072 1420 2755 
Q 1159 2438 1159 1844 
L 1159 0 
L 581 0 
L 581 3500 
L 1159 3500 
L 1159 2956 
Q 1341 3275 1631 3429 
Q 1922 3584 2338 3584 
Q 2397 3584 2469 3576 
Q 2541 3569 2628 3553 
L 2631 2963 
z
" transform="scale(0.015625)"/>
       <path id="DejaVuSans-6d" d="M 3328 2828 
Q 3544 3216 3844 3400 
Q 4144 3584 4550 3584 
Q 5097 3584 5394 3201 
Q 5691 2819 5691 2113 
L 5691 0 
L 5113 0 
L 5113 2094 
Q 5113 2597 4934 2840 
Q 4756 3084 4391 3084 
Q 3944 3084 3684 2787 
Q 3425 2491 3425 1978 
L 3425 0 
L 2847 0 
L 2847 2094 
Q 2847 2600 2669 2842 
Q 2491 3084 2119 3084 
Q 1678 3084 1418 2786 
Q 1159 2488 1159 1978 
L 1159 0 
L 581 0 
L 581 3500 
L 1159 3500 
L 1159 2956 
Q 1356 3278 1631 3431 
Q 1906 3584 2284 3584 
Q 2666 3584 2933 3390 
Q 3200 3197 3328 2828 
z
" transform="scale(0.015625)"/>
       <path id="DejaVuSans-61" d="M 2194 1759 
Q 1497 1759 1228 1600 
Q 959 1441 959 1056 
Q 959 750 1161 570 
Q 1363 391 1709 391 
Q 2188 391 2477 730 
Q 2766 1069 2766 1631 
L 2766 1759 
L 2194 1759 
z
M 3341 1997 
L 3341 0 
L 2766 0 
L 2766 531 
Q 2569 213 2275 61 
Q 1981 -91 1556 -91 
Q 1019 -91 701 211 
Q 384 513 384 1019 
Q 384 1609 779 1909 
Q 1175 2209 1959 2209 
L 2766 2209 
L 2766 2266 
Q 2766 2663 2505 2880 
Q 2244 3097 1772 3097 
Q 1472 3097 1187 3025 
Q 903 2953 641 2809 
L 641 3341 
Q 956 3463 1253 3523 
Q 1550 3584 1831 3584 
Q 2591 3584 2966 3190 
Q 3341 2797 3341 1997 
z
" transform="scale(0.015625)"/>
       <path id="DejaVuSans-28" d="M 1984 4856 
Q 1566 4138 1362 3434 
Q 1159 2731 1159 2009 
Q 1159 1288 1364 580 
Q 1569 -128 1984 -844 
L 1484 -844 
Q 1016 -109 783 600 
Q 550 1309 550 2009 
Q 550 2706 781 3412 
Q 1013 4119 1484 4856 
L 1984 4856 
z
" transform="scale(0.015625)"/>
       <path id="DejaVuSans-64" d="M 2906 2969 
L 2906 4863 
L 3481 4863 
L 3481 0 
L 2906 0 
L 2906 525 
Q 2725 213 2448 61 
Q 2172 -91 1784 -91 
Q 1150 -91 751 415 
Q 353 922 353 1747 
Q 353 2572 751 3078 
Q 1150 3584 1784 3584 
Q 2172 3584 2448 3432 
Q 2725 3281 2906 2969 
z
M 947 1747 
Q 947 1113 1208 752 
Q 1469 391 1925 391 
Q 2381 391 2643 752 
Q 2906 1113 2906 1747 
Q 2906 2381 2643 2742 
Q 2381 3103 1925 3103 
Q 1469 3103 1208 2742 
Q 947 2381 947 1747 
z
" transform="scale(0.015625)"/>
       <path id="DejaVuSans-29" d="M 513 4856 
L 1013 4856 
Q 1481 4119 1714 3412 
Q 1947 2706 1947 2009 
Q 1947 1309 1714 600 
Q 1481 -109 1013 -844 
L 513 -844 
Q 928 -128 1133 580 
Q 1338 1288 1338 2009 
Q 1338 2731 1133 3434 
Q 928 4138 513 4856 
z
" transform="scale(0.015625)"/>
      </defs>
      <use xlink:href="#DejaVuSans-41"/>
      <use xlink:href="#DejaVuSans-6e" x="68.408203"/>
      <use xlink:href="#DejaVuSans-67" x="131.787109"/>
      <use xlink:href="#DejaVuSans-6c" x="195.263672"/>
      <use xlink:href="#DejaVuSans-65" x="223.046875"/>
      <use xlink:href="#DejaVuSans-20" x="284.570312"/>
      <use xlink:href="#DejaVuSans-77" x="316.357422"/>
      <use xlink:href="#DejaVuSans-69" x="398.144531"/>
      <use xlink:href="#DejaVuSans-74" x="425.927734"/>
      <use xlink:href="#DejaVuSans-68" x="465.136719"/>
      <use xlink:href="#DejaVuSans-20" x="528.515625"/>
      <use xlink:href="#DejaVuSans-6e" x="560.302734"/>
      <use xlink:href="#DejaVuSans-6f" x="623.681641"/>
      <use xlink:href="#DejaVuSans-72" x="684.863281"/>
      <use xlink:href="#DejaVuSans-6d" x="724.226562"/>
      <use xlink:href="#DejaVuSans-61" x="821.638672"/>
      <use xlink:href="#DejaVuSans-6c" x="882.917969"/>
      <use xlink:href="#DejaVuSans-20" x="910.701172"/>
      <use xlink:href="#DejaVuSans-28" x="942.488281"/>
      <use xlink:href="#DejaVuSans-72" x="981.501953"/>
      <use xlink:href="#DejaVuSans-61" x="1022.615234"/>
      <use xlink:href="#DejaVuSans-64" x="1083.894531"/>
      <use xlink:href="#DejaVuSans-29" x="1147.371094"/>
     </g>
    </g>
   </g>
   <g id="matplotlib.axis_2">
    <g id="ytick_1">
     <g id="line2d_10">
      <defs>
       <path id="med229f2425" d="M 0 0 
L -3.5 0 
" style="stroke: #000000; stroke-width: 0.8"/>
      </defs>
      <g>
       <use xlink:href="#med229f2425" x="43.78125" y="273.312" style="stroke: #000000; stroke-width: 0.8"/>
      </g>
     </g>
     <g id="text_11">
      <!-- 0.0 -->
      <g transform="translate(20.878125 277.111219)scale(0.1 -0.1)">
       <use xlink:href="#DejaVuSans-30"/>
       <use xlink:href="#DejaVuSans-2e" x="63.623047"/>
       <use xlink:href="#DejaVuSans-30" x="95.410156"/>
      </g>
     </g>
    </g>
    <g id="ytick_2">
     <g id="line2d_11">
      <g>
       <use xlink:href="#med229f2425" x="43.78125" y="226.749238" style="stroke: #000000; stroke-width: 0.8"/>
      </g>
     </g>
     <g id="text_12">
      <!-- 0.2 -->
      <g transform="translate(20.878125 230.548456)scale(0.1 -0.1)">
       <use xlink:href="#DejaVuSans-30"/>
       <use xlink:href="#DejaVuSans-2e" x="63.623047"/>
       <use xlink:href="#DejaVuSans-32" x="95.410156"/>
      </g>
     </g>
    </g>
    <g id="ytick_3">
     <g id="line2d_12">
      <g>
       <use xlink:href="#med229f2425" x="43.78125" y="180.186475" style="stroke: #000000; stroke-width: 0.8"/>
      </g>
     </g>
     <g id="text_13">
      <!-- 0.4 -->
      <g transform="translate(20.878125 183.985694)scale(0.1 -0.1)">
       <use xlink:href="#DejaVuSans-30"/>
       <use xlink:href="#DejaVuSans-2e" x="63.623047"/>
       <use xlink:href="#DejaVuSans-34" x="95.410156"/>
      </g>
     </g>
    </g>
    <g id="ytick_4">
     <g id="line2d_13">
      <g>
       <use xlink:href="#med229f2425" x="43.78125" y="133.623713" style="stroke: #000000; stroke-width: 0.8"/>
      </g>
     </g>
     <g id="text_14">
      <!-- 0.6 -->
      <g transform="translate(20.878125 137.422932)scale(0.1 -0.1)">
       <use xlink:href="#DejaVuSans-30"/>
       <use xlink:href="#DejaVuSans-2e" x="63.623047"/>
       <use xlink:href="#DejaVuSans-36" x="95.410156"/>
      </g>
     </g>
    </g>
    <g id="ytick_5">
     <g id="line2d_14">
      <g>
       <use xlink:href="#med229f2425" x="43.78125" y="87.06095" style="stroke: #000000; stroke-width: 0.8"/>
      </g>
     </g>
     <g id="text_15">
      <!-- 0.8 -->
      <g transform="translate(20.878125 90.860169)scale(0.1 -0.1)">
       <use xlink:href="#DejaVuSans-30"/>
       <use xlink:href="#DejaVuSans-2e" x="63.623047"/>
       <use xlink:href="#DejaVuSans-38" x="95.410156"/>
      </g>
     </g>
    </g>
    <g id="ytick_6">
     <g id="line2d_15">
      <g>
       <use xlink:href="#med229f2425" x="43.78125" y="40.498188" style="stroke: #000000; stroke-width: 0.8"/>
      </g>
     </g>
     <g id="text_16">
      <!-- 1.0 -->
      <g transform="translate(20.878125 44.297407)scale(0.1 -0.1)">
       <use xlink:href="#DejaVuSans-31"/>
       <use xlink:href="#DejaVuSans-2e" x="63.623047"/>
       <use xlink:href="#DejaVuSans-30" x="95.410156"/>
      </g>
     </g>
    </g>
    <g id="text_17">
     <!-- Probability density -->
     <g transform="translate(14.798438 186.606781)rotate(-90)scale(0.1 -0.1)">
      <defs>
       <path id="DejaVuSans-50" d="M 1259 4147 
L 1259 2394 
L 2053 2394 
Q 2494 2394 2734 2622 
Q 2975 2850 2975 3272 
Q 2975 3691 2734 3919 
Q 2494 4147 2053 4147 
L 1259 4147 
z
M 628 4666 
L 2053 4666 
Q 2838 4666 3239 4311 
Q 3641 3956 3641 3272 
Q 3641 2581 3239 2228 
Q 2838 1875 2053 1875 
L 1259 1875 
L 1259 0 
L 628 0 
L 628 4666 
z
" transform="scale(0.015625)"/>
       <path id="DejaVuSans-62" d="M 3116 1747 
Q 3116 2381 2855 2742 
Q 2594 3103 2138 3103 
Q 1681 3103 1420 2742 
Q 1159 2381 1159 1747 
Q 1159 1113 1420 752 
Q 1681 391 2138 391 
Q 2594 391 2855 752 
Q 3116 1113 3116 1747 
z
M 1159 2969 
Q 1341 3281 1617 3432 
Q 1894 3584 2278 3584 
Q 2916 3584 3314 3078 
Q 3713 2572 3713 1747 
Q 3713 922 3314 415 
Q 2916 -91 2278 -91 
Q 1894 -91 1617 61 
Q 1341 213 1159 525 
L 1159 0 
L 581 0 
L 581 4863 
L 1159 4863 
L 1159 2969 
z
" transform="scale(0.015625)"/>
       <path id="DejaVuSans-79" d="M 2059 -325 
Q 1816 -950 1584 -1140 
Q 1353 -1331 966 -1331 
L 506 -1331 
L 506 -850 
L 844 -850 
Q 1081 -850 1212 -737 
Q 1344 -625 1503 -206 
L 1606 56 
L 191 3500 
L 800 3500 
L 1894 763 
L 2988 3500 
L 3597 3500 
L 2059 -325 
z
" transform="scale(0.015625)"/>
       <path id="DejaVuSans-73" d="M 2834 3397 
L 2834 2853 
Q 2591 2978 2328 3040 
Q 2066 3103 1784 3103 
Q 1356 3103 1142 2972 
Q 928 2841 928 2578 
Q 928 2378 1081 2264 
Q 1234 2150 1697 2047 
L 1894 2003 
Q 2506 1872 2764 1633 
Q 3022 1394 3022 966 
Q 3022 478 2636 193 
Q 2250 -91 1575 -91 
Q 1294 -91 989 -36 
Q 684 19 347 128 
L 347 722 
Q 666 556 975 473 
Q 1284 391 1588 391 
Q 1994 391 2212 530 
Q 2431 669 2431 922 
Q 2431 1156 2273 1281 
Q 2116 1406 1581 1522 
L 1381 1569 
Q 847 1681 609 1914 
Q 372 2147 372 2553 
Q 372 3047 722 3315 
Q 1072 3584 1716 3584 
Q 2034 3584 2315 3537 
Q 2597 3491 2834 3397 
z
" transform="scale(0.015625)"/>
      </defs>
      <use xlink:href="#DejaVuSans-50"/>
      <use xlink:href="#DejaVuSans-72" x="58.552734"/>
      <use xlink:href="#DejaVuSans-6f" x="97.416016"/>
      <use xlink:href="#DejaVuSans-62" x="158.597656"/>
      <use xlink:href="#DejaVuSans-61" x="222.074219"/>
      <use xlink:href="#DejaVuSans-62" x="283.353516"/>
      <use xlink:href="#DejaVuSans-69" x="346.830078"/>
      <use xlink:href="#DejaVuSans-6c" x="374.613281"/>
      <use xlink:href="#DejaVuSans-69" x="402.396484"/>
      <use xlink:href="#DejaVuSans-74" x="430.179688"/>
      <use xlink:href="#DejaVuSans-79" x="469.388672"/>
      <use xlink:href="#DejaVuSans-20" x="528.568359"/>
      <use xlink:href="#DejaVuSans-64" x="560.355469"/>
      <use xlink:href="#DejaVuSans-65" x="623.832031"/>
      <use xlink:href="#DejaVuSans-6e" x="685.355469"/>
      <use xlink:href="#DejaVuSans-73" x="748.734375"/>
      <use xlink:href="#DejaVuSans-69" x="800.833984"/>
      <use xlink:href="#DejaVuSans-74" x="828.617188"/>
      <use xlink:href="#DejaVuSans-79" x="867.826172"/>
     </g>
    </g>
   </g>
   <g id="line2d_16">
    <path d="M 60.013977 273.312 
L 79.837728 228.924965 
L 90.237073 206.189638 
L 99.01152 187.525839 
L 106.811029 171.4506 
L 113.960578 157.222263 
L 120.460169 144.767661 
L 126.63478 133.405884 
L 132.484411 123.102057 
L 138.009063 113.811935 
L 143.208736 105.484155 
L 148.408408 97.581172 
L 153.283101 90.575731 
L 157.832814 84.403803 
L 162.382528 78.59798 
L 166.607261 73.544518 
L 170.831995 68.824882 
L 175.056729 64.446959 
L 178.956483 60.715431 
L 182.856238 57.286619 
L 186.755992 54.165405 
L 190.330767 51.578314 
L 193.905542 49.256525 
L 197.480316 47.202818 
L 201.055091 45.419649 
L 204.304886 44.035153 
L 207.554682 42.877379 
L 210.804477 41.947471 
L 214.054272 41.246349 
L 217.304067 40.774707 
L 220.553863 40.533011 
L 223.803658 40.521499 
L 227.053453 40.740184 
L 230.303248 41.188849 
L 233.553044 41.86705 
L 236.802839 42.774117 
L 240.052634 43.909152 
L 243.302429 45.271034 
L 246.552225 46.858416 
L 250.126999 48.863108 
L 253.701774 51.136351 
L 257.276549 53.675427 
L 260.851324 56.477297 
L 264.751078 59.82965 
L 268.650832 63.48598 
L 272.550587 67.441083 
L 276.77532 72.05639 
L 281.000054 77.00801 
L 285.224788 82.287668 
L 289.774501 88.330181 
L 294.324215 94.731189 
L 299.198908 101.973125 
L 304.39858 110.117588 
L 309.598252 118.67512 
L 315.122904 128.195853 
L 320.972536 138.727979 
L 327.147147 150.312229 
L 333.646737 162.97962 
L 340.796287 177.4157 
L 348.595795 193.684987 
L 357.370243 212.525126 
L 367.769587 235.410258 
L 382.393666 268.187446 
L 384.668523 273.312 
L 384.668523 273.312 
" clip-path="url(#pa98f942df1)" style="fill: none; stroke: #ff7f0e; stroke-width: 1.5; stroke-linecap: square"/>
   </g>
   <g id="patch_203">
    <path d="M 43.78125 273.312 
L 43.78125 7.2 
" style="fill: none; stroke: #000000; stroke-width: 0.8; stroke-linejoin: miter; stroke-linecap: square"/>
   </g>
   <g id="patch_204">
    <path d="M 400.90125 273.312 
L 400.90125 7.2 
" style="fill: none; stroke: #000000; stroke-width: 0.8; stroke-linejoin: miter; stroke-linecap: square"/>
   </g>
   <g id="patch_205">
    <path d="M 43.78125 273.312 
L 400.90125 273.312 
" style="fill: none; stroke: #000000; stroke-width: 0.8; stroke-linejoin: miter; stroke-linecap: square"/>
   </g>
   <g id="patch_206">
    <path d="M 43.78125 7.2 
L 400.90125 7.2 
" style="fill: none; stroke: #000000; stroke-width: 0.8; stroke-linejoin: miter; stroke-linecap: square"/>
   </g>
  </g>
 </g>
 <defs>
  <clipPath id="pa98f942df1">
   <rect x="43.78125" y="7.2" width="357.12" height="266.112"/>
  </clipPath>
 </defs>
</svg>
