<?xml version="1.0" encoding="utf-8" standalone="no"?>
<!DOCTYPE svg PUBLIC "-//W3C//DTD SVG 1.1//EN"
  "http://www.w3.org/Graphics/SVG/1.1/DTD/svg11.dtd">
<svg xmlns:xlink="http://www.w3.org/1999/xlink" width="819.090625pt" height="682.474375pt" viewBox="0 0 819.090625 682.474375" xmlns="http://www.w3.org/2000/svg" version="1.1">
 <metadata>
  <rdf:RDF xmlns:dc="http://purl.org/dc/elements/1.1/" xmlns:cc="http://creativecommons.org/ns#" xmlns:rdf="http://www.w3.org/1999/02/22-rdf-syntax-ns#">
   <cc:Work>
    <dc:type rdf:resource="http://purl.org/dc/dcmitype/StillImage"/>
    <dc:date>2022-04-01T12:41:04.443369</dc:date>
    <dc:format>image/svg+xml</dc:format>
    <dc:creator>
     <cc:Agent>
      <dc:title>Matplotlib v3.5.1, https://matplotlib.org/</dc:title>
     </cc:Agent>
    </dc:creator>
   </cc:Work>
  </rdf:RDF>
 </metadata>
 <defs>
  <style type="text/css">*{stroke-linejoin: round; stroke-linecap: butt}</style>
 </defs>
 <g id="figure_1">
  <g id="patch_1">
   <path d="M 0 682.474375 
L 819.090625 682.474375 
L 819.090625 0 
L 0 0 
z
" style="fill: #ffffff"/>
  </g>
  <g id="axes_1">
   <g id="patch_2">
    <path d="M 43.78125 305.218125 
L 690.34375 305.218125 
L 690.34375 22.318125 
L 43.78125 22.318125 
z
" style="fill: #ffffff"/>
   </g>
   <g id="matplotlib.axis_1">
    <g id="xtick_1">
     <g id="line2d_1">
      <path d="M 70.199365 305.218125 
L 70.199365 22.318125 
" clip-path="url(#p87f0791d13)" style="fill: none; stroke: #b0b0b0; stroke-width: 0.8; stroke-linecap: square"/>
     </g>
     <g id="line2d_2">
      <defs>
       <path id="m2db807837e" d="M 0 0 
L 0 3.5 
" style="stroke: #000000; stroke-width: 0.8"/>
      </defs>
      <g>
       <use xlink:href="#m2db807837e" x="70.199365" y="305.218125" style="stroke: #000000; stroke-width: 0.8"/>
      </g>
     </g>
     <g id="text_1">
      <!-- 1.0 -->
      <g transform="translate(62.247802 319.816562)scale(0.1 -0.1)">
       <defs>
        <path id="DejaVuSans-31" d="M 794 531 
L 1825 531 
L 1825 4091 
L 703 3866 
L 703 4441 
L 1819 4666 
L 2450 4666 
L 2450 531 
L 3481 531 
L 3481 0 
L 794 0 
L 794 531 
z
" transform="scale(0.015625)"/>
        <path id="DejaVuSans-2e" d="M 684 794 
L 1344 794 
L 1344 0 
L 684 0 
L 684 794 
z
" transform="scale(0.015625)"/>
        <path id="DejaVuSans-30" d="M 2034 4250 
Q 1547 4250 1301 3770 
Q 1056 3291 1056 2328 
Q 1056 1369 1301 889 
Q 1547 409 2034 409 
Q 2525 409 2770 889 
Q 3016 1369 3016 2328 
Q 3016 3291 2770 3770 
Q 2525 4250 2034 4250 
z
M 2034 4750 
Q 2819 4750 3233 4129 
Q 3647 3509 3647 2328 
Q 3647 1150 3233 529 
Q 2819 -91 2034 -91 
Q 1250 -91 836 529 
Q 422 1150 422 2328 
Q 422 3509 836 4129 
Q 1250 4750 2034 4750 
z
" transform="scale(0.015625)"/>
       </defs>
       <use xlink:href="#DejaVuSans-31"/>
       <use xlink:href="#DejaVuSans-2e" x="63.623047"/>
       <use xlink:href="#DejaVuSans-30" x="95.410156"/>
      </g>
     </g>
    </g>
    <g id="xtick_2">
     <g id="line2d_3">
      <path d="M 188.974339 305.218125 
L 188.974339 22.318125 
" clip-path="url(#p87f0791d13)" style="fill: none; stroke: #b0b0b0; stroke-width: 0.8; stroke-linecap: square"/>
     </g>
     <g id="line2d_4">
      <g>
       <use xlink:href="#m2db807837e" x="188.974339" y="305.218125" style="stroke: #000000; stroke-width: 0.8"/>
      </g>
     </g>
     <g id="text_2">
      <!-- 1.2 -->
      <g transform="translate(181.022776 319.816562)scale(0.1 -0.1)">
       <defs>
        <path id="DejaVuSans-32" d="M 1228 531 
L 3431 531 
L 3431 0 
L 469 0 
L 469 531 
Q 828 903 1448 1529 
Q 2069 2156 2228 2338 
Q 2531 2678 2651 2914 
Q 2772 3150 2772 3378 
Q 2772 3750 2511 3984 
Q 2250 4219 1831 4219 
Q 1534 4219 1204 4116 
Q 875 4013 500 3803 
L 500 4441 
Q 881 4594 1212 4672 
Q 1544 4750 1819 4750 
Q 2544 4750 2975 4387 
Q 3406 4025 3406 3419 
Q 3406 3131 3298 2873 
Q 3191 2616 2906 2266 
Q 2828 2175 2409 1742 
Q 1991 1309 1228 531 
z
" transform="scale(0.015625)"/>
       </defs>
       <use xlink:href="#DejaVuSans-31"/>
       <use xlink:href="#DejaVuSans-2e" x="63.623047"/>
       <use xlink:href="#DejaVuSans-32" x="95.410156"/>
      </g>
     </g>
    </g>
    <g id="xtick_3">
     <g id="line2d_5">
      <path d="M 307.749312 305.218125 
L 307.749312 22.318125 
" clip-path="url(#p87f0791d13)" style="fill: none; stroke: #b0b0b0; stroke-width: 0.8; stroke-linecap: square"/>
     </g>
     <g id="line2d_6">
      <g>
       <use xlink:href="#m2db807837e" x="307.749312" y="305.218125" style="stroke: #000000; stroke-width: 0.8"/>
      </g>
     </g>
     <g id="text_3">
      <!-- 1.4 -->
      <g transform="translate(299.79775 319.816562)scale(0.1 -0.1)">
       <defs>
        <path id="DejaVuSans-34" d="M 2419 4116 
L 825 1625 
L 2419 1625 
L 2419 4116 
z
M 2253 4666 
L 3047 4666 
L 3047 1625 
L 3713 1625 
L 3713 1100 
L 3047 1100 
L 3047 0 
L 2419 0 
L 2419 1100 
L 313 1100 
L 313 1709 
L 2253 4666 
z
" transform="scale(0.015625)"/>
       </defs>
       <use xlink:href="#DejaVuSans-31"/>
       <use xlink:href="#DejaVuSans-2e" x="63.623047"/>
       <use xlink:href="#DejaVuSans-34" x="95.410156"/>
      </g>
     </g>
    </g>
    <g id="xtick_4">
     <g id="line2d_7">
      <path d="M 426.524286 305.218125 
L 426.524286 22.318125 
" clip-path="url(#p87f0791d13)" style="fill: none; stroke: #b0b0b0; stroke-width: 0.8; stroke-linecap: square"/>
     </g>
     <g id="line2d_8">
      <g>
       <use xlink:href="#m2db807837e" x="426.524286" y="305.218125" style="stroke: #000000; stroke-width: 0.8"/>
      </g>
     </g>
     <g id="text_4">
      <!-- 1.6 -->
      <g transform="translate(418.572724 319.816562)scale(0.1 -0.1)">
       <defs>
        <path id="DejaVuSans-36" d="M 2113 2584 
Q 1688 2584 1439 2293 
Q 1191 2003 1191 1497 
Q 1191 994 1439 701 
Q 1688 409 2113 409 
Q 2538 409 2786 701 
Q 3034 994 3034 1497 
Q 3034 2003 2786 2293 
Q 2538 2584 2113 2584 
z
M 3366 4563 
L 3366 3988 
Q 3128 4100 2886 4159 
Q 2644 4219 2406 4219 
Q 1781 4219 1451 3797 
Q 1122 3375 1075 2522 
Q 1259 2794 1537 2939 
Q 1816 3084 2150 3084 
Q 2853 3084 3261 2657 
Q 3669 2231 3669 1497 
Q 3669 778 3244 343 
Q 2819 -91 2113 -91 
Q 1303 -91 875 529 
Q 447 1150 447 2328 
Q 447 3434 972 4092 
Q 1497 4750 2381 4750 
Q 2619 4750 2861 4703 
Q 3103 4656 3366 4563 
z
" transform="scale(0.015625)"/>
       </defs>
       <use xlink:href="#DejaVuSans-31"/>
       <use xlink:href="#DejaVuSans-2e" x="63.623047"/>
       <use xlink:href="#DejaVuSans-36" x="95.410156"/>
      </g>
     </g>
    </g>
    <g id="xtick_5">
     <g id="line2d_9">
      <path d="M 545.29926 305.218125 
L 545.29926 22.318125 
" clip-path="url(#p87f0791d13)" style="fill: none; stroke: #b0b0b0; stroke-width: 0.8; stroke-linecap: square"/>
     </g>
     <g id="line2d_10">
      <g>
       <use xlink:href="#m2db807837e" x="545.29926" y="305.218125" style="stroke: #000000; stroke-width: 0.8"/>
      </g>
     </g>
     <g id="text_5">
      <!-- 1.8 -->
      <g transform="translate(537.347698 319.816562)scale(0.1 -0.1)">
       <defs>
        <path id="DejaVuSans-38" d="M 2034 2216 
Q 1584 2216 1326 1975 
Q 1069 1734 1069 1313 
Q 1069 891 1326 650 
Q 1584 409 2034 409 
Q 2484 409 2743 651 
Q 3003 894 3003 1313 
Q 3003 1734 2745 1975 
Q 2488 2216 2034 2216 
z
M 1403 2484 
Q 997 2584 770 2862 
Q 544 3141 544 3541 
Q 544 4100 942 4425 
Q 1341 4750 2034 4750 
Q 2731 4750 3128 4425 
Q 3525 4100 3525 3541 
Q 3525 3141 3298 2862 
Q 3072 2584 2669 2484 
Q 3125 2378 3379 2068 
Q 3634 1759 3634 1313 
Q 3634 634 3220 271 
Q 2806 -91 2034 -91 
Q 1263 -91 848 271 
Q 434 634 434 1313 
Q 434 1759 690 2068 
Q 947 2378 1403 2484 
z
M 1172 3481 
Q 1172 3119 1398 2916 
Q 1625 2713 2034 2713 
Q 2441 2713 2670 2916 
Q 2900 3119 2900 3481 
Q 2900 3844 2670 4047 
Q 2441 4250 2034 4250 
Q 1625 4250 1398 4047 
Q 1172 3844 1172 3481 
z
" transform="scale(0.015625)"/>
       </defs>
       <use xlink:href="#DejaVuSans-31"/>
       <use xlink:href="#DejaVuSans-2e" x="63.623047"/>
       <use xlink:href="#DejaVuSans-38" x="95.410156"/>
      </g>
     </g>
    </g>
    <g id="xtick_6">
     <g id="line2d_11">
      <path d="M 664.074234 305.218125 
L 664.074234 22.318125 
" clip-path="url(#p87f0791d13)" style="fill: none; stroke: #b0b0b0; stroke-width: 0.8; stroke-linecap: square"/>
     </g>
     <g id="line2d_12">
      <g>
       <use xlink:href="#m2db807837e" x="664.074234" y="305.218125" style="stroke: #000000; stroke-width: 0.8"/>
      </g>
     </g>
     <g id="text_6">
      <!-- 2.0 -->
      <g transform="translate(656.122671 319.816562)scale(0.1 -0.1)">
       <use xlink:href="#DejaVuSans-32"/>
       <use xlink:href="#DejaVuSans-2e" x="63.623047"/>
       <use xlink:href="#DejaVuSans-30" x="95.410156"/>
      </g>
     </g>
    </g>
    <g id="text_7">
     <!-- 1e11 -->
     <g transform="translate(665.103125 332.494687)scale(0.1 -0.1)">
      <defs>
       <path id="DejaVuSans-65" d="M 3597 1894 
L 3597 1613 
L 953 1613 
Q 991 1019 1311 708 
Q 1631 397 2203 397 
Q 2534 397 2845 478 
Q 3156 559 3463 722 
L 3463 178 
Q 3153 47 2828 -22 
Q 2503 -91 2169 -91 
Q 1331 -91 842 396 
Q 353 884 353 1716 
Q 353 2575 817 3079 
Q 1281 3584 2069 3584 
Q 2775 3584 3186 3129 
Q 3597 2675 3597 1894 
z
M 3022 2063 
Q 3016 2534 2758 2815 
Q 2500 3097 2075 3097 
Q 1594 3097 1305 2825 
Q 1016 2553 972 2059 
L 3022 2063 
z
" transform="scale(0.015625)"/>
      </defs>
      <use xlink:href="#DejaVuSans-31"/>
      <use xlink:href="#DejaVuSans-65" x="63.623047"/>
      <use xlink:href="#DejaVuSans-31" x="125.146484"/>
      <use xlink:href="#DejaVuSans-31" x="188.769531"/>
     </g>
    </g>
   </g>
   <g id="matplotlib.axis_2">
    <g id="ytick_1">
     <g id="line2d_13">
      <path d="M 43.78125 292.359034 
L 690.34375 292.359034 
" clip-path="url(#p87f0791d13)" style="fill: none; stroke: #b0b0b0; stroke-width: 0.8; stroke-linecap: square"/>
     </g>
     <g id="line2d_14">
      <defs>
       <path id="md6faf86766" d="M 0 0 
L -3.5 0 
" style="stroke: #000000; stroke-width: 0.8"/>
      </defs>
      <g>
       <use xlink:href="#md6faf86766" x="43.78125" y="292.359034" style="stroke: #000000; stroke-width: 0.8"/>
      </g>
     </g>
     <g id="text_8">
      <!-- 0.0 -->
      <g transform="translate(20.878125 296.158253)scale(0.1 -0.1)">
       <use xlink:href="#DejaVuSans-30"/>
       <use xlink:href="#DejaVuSans-2e" x="63.623047"/>
       <use xlink:href="#DejaVuSans-30" x="95.410156"/>
      </g>
     </g>
    </g>
    <g id="ytick_2">
     <g id="line2d_15">
      <path d="M 43.78125 240.92267 
L 690.34375 240.92267 
" clip-path="url(#p87f0791d13)" style="fill: none; stroke: #b0b0b0; stroke-width: 0.8; stroke-linecap: square"/>
     </g>
     <g id="line2d_16">
      <g>
       <use xlink:href="#md6faf86766" x="43.78125" y="240.92267" style="stroke: #000000; stroke-width: 0.8"/>
      </g>
     </g>
     <g id="text_9">
      <!-- 0.2 -->
      <g transform="translate(20.878125 244.721889)scale(0.1 -0.1)">
       <use xlink:href="#DejaVuSans-30"/>
       <use xlink:href="#DejaVuSans-2e" x="63.623047"/>
       <use xlink:href="#DejaVuSans-32" x="95.410156"/>
      </g>
     </g>
    </g>
    <g id="ytick_3">
     <g id="line2d_17">
      <path d="M 43.78125 189.486307 
L 690.34375 189.486307 
" clip-path="url(#p87f0791d13)" style="fill: none; stroke: #b0b0b0; stroke-width: 0.8; stroke-linecap: square"/>
     </g>
     <g id="line2d_18">
      <g>
       <use xlink:href="#md6faf86766" x="43.78125" y="189.486307" style="stroke: #000000; stroke-width: 0.8"/>
      </g>
     </g>
     <g id="text_10">
      <!-- 0.4 -->
      <g transform="translate(20.878125 193.285526)scale(0.1 -0.1)">
       <use xlink:href="#DejaVuSans-30"/>
       <use xlink:href="#DejaVuSans-2e" x="63.623047"/>
       <use xlink:href="#DejaVuSans-34" x="95.410156"/>
      </g>
     </g>
    </g>
    <g id="ytick_4">
     <g id="line2d_19">
      <path d="M 43.78125 138.049943 
L 690.34375 138.049943 
" clip-path="url(#p87f0791d13)" style="fill: none; stroke: #b0b0b0; stroke-width: 0.8; stroke-linecap: square"/>
     </g>
     <g id="line2d_20">
      <g>
       <use xlink:href="#md6faf86766" x="43.78125" y="138.049943" style="stroke: #000000; stroke-width: 0.8"/>
      </g>
     </g>
     <g id="text_11">
      <!-- 0.6 -->
      <g transform="translate(20.878125 141.849162)scale(0.1 -0.1)">
       <use xlink:href="#DejaVuSans-30"/>
       <use xlink:href="#DejaVuSans-2e" x="63.623047"/>
       <use xlink:href="#DejaVuSans-36" x="95.410156"/>
      </g>
     </g>
    </g>
    <g id="ytick_5">
     <g id="line2d_21">
      <path d="M 43.78125 86.61358 
L 690.34375 86.61358 
" clip-path="url(#p87f0791d13)" style="fill: none; stroke: #b0b0b0; stroke-width: 0.8; stroke-linecap: square"/>
     </g>
     <g id="line2d_22">
      <g>
       <use xlink:href="#md6faf86766" x="43.78125" y="86.61358" style="stroke: #000000; stroke-width: 0.8"/>
      </g>
     </g>
     <g id="text_12">
      <!-- 0.8 -->
      <g transform="translate(20.878125 90.412798)scale(0.1 -0.1)">
       <use xlink:href="#DejaVuSans-30"/>
       <use xlink:href="#DejaVuSans-2e" x="63.623047"/>
       <use xlink:href="#DejaVuSans-38" x="95.410156"/>
      </g>
     </g>
    </g>
    <g id="ytick_6">
     <g id="line2d_23">
      <path d="M 43.78125 35.177216 
L 690.34375 35.177216 
" clip-path="url(#p87f0791d13)" style="fill: none; stroke: #b0b0b0; stroke-width: 0.8; stroke-linecap: square"/>
     </g>
     <g id="line2d_24">
      <g>
       <use xlink:href="#md6faf86766" x="43.78125" y="35.177216" style="stroke: #000000; stroke-width: 0.8"/>
      </g>
     </g>
     <g id="text_13">
      <!-- 1.0 -->
      <g transform="translate(20.878125 38.976435)scale(0.1 -0.1)">
       <use xlink:href="#DejaVuSans-31"/>
       <use xlink:href="#DejaVuSans-2e" x="63.623047"/>
       <use xlink:href="#DejaVuSans-30" x="95.410156"/>
      </g>
     </g>
    </g>
    <g id="text_14">
     <!-- Profile (arb. unit) -->
     <g transform="translate(14.798438 205.961875)rotate(-90)scale(0.1 -0.1)">
      <defs>
       <path id="DejaVuSans-50" d="M 1259 4147 
L 1259 2394 
L 2053 2394 
Q 2494 2394 2734 2622 
Q 2975 2850 2975 3272 
Q 2975 3691 2734 3919 
Q 2494 4147 2053 4147 
L 1259 4147 
z
M 628 4666 
L 2053 4666 
Q 2838 4666 3239 4311 
Q 3641 3956 3641 3272 
Q 3641 2581 3239 2228 
Q 2838 1875 2053 1875 
L 1259 1875 
L 1259 0 
L 628 0 
L 628 4666 
z
" transform="scale(0.015625)"/>
       <path id="DejaVuSans-72" d="M 2631 2963 
Q 2534 3019 2420 3045 
Q 2306 3072 2169 3072 
Q 1681 3072 1420 2755 
Q 1159 2438 1159 1844 
L 1159 0 
L 581 0 
L 581 3500 
L 1159 3500 
L 1159 2956 
Q 1341 3275 1631 3429 
Q 1922 3584 2338 3584 
Q 2397 3584 2469 3576 
Q 2541 3569 2628 3553 
L 2631 2963 
z
" transform="scale(0.015625)"/>
       <path id="DejaVuSans-6f" d="M 1959 3097 
Q 1497 3097 1228 2736 
Q 959 2375 959 1747 
Q 959 1119 1226 758 
Q 1494 397 1959 397 
Q 2419 397 2687 759 
Q 2956 1122 2956 1747 
Q 2956 2369 2687 2733 
Q 2419 3097 1959 3097 
z
M 1959 3584 
Q 2709 3584 3137 3096 
Q 3566 2609 3566 1747 
Q 3566 888 3137 398 
Q 2709 -91 1959 -91 
Q 1206 -91 779 398 
Q 353 888 353 1747 
Q 353 2609 779 3096 
Q 1206 3584 1959 3584 
z
" transform="scale(0.015625)"/>
       <path id="DejaVuSans-66" d="M 2375 4863 
L 2375 4384 
L 1825 4384 
Q 1516 4384 1395 4259 
Q 1275 4134 1275 3809 
L 1275 3500 
L 2222 3500 
L 2222 3053 
L 1275 3053 
L 1275 0 
L 697 0 
L 697 3053 
L 147 3053 
L 147 3500 
L 697 3500 
L 697 3744 
Q 697 4328 969 4595 
Q 1241 4863 1831 4863 
L 2375 4863 
z
" transform="scale(0.015625)"/>
       <path id="DejaVuSans-69" d="M 603 3500 
L 1178 3500 
L 1178 0 
L 603 0 
L 603 3500 
z
M 603 4863 
L 1178 4863 
L 1178 4134 
L 603 4134 
L 603 4863 
z
" transform="scale(0.015625)"/>
       <path id="DejaVuSans-6c" d="M 603 4863 
L 1178 4863 
L 1178 0 
L 603 0 
L 603 4863 
z
" transform="scale(0.015625)"/>
       <path id="DejaVuSans-20" transform="scale(0.015625)"/>
       <path id="DejaVuSans-28" d="M 1984 4856 
Q 1566 4138 1362 3434 
Q 1159 2731 1159 2009 
Q 1159 1288 1364 580 
Q 1569 -128 1984 -844 
L 1484 -844 
Q 1016 -109 783 600 
Q 550 1309 550 2009 
Q 550 2706 781 3412 
Q 1013 4119 1484 4856 
L 1984 4856 
z
" transform="scale(0.015625)"/>
       <path id="DejaVuSans-61" d="M 2194 1759 
Q 1497 1759 1228 1600 
Q 959 1441 959 1056 
Q 959 750 1161 570 
Q 1363 391 1709 391 
Q 2188 391 2477 730 
Q 2766 1069 2766 1631 
L 2766 1759 
L 2194 1759 
z
M 3341 1997 
L 3341 0 
L 2766 0 
L 2766 531 
Q 2569 213 2275 61 
Q 1981 -91 1556 -91 
Q 1019 -91 701 211 
Q 384 513 384 1019 
Q 384 1609 779 1909 
Q 1175 2209 1959 2209 
L 2766 2209 
L 2766 2266 
Q 2766 2663 2505 2880 
Q 2244 3097 1772 3097 
Q 1472 3097 1187 3025 
Q 903 2953 641 2809 
L 641 3341 
Q 956 3463 1253 3523 
Q 1550 3584 1831 3584 
Q 2591 3584 2966 3190 
Q 3341 2797 3341 1997 
z
" transform="scale(0.015625)"/>
       <path id="DejaVuSans-62" d="M 3116 1747 
Q 3116 2381 2855 2742 
Q 2594 3103 2138 3103 
Q 1681 3103 1420 2742 
Q 1159 2381 1159 1747 
Q 1159 1113 1420 752 
Q 1681 391 2138 391 
Q 2594 391 2855 752 
Q 3116 1113 3116 1747 
z
M 1159 2969 
Q 1341 3281 1617 3432 
Q 1894 3584 2278 3584 
Q 2916 3584 3314 3078 
Q 3713 2572 3713 1747 
Q 3713 922 3314 415 
Q 2916 -91 2278 -91 
Q 1894 -91 1617 61 
Q 1341 213 1159 525 
L 1159 0 
L 581 0 
L 581 4863 
L 1159 4863 
L 1159 2969 
z
" transform="scale(0.015625)"/>
       <path id="DejaVuSans-75" d="M 544 1381 
L 544 3500 
L 1119 3500 
L 1119 1403 
Q 1119 906 1312 657 
Q 1506 409 1894 409 
Q 2359 409 2629 706 
Q 2900 1003 2900 1516 
L 2900 3500 
L 3475 3500 
L 3475 0 
L 2900 0 
L 2900 538 
Q 2691 219 2414 64 
Q 2138 -91 1772 -91 
Q 1169 -91 856 284 
Q 544 659 544 1381 
z
M 1991 3584 
L 1991 3584 
z
" transform="scale(0.015625)"/>
       <path id="DejaVuSans-6e" d="M 3513 2113 
L 3513 0 
L 2938 0 
L 2938 2094 
Q 2938 2591 2744 2837 
Q 2550 3084 2163 3084 
Q 1697 3084 1428 2787 
Q 1159 2491 1159 1978 
L 1159 0 
L 581 0 
L 581 3500 
L 1159 3500 
L 1159 2956 
Q 1366 3272 1645 3428 
Q 1925 3584 2291 3584 
Q 2894 3584 3203 3211 
Q 3513 2838 3513 2113 
z
" transform="scale(0.015625)"/>
       <path id="DejaVuSans-74" d="M 1172 4494 
L 1172 3500 
L 2356 3500 
L 2356 3053 
L 1172 3053 
L 1172 1153 
Q 1172 725 1289 603 
Q 1406 481 1766 481 
L 2356 481 
L 2356 0 
L 1766 0 
Q 1100 0 847 248 
Q 594 497 594 1153 
L 594 3053 
L 172 3053 
L 172 3500 
L 594 3500 
L 594 4494 
L 1172 4494 
z
" transform="scale(0.015625)"/>
       <path id="DejaVuSans-29" d="M 513 4856 
L 1013 4856 
Q 1481 4119 1714 3412 
Q 1947 2706 1947 2009 
Q 1947 1309 1714 600 
Q 1481 -109 1013 -844 
L 513 -844 
Q 928 -128 1133 580 
Q 1338 1288 1338 2009 
Q 1338 2731 1133 3434 
Q 928 4138 513 4856 
z
" transform="scale(0.015625)"/>
      </defs>
      <use xlink:href="#DejaVuSans-50"/>
      <use xlink:href="#DejaVuSans-72" x="58.552734"/>
      <use xlink:href="#DejaVuSans-6f" x="97.416016"/>
      <use xlink:href="#DejaVuSans-66" x="158.597656"/>
      <use xlink:href="#DejaVuSans-69" x="193.802734"/>
      <use xlink:href="#DejaVuSans-6c" x="221.585938"/>
      <use xlink:href="#DejaVuSans-65" x="249.369141"/>
      <use xlink:href="#DejaVuSans-20" x="310.892578"/>
      <use xlink:href="#DejaVuSans-28" x="342.679688"/>
      <use xlink:href="#DejaVuSans-61" x="381.693359"/>
      <use xlink:href="#DejaVuSans-72" x="442.972656"/>
      <use xlink:href="#DejaVuSans-62" x="484.085938"/>
      <use xlink:href="#DejaVuSans-2e" x="547.5625"/>
      <use xlink:href="#DejaVuSans-20" x="579.349609"/>
      <use xlink:href="#DejaVuSans-75" x="611.136719"/>
      <use xlink:href="#DejaVuSans-6e" x="674.515625"/>
      <use xlink:href="#DejaVuSans-69" x="737.894531"/>
      <use xlink:href="#DejaVuSans-74" x="765.677734"/>
      <use xlink:href="#DejaVuSans-29" x="804.886719"/>
     </g>
    </g>
   </g>
   <g id="line2d_25">
    <path d="M 73.170455 35.177216 
L 79.107668 41.326039 
L 85.044881 46.871514 
L 90.982094 52.605854 
L 96.919307 58.098731 
L 102.85652 63.369081 
L 108.793733 67.924408 
L 114.730946 72.438323 
L 120.668159 76.358607 
L 126.605372 80.360465 
L 132.542585 83.66811 
L 138.479798 86.969931 
L 144.417011 89.996284 
L 150.354224 93.404191 
L 156.291437 96.639485 
L 162.22865 99.867423 
L 168.165863 103.806409 
L 174.103076 108.287274 
L 180.040289 112.839951 
L 185.977502 118.056291 
L 191.914715 122.887148 
L 197.851928 128.719019 
L 203.789141 134.402364 
L 209.726354 140.071736 
L 215.663567 145.638896 
L 221.600781 151.162488 
L 227.537994 156.392271 
L 233.475207 161.456398 
L 239.41242 166.414111 
L 245.349633 171.304479 
L 251.286846 175.617593 
L 257.224059 180.066516 
L 263.161272 184.339388 
L 269.098485 188.40777 
L 275.035698 192.489227 
L 280.972911 196.485302 
L 286.910124 200.304673 
L 292.847337 204.043633 
L 298.78455 207.653939 
L 304.721763 211.109402 
L 310.658976 214.497004 
L 316.596189 217.82526 
L 322.533402 220.909003 
L 328.470615 224.141735 
L 334.407828 227.108827 
L 340.345041 229.822549 
L 346.282254 232.459556 
L 352.219467 234.696748 
L 358.15668 236.599981 
L 364.093893 237.954284 
L 370.031107 238.690788 
L 375.96832 238.738883 
L 381.905533 238.389193 
L 387.842746 237.829534 
L 393.779959 237.130295 
L 399.717172 236.414236 
L 405.654385 236.346154 
L 411.591598 237.260481 
L 417.528811 238.51944 
L 423.466024 240.562507 
L 429.403237 243.230297 
L 435.34045 246.325215 
L 441.277663 249.721667 
L 447.214876 253.3064 
L 453.152089 256.548656 
L 459.089302 259.990029 
L 465.026515 263.166531 
L 470.963728 265.899251 
L 476.900941 268.661908 
L 482.838154 271.140884 
L 488.775367 272.968618 
L 494.71258 275.068201 
L 500.649793 276.619217 
L 506.587006 278.293107 
L 512.524219 279.592934 
L 518.461433 280.744356 
L 524.398646 281.884669 
L 530.335859 282.69532 
L 536.273072 283.596943 
L 542.210285 284.338505 
L 548.147498 285.02335 
L 554.084711 285.554415 
L 560.021924 286.11565 
L 565.959137 286.527908 
L 571.89635 287.086383 
L 577.833563 287.381665 
L 583.770776 287.691949 
L 589.707989 288.015982 
L 595.645202 288.26398 
L 601.582415 288.556191 
L 607.519628 288.827296 
L 613.456841 288.93096 
L 619.394054 289.171 
L 625.331267 289.411394 
L 631.26848 289.532476 
L 637.205693 289.708702 
L 643.142906 289.783667 
L 649.080119 289.981893 
L 655.017332 290.165684 
L 660.954545 290.227383 
" clip-path="url(#p87f0791d13)" style="fill: none; stroke: #1f77b4; stroke-width: 1.5; stroke-linecap: square"/>
   </g>
   <g id="line2d_26">
    <path d="M 73.170455 162.946414 
L 79.107668 161.662478 
L 85.044881 160.378572 
L 90.982094 159.075571 
L 96.919307 157.784072 
L 102.85652 156.481522 
L 108.793733 155.201615 
L 114.730946 153.901926 
L 120.668159 152.631648 
L 126.605372 151.335487 
L 132.542585 150.047391 
L 138.479798 148.744033 
L 144.417011 147.470873 
L 150.354224 146.179105 
L 156.291437 144.889885 
L 162.22865 143.59407 
L 168.165863 142.304221 
L 174.103076 141.004073 
L 180.040289 139.728265 
L 185.977502 138.450146 
L 191.914715 137.147279 
L 197.851928 135.853426 
L 203.789141 134.559875 
L 209.726354 133.263891 
L 215.663567 131.995368 
L 221.600781 130.681296 
L 227.537994 129.411471 
L 233.475207 128.121017 
L 239.41242 126.814296 
L 245.349633 125.529915 
L 251.286846 124.254462 
L 257.224059 122.951582 
L 263.161272 121.66697 
L 269.098485 120.385406 
L 275.035698 119.078119 
L 280.972911 117.793081 
L 286.910124 116.505216 
L 292.847337 115.213652 
L 298.78455 113.914429 
L 304.721763 112.639218 
L 310.658976 111.329754 
L 316.596189 110.051212 
L 322.533402 108.775517 
L 328.470615 107.466814 
L 334.407828 106.193469 
L 340.345041 104.920547 
L 346.282254 103.612178 
L 352.219467 102.331627 
L 358.15668 101.052567 
L 364.093893 99.757047 
L 370.031107 98.46343 
L 375.96832 97.190649 
L 381.905533 95.908656 
L 387.842746 94.605115 
L 393.779959 93.323347 
L 399.717172 92.039822 
L 405.654385 90.748765 
L 411.591598 89.435282 
L 417.528811 88.164099 
L 423.466024 86.889521 
L 429.403237 85.588561 
L 435.34045 84.30001 
L 441.277663 83.014875 
L 447.214876 81.735549 
L 453.152089 80.432276 
L 459.089302 79.160686 
L 465.026515 77.855094 
L 470.963728 76.556684 
L 476.900941 75.267287 
L 482.838154 73.971912 
L 488.775367 72.694608 
L 494.71258 71.399421 
L 500.649793 70.113435 
L 506.587006 68.821055 
L 512.524219 67.50983 
L 518.461433 66.244238 
L 524.398646 64.925691 
L 530.335859 63.614771 
L 536.273072 62.314338 
L 542.210285 61.043498 
L 548.147498 59.721916 
L 554.084711 58.404299 
L 560.021924 57.187824 
L 565.959137 55.830533 
L 571.89635 54.575321 
L 577.833563 53.268363 
L 583.770776 51.98584 
L 589.707989 50.720672 
L 595.645202 49.406787 
L 601.582415 48.102811 
L 607.519628 46.800494 
L 613.456841 45.534715 
L 619.394054 44.249933 
L 625.331267 42.892848 
L 631.26848 41.622429 
L 637.205693 40.286011 
L 643.142906 39.044785 
L 649.080119 37.742139 
L 655.017332 36.454013 
L 660.954545 35.177216 
" clip-path="url(#p87f0791d13)" style="fill: none; stroke: #ff7f0e; stroke-width: 1.5; stroke-linecap: square"/>
   </g>
   <g id="line2d_27">
    <path d="M 73.170455 67.957078 
L 79.107668 72.237099 
L 85.044881 76.74169 
L 90.982094 82.284704 
L 96.919307 88.203228 
L 102.85652 95.201232 
L 108.793733 102.977898 
L 114.730946 111.778753 
L 120.668159 121.633705 
L 126.605372 132.547233 
L 132.542585 144.340778 
L 138.479798 157.038415 
L 144.417011 170.268412 
L 150.354224 183.344785 
L 156.291437 196.309133 
L 162.22865 208.61575 
L 168.165863 220.063944 
L 174.103076 229.810097 
L 180.040289 237.978102 
L 185.977502 245.077688 
L 191.914715 250.395628 
L 197.851928 254.852608 
L 203.789141 258.137336 
L 209.726354 260.681426 
L 215.663567 262.58896 
L 221.600781 264.187605 
L 227.537994 265.584098 
L 233.475207 266.776647 
L 239.41242 267.97836 
L 245.349633 269.047497 
L 251.286846 270.120462 
L 257.224059 271.148012 
L 263.161272 272.129126 
L 269.098485 273.22706 
L 275.035698 274.42407 
L 280.972911 275.750561 
L 286.910124 277.219741 
L 292.847337 278.917445 
L 298.78455 280.660588 
L 304.721763 282.470993 
L 310.658976 284.154503 
L 316.596189 285.768271 
L 322.533402 287.311295 
L 328.470615 288.648342 
L 334.407828 289.674486 
L 340.345041 290.591305 
L 346.282254 291.265926 
L 352.219467 291.712932 
L 358.15668 291.999481 
L 364.093893 292.181983 
L 370.031107 292.272943 
L 375.96832 292.322492 
L 381.905533 292.342585 
L 387.842746 292.352556 
L 393.779959 292.355906 
L 399.717172 292.357763 
L 405.654385 292.35854 
L 411.591598 292.35878 
L 417.528811 292.358911 
L 423.466024 292.358987 
L 429.403237 292.359012 
L 435.34045 292.359021 
L 441.277663 292.359028 
L 447.214876 292.359032 
L 453.152089 292.359033 
L 459.089302 292.359033 
L 465.026515 292.359034 
L 470.963728 292.359034 
L 476.900941 292.359034 
L 482.838154 292.359034 
L 488.775367 292.359034 
L 494.71258 292.359034 
L 500.649793 292.359034 
L 506.587006 292.359034 
L 512.524219 292.359034 
L 518.461433 292.359034 
L 524.398646 292.359034 
L 530.335859 292.359034 
L 536.273072 292.359034 
L 542.210285 292.359034 
L 548.147498 292.359034 
L 554.084711 292.359034 
L 560.021924 292.359034 
L 565.959137 292.359034 
L 571.89635 292.359034 
L 577.833563 292.359034 
L 583.770776 292.359034 
L 589.707989 292.359034 
L 595.645202 292.359034 
L 601.582415 292.359034 
L 607.519628 292.359034 
L 613.456841 292.359034 
L 619.394054 292.359034 
L 625.331267 292.359034 
L 631.26848 292.359034 
L 637.205693 292.359034 
L 643.142906 292.359034 
L 649.080119 292.359034 
L 655.017332 292.359034 
L 660.954545 292.359034 
" clip-path="url(#p87f0791d13)" style="fill: none; stroke: #2ca02c; stroke-width: 1.5; stroke-linecap: square"/>
   </g>
   <g id="line2d_28">
    <path d="M 73.170455 287.469999 
L 79.107668 286.275726 
L 85.044881 284.950041 
L 90.982094 283.23483 
L 96.919307 281.316266 
L 102.85652 278.934689 
L 108.793733 276.157863 
L 114.730946 272.86172 
L 120.668159 268.991399 
L 126.605372 264.488233 
L 132.542585 259.36555 
L 138.479798 253.5576 
L 144.417011 247.15526 
L 150.354224 240.466693 
L 156.291437 233.416371 
L 162.22865 226.2988 
L 168.165863 219.221099 
L 174.103076 212.764355 
L 180.040289 206.966982 
L 185.977502 201.569132 
L 191.914715 197.243755 
L 197.851928 193.376679 
L 203.789141 190.359013 
L 209.726354 187.890372 
L 215.663567 185.952576 
L 221.600781 184.269865 
L 227.537994 182.736969 
L 233.475207 181.38384 
L 239.41242 179.963926 
L 245.349633 178.653242 
L 251.286846 177.315758 
L 257.224059 176.059906 
L 263.161272 174.966749 
L 269.098485 173.976826 
L 275.035698 173.309187 
L 280.972911 173.069286 
L 286.910124 173.341447 
L 292.847337 173.953356 
L 298.78455 174.963342 
L 304.721763 176.184318 
L 310.658976 177.347825 
L 316.596189 178.431641 
L 322.533402 179.384909 
L 328.470615 179.960553 
L 334.407828 180.245478 
L 340.345041 180.05362 
L 346.282254 179.213805 
L 352.219467 177.859347 
L 358.15668 175.717507 
L 364.093893 173.160472 
L 370.031107 170.88055 
L 375.96832 169.236023 
L 381.905533 168.795937 
L 387.842746 169.483955 
L 393.779959 171.311455 
L 399.717172 174.184194 
L 405.654385 178.459277 
L 411.591598 183.052347 
L 417.528811 188.863865 
L 423.466024 195.366113 
L 429.403237 202.179734 
L 435.34045 207.725085 
L 441.277663 213.636875 
L 447.214876 218.539167 
L 453.152089 222.032194 
L 459.089302 225.033246 
L 465.026515 227.408539 
L 470.963728 228.895168 
L 476.900941 230.363306 
L 482.838154 231.433109 
L 488.775367 232.08 
L 494.71258 232.943286 
L 500.649793 233.453128 
L 506.587006 234.22188 
L 512.524219 234.914486 
L 518.461433 235.524635 
L 524.398646 236.491501 
L 530.335859 237.117916 
L 536.273072 238.25519 
L 542.210285 239.469867 
L 548.147498 240.442569 
L 554.084711 241.444144 
L 560.021924 243.074301 
L 565.959137 243.755479 
L 571.89635 246.164969 
L 577.833563 247.392432 
L 583.770776 248.166366 
L 589.707989 250.112203 
L 595.645202 251.506534 
L 601.582415 252.844207 
L 607.519628 255.357037 
L 613.456841 255.147495 
L 619.394054 256.775326 
L 625.331267 259.070212 
L 631.26848 260.169179 
L 637.205693 261.776352 
L 643.142906 262.043092 
L 649.080119 264.192301 
L 655.017332 265.188227 
L 660.954545 266.502746 
" clip-path="url(#p87f0791d13)" style="fill: none; stroke: #d62728; stroke-width: 1.5; stroke-linecap: square"/>
   </g>
   <g id="patch_3">
    <path d="M 43.78125 305.218125 
L 43.78125 22.318125 
" style="fill: none; stroke: #000000; stroke-width: 0.8; stroke-linejoin: miter; stroke-linecap: square"/>
   </g>
   <g id="patch_4">
    <path d="M 690.34375 305.218125 
L 690.34375 22.318125 
" style="fill: none; stroke: #000000; stroke-width: 0.8; stroke-linejoin: miter; stroke-linecap: square"/>
   </g>
   <g id="patch_5">
    <path d="M 43.78125 305.218125 
L 690.34375 305.218125 
" style="fill: none; stroke: #000000; stroke-width: 0.8; stroke-linejoin: miter; stroke-linecap: square"/>
   </g>
   <g id="patch_6">
    <path d="M 43.78125 22.318125 
L 690.34375 22.318125 
" style="fill: none; stroke: #000000; stroke-width: 0.8; stroke-linejoin: miter; stroke-linecap: square"/>
   </g>
   <g id="text_15">
    <!-- Profiles along the positive axis -->
    <g transform="translate(275.627188 16.318125)scale(0.12 -0.12)">
     <defs>
      <path id="DejaVuSans-73" d="M 2834 3397 
L 2834 2853 
Q 2591 2978 2328 3040 
Q 2066 3103 1784 3103 
Q 1356 3103 1142 2972 
Q 928 2841 928 2578 
Q 928 2378 1081 2264 
Q 1234 2150 1697 2047 
L 1894 2003 
Q 2506 1872 2764 1633 
Q 3022 1394 3022 966 
Q 3022 478 2636 193 
Q 2250 -91 1575 -91 
Q 1294 -91 989 -36 
Q 684 19 347 128 
L 347 722 
Q 666 556 975 473 
Q 1284 391 1588 391 
Q 1994 391 2212 530 
Q 2431 669 2431 922 
Q 2431 1156 2273 1281 
Q 2116 1406 1581 1522 
L 1381 1569 
Q 847 1681 609 1914 
Q 372 2147 372 2553 
Q 372 3047 722 3315 
Q 1072 3584 1716 3584 
Q 2034 3584 2315 3537 
Q 2597 3491 2834 3397 
z
" transform="scale(0.015625)"/>
      <path id="DejaVuSans-67" d="M 2906 1791 
Q 2906 2416 2648 2759 
Q 2391 3103 1925 3103 
Q 1463 3103 1205 2759 
Q 947 2416 947 1791 
Q 947 1169 1205 825 
Q 1463 481 1925 481 
Q 2391 481 2648 825 
Q 2906 1169 2906 1791 
z
M 3481 434 
Q 3481 -459 3084 -895 
Q 2688 -1331 1869 -1331 
Q 1566 -1331 1297 -1286 
Q 1028 -1241 775 -1147 
L 775 -588 
Q 1028 -725 1275 -790 
Q 1522 -856 1778 -856 
Q 2344 -856 2625 -561 
Q 2906 -266 2906 331 
L 2906 616 
Q 2728 306 2450 153 
Q 2172 0 1784 0 
Q 1141 0 747 490 
Q 353 981 353 1791 
Q 353 2603 747 3093 
Q 1141 3584 1784 3584 
Q 2172 3584 2450 3431 
Q 2728 3278 2906 2969 
L 2906 3500 
L 3481 3500 
L 3481 434 
z
" transform="scale(0.015625)"/>
      <path id="DejaVuSans-68" d="M 3513 2113 
L 3513 0 
L 2938 0 
L 2938 2094 
Q 2938 2591 2744 2837 
Q 2550 3084 2163 3084 
Q 1697 3084 1428 2787 
Q 1159 2491 1159 1978 
L 1159 0 
L 581 0 
L 581 4863 
L 1159 4863 
L 1159 2956 
Q 1366 3272 1645 3428 
Q 1925 3584 2291 3584 
Q 2894 3584 3203 3211 
Q 3513 2838 3513 2113 
z
" transform="scale(0.015625)"/>
      <path id="DejaVuSans-70" d="M 1159 525 
L 1159 -1331 
L 581 -1331 
L 581 3500 
L 1159 3500 
L 1159 2969 
Q 1341 3281 1617 3432 
Q 1894 3584 2278 3584 
Q 2916 3584 3314 3078 
Q 3713 2572 3713 1747 
Q 3713 922 3314 415 
Q 2916 -91 2278 -91 
Q 1894 -91 1617 61 
Q 1341 213 1159 525 
z
M 3116 1747 
Q 3116 2381 2855 2742 
Q 2594 3103 2138 3103 
Q 1681 3103 1420 2742 
Q 1159 2381 1159 1747 
Q 1159 1113 1420 752 
Q 1681 391 2138 391 
Q 2594 391 2855 752 
Q 3116 1113 3116 1747 
z
" transform="scale(0.015625)"/>
      <path id="DejaVuSans-76" d="M 191 3500 
L 800 3500 
L 1894 563 
L 2988 3500 
L 3597 3500 
L 2284 0 
L 1503 0 
L 191 3500 
z
" transform="scale(0.015625)"/>
      <path id="DejaVuSans-78" d="M 3513 3500 
L 2247 1797 
L 3578 0 
L 2900 0 
L 1881 1375 
L 863 0 
L 184 0 
L 1544 1831 
L 300 3500 
L 978 3500 
L 1906 2253 
L 2834 3500 
L 3513 3500 
z
" transform="scale(0.015625)"/>
     </defs>
     <use xlink:href="#DejaVuSans-50"/>
     <use xlink:href="#DejaVuSans-72" x="58.552734"/>
     <use xlink:href="#DejaVuSans-6f" x="97.416016"/>
     <use xlink:href="#DejaVuSans-66" x="158.597656"/>
     <use xlink:href="#DejaVuSans-69" x="193.802734"/>
     <use xlink:href="#DejaVuSans-6c" x="221.585938"/>
     <use xlink:href="#DejaVuSans-65" x="249.369141"/>
     <use xlink:href="#DejaVuSans-73" x="310.892578"/>
     <use xlink:href="#DejaVuSans-20" x="362.992188"/>
     <use xlink:href="#DejaVuSans-61" x="394.779297"/>
     <use xlink:href="#DejaVuSans-6c" x="456.058594"/>
     <use xlink:href="#DejaVuSans-6f" x="483.841797"/>
     <use xlink:href="#DejaVuSans-6e" x="545.023438"/>
     <use xlink:href="#DejaVuSans-67" x="608.402344"/>
     <use xlink:href="#DejaVuSans-20" x="671.878906"/>
     <use xlink:href="#DejaVuSans-74" x="703.666016"/>
     <use xlink:href="#DejaVuSans-68" x="742.875"/>
     <use xlink:href="#DejaVuSans-65" x="806.253906"/>
     <use xlink:href="#DejaVuSans-20" x="867.777344"/>
     <use xlink:href="#DejaVuSans-70" x="899.564453"/>
     <use xlink:href="#DejaVuSans-6f" x="963.041016"/>
     <use xlink:href="#DejaVuSans-73" x="1024.222656"/>
     <use xlink:href="#DejaVuSans-69" x="1076.322266"/>
     <use xlink:href="#DejaVuSans-74" x="1104.105469"/>
     <use xlink:href="#DejaVuSans-69" x="1143.314453"/>
     <use xlink:href="#DejaVuSans-76" x="1171.097656"/>
     <use xlink:href="#DejaVuSans-65" x="1230.277344"/>
     <use xlink:href="#DejaVuSans-20" x="1291.800781"/>
     <use xlink:href="#DejaVuSans-61" x="1323.587891"/>
     <use xlink:href="#DejaVuSans-78" x="1384.867188"/>
     <use xlink:href="#DejaVuSans-69" x="1444.046875"/>
     <use xlink:href="#DejaVuSans-73" x="1471.830078"/>
    </g>
   </g>
   <g id="legend_1">
    <g id="patch_7">
     <path d="M 729.671875 89.56375 
L 809.890625 89.56375 
Q 811.890625 89.56375 811.890625 87.56375 
L 811.890625 15.173125 
Q 811.890625 13.173125 809.890625 13.173125 
L 729.671875 13.173125 
Q 727.671875 13.173125 727.671875 15.173125 
L 727.671875 87.56375 
Q 727.671875 89.56375 729.671875 89.56375 
z
" style="fill: #ffffff; opacity: 0.8; stroke: #cccccc; stroke-linejoin: miter"/>
    </g>
    <g id="text_16">
     <!-- Time = 99.90 s -->
     <g transform="translate(731.671875 24.771562)scale(0.1 -0.1)">
      <defs>
       <path id="DejaVuSans-54" d="M -19 4666 
L 3928 4666 
L 3928 4134 
L 2272 4134 
L 2272 0 
L 1638 0 
L 1638 4134 
L -19 4134 
L -19 4666 
z
" transform="scale(0.015625)"/>
       <path id="DejaVuSans-6d" d="M 3328 2828 
Q 3544 3216 3844 3400 
Q 4144 3584 4550 3584 
Q 5097 3584 5394 3201 
Q 5691 2819 5691 2113 
L 5691 0 
L 5113 0 
L 5113 2094 
Q 5113 2597 4934 2840 
Q 4756 3084 4391 3084 
Q 3944 3084 3684 2787 
Q 3425 2491 3425 1978 
L 3425 0 
L 2847 0 
L 2847 2094 
Q 2847 2600 2669 2842 
Q 2491 3084 2119 3084 
Q 1678 3084 1418 2786 
Q 1159 2488 1159 1978 
L 1159 0 
L 581 0 
L 581 3500 
L 1159 3500 
L 1159 2956 
Q 1356 3278 1631 3431 
Q 1906 3584 2284 3584 
Q 2666 3584 2933 3390 
Q 3200 3197 3328 2828 
z
" transform="scale(0.015625)"/>
       <path id="DejaVuSans-3d" d="M 678 2906 
L 4684 2906 
L 4684 2381 
L 678 2381 
L 678 2906 
z
M 678 1631 
L 4684 1631 
L 4684 1100 
L 678 1100 
L 678 1631 
z
" transform="scale(0.015625)"/>
       <path id="DejaVuSans-39" d="M 703 97 
L 703 672 
Q 941 559 1184 500 
Q 1428 441 1663 441 
Q 2288 441 2617 861 
Q 2947 1281 2994 2138 
Q 2813 1869 2534 1725 
Q 2256 1581 1919 1581 
Q 1219 1581 811 2004 
Q 403 2428 403 3163 
Q 403 3881 828 4315 
Q 1253 4750 1959 4750 
Q 2769 4750 3195 4129 
Q 3622 3509 3622 2328 
Q 3622 1225 3098 567 
Q 2575 -91 1691 -91 
Q 1453 -91 1209 -44 
Q 966 3 703 97 
z
M 1959 2075 
Q 2384 2075 2632 2365 
Q 2881 2656 2881 3163 
Q 2881 3666 2632 3958 
Q 2384 4250 1959 4250 
Q 1534 4250 1286 3958 
Q 1038 3666 1038 3163 
Q 1038 2656 1286 2365 
Q 1534 2075 1959 2075 
z
" transform="scale(0.015625)"/>
      </defs>
      <use xlink:href="#DejaVuSans-54"/>
      <use xlink:href="#DejaVuSans-69" x="57.958984"/>
      <use xlink:href="#DejaVuSans-6d" x="85.742188"/>
      <use xlink:href="#DejaVuSans-65" x="183.154297"/>
      <use xlink:href="#DejaVuSans-20" x="244.677734"/>
      <use xlink:href="#DejaVuSans-3d" x="276.464844"/>
      <use xlink:href="#DejaVuSans-20" x="360.253906"/>
      <use xlink:href="#DejaVuSans-39" x="392.041016"/>
      <use xlink:href="#DejaVuSans-39" x="455.664062"/>
      <use xlink:href="#DejaVuSans-2e" x="519.287109"/>
      <use xlink:href="#DejaVuSans-39" x="551.074219"/>
      <use xlink:href="#DejaVuSans-30" x="614.697266"/>
      <use xlink:href="#DejaVuSans-20" x="678.320312"/>
      <use xlink:href="#DejaVuSans-73" x="710.107422"/>
     </g>
    </g>
    <g id="line2d_29">
     <path d="M 736.165625 35.949687 
L 746.165625 35.949687 
L 756.165625 35.949687 
" style="fill: none; stroke: #1f77b4; stroke-width: 1.5; stroke-linecap: square"/>
    </g>
    <g id="text_17">
     <!-- Density -->
     <g transform="translate(764.165625 39.449687)scale(0.1 -0.1)">
      <defs>
       <path id="DejaVuSans-44" d="M 1259 4147 
L 1259 519 
L 2022 519 
Q 2988 519 3436 956 
Q 3884 1394 3884 2338 
Q 3884 3275 3436 3711 
Q 2988 4147 2022 4147 
L 1259 4147 
z
M 628 4666 
L 1925 4666 
Q 3281 4666 3915 4102 
Q 4550 3538 4550 2338 
Q 4550 1131 3912 565 
Q 3275 0 1925 0 
L 628 0 
L 628 4666 
z
" transform="scale(0.015625)"/>
       <path id="DejaVuSans-79" d="M 2059 -325 
Q 1816 -950 1584 -1140 
Q 1353 -1331 966 -1331 
L 506 -1331 
L 506 -850 
L 844 -850 
Q 1081 -850 1212 -737 
Q 1344 -625 1503 -206 
L 1606 56 
L 191 3500 
L 800 3500 
L 1894 763 
L 2988 3500 
L 3597 3500 
L 2059 -325 
z
" transform="scale(0.015625)"/>
      </defs>
      <use xlink:href="#DejaVuSans-44"/>
      <use xlink:href="#DejaVuSans-65" x="77.001953"/>
      <use xlink:href="#DejaVuSans-6e" x="138.525391"/>
      <use xlink:href="#DejaVuSans-73" x="201.904297"/>
      <use xlink:href="#DejaVuSans-69" x="254.003906"/>
      <use xlink:href="#DejaVuSans-74" x="281.787109"/>
      <use xlink:href="#DejaVuSans-79" x="320.996094"/>
     </g>
    </g>
    <g id="line2d_30">
     <path d="M 736.165625 50.627813 
L 746.165625 50.627813 
L 756.165625 50.627813 
" style="fill: none; stroke: #ff7f0e; stroke-width: 1.5; stroke-linecap: square"/>
    </g>
    <g id="text_18">
     <!-- Velocity -->
     <g transform="translate(764.165625 54.127813)scale(0.1 -0.1)">
      <defs>
       <path id="DejaVuSans-56" d="M 1831 0 
L 50 4666 
L 709 4666 
L 2188 738 
L 3669 4666 
L 4325 4666 
L 2547 0 
L 1831 0 
z
" transform="scale(0.015625)"/>
       <path id="DejaVuSans-63" d="M 3122 3366 
L 3122 2828 
Q 2878 2963 2633 3030 
Q 2388 3097 2138 3097 
Q 1578 3097 1268 2742 
Q 959 2388 959 1747 
Q 959 1106 1268 751 
Q 1578 397 2138 397 
Q 2388 397 2633 464 
Q 2878 531 3122 666 
L 3122 134 
Q 2881 22 2623 -34 
Q 2366 -91 2075 -91 
Q 1284 -91 818 406 
Q 353 903 353 1747 
Q 353 2603 823 3093 
Q 1294 3584 2113 3584 
Q 2378 3584 2631 3529 
Q 2884 3475 3122 3366 
z
" transform="scale(0.015625)"/>
      </defs>
      <use xlink:href="#DejaVuSans-56"/>
      <use xlink:href="#DejaVuSans-65" x="60.658203"/>
      <use xlink:href="#DejaVuSans-6c" x="122.181641"/>
      <use xlink:href="#DejaVuSans-6f" x="149.964844"/>
      <use xlink:href="#DejaVuSans-63" x="211.146484"/>
      <use xlink:href="#DejaVuSans-69" x="266.126953"/>
      <use xlink:href="#DejaVuSans-74" x="293.910156"/>
      <use xlink:href="#DejaVuSans-79" x="333.119141"/>
     </g>
    </g>
    <g id="line2d_31">
     <path d="M 736.165625 65.305938 
L 746.165625 65.305938 
L 756.165625 65.305938 
" style="fill: none; stroke: #2ca02c; stroke-width: 1.5; stroke-linecap: square"/>
    </g>
    <g id="text_19">
     <!-- Ni56 -->
     <g transform="translate(764.165625 68.805938)scale(0.1 -0.1)">
      <defs>
       <path id="DejaVuSans-4e" d="M 628 4666 
L 1478 4666 
L 3547 763 
L 3547 4666 
L 4159 4666 
L 4159 0 
L 3309 0 
L 1241 3903 
L 1241 0 
L 628 0 
L 628 4666 
z
" transform="scale(0.015625)"/>
       <path id="DejaVuSans-35" d="M 691 4666 
L 3169 4666 
L 3169 4134 
L 1269 4134 
L 1269 2991 
Q 1406 3038 1543 3061 
Q 1681 3084 1819 3084 
Q 2600 3084 3056 2656 
Q 3513 2228 3513 1497 
Q 3513 744 3044 326 
Q 2575 -91 1722 -91 
Q 1428 -91 1123 -41 
Q 819 9 494 109 
L 494 744 
Q 775 591 1075 516 
Q 1375 441 1709 441 
Q 2250 441 2565 725 
Q 2881 1009 2881 1497 
Q 2881 1984 2565 2268 
Q 2250 2553 1709 2553 
Q 1456 2553 1204 2497 
Q 953 2441 691 2322 
L 691 4666 
z
" transform="scale(0.015625)"/>
      </defs>
      <use xlink:href="#DejaVuSans-4e"/>
      <use xlink:href="#DejaVuSans-69" x="74.804688"/>
      <use xlink:href="#DejaVuSans-35" x="102.587891"/>
      <use xlink:href="#DejaVuSans-36" x="166.210938"/>
     </g>
    </g>
    <g id="line2d_32">
     <path d="M 736.165625 79.984062 
L 746.165625 79.984062 
L 756.165625 79.984062 
" style="fill: none; stroke: #d62728; stroke-width: 1.5; stroke-linecap: square"/>
    </g>
    <g id="text_20">
     <!-- Si28 -->
     <g transform="translate(764.165625 83.484062)scale(0.1 -0.1)">
      <defs>
       <path id="DejaVuSans-53" d="M 3425 4513 
L 3425 3897 
Q 3066 4069 2747 4153 
Q 2428 4238 2131 4238 
Q 1616 4238 1336 4038 
Q 1056 3838 1056 3469 
Q 1056 3159 1242 3001 
Q 1428 2844 1947 2747 
L 2328 2669 
Q 3034 2534 3370 2195 
Q 3706 1856 3706 1288 
Q 3706 609 3251 259 
Q 2797 -91 1919 -91 
Q 1588 -91 1214 -16 
Q 841 59 441 206 
L 441 856 
Q 825 641 1194 531 
Q 1563 422 1919 422 
Q 2459 422 2753 634 
Q 3047 847 3047 1241 
Q 3047 1584 2836 1778 
Q 2625 1972 2144 2069 
L 1759 2144 
Q 1053 2284 737 2584 
Q 422 2884 422 3419 
Q 422 4038 858 4394 
Q 1294 4750 2059 4750 
Q 2388 4750 2728 4690 
Q 3069 4631 3425 4513 
z
" transform="scale(0.015625)"/>
      </defs>
      <use xlink:href="#DejaVuSans-53"/>
      <use xlink:href="#DejaVuSans-69" x="63.476562"/>
      <use xlink:href="#DejaVuSans-32" x="91.259766"/>
      <use xlink:href="#DejaVuSans-38" x="154.882812"/>
     </g>
    </g>
   </g>
  </g>
  <g id="axes_2">
   <g id="patch_8">
    <path d="M 43.78125 644.918125 
L 690.34375 644.918125 
L 690.34375 362.018125 
L 43.78125 362.018125 
z
" style="fill: #ffffff"/>
   </g>
   <g id="matplotlib.axis_3">
    <g id="xtick_7">
     <g id="line2d_33">
      <path d="M 70.200272 644.918125 
L 70.200272 362.018125 
" clip-path="url(#p72c857fc09)" style="fill: none; stroke: #b0b0b0; stroke-width: 0.8; stroke-linecap: square"/>
     </g>
     <g id="line2d_34">
      <g>
       <use xlink:href="#m2db807837e" x="70.200272" y="644.918125" style="stroke: #000000; stroke-width: 0.8"/>
      </g>
     </g>
     <g id="text_21">
      <!-- 1.0 -->
      <g transform="translate(62.248709 659.516562)scale(0.1 -0.1)">
       <use xlink:href="#DejaVuSans-31"/>
       <use xlink:href="#DejaVuSans-2e" x="63.623047"/>
       <use xlink:href="#DejaVuSans-30" x="95.410156"/>
      </g>
     </g>
    </g>
    <g id="xtick_8">
     <g id="line2d_35">
      <path d="M 188.949096 644.918125 
L 188.949096 362.018125 
" clip-path="url(#p72c857fc09)" style="fill: none; stroke: #b0b0b0; stroke-width: 0.8; stroke-linecap: square"/>
     </g>
     <g id="line2d_36">
      <g>
       <use xlink:href="#m2db807837e" x="188.949096" y="644.918125" style="stroke: #000000; stroke-width: 0.8"/>
      </g>
     </g>
     <g id="text_22">
      <!-- 1.2 -->
      <g transform="translate(180.997533 659.516562)scale(0.1 -0.1)">
       <use xlink:href="#DejaVuSans-31"/>
       <use xlink:href="#DejaVuSans-2e" x="63.623047"/>
       <use xlink:href="#DejaVuSans-32" x="95.410156"/>
      </g>
     </g>
    </g>
    <g id="xtick_9">
     <g id="line2d_37">
      <path d="M 307.697919 644.918125 
L 307.697919 362.018125 
" clip-path="url(#p72c857fc09)" style="fill: none; stroke: #b0b0b0; stroke-width: 0.8; stroke-linecap: square"/>
     </g>
     <g id="line2d_38">
      <g>
       <use xlink:href="#m2db807837e" x="307.697919" y="644.918125" style="stroke: #000000; stroke-width: 0.8"/>
      </g>
     </g>
     <g id="text_23">
      <!-- 1.4 -->
      <g transform="translate(299.746357 659.516562)scale(0.1 -0.1)">
       <use xlink:href="#DejaVuSans-31"/>
       <use xlink:href="#DejaVuSans-2e" x="63.623047"/>
       <use xlink:href="#DejaVuSans-34" x="95.410156"/>
      </g>
     </g>
    </g>
    <g id="xtick_10">
     <g id="line2d_39">
      <path d="M 426.446743 644.918125 
L 426.446743 362.018125 
" clip-path="url(#p72c857fc09)" style="fill: none; stroke: #b0b0b0; stroke-width: 0.8; stroke-linecap: square"/>
     </g>
     <g id="line2d_40">
      <g>
       <use xlink:href="#m2db807837e" x="426.446743" y="644.918125" style="stroke: #000000; stroke-width: 0.8"/>
      </g>
     </g>
     <g id="text_24">
      <!-- 1.6 -->
      <g transform="translate(418.49518 659.516562)scale(0.1 -0.1)">
       <use xlink:href="#DejaVuSans-31"/>
       <use xlink:href="#DejaVuSans-2e" x="63.623047"/>
       <use xlink:href="#DejaVuSans-36" x="95.410156"/>
      </g>
     </g>
    </g>
    <g id="xtick_11">
     <g id="line2d_41">
      <path d="M 545.195566 644.918125 
L 545.195566 362.018125 
" clip-path="url(#p72c857fc09)" style="fill: none; stroke: #b0b0b0; stroke-width: 0.8; stroke-linecap: square"/>
     </g>
     <g id="line2d_42">
      <g>
       <use xlink:href="#m2db807837e" x="545.195566" y="644.918125" style="stroke: #000000; stroke-width: 0.8"/>
      </g>
     </g>
     <g id="text_25">
      <!-- 1.8 -->
      <g transform="translate(537.244004 659.516562)scale(0.1 -0.1)">
       <use xlink:href="#DejaVuSans-31"/>
       <use xlink:href="#DejaVuSans-2e" x="63.623047"/>
       <use xlink:href="#DejaVuSans-38" x="95.410156"/>
      </g>
     </g>
    </g>
    <g id="xtick_12">
     <g id="line2d_43">
      <path d="M 663.94439 644.918125 
L 663.94439 362.018125 
" clip-path="url(#p72c857fc09)" style="fill: none; stroke: #b0b0b0; stroke-width: 0.8; stroke-linecap: square"/>
     </g>
     <g id="line2d_44">
      <g>
       <use xlink:href="#m2db807837e" x="663.94439" y="644.918125" style="stroke: #000000; stroke-width: 0.8"/>
      </g>
     </g>
     <g id="text_26">
      <!-- 2.0 -->
      <g transform="translate(655.992827 659.516562)scale(0.1 -0.1)">
       <use xlink:href="#DejaVuSans-32"/>
       <use xlink:href="#DejaVuSans-2e" x="63.623047"/>
       <use xlink:href="#DejaVuSans-30" x="95.410156"/>
      </g>
     </g>
    </g>
    <g id="text_27">
     <!-- Radial position (cm) -->
     <g transform="translate(317.116406 673.194687)scale(0.1 -0.1)">
      <defs>
       <path id="DejaVuSans-52" d="M 2841 2188 
Q 3044 2119 3236 1894 
Q 3428 1669 3622 1275 
L 4263 0 
L 3584 0 
L 2988 1197 
Q 2756 1666 2539 1819 
Q 2322 1972 1947 1972 
L 1259 1972 
L 1259 0 
L 628 0 
L 628 4666 
L 2053 4666 
Q 2853 4666 3247 4331 
Q 3641 3997 3641 3322 
Q 3641 2881 3436 2590 
Q 3231 2300 2841 2188 
z
M 1259 4147 
L 1259 2491 
L 2053 2491 
Q 2509 2491 2742 2702 
Q 2975 2913 2975 3322 
Q 2975 3731 2742 3939 
Q 2509 4147 2053 4147 
L 1259 4147 
z
" transform="scale(0.015625)"/>
       <path id="DejaVuSans-64" d="M 2906 2969 
L 2906 4863 
L 3481 4863 
L 3481 0 
L 2906 0 
L 2906 525 
Q 2725 213 2448 61 
Q 2172 -91 1784 -91 
Q 1150 -91 751 415 
Q 353 922 353 1747 
Q 353 2572 751 3078 
Q 1150 3584 1784 3584 
Q 2172 3584 2448 3432 
Q 2725 3281 2906 2969 
z
M 947 1747 
Q 947 1113 1208 752 
Q 1469 391 1925 391 
Q 2381 391 2643 752 
Q 2906 1113 2906 1747 
Q 2906 2381 2643 2742 
Q 2381 3103 1925 3103 
Q 1469 3103 1208 2742 
Q 947 2381 947 1747 
z
" transform="scale(0.015625)"/>
      </defs>
      <use xlink:href="#DejaVuSans-52"/>
      <use xlink:href="#DejaVuSans-61" x="67.232422"/>
      <use xlink:href="#DejaVuSans-64" x="128.511719"/>
      <use xlink:href="#DejaVuSans-69" x="191.988281"/>
      <use xlink:href="#DejaVuSans-61" x="219.771484"/>
      <use xlink:href="#DejaVuSans-6c" x="281.050781"/>
      <use xlink:href="#DejaVuSans-20" x="308.833984"/>
      <use xlink:href="#DejaVuSans-70" x="340.621094"/>
      <use xlink:href="#DejaVuSans-6f" x="404.097656"/>
      <use xlink:href="#DejaVuSans-73" x="465.279297"/>
      <use xlink:href="#DejaVuSans-69" x="517.378906"/>
      <use xlink:href="#DejaVuSans-74" x="545.162109"/>
      <use xlink:href="#DejaVuSans-69" x="584.371094"/>
      <use xlink:href="#DejaVuSans-6f" x="612.154297"/>
      <use xlink:href="#DejaVuSans-6e" x="673.335938"/>
      <use xlink:href="#DejaVuSans-20" x="736.714844"/>
      <use xlink:href="#DejaVuSans-28" x="768.501953"/>
      <use xlink:href="#DejaVuSans-63" x="807.515625"/>
      <use xlink:href="#DejaVuSans-6d" x="862.496094"/>
      <use xlink:href="#DejaVuSans-29" x="959.908203"/>
     </g>
    </g>
    <g id="text_28">
     <!-- 1e11 -->
     <g transform="translate(665.103125 672.194687)scale(0.1 -0.1)">
      <use xlink:href="#DejaVuSans-31"/>
      <use xlink:href="#DejaVuSans-65" x="63.623047"/>
      <use xlink:href="#DejaVuSans-31" x="125.146484"/>
      <use xlink:href="#DejaVuSans-31" x="188.769531"/>
     </g>
    </g>
   </g>
   <g id="matplotlib.axis_4">
    <g id="ytick_7">
     <g id="line2d_45">
      <path d="M 43.78125 632.059034 
L 690.34375 632.059034 
" clip-path="url(#p72c857fc09)" style="fill: none; stroke: #b0b0b0; stroke-width: 0.8; stroke-linecap: square"/>
     </g>
     <g id="line2d_46">
      <g>
       <use xlink:href="#md6faf86766" x="43.78125" y="632.059034" style="stroke: #000000; stroke-width: 0.8"/>
      </g>
     </g>
     <g id="text_29">
      <!-- 0.0 -->
      <g transform="translate(20.878125 635.858253)scale(0.1 -0.1)">
       <use xlink:href="#DejaVuSans-30"/>
       <use xlink:href="#DejaVuSans-2e" x="63.623047"/>
       <use xlink:href="#DejaVuSans-30" x="95.410156"/>
      </g>
     </g>
    </g>
    <g id="ytick_8">
     <g id="line2d_47">
      <path d="M 43.78125 580.62267 
L 690.34375 580.62267 
" clip-path="url(#p72c857fc09)" style="fill: none; stroke: #b0b0b0; stroke-width: 0.8; stroke-linecap: square"/>
     </g>
     <g id="line2d_48">
      <g>
       <use xlink:href="#md6faf86766" x="43.78125" y="580.62267" style="stroke: #000000; stroke-width: 0.8"/>
      </g>
     </g>
     <g id="text_30">
      <!-- 0.2 -->
      <g transform="translate(20.878125 584.421889)scale(0.1 -0.1)">
       <use xlink:href="#DejaVuSans-30"/>
       <use xlink:href="#DejaVuSans-2e" x="63.623047"/>
       <use xlink:href="#DejaVuSans-32" x="95.410156"/>
      </g>
     </g>
    </g>
    <g id="ytick_9">
     <g id="line2d_49">
      <path d="M 43.78125 529.186307 
L 690.34375 529.186307 
" clip-path="url(#p72c857fc09)" style="fill: none; stroke: #b0b0b0; stroke-width: 0.8; stroke-linecap: square"/>
     </g>
     <g id="line2d_50">
      <g>
       <use xlink:href="#md6faf86766" x="43.78125" y="529.186307" style="stroke: #000000; stroke-width: 0.8"/>
      </g>
     </g>
     <g id="text_31">
      <!-- 0.4 -->
      <g transform="translate(20.878125 532.985526)scale(0.1 -0.1)">
       <use xlink:href="#DejaVuSans-30"/>
       <use xlink:href="#DejaVuSans-2e" x="63.623047"/>
       <use xlink:href="#DejaVuSans-34" x="95.410156"/>
      </g>
     </g>
    </g>
    <g id="ytick_10">
     <g id="line2d_51">
      <path d="M 43.78125 477.749943 
L 690.34375 477.749943 
" clip-path="url(#p72c857fc09)" style="fill: none; stroke: #b0b0b0; stroke-width: 0.8; stroke-linecap: square"/>
     </g>
     <g id="line2d_52">
      <g>
       <use xlink:href="#md6faf86766" x="43.78125" y="477.749943" style="stroke: #000000; stroke-width: 0.8"/>
      </g>
     </g>
     <g id="text_32">
      <!-- 0.6 -->
      <g transform="translate(20.878125 481.549162)scale(0.1 -0.1)">
       <use xlink:href="#DejaVuSans-30"/>
       <use xlink:href="#DejaVuSans-2e" x="63.623047"/>
       <use xlink:href="#DejaVuSans-36" x="95.410156"/>
      </g>
     </g>
    </g>
    <g id="ytick_11">
     <g id="line2d_53">
      <path d="M 43.78125 426.31358 
L 690.34375 426.31358 
" clip-path="url(#p72c857fc09)" style="fill: none; stroke: #b0b0b0; stroke-width: 0.8; stroke-linecap: square"/>
     </g>
     <g id="line2d_54">
      <g>
       <use xlink:href="#md6faf86766" x="43.78125" y="426.31358" style="stroke: #000000; stroke-width: 0.8"/>
      </g>
     </g>
     <g id="text_33">
      <!-- 0.8 -->
      <g transform="translate(20.878125 430.112798)scale(0.1 -0.1)">
       <use xlink:href="#DejaVuSans-30"/>
       <use xlink:href="#DejaVuSans-2e" x="63.623047"/>
       <use xlink:href="#DejaVuSans-38" x="95.410156"/>
      </g>
     </g>
    </g>
    <g id="ytick_12">
     <g id="line2d_55">
      <path d="M 43.78125 374.877216 
L 690.34375 374.877216 
" clip-path="url(#p72c857fc09)" style="fill: none; stroke: #b0b0b0; stroke-width: 0.8; stroke-linecap: square"/>
     </g>
     <g id="line2d_56">
      <g>
       <use xlink:href="#md6faf86766" x="43.78125" y="374.877216" style="stroke: #000000; stroke-width: 0.8"/>
      </g>
     </g>
     <g id="text_34">
      <!-- 1.0 -->
      <g transform="translate(20.878125 378.676435)scale(0.1 -0.1)">
       <use xlink:href="#DejaVuSans-31"/>
       <use xlink:href="#DejaVuSans-2e" x="63.623047"/>
       <use xlink:href="#DejaVuSans-30" x="95.410156"/>
      </g>
     </g>
    </g>
    <g id="text_35">
     <!-- Profile (arb. unit) -->
     <g transform="translate(14.798438 545.661875)rotate(-90)scale(0.1 -0.1)">
      <use xlink:href="#DejaVuSans-50"/>
      <use xlink:href="#DejaVuSans-72" x="58.552734"/>
      <use xlink:href="#DejaVuSans-6f" x="97.416016"/>
      <use xlink:href="#DejaVuSans-66" x="158.597656"/>
      <use xlink:href="#DejaVuSans-69" x="193.802734"/>
      <use xlink:href="#DejaVuSans-6c" x="221.585938"/>
      <use xlink:href="#DejaVuSans-65" x="249.369141"/>
      <use xlink:href="#DejaVuSans-20" x="310.892578"/>
      <use xlink:href="#DejaVuSans-28" x="342.679688"/>
      <use xlink:href="#DejaVuSans-61" x="381.693359"/>
      <use xlink:href="#DejaVuSans-72" x="442.972656"/>
      <use xlink:href="#DejaVuSans-62" x="484.085938"/>
      <use xlink:href="#DejaVuSans-2e" x="547.5625"/>
      <use xlink:href="#DejaVuSans-20" x="579.349609"/>
      <use xlink:href="#DejaVuSans-75" x="611.136719"/>
      <use xlink:href="#DejaVuSans-6e" x="674.515625"/>
      <use xlink:href="#DejaVuSans-69" x="737.894531"/>
      <use xlink:href="#DejaVuSans-74" x="765.677734"/>
      <use xlink:href="#DejaVuSans-29" x="804.886719"/>
     </g>
    </g>
   </g>
   <g id="line2d_57">
    <path d="M 73.170455 374.877216 
L 79.107668 380.356679 
L 85.044881 385.567419 
L 90.982094 390.57668 
L 96.919307 395.346396 
L 102.85652 399.690297 
L 108.793733 403.989802 
L 114.730946 407.91969 
L 120.668159 411.796326 
L 126.605372 415.156296 
L 132.542585 418.704281 
L 138.479798 421.940825 
L 144.417011 425.102903 
L 150.354224 428.498861 
L 156.291437 432.121794 
L 162.22865 435.673231 
L 168.165863 439.714352 
L 174.103076 443.998386 
L 180.040289 448.517632 
L 185.977502 453.160065 
L 191.914715 458.122225 
L 197.851928 463.323857 
L 203.789141 468.208128 
L 209.726354 473.334705 
L 215.663567 478.417253 
L 221.600781 483.285257 
L 227.537994 488.174483 
L 233.475207 492.801658 
L 239.41242 497.288448 
L 245.349633 501.657301 
L 251.286846 505.838712 
L 257.224059 509.879457 
L 263.161272 513.911316 
L 269.098485 517.737014 
L 275.035698 521.47442 
L 280.972911 525.318544 
L 286.910124 528.927188 
L 292.847337 532.528397 
L 298.78455 535.857935 
L 304.721763 539.361729 
L 310.658976 542.504881 
L 316.596189 545.785565 
L 322.533402 548.766456 
L 328.470615 551.711191 
L 334.407828 554.706117 
L 340.345041 557.571394 
L 346.282254 560.331993 
L 352.219467 562.850461 
L 358.15668 565.572714 
L 364.093893 567.96562 
L 370.031107 570.53568 
L 375.96832 572.716109 
L 381.905533 574.978549 
L 387.842746 577.062547 
L 393.779959 579.131626 
L 399.717172 581.036576 
L 405.654385 582.71022 
L 411.591598 584.278399 
L 417.528811 585.655348 
L 423.466024 586.877333 
L 429.403237 587.817532 
L 435.34045 588.340398 
L 441.277663 588.983086 
L 447.214876 589.250193 
L 453.152089 589.415582 
L 459.089302 589.605737 
L 465.026515 589.837724 
L 470.963728 589.873313 
L 476.900941 590.183385 
L 482.838154 590.554317 
L 488.775367 591.043745 
L 494.71258 591.844577 
L 500.649793 592.811005 
L 506.587006 593.725283 
L 512.524219 595.009643 
L 518.461433 596.464455 
L 524.398646 597.938402 
L 530.335859 599.600135 
L 536.273072 601.087611 
L 542.210285 602.921248 
L 548.147498 604.519971 
L 554.084711 606.166051 
L 560.021924 607.828001 
L 565.959137 609.483971 
L 571.89635 610.873178 
L 577.833563 612.222505 
L 583.770776 613.488289 
L 589.707989 614.834735 
L 595.645202 615.990511 
L 601.582415 617.056923 
L 607.519628 617.860022 
L 613.456841 618.9903 
L 619.394054 619.762747 
L 625.331267 620.589487 
L 631.26848 621.148999 
L 637.205693 621.923158 
L 643.142906 622.474833 
L 649.080119 623.123055 
L 655.017332 623.712889 
L 660.954545 624.130236 
" clip-path="url(#p72c857fc09)" style="fill: none; stroke: #1f77b4; stroke-width: 1.5; stroke-linecap: square"/>
   </g>
   <g id="line2d_58">
    <path d="M 73.170455 502.657533 
L 79.107668 501.354273 
L 85.044881 500.075841 
L 90.982094 498.790372 
L 96.919307 497.486617 
L 102.85652 496.207285 
L 108.793733 494.901541 
L 114.730946 493.617073 
L 120.668159 492.327202 
L 126.605372 491.039135 
L 132.542585 489.744268 
L 138.479798 488.454127 
L 144.417011 487.163473 
L 150.354224 485.876636 
L 156.291437 484.593459 
L 162.22865 483.288317 
L 168.165863 482.000206 
L 174.103076 480.720407 
L 180.040289 479.413164 
L 185.977502 478.124823 
L 191.914715 476.844015 
L 197.851928 475.539474 
L 203.789141 474.259037 
L 209.726354 472.964363 
L 215.663567 471.678012 
L 221.600781 470.403387 
L 227.537994 469.108374 
L 233.475207 467.80979 
L 239.41242 466.515217 
L 245.349633 465.215318 
L 251.286846 463.940347 
L 257.224059 462.653686 
L 263.161272 461.362823 
L 269.098485 460.077405 
L 275.035698 458.801809 
L 280.972911 457.50121 
L 286.910124 456.222079 
L 292.847337 454.922293 
L 298.78455 453.651797 
L 304.721763 452.324754 
L 310.658976 451.051385 
L 316.596189 449.749869 
L 322.533402 448.473529 
L 328.470615 447.185363 
L 334.407828 445.866529 
L 340.345041 444.591616 
L 346.282254 443.306809 
L 352.219467 442.01449 
L 358.15668 440.711383 
L 364.093893 439.418053 
L 370.031107 438.112395 
L 375.96832 436.866943 
L 381.905533 435.563907 
L 387.842746 434.297077 
L 393.779959 432.983945 
L 399.717172 431.69999 
L 405.654385 430.411814 
L 411.591598 429.123655 
L 417.528811 427.846954 
L 423.466024 426.522301 
L 429.403237 425.265794 
L 435.34045 423.955358 
L 441.277663 422.680124 
L 447.214876 421.38908 
L 453.152089 420.09463 
L 459.089302 418.798428 
L 465.026515 417.511461 
L 470.963728 416.223771 
L 476.900941 414.93089 
L 482.838154 413.621716 
L 488.775367 412.348707 
L 494.71258 411.047774 
L 500.649793 409.770258 
L 506.587006 408.48409 
L 512.524219 407.204688 
L 518.461433 405.906255 
L 524.398646 404.621912 
L 530.335859 403.319273 
L 536.273072 402.055649 
L 542.210285 400.727132 
L 548.147498 399.450318 
L 554.084711 398.173022 
L 560.021924 396.89875 
L 565.959137 395.547259 
L 571.89635 394.279402 
L 577.833563 392.997018 
L 583.770776 391.694958 
L 589.707989 390.408993 
L 595.645202 389.08784 
L 601.582415 387.783564 
L 607.519628 386.527591 
L 613.456841 385.191213 
L 619.394054 383.910563 
L 625.331267 382.62765 
L 631.26848 381.302785 
L 637.205693 379.988381 
L 643.142906 378.750822 
L 649.080119 377.463479 
L 655.017332 376.159462 
L 660.954545 374.877216 
" clip-path="url(#p72c857fc09)" style="fill: none; stroke: #ff7f0e; stroke-width: 1.5; stroke-linecap: square"/>
   </g>
   <g id="line2d_59">
    <path d="M 73.170455 418.205171 
L 79.107668 423.100683 
L 85.044881 428.651639 
L 90.982094 434.623596 
L 96.919307 441.670122 
L 102.85652 449.16991 
L 108.793733 457.619025 
L 114.730946 466.865929 
L 120.668159 476.583927 
L 126.605372 487.185818 
L 132.542585 498.397539 
L 138.479798 509.799489 
L 144.417011 521.139857 
L 150.354224 532.18451 
L 156.291437 542.859259 
L 162.22865 552.890522 
L 168.165863 561.851253 
L 174.103076 569.665593 
L 180.040289 576.801093 
L 185.977502 582.669337 
L 191.914715 587.454919 
L 197.851928 591.535983 
L 203.789141 594.835386 
L 209.726354 597.540145 
L 215.663567 599.710119 
L 221.600781 601.60854 
L 227.537994 603.270949 
L 233.475207 604.727818 
L 239.41242 606.107782 
L 245.349633 607.275891 
L 251.286846 608.369936 
L 257.224059 609.398675 
L 263.161272 610.341378 
L 269.098485 611.16571 
L 275.035698 611.963037 
L 280.972911 612.761434 
L 286.910124 613.472732 
L 292.847337 614.171459 
L 298.78455 614.993426 
L 304.721763 615.817415 
L 310.658976 616.762849 
L 316.596189 617.770582 
L 322.533402 618.802518 
L 328.470615 620.000119 
L 334.407828 621.219417 
L 340.345041 622.505041 
L 346.282254 623.776862 
L 352.219467 624.848217 
L 358.15668 626.035896 
L 364.093893 627.118434 
L 370.031107 628.205187 
L 375.96832 628.959402 
L 381.905533 629.660689 
L 387.842746 630.354901 
L 393.779959 630.797102 
L 399.717172 631.212582 
L 405.654385 631.480176 
L 411.591598 631.697441 
L 417.528811 631.830997 
L 423.466024 631.931228 
L 429.403237 631.984323 
L 435.34045 632.01595 
L 441.277663 632.035264 
L 447.214876 632.046791 
L 453.152089 632.052953 
L 459.089302 632.055593 
L 465.026515 632.057042 
L 470.963728 632.058025 
L 476.900941 632.058546 
L 482.838154 632.058758 
L 488.775367 632.058877 
L 494.71258 632.058917 
L 500.649793 632.058974 
L 506.587006 632.059004 
L 512.524219 632.059014 
L 518.461433 632.05902 
L 524.398646 632.059026 
L 530.335859 632.059029 
L 536.273072 632.05903 
L 542.210285 632.059032 
L 548.147498 632.059033 
L 554.084711 632.059033 
L 560.021924 632.059033 
L 565.959137 632.059034 
L 571.89635 632.059034 
L 577.833563 632.059034 
L 583.770776 632.059034 
L 589.707989 632.059034 
L 595.645202 632.059034 
L 601.582415 632.059034 
L 607.519628 632.059034 
L 613.456841 632.059034 
L 619.394054 632.059034 
L 625.331267 632.059034 
L 631.26848 632.059034 
L 637.205693 632.059034 
L 643.142906 632.059034 
L 649.080119 632.059034 
L 655.017332 632.059034 
L 660.954545 632.059034 
" clip-path="url(#p72c857fc09)" style="fill: none; stroke: #2ca02c; stroke-width: 1.5; stroke-linecap: square"/>
   </g>
   <g id="line2d_60">
    <path d="M 73.170455 624.315271 
L 79.107668 622.793283 
L 85.044881 620.989608 
L 90.982094 618.967345 
L 96.919307 616.4793 
L 102.85652 613.714629 
L 108.793733 610.45921 
L 114.730946 606.736804 
L 120.668159 602.652039 
L 126.605372 597.98185 
L 132.542585 592.808487 
L 138.479798 587.282325 
L 144.417011 581.487516 
L 150.354224 575.549496 
L 156.291437 569.497956 
L 162.22865 563.486084 
L 168.165863 557.797149 
L 174.103076 552.550734 
L 180.040289 547.465907 
L 185.977502 543.033997 
L 191.914715 539.215738 
L 197.851928 535.78824 
L 203.789141 532.86983 
L 209.726354 530.363165 
L 215.663567 528.265407 
L 221.600781 526.357735 
L 227.537994 524.628295 
L 233.475207 523.05363 
L 239.41242 521.512994 
L 245.349633 520.162729 
L 251.286846 518.856565 
L 257.224059 517.587943 
L 263.161272 516.388773 
L 269.098485 515.319348 
L 275.035698 514.274326 
L 280.972911 513.274063 
L 286.910124 512.47047 
L 292.847337 511.831833 
L 298.78455 511.264879 
L 304.721763 511.009586 
L 310.658976 511.081448 
L 316.596189 511.365048 
L 322.533402 511.864886 
L 328.470615 512.638832 
L 334.407828 513.588188 
L 340.345041 514.55254 
L 346.282254 515.590965 
L 352.219467 516.451673 
L 358.15668 517.325601 
L 364.093893 518.036556 
L 370.031107 518.658501 
L 375.96832 518.857946 
L 381.905533 519.024182 
L 387.842746 518.773192 
L 393.779959 518.278886 
L 399.717172 517.459006 
L 405.654385 516.246923 
L 411.591598 514.567973 
L 417.528811 512.939528 
L 423.466024 511.224229 
L 429.403237 509.604344 
L 435.34045 508.329779 
L 441.277663 507.527592 
L 447.214876 507.180756 
L 453.152089 507.223749 
L 459.089302 508.150844 
L 465.026515 509.129848 
L 470.963728 511.049567 
L 476.900941 512.617588 
L 482.838154 515.17787 
L 488.775367 517.717899 
L 494.71258 520.844092 
L 500.649793 524.236251 
L 506.587006 528.199838 
L 512.524219 532.746304 
L 518.461433 536.655841 
L 524.398646 541.423176 
L 530.335859 545.571894 
L 536.273072 549.287362 
L 542.210285 553.87899 
L 548.147498 556.067695 
L 554.084711 559.121851 
L 560.021924 561.587855 
L 565.959137 563.565343 
L 571.89635 565.141938 
L 577.833563 566.616364 
L 583.770776 567.645821 
L 589.707989 568.751271 
L 595.645202 569.599579 
L 601.582415 570.354694 
L 607.519628 570.914283 
L 613.456841 571.603143 
L 619.394054 572.130884 
L 625.331267 572.513506 
L 631.26848 573.094758 
L 637.205693 573.7245 
L 643.142906 574.126272 
L 649.080119 574.712104 
L 655.017332 575.424161 
L 660.954545 575.981176 
" clip-path="url(#p72c857fc09)" style="fill: none; stroke: #d62728; stroke-width: 1.5; stroke-linecap: square"/>
   </g>
   <g id="patch_9">
    <path d="M 43.78125 644.918125 
L 43.78125 362.018125 
" style="fill: none; stroke: #000000; stroke-width: 0.8; stroke-linejoin: miter; stroke-linecap: square"/>
   </g>
   <g id="patch_10">
    <path d="M 690.34375 644.918125 
L 690.34375 362.018125 
" style="fill: none; stroke: #000000; stroke-width: 0.8; stroke-linejoin: miter; stroke-linecap: square"/>
   </g>
   <g id="patch_11">
    <path d="M 43.78125 644.918125 
L 690.34375 644.918125 
" style="fill: none; stroke: #000000; stroke-width: 0.8; stroke-linejoin: miter; stroke-linecap: square"/>
   </g>
   <g id="patch_12">
    <path d="M 43.78125 362.018125 
L 690.34375 362.018125 
" style="fill: none; stroke: #000000; stroke-width: 0.8; stroke-linejoin: miter; stroke-linecap: square"/>
   </g>
   <g id="text_36">
    <!-- Profiles along the negative axis -->
    <g transform="translate(272.919688 356.018125)scale(0.12 -0.12)">
     <use xlink:href="#DejaVuSans-50"/>
     <use xlink:href="#DejaVuSans-72" x="58.552734"/>
     <use xlink:href="#DejaVuSans-6f" x="97.416016"/>
     <use xlink:href="#DejaVuSans-66" x="158.597656"/>
     <use xlink:href="#DejaVuSans-69" x="193.802734"/>
     <use xlink:href="#DejaVuSans-6c" x="221.585938"/>
     <use xlink:href="#DejaVuSans-65" x="249.369141"/>
     <use xlink:href="#DejaVuSans-73" x="310.892578"/>
     <use xlink:href="#DejaVuSans-20" x="362.992188"/>
     <use xlink:href="#DejaVuSans-61" x="394.779297"/>
     <use xlink:href="#DejaVuSans-6c" x="456.058594"/>
     <use xlink:href="#DejaVuSans-6f" x="483.841797"/>
     <use xlink:href="#DejaVuSans-6e" x="545.023438"/>
     <use xlink:href="#DejaVuSans-67" x="608.402344"/>
     <use xlink:href="#DejaVuSans-20" x="671.878906"/>
     <use xlink:href="#DejaVuSans-74" x="703.666016"/>
     <use xlink:href="#DejaVuSans-68" x="742.875"/>
     <use xlink:href="#DejaVuSans-65" x="806.253906"/>
     <use xlink:href="#DejaVuSans-20" x="867.777344"/>
     <use xlink:href="#DejaVuSans-6e" x="899.564453"/>
     <use xlink:href="#DejaVuSans-65" x="962.943359"/>
     <use xlink:href="#DejaVuSans-67" x="1024.466797"/>
     <use xlink:href="#DejaVuSans-61" x="1087.943359"/>
     <use xlink:href="#DejaVuSans-74" x="1149.222656"/>
     <use xlink:href="#DejaVuSans-69" x="1188.431641"/>
     <use xlink:href="#DejaVuSans-76" x="1216.214844"/>
     <use xlink:href="#DejaVuSans-65" x="1275.394531"/>
     <use xlink:href="#DejaVuSans-20" x="1336.917969"/>
     <use xlink:href="#DejaVuSans-61" x="1368.705078"/>
     <use xlink:href="#DejaVuSans-78" x="1429.984375"/>
     <use xlink:href="#DejaVuSans-69" x="1489.164062"/>
     <use xlink:href="#DejaVuSans-73" x="1516.947266"/>
    </g>
   </g>
  </g>
 </g>
 <defs>
  <clipPath id="p87f0791d13">
   <rect x="43.78125" y="22.318125" width="646.5625" height="282.9"/>
  </clipPath>
  <clipPath id="p72c857fc09">
   <rect x="43.78125" y="362.018125" width="646.5625" height="282.9"/>
  </clipPath>
 </defs>
</svg>
