<?xml version="1.0" encoding="utf-8" standalone="no"?>
<!DOCTYPE svg PUBLIC "-//W3C//DTD SVG 1.1//EN"
  "http://www.w3.org/Graphics/SVG/1.1/DTD/svg11.dtd">
<svg xmlns:xlink="http://www.w3.org/1999/xlink" width="408.10125pt" height="310.86825pt" viewBox="0 0 408.10125 310.86825" xmlns="http://www.w3.org/2000/svg" version="1.1">
 <metadata>
  <rdf:RDF xmlns:dc="http://purl.org/dc/elements/1.1/" xmlns:cc="http://creativecommons.org/ns#" xmlns:rdf="http://www.w3.org/1999/02/22-rdf-syntax-ns#">
   <cc:Work>
    <dc:type rdf:resource="http://purl.org/dc/dcmitype/StillImage"/>
    <dc:date>2022-04-01T12:35:16.048007</dc:date>
    <dc:format>image/svg+xml</dc:format>
    <dc:creator>
     <cc:Agent>
      <dc:title>Matplotlib v3.5.1, https://matplotlib.org/</dc:title>
     </cc:Agent>
    </dc:creator>
   </cc:Work>
  </rdf:RDF>
 </metadata>
 <defs>
  <style type="text/css">*{stroke-linejoin: round; stroke-linecap: butt}</style>
 </defs>
 <g id="figure_1">
  <g id="patch_1">
   <path d="M 0 310.86825 
L 408.10125 310.86825 
L 408.10125 0 
L 0 0 
z
" style="fill: #ffffff"/>
  </g>
  <g id="axes_1">
   <g id="patch_2">
    <path d="M 43.78125 273.312 
L 400.90125 273.312 
L 400.90125 7.2 
L 43.78125 7.2 
z
" style="fill: #ffffff"/>
   </g>
   <g id="patch_3">
    <path d="M 60.410531 273.312 
L 62.031803 273.312 
L 62.031803 272.144074 
L 60.410531 272.144074 
z
" clip-path="url(#p2dcc9a2706)" style="fill: #1f77b4"/>
   </g>
   <g id="patch_4">
    <path d="M 62.031803 273.312 
L 63.653075 273.312 
L 63.653075 272.144074 
L 62.031803 272.144074 
z
" clip-path="url(#p2dcc9a2706)" style="fill: #1f77b4"/>
   </g>
   <g id="patch_5">
    <path d="M 63.653075 273.312 
L 65.274347 273.312 
L 65.274347 268.056332 
L 63.653075 268.056332 
z
" clip-path="url(#p2dcc9a2706)" style="fill: #1f77b4"/>
   </g>
   <g id="patch_6">
    <path d="M 65.274347 273.312 
L 66.895619 273.312 
L 66.895619 267.472369 
L 65.274347 267.472369 
z
" clip-path="url(#p2dcc9a2706)" style="fill: #1f77b4"/>
   </g>
   <g id="patch_7">
    <path d="M 66.895619 273.312 
L 68.51689 273.312 
L 68.51689 268.640295 
L 66.895619 268.640295 
z
" clip-path="url(#p2dcc9a2706)" style="fill: #1f77b4"/>
   </g>
   <g id="patch_8">
    <path d="M 68.51689 273.312 
L 70.138162 273.312 
L 70.138162 268.640295 
L 68.51689 268.640295 
z
" clip-path="url(#p2dcc9a2706)" style="fill: #1f77b4"/>
   </g>
   <g id="patch_9">
    <path d="M 70.138162 273.312 
L 71.759434 273.312 
L 71.759434 263.384627 
L 70.138162 263.384627 
z
" clip-path="url(#p2dcc9a2706)" style="fill: #1f77b4"/>
   </g>
   <g id="patch_10">
    <path d="M 71.759434 273.312 
L 73.380706 273.312 
L 73.380706 269.224258 
L 71.759434 269.224258 
z
" clip-path="url(#p2dcc9a2706)" style="fill: #1f77b4"/>
   </g>
   <g id="patch_11">
    <path d="M 73.380706 273.312 
L 75.001978 273.312 
L 75.001978 266.304442 
L 73.380706 266.304442 
z
" clip-path="url(#p2dcc9a2706)" style="fill: #1f77b4"/>
   </g>
   <g id="patch_12">
    <path d="M 75.001978 273.312 
L 76.62325 273.312 
L 76.62325 257.544995 
L 75.001978 257.544995 
z
" clip-path="url(#p2dcc9a2706)" style="fill: #1f77b4"/>
   </g>
   <g id="patch_13">
    <path d="M 76.62325 273.312 
L 78.244522 273.312 
L 78.244522 262.2167 
L 76.62325 262.2167 
z
" clip-path="url(#p2dcc9a2706)" style="fill: #1f77b4"/>
   </g>
   <g id="patch_14">
    <path d="M 78.244522 273.312 
L 79.865794 273.312 
L 79.865794 261.632737 
L 78.244522 261.632737 
z
" clip-path="url(#p2dcc9a2706)" style="fill: #1f77b4"/>
   </g>
   <g id="patch_15">
    <path d="M 79.865794 273.312 
L 81.487066 273.312 
L 81.487066 261.048774 
L 79.865794 261.048774 
z
" clip-path="url(#p2dcc9a2706)" style="fill: #1f77b4"/>
   </g>
   <g id="patch_16">
    <path d="M 81.487066 273.312 
L 83.108338 273.312 
L 83.108338 262.2167 
L 81.487066 262.2167 
z
" clip-path="url(#p2dcc9a2706)" style="fill: #1f77b4"/>
   </g>
   <g id="patch_17">
    <path d="M 83.108338 273.312 
L 84.72961 273.312 
L 84.72961 255.793106 
L 83.108338 255.793106 
z
" clip-path="url(#p2dcc9a2706)" style="fill: #1f77b4"/>
   </g>
   <g id="patch_18">
    <path d="M 84.72961 273.312 
L 86.350882 273.312 
L 86.350882 256.377069 
L 84.72961 256.377069 
z
" clip-path="url(#p2dcc9a2706)" style="fill: #1f77b4"/>
   </g>
   <g id="patch_19">
    <path d="M 86.350882 273.312 
L 87.972154 273.312 
L 87.972154 258.128959 
L 86.350882 258.128959 
z
" clip-path="url(#p2dcc9a2706)" style="fill: #1f77b4"/>
   </g>
   <g id="patch_20">
    <path d="M 87.972154 273.312 
L 89.593425 273.312 
L 89.593425 254.041217 
L 87.972154 254.041217 
z
" clip-path="url(#p2dcc9a2706)" style="fill: #1f77b4"/>
   </g>
   <g id="patch_21">
    <path d="M 89.593425 273.312 
L 91.214697 273.312 
L 91.214697 256.377069 
L 89.593425 256.377069 
z
" clip-path="url(#p2dcc9a2706)" style="fill: #1f77b4"/>
   </g>
   <g id="patch_22">
    <path d="M 91.214697 273.312 
L 92.835969 273.312 
L 92.835969 249.953475 
L 91.214697 249.953475 
z
" clip-path="url(#p2dcc9a2706)" style="fill: #1f77b4"/>
   </g>
   <g id="patch_23">
    <path d="M 92.835969 273.312 
L 94.457241 273.312 
L 94.457241 255.209143 
L 92.835969 255.209143 
z
" clip-path="url(#p2dcc9a2706)" style="fill: #1f77b4"/>
   </g>
   <g id="patch_24">
    <path d="M 94.457241 273.312 
L 96.078513 273.312 
L 96.078513 244.113843 
L 94.457241 244.113843 
z
" clip-path="url(#p2dcc9a2706)" style="fill: #1f77b4"/>
   </g>
   <g id="patch_25">
    <path d="M 96.078513 273.312 
L 97.699785 273.312 
L 97.699785 251.121401 
L 96.078513 251.121401 
z
" clip-path="url(#p2dcc9a2706)" style="fill: #1f77b4"/>
   </g>
   <g id="patch_26">
    <path d="M 97.699785 273.312 
L 99.321057 273.312 
L 99.321057 242.361954 
L 97.699785 242.361954 
z
" clip-path="url(#p2dcc9a2706)" style="fill: #1f77b4"/>
   </g>
   <g id="patch_27">
    <path d="M 99.321057 273.312 
L 100.942329 273.312 
L 100.942329 249.369512 
L 99.321057 249.369512 
z
" clip-path="url(#p2dcc9a2706)" style="fill: #1f77b4"/>
   </g>
   <g id="patch_28">
    <path d="M 100.942329 273.312 
L 102.563601 273.312 
L 102.563601 241.194028 
L 100.942329 241.194028 
z
" clip-path="url(#p2dcc9a2706)" style="fill: #1f77b4"/>
   </g>
   <g id="patch_29">
    <path d="M 102.563601 273.312 
L 104.184873 273.312 
L 104.184873 241.194028 
L 102.563601 241.194028 
z
" clip-path="url(#p2dcc9a2706)" style="fill: #1f77b4"/>
   </g>
   <g id="patch_30">
    <path d="M 104.184873 273.312 
L 105.806145 273.312 
L 105.806145 244.697806 
L 104.184873 244.697806 
z
" clip-path="url(#p2dcc9a2706)" style="fill: #1f77b4"/>
   </g>
   <g id="patch_31">
    <path d="M 105.806145 273.312 
L 107.427417 273.312 
L 107.427417 243.52988 
L 105.806145 243.52988 
z
" clip-path="url(#p2dcc9a2706)" style="fill: #1f77b4"/>
   </g>
   <g id="patch_32">
    <path d="M 107.427417 273.312 
L 109.048689 273.312 
L 109.048689 233.018544 
L 107.427417 233.018544 
z
" clip-path="url(#p2dcc9a2706)" style="fill: #1f77b4"/>
   </g>
   <g id="patch_33">
    <path d="M 109.048689 273.312 
L 110.669961 273.312 
L 110.669961 243.52988 
L 109.048689 243.52988 
z
" clip-path="url(#p2dcc9a2706)" style="fill: #1f77b4"/>
   </g>
   <g id="patch_34">
    <path d="M 110.669961 273.312 
L 112.291232 273.312 
L 112.291232 237.690249 
L 110.669961 237.690249 
z
" clip-path="url(#p2dcc9a2706)" style="fill: #1f77b4"/>
   </g>
   <g id="patch_35">
    <path d="M 112.291232 273.312 
L 113.912504 273.312 
L 113.912504 237.690249 
L 112.291232 237.690249 
z
" clip-path="url(#p2dcc9a2706)" style="fill: #1f77b4"/>
   </g>
   <g id="patch_36">
    <path d="M 113.912504 273.312 
L 115.533776 273.312 
L 115.533776 236.522323 
L 113.912504 236.522323 
z
" clip-path="url(#p2dcc9a2706)" style="fill: #1f77b4"/>
   </g>
   <g id="patch_37">
    <path d="M 115.533776 273.312 
L 117.155048 273.312 
L 117.155048 234.18647 
L 115.533776 234.18647 
z
" clip-path="url(#p2dcc9a2706)" style="fill: #1f77b4"/>
   </g>
   <g id="patch_38">
    <path d="M 117.155048 273.312 
L 118.77632 273.312 
L 118.77632 234.770433 
L 117.155048 234.770433 
z
" clip-path="url(#p2dcc9a2706)" style="fill: #1f77b4"/>
   </g>
   <g id="patch_39">
    <path d="M 118.77632 273.312 
L 120.397592 273.312 
L 120.397592 231.850618 
L 118.77632 231.850618 
z
" clip-path="url(#p2dcc9a2706)" style="fill: #1f77b4"/>
   </g>
   <g id="patch_40">
    <path d="M 120.397592 273.312 
L 122.018864 273.312 
L 122.018864 235.938359 
L 120.397592 235.938359 
z
" clip-path="url(#p2dcc9a2706)" style="fill: #1f77b4"/>
   </g>
   <g id="patch_41">
    <path d="M 122.018864 273.312 
L 123.640136 273.312 
L 123.640136 230.098728 
L 122.018864 230.098728 
z
" clip-path="url(#p2dcc9a2706)" style="fill: #1f77b4"/>
   </g>
   <g id="patch_42">
    <path d="M 123.640136 273.312 
L 125.261408 273.312 
L 125.261408 231.850618 
L 123.640136 231.850618 
z
" clip-path="url(#p2dcc9a2706)" style="fill: #1f77b4"/>
   </g>
   <g id="patch_43">
    <path d="M 125.261408 273.312 
L 126.88268 273.312 
L 126.88268 237.106286 
L 125.261408 237.106286 
z
" clip-path="url(#p2dcc9a2706)" style="fill: #1f77b4"/>
   </g>
   <g id="patch_44">
    <path d="M 126.88268 273.312 
L 128.503952 273.312 
L 128.503952 223.675134 
L 126.88268 223.675134 
z
" clip-path="url(#p2dcc9a2706)" style="fill: #1f77b4"/>
   </g>
   <g id="patch_45">
    <path d="M 128.503952 273.312 
L 130.125224 273.312 
L 130.125224 233.602507 
L 128.503952 233.602507 
z
" clip-path="url(#p2dcc9a2706)" style="fill: #1f77b4"/>
   </g>
   <g id="patch_46">
    <path d="M 130.125224 273.312 
L 131.746496 273.312 
L 131.746496 226.010986 
L 130.125224 226.010986 
z
" clip-path="url(#p2dcc9a2706)" style="fill: #1f77b4"/>
   </g>
   <g id="patch_47">
    <path d="M 131.746496 273.312 
L 133.367767 273.312 
L 133.367767 222.507207 
L 131.746496 222.507207 
z
" clip-path="url(#p2dcc9a2706)" style="fill: #1f77b4"/>
   </g>
   <g id="patch_48">
    <path d="M 133.367767 273.312 
L 134.989039 273.312 
L 134.989039 213.74776 
L 133.367767 213.74776 
z
" clip-path="url(#p2dcc9a2706)" style="fill: #1f77b4"/>
   </g>
   <g id="patch_49">
    <path d="M 134.989039 273.312 
L 136.610311 273.312 
L 136.610311 224.259097 
L 134.989039 224.259097 
z
" clip-path="url(#p2dcc9a2706)" style="fill: #1f77b4"/>
   </g>
   <g id="patch_50">
    <path d="M 136.610311 273.312 
L 138.231583 273.312 
L 138.231583 207.324166 
L 136.610311 207.324166 
z
" clip-path="url(#p2dcc9a2706)" style="fill: #1f77b4"/>
   </g>
   <g id="patch_51">
    <path d="M 138.231583 273.312 
L 139.852855 273.312 
L 139.852855 227.178912 
L 138.231583 227.178912 
z
" clip-path="url(#p2dcc9a2706)" style="fill: #1f77b4"/>
   </g>
   <g id="patch_52">
    <path d="M 139.852855 273.312 
L 141.474127 273.312 
L 141.474127 212.579834 
L 139.852855 212.579834 
z
" clip-path="url(#p2dcc9a2706)" style="fill: #1f77b4"/>
   </g>
   <g id="patch_53">
    <path d="M 141.474127 273.312 
L 143.095399 273.312 
L 143.095399 213.74776 
L 141.474127 213.74776 
z
" clip-path="url(#p2dcc9a2706)" style="fill: #1f77b4"/>
   </g>
   <g id="patch_54">
    <path d="M 143.095399 273.312 
L 144.716671 273.312 
L 144.716671 216.083613 
L 143.095399 216.083613 
z
" clip-path="url(#p2dcc9a2706)" style="fill: #1f77b4"/>
   </g>
   <g id="patch_55">
    <path d="M 144.716671 273.312 
L 146.337943 273.312 
L 146.337943 219.003429 
L 144.716671 219.003429 
z
" clip-path="url(#p2dcc9a2706)" style="fill: #1f77b4"/>
   </g>
   <g id="patch_56">
    <path d="M 146.337943 273.312 
L 147.959215 273.312 
L 147.959215 209.076055 
L 146.337943 209.076055 
z
" clip-path="url(#p2dcc9a2706)" style="fill: #1f77b4"/>
   </g>
   <g id="patch_57">
    <path d="M 147.959215 273.312 
L 149.580487 273.312 
L 149.580487 213.163797 
L 147.959215 213.163797 
z
" clip-path="url(#p2dcc9a2706)" style="fill: #1f77b4"/>
   </g>
   <g id="patch_58">
    <path d="M 149.580487 273.312 
L 151.201759 273.312 
L 151.201759 209.076055 
L 149.580487 209.076055 
z
" clip-path="url(#p2dcc9a2706)" style="fill: #1f77b4"/>
   </g>
   <g id="patch_59">
    <path d="M 151.201759 273.312 
L 152.823031 273.312 
L 152.823031 204.988313 
L 151.201759 204.988313 
z
" clip-path="url(#p2dcc9a2706)" style="fill: #1f77b4"/>
   </g>
   <g id="patch_60">
    <path d="M 152.823031 273.312 
L 154.444302 273.312 
L 154.444302 209.076055 
L 152.823031 209.076055 
z
" clip-path="url(#p2dcc9a2706)" style="fill: #1f77b4"/>
   </g>
   <g id="patch_61">
    <path d="M 154.444302 273.312 
L 156.065574 273.312 
L 156.065574 206.740203 
L 154.444302 206.740203 
z
" clip-path="url(#p2dcc9a2706)" style="fill: #1f77b4"/>
   </g>
   <g id="patch_62">
    <path d="M 156.065574 273.312 
L 157.686846 273.312 
L 157.686846 207.908129 
L 156.065574 207.908129 
z
" clip-path="url(#p2dcc9a2706)" style="fill: #1f77b4"/>
   </g>
   <g id="patch_63">
    <path d="M 157.686846 273.312 
L 159.308118 273.312 
L 159.308118 197.396793 
L 157.686846 197.396793 
z
" clip-path="url(#p2dcc9a2706)" style="fill: #1f77b4"/>
   </g>
   <g id="patch_64">
    <path d="M 159.308118 273.312 
L 160.92939 273.312 
L 160.92939 193.309051 
L 159.308118 193.309051 
z
" clip-path="url(#p2dcc9a2706)" style="fill: #1f77b4"/>
   </g>
   <g id="patch_65">
    <path d="M 160.92939 273.312 
L 162.550662 273.312 
L 162.550662 204.988313 
L 160.92939 204.988313 
z
" clip-path="url(#p2dcc9a2706)" style="fill: #1f77b4"/>
   </g>
   <g id="patch_66">
    <path d="M 162.550662 273.312 
L 164.171934 273.312 
L 164.171934 193.309051 
L 162.550662 193.309051 
z
" clip-path="url(#p2dcc9a2706)" style="fill: #1f77b4"/>
   </g>
   <g id="patch_67">
    <path d="M 164.171934 273.312 
L 165.793206 273.312 
L 165.793206 193.893014 
L 164.171934 193.893014 
z
" clip-path="url(#p2dcc9a2706)" style="fill: #1f77b4"/>
   </g>
   <g id="patch_68">
    <path d="M 165.793206 273.312 
L 167.414478 273.312 
L 167.414478 202.068498 
L 165.793206 202.068498 
z
" clip-path="url(#p2dcc9a2706)" style="fill: #1f77b4"/>
   </g>
   <g id="patch_69">
    <path d="M 167.414478 273.312 
L 169.03575 273.312 
L 169.03575 195.06094 
L 167.414478 195.06094 
z
" clip-path="url(#p2dcc9a2706)" style="fill: #1f77b4"/>
   </g>
   <g id="patch_70">
    <path d="M 169.03575 273.312 
L 170.657022 273.312 
L 170.657022 193.893014 
L 169.03575 193.893014 
z
" clip-path="url(#p2dcc9a2706)" style="fill: #1f77b4"/>
   </g>
   <g id="patch_71">
    <path d="M 170.657022 273.312 
L 172.278294 273.312 
L 172.278294 194.476977 
L 170.657022 194.476977 
z
" clip-path="url(#p2dcc9a2706)" style="fill: #1f77b4"/>
   </g>
   <g id="patch_72">
    <path d="M 172.278294 273.312 
L 173.899566 273.312 
L 173.899566 182.213751 
L 172.278294 182.213751 
z
" clip-path="url(#p2dcc9a2706)" style="fill: #1f77b4"/>
   </g>
   <g id="patch_73">
    <path d="M 173.899566 273.312 
L 175.520838 273.312 
L 175.520838 188.637346 
L 173.899566 188.637346 
z
" clip-path="url(#p2dcc9a2706)" style="fill: #1f77b4"/>
   </g>
   <g id="patch_74">
    <path d="M 175.520838 273.312 
L 177.142109 273.312 
L 177.142109 179.877899 
L 175.520838 179.877899 
z
" clip-path="url(#p2dcc9a2706)" style="fill: #1f77b4"/>
   </g>
   <g id="patch_75">
    <path d="M 177.142109 273.312 
L 178.763381 273.312 
L 178.763381 176.958083 
L 177.142109 176.958083 
z
" clip-path="url(#p2dcc9a2706)" style="fill: #1f77b4"/>
   </g>
   <g id="patch_76">
    <path d="M 178.763381 273.312 
L 180.384653 273.312 
L 180.384653 179.877899 
L 178.763381 179.877899 
z
" clip-path="url(#p2dcc9a2706)" style="fill: #1f77b4"/>
   </g>
   <g id="patch_77">
    <path d="M 180.384653 273.312 
L 182.005925 273.312 
L 182.005925 183.965641 
L 180.384653 183.965641 
z
" clip-path="url(#p2dcc9a2706)" style="fill: #1f77b4"/>
   </g>
   <g id="patch_78">
    <path d="M 182.005925 273.312 
L 183.627197 273.312 
L 183.627197 177.542046 
L 182.005925 177.542046 
z
" clip-path="url(#p2dcc9a2706)" style="fill: #1f77b4"/>
   </g>
   <g id="patch_79">
    <path d="M 183.627197 273.312 
L 185.248469 273.312 
L 185.248469 182.797714 
L 183.627197 182.797714 
z
" clip-path="url(#p2dcc9a2706)" style="fill: #1f77b4"/>
   </g>
   <g id="patch_80">
    <path d="M 185.248469 273.312 
L 186.869741 273.312 
L 186.869741 172.286378 
L 185.248469 172.286378 
z
" clip-path="url(#p2dcc9a2706)" style="fill: #1f77b4"/>
   </g>
   <g id="patch_81">
    <path d="M 186.869741 273.312 
L 188.491013 273.312 
L 188.491013 163.526931 
L 186.869741 163.526931 
z
" clip-path="url(#p2dcc9a2706)" style="fill: #1f77b4"/>
   </g>
   <g id="patch_82">
    <path d="M 188.491013 273.312 
L 190.112285 273.312 
L 190.112285 190.389235 
L 188.491013 190.389235 
z
" clip-path="url(#p2dcc9a2706)" style="fill: #1f77b4"/>
   </g>
   <g id="patch_83">
    <path d="M 190.112285 273.312 
L 191.733557 273.312 
L 191.733557 189.221309 
L 190.112285 189.221309 
z
" clip-path="url(#p2dcc9a2706)" style="fill: #1f77b4"/>
   </g>
   <g id="patch_84">
    <path d="M 191.733557 273.312 
L 193.354829 273.312 
L 193.354829 160.607115 
L 191.733557 160.607115 
z
" clip-path="url(#p2dcc9a2706)" style="fill: #1f77b4"/>
   </g>
   <g id="patch_85">
    <path d="M 193.354829 273.312 
L 194.976101 273.312 
L 194.976101 179.293935 
L 193.354829 179.293935 
z
" clip-path="url(#p2dcc9a2706)" style="fill: #1f77b4"/>
   </g>
   <g id="patch_86">
    <path d="M 194.976101 273.312 
L 196.597373 273.312 
L 196.597373 151.847668 
L 194.976101 151.847668 
z
" clip-path="url(#p2dcc9a2706)" style="fill: #1f77b4"/>
   </g>
   <g id="patch_87">
    <path d="M 196.597373 273.312 
L 198.218644 273.312 
L 198.218644 181.045825 
L 196.597373 181.045825 
z
" clip-path="url(#p2dcc9a2706)" style="fill: #1f77b4"/>
   </g>
   <g id="patch_88">
    <path d="M 198.218644 273.312 
L 199.839916 273.312 
L 199.839916 167.03071 
L 198.218644 167.03071 
z
" clip-path="url(#p2dcc9a2706)" style="fill: #1f77b4"/>
   </g>
   <g id="patch_89">
    <path d="M 199.839916 273.312 
L 201.461188 273.312 
L 201.461188 179.877899 
L 199.839916 179.877899 
z
" clip-path="url(#p2dcc9a2706)" style="fill: #1f77b4"/>
   </g>
   <g id="patch_90">
    <path d="M 201.461188 273.312 
L 203.08246 273.312 
L 203.08246 162.359005 
L 201.461188 162.359005 
z
" clip-path="url(#p2dcc9a2706)" style="fill: #1f77b4"/>
   </g>
   <g id="patch_91">
    <path d="M 203.08246 273.312 
L 204.703732 273.312 
L 204.703732 169.366562 
L 203.08246 169.366562 
z
" clip-path="url(#p2dcc9a2706)" style="fill: #1f77b4"/>
   </g>
   <g id="patch_92">
    <path d="M 204.703732 273.312 
L 206.325004 273.312 
L 206.325004 187.469419 
L 204.703732 187.469419 
z
" clip-path="url(#p2dcc9a2706)" style="fill: #1f77b4"/>
   </g>
   <g id="patch_93">
    <path d="M 206.325004 273.312 
L 207.946276 273.312 
L 207.946276 162.942968 
L 206.325004 162.942968 
z
" clip-path="url(#p2dcc9a2706)" style="fill: #1f77b4"/>
   </g>
   <g id="patch_94">
    <path d="M 207.946276 273.312 
L 209.567548 273.312 
L 209.567548 167.03071 
L 207.946276 167.03071 
z
" clip-path="url(#p2dcc9a2706)" style="fill: #1f77b4"/>
   </g>
   <g id="patch_95">
    <path d="M 209.567548 273.312 
L 211.18882 273.312 
L 211.18882 168.198636 
L 209.567548 168.198636 
z
" clip-path="url(#p2dcc9a2706)" style="fill: #1f77b4"/>
   </g>
   <g id="patch_96">
    <path d="M 211.18882 273.312 
L 212.810092 273.312 
L 212.810092 152.431631 
L 211.18882 152.431631 
z
" clip-path="url(#p2dcc9a2706)" style="fill: #1f77b4"/>
   </g>
   <g id="patch_97">
    <path d="M 212.810092 273.312 
L 214.431364 273.312 
L 214.431364 160.607115 
L 212.810092 160.607115 
z
" clip-path="url(#p2dcc9a2706)" style="fill: #1f77b4"/>
   </g>
   <g id="patch_98">
    <path d="M 214.431364 273.312 
L 216.052636 273.312 
L 216.052636 164.694857 
L 214.431364 164.694857 
z
" clip-path="url(#p2dcc9a2706)" style="fill: #1f77b4"/>
   </g>
   <g id="patch_99">
    <path d="M 216.052636 273.312 
L 217.673908 273.312 
L 217.673908 162.359005 
L 216.052636 162.359005 
z
" clip-path="url(#p2dcc9a2706)" style="fill: #1f77b4"/>
   </g>
   <g id="patch_100">
    <path d="M 217.673908 273.312 
L 219.295179 273.312 
L 219.295179 161.191078 
L 217.673908 161.191078 
z
" clip-path="url(#p2dcc9a2706)" style="fill: #1f77b4"/>
   </g>
   <g id="patch_101">
    <path d="M 219.295179 273.312 
L 220.916451 273.312 
L 220.916451 164.110894 
L 219.295179 164.110894 
z
" clip-path="url(#p2dcc9a2706)" style="fill: #1f77b4"/>
   </g>
   <g id="patch_102">
    <path d="M 220.916451 273.312 
L 222.537723 273.312 
L 222.537723 157.6873 
L 220.916451 157.6873 
z
" clip-path="url(#p2dcc9a2706)" style="fill: #1f77b4"/>
   </g>
   <g id="patch_103">
    <path d="M 222.537723 273.312 
L 224.158995 273.312 
L 224.158995 161.775041 
L 222.537723 161.775041 
z
" clip-path="url(#p2dcc9a2706)" style="fill: #1f77b4"/>
   </g>
   <g id="patch_104">
    <path d="M 224.158995 273.312 
L 225.780267 273.312 
L 225.780267 150.095779 
L 224.158995 150.095779 
z
" clip-path="url(#p2dcc9a2706)" style="fill: #1f77b4"/>
   </g>
   <g id="patch_105">
    <path d="M 225.780267 273.312 
L 227.401539 273.312 
L 227.401539 149.511816 
L 225.780267 149.511816 
z
" clip-path="url(#p2dcc9a2706)" style="fill: #1f77b4"/>
   </g>
   <g id="patch_106">
    <path d="M 227.401539 273.312 
L 229.022811 273.312 
L 229.022811 168.198636 
L 227.401539 168.198636 
z
" clip-path="url(#p2dcc9a2706)" style="fill: #1f77b4"/>
   </g>
   <g id="patch_107">
    <path d="M 229.022811 273.312 
L 230.644083 273.312 
L 230.644083 160.023152 
L 229.022811 160.023152 
z
" clip-path="url(#p2dcc9a2706)" style="fill: #1f77b4"/>
   </g>
   <g id="patch_108">
    <path d="M 230.644083 273.312 
L 232.265355 273.312 
L 232.265355 152.431631 
L 230.644083 152.431631 
z
" clip-path="url(#p2dcc9a2706)" style="fill: #1f77b4"/>
   </g>
   <g id="patch_109">
    <path d="M 232.265355 273.312 
L 233.886627 273.312 
L 233.886627 141.336332 
L 232.265355 141.336332 
z
" clip-path="url(#p2dcc9a2706)" style="fill: #1f77b4"/>
   </g>
   <g id="patch_110">
    <path d="M 233.886627 273.312 
L 235.507899 273.312 
L 235.507899 151.847668 
L 233.886627 151.847668 
z
" clip-path="url(#p2dcc9a2706)" style="fill: #1f77b4"/>
   </g>
   <g id="patch_111">
    <path d="M 235.507899 273.312 
L 237.129171 273.312 
L 237.129171 144.256147 
L 235.507899 144.256147 
z
" clip-path="url(#p2dcc9a2706)" style="fill: #1f77b4"/>
   </g>
   <g id="patch_112">
    <path d="M 237.129171 273.312 
L 238.750443 273.312 
L 238.750443 154.767484 
L 237.129171 154.767484 
z
" clip-path="url(#p2dcc9a2706)" style="fill: #1f77b4"/>
   </g>
   <g id="patch_113">
    <path d="M 238.750443 273.312 
L 240.371715 273.312 
L 240.371715 154.767484 
L 238.750443 154.767484 
z
" clip-path="url(#p2dcc9a2706)" style="fill: #1f77b4"/>
   </g>
   <g id="patch_114">
    <path d="M 240.371715 273.312 
L 241.992986 273.312 
L 241.992986 146.008037 
L 240.371715 146.008037 
z
" clip-path="url(#p2dcc9a2706)" style="fill: #1f77b4"/>
   </g>
   <g id="patch_115">
    <path d="M 241.992986 273.312 
L 243.614258 273.312 
L 243.614258 145.424074 
L 241.992986 145.424074 
z
" clip-path="url(#p2dcc9a2706)" style="fill: #1f77b4"/>
   </g>
   <g id="patch_116">
    <path d="M 243.614258 273.312 
L 245.23553 273.312 
L 245.23553 139.000479 
L 243.614258 139.000479 
z
" clip-path="url(#p2dcc9a2706)" style="fill: #1f77b4"/>
   </g>
   <g id="patch_117">
    <path d="M 245.23553 273.312 
L 246.856802 273.312 
L 246.856802 151.847668 
L 245.23553 151.847668 
z
" clip-path="url(#p2dcc9a2706)" style="fill: #1f77b4"/>
   </g>
   <g id="patch_118">
    <path d="M 246.856802 273.312 
L 248.478074 273.312 
L 248.478074 150.095779 
L 246.856802 150.095779 
z
" clip-path="url(#p2dcc9a2706)" style="fill: #1f77b4"/>
   </g>
   <g id="patch_119">
    <path d="M 248.478074 273.312 
L 250.099346 273.312 
L 250.099346 138.416516 
L 248.478074 138.416516 
z
" clip-path="url(#p2dcc9a2706)" style="fill: #1f77b4"/>
   </g>
   <g id="patch_120">
    <path d="M 250.099346 273.312 
L 251.720618 273.312 
L 251.720618 129.657069 
L 250.099346 129.657069 
z
" clip-path="url(#p2dcc9a2706)" style="fill: #1f77b4"/>
   </g>
   <g id="patch_121">
    <path d="M 251.720618 273.312 
L 253.34189 273.312 
L 253.34189 121.481585 
L 251.720618 121.481585 
z
" clip-path="url(#p2dcc9a2706)" style="fill: #1f77b4"/>
   </g>
   <g id="patch_122">
    <path d="M 253.34189 273.312 
L 254.963162 273.312 
L 254.963162 136.664627 
L 253.34189 136.664627 
z
" clip-path="url(#p2dcc9a2706)" style="fill: #1f77b4"/>
   </g>
   <g id="patch_123">
    <path d="M 254.963162 273.312 
L 256.584434 273.312 
L 256.584434 135.4967 
L 254.963162 135.4967 
z
" clip-path="url(#p2dcc9a2706)" style="fill: #1f77b4"/>
   </g>
   <g id="patch_124">
    <path d="M 256.584434 273.312 
L 258.205706 273.312 
L 258.205706 128.489143 
L 256.584434 128.489143 
z
" clip-path="url(#p2dcc9a2706)" style="fill: #1f77b4"/>
   </g>
   <g id="patch_125">
    <path d="M 258.205706 273.312 
L 259.826978 273.312 
L 259.826978 126.15329 
L 258.205706 126.15329 
z
" clip-path="url(#p2dcc9a2706)" style="fill: #1f77b4"/>
   </g>
   <g id="patch_126">
    <path d="M 259.826978 273.312 
L 261.44825 273.312 
L 261.44825 119.729696 
L 259.826978 119.729696 
z
" clip-path="url(#p2dcc9a2706)" style="fill: #1f77b4"/>
   </g>
   <g id="patch_127">
    <path d="M 261.44825 273.312 
L 263.069521 273.312 
L 263.069521 160.607115 
L 261.44825 160.607115 
z
" clip-path="url(#p2dcc9a2706)" style="fill: #1f77b4"/>
   </g>
   <g id="patch_128">
    <path d="M 263.069521 273.312 
L 264.690793 273.312 
L 264.690793 118.56177 
L 263.069521 118.56177 
z
" clip-path="url(#p2dcc9a2706)" style="fill: #1f77b4"/>
   </g>
   <g id="patch_129">
    <path d="M 264.690793 273.312 
L 266.312065 273.312 
L 266.312065 120.313659 
L 264.690793 120.313659 
z
" clip-path="url(#p2dcc9a2706)" style="fill: #1f77b4"/>
   </g>
   <g id="patch_130">
    <path d="M 266.312065 273.312 
L 267.933337 273.312 
L 267.933337 116.225917 
L 266.312065 116.225917 
z
" clip-path="url(#p2dcc9a2706)" style="fill: #1f77b4"/>
   </g>
   <g id="patch_131">
    <path d="M 267.933337 273.312 
L 269.554609 273.312 
L 269.554609 126.737253 
L 267.933337 126.737253 
z
" clip-path="url(#p2dcc9a2706)" style="fill: #1f77b4"/>
   </g>
   <g id="patch_132">
    <path d="M 269.554609 273.312 
L 271.175881 273.312 
L 271.175881 127.321217 
L 269.554609 127.321217 
z
" clip-path="url(#p2dcc9a2706)" style="fill: #1f77b4"/>
   </g>
   <g id="patch_133">
    <path d="M 271.175881 273.312 
L 272.797153 273.312 
L 272.797153 113.890065 
L 271.175881 113.890065 
z
" clip-path="url(#p2dcc9a2706)" style="fill: #1f77b4"/>
   </g>
   <g id="patch_134">
    <path d="M 272.797153 273.312 
L 274.418425 273.312 
L 274.418425 115.641954 
L 272.797153 115.641954 
z
" clip-path="url(#p2dcc9a2706)" style="fill: #1f77b4"/>
   </g>
   <g id="patch_135">
    <path d="M 274.418425 273.312 
L 276.039697 273.312 
L 276.039697 124.401401 
L 274.418425 124.401401 
z
" clip-path="url(#p2dcc9a2706)" style="fill: #1f77b4"/>
   </g>
   <g id="patch_136">
    <path d="M 276.039697 273.312 
L 277.660969 273.312 
L 277.660969 125.569327 
L 276.039697 125.569327 
z
" clip-path="url(#p2dcc9a2706)" style="fill: #1f77b4"/>
   </g>
   <g id="patch_137">
    <path d="M 277.660969 273.312 
L 279.282241 273.312 
L 279.282241 92.283429 
L 277.660969 92.283429 
z
" clip-path="url(#p2dcc9a2706)" style="fill: #1f77b4"/>
   </g>
   <g id="patch_138">
    <path d="M 279.282241 273.312 
L 280.903513 273.312 
L 280.903513 96.371171 
L 279.282241 96.371171 
z
" clip-path="url(#p2dcc9a2706)" style="fill: #1f77b4"/>
   </g>
   <g id="patch_139">
    <path d="M 280.903513 273.312 
L 282.524785 273.312 
L 282.524785 105.714581 
L 280.903513 105.714581 
z
" clip-path="url(#p2dcc9a2706)" style="fill: #1f77b4"/>
   </g>
   <g id="patch_140">
    <path d="M 282.524785 273.312 
L 284.146056 273.312 
L 284.146056 114.474028 
L 282.524785 114.474028 
z
" clip-path="url(#p2dcc9a2706)" style="fill: #1f77b4"/>
   </g>
   <g id="patch_141">
    <path d="M 284.146056 273.312 
L 285.767328 273.312 
L 285.767328 103.962691 
L 284.146056 103.962691 
z
" clip-path="url(#p2dcc9a2706)" style="fill: #1f77b4"/>
   </g>
   <g id="patch_142">
    <path d="M 285.767328 273.312 
L 287.3886 273.312 
L 287.3886 126.15329 
L 285.767328 126.15329 
z
" clip-path="url(#p2dcc9a2706)" style="fill: #1f77b4"/>
   </g>
   <g id="patch_143">
    <path d="M 287.3886 273.312 
L 289.009872 273.312 
L 289.009872 117.977806 
L 287.3886 117.977806 
z
" clip-path="url(#p2dcc9a2706)" style="fill: #1f77b4"/>
   </g>
   <g id="patch_144">
    <path d="M 289.009872 273.312 
L 290.631144 273.312 
L 290.631144 127.321217 
L 289.009872 127.321217 
z
" clip-path="url(#p2dcc9a2706)" style="fill: #1f77b4"/>
   </g>
   <g id="patch_145">
    <path d="M 290.631144 273.312 
L 292.252416 273.312 
L 292.252416 126.737253 
L 290.631144 126.737253 
z
" clip-path="url(#p2dcc9a2706)" style="fill: #1f77b4"/>
   </g>
   <g id="patch_146">
    <path d="M 292.252416 273.312 
L 293.873688 273.312 
L 293.873688 103.962691 
L 292.252416 103.962691 
z
" clip-path="url(#p2dcc9a2706)" style="fill: #1f77b4"/>
   </g>
   <g id="patch_147">
    <path d="M 293.873688 273.312 
L 295.49496 273.312 
L 295.49496 115.057991 
L 293.873688 115.057991 
z
" clip-path="url(#p2dcc9a2706)" style="fill: #1f77b4"/>
   </g>
   <g id="patch_148">
    <path d="M 295.49496 273.312 
L 297.116232 273.312 
L 297.116232 103.962691 
L 295.49496 103.962691 
z
" clip-path="url(#p2dcc9a2706)" style="fill: #1f77b4"/>
   </g>
   <g id="patch_149">
    <path d="M 297.116232 273.312 
L 298.737504 273.312 
L 298.737504 96.371171 
L 297.116232 96.371171 
z
" clip-path="url(#p2dcc9a2706)" style="fill: #1f77b4"/>
   </g>
   <g id="patch_150">
    <path d="M 298.737504 273.312 
L 300.358776 273.312 
L 300.358776 88.195687 
L 298.737504 88.195687 
z
" clip-path="url(#p2dcc9a2706)" style="fill: #1f77b4"/>
   </g>
   <g id="patch_151">
    <path d="M 300.358776 273.312 
L 301.980048 273.312 
L 301.980048 96.371171 
L 300.358776 96.371171 
z
" clip-path="url(#p2dcc9a2706)" style="fill: #1f77b4"/>
   </g>
   <g id="patch_152">
    <path d="M 301.980048 273.312 
L 303.60132 273.312 
L 303.60132 112.138175 
L 301.980048 112.138175 
z
" clip-path="url(#p2dcc9a2706)" style="fill: #1f77b4"/>
   </g>
   <g id="patch_153">
    <path d="M 303.60132 273.312 
L 305.222592 273.312 
L 305.222592 88.77965 
L 303.60132 88.77965 
z
" clip-path="url(#p2dcc9a2706)" style="fill: #1f77b4"/>
   </g>
   <g id="patch_154">
    <path d="M 305.222592 273.312 
L 306.843863 273.312 
L 306.843863 102.210802 
L 305.222592 102.210802 
z
" clip-path="url(#p2dcc9a2706)" style="fill: #1f77b4"/>
   </g>
   <g id="patch_155">
    <path d="M 306.843863 273.312 
L 308.465135 273.312 
L 308.465135 86.443797 
L 306.843863 86.443797 
z
" clip-path="url(#p2dcc9a2706)" style="fill: #1f77b4"/>
   </g>
   <g id="patch_156">
    <path d="M 308.465135 273.312 
L 310.086407 273.312 
L 310.086407 100.458912 
L 308.465135 100.458912 
z
" clip-path="url(#p2dcc9a2706)" style="fill: #1f77b4"/>
   </g>
   <g id="patch_157">
    <path d="M 310.086407 273.312 
L 311.707679 273.312 
L 311.707679 96.371171 
L 310.086407 96.371171 
z
" clip-path="url(#p2dcc9a2706)" style="fill: #1f77b4"/>
   </g>
   <g id="patch_158">
    <path d="M 311.707679 273.312 
L 313.328951 273.312 
L 313.328951 79.43624 
L 311.707679 79.43624 
z
" clip-path="url(#p2dcc9a2706)" style="fill: #1f77b4"/>
   </g>
   <g id="patch_159">
    <path d="M 313.328951 273.312 
L 314.950223 273.312 
L 314.950223 89.947576 
L 313.328951 89.947576 
z
" clip-path="url(#p2dcc9a2706)" style="fill: #1f77b4"/>
   </g>
   <g id="patch_160">
    <path d="M 314.950223 273.312 
L 316.571495 273.312 
L 316.571495 92.283429 
L 314.950223 92.283429 
z
" clip-path="url(#p2dcc9a2706)" style="fill: #1f77b4"/>
   </g>
   <g id="patch_161">
    <path d="M 316.571495 273.312 
L 318.192767 273.312 
L 318.192767 98.12306 
L 316.571495 98.12306 
z
" clip-path="url(#p2dcc9a2706)" style="fill: #1f77b4"/>
   </g>
   <g id="patch_162">
    <path d="M 318.192767 273.312 
L 319.814039 273.312 
L 319.814039 76.516424 
L 318.192767 76.516424 
z
" clip-path="url(#p2dcc9a2706)" style="fill: #1f77b4"/>
   </g>
   <g id="patch_163">
    <path d="M 319.814039 273.312 
L 321.435311 273.312 
L 321.435311 104.546654 
L 319.814039 104.546654 
z
" clip-path="url(#p2dcc9a2706)" style="fill: #1f77b4"/>
   </g>
   <g id="patch_164">
    <path d="M 321.435311 273.312 
L 323.056583 273.312 
L 323.056583 77.68435 
L 321.435311 77.68435 
z
" clip-path="url(#p2dcc9a2706)" style="fill: #1f77b4"/>
   </g>
   <g id="patch_165">
    <path d="M 323.056583 273.312 
L 324.677855 273.312 
L 324.677855 88.195687 
L 323.056583 88.195687 
z
" clip-path="url(#p2dcc9a2706)" style="fill: #1f77b4"/>
   </g>
   <g id="patch_166">
    <path d="M 324.677855 273.312 
L 326.299127 273.312 
L 326.299127 88.77965 
L 324.677855 88.77965 
z
" clip-path="url(#p2dcc9a2706)" style="fill: #1f77b4"/>
   </g>
   <g id="patch_167">
    <path d="M 326.299127 273.312 
L 327.920398 273.312 
L 327.920398 66.005088 
L 326.299127 66.005088 
z
" clip-path="url(#p2dcc9a2706)" style="fill: #1f77b4"/>
   </g>
   <g id="patch_168">
    <path d="M 327.920398 273.312 
L 329.54167 273.312 
L 329.54167 81.772092 
L 327.920398 81.772092 
z
" clip-path="url(#p2dcc9a2706)" style="fill: #1f77b4"/>
   </g>
   <g id="patch_169">
    <path d="M 329.54167 273.312 
L 331.162942 273.312 
L 331.162942 66.005088 
L 329.54167 66.005088 
z
" clip-path="url(#p2dcc9a2706)" style="fill: #1f77b4"/>
   </g>
   <g id="patch_170">
    <path d="M 331.162942 273.312 
L 332.784214 273.312 
L 332.784214 89.363613 
L 331.162942 89.363613 
z
" clip-path="url(#p2dcc9a2706)" style="fill: #1f77b4"/>
   </g>
   <g id="patch_171">
    <path d="M 332.784214 273.312 
L 334.405486 273.312 
L 334.405486 73.596608 
L 332.784214 73.596608 
z
" clip-path="url(#p2dcc9a2706)" style="fill: #1f77b4"/>
   </g>
   <g id="patch_172">
    <path d="M 334.405486 273.312 
L 336.026758 273.312 
L 336.026758 81.772092 
L 334.405486 81.772092 
z
" clip-path="url(#p2dcc9a2706)" style="fill: #1f77b4"/>
   </g>
   <g id="patch_173">
    <path d="M 336.026758 273.312 
L 337.64803 273.312 
L 337.64803 74.764535 
L 336.026758 74.764535 
z
" clip-path="url(#p2dcc9a2706)" style="fill: #1f77b4"/>
   </g>
   <g id="patch_174">
    <path d="M 337.64803 273.312 
L 339.269302 273.312 
L 339.269302 76.516424 
L 337.64803 76.516424 
z
" clip-path="url(#p2dcc9a2706)" style="fill: #1f77b4"/>
   </g>
   <g id="patch_175">
    <path d="M 339.269302 273.312 
L 340.890574 273.312 
L 340.890574 64.837161 
L 339.269302 64.837161 
z
" clip-path="url(#p2dcc9a2706)" style="fill: #1f77b4"/>
   </g>
   <g id="patch_176">
    <path d="M 340.890574 273.312 
L 342.511846 273.312 
L 342.511846 65.421124 
L 340.890574 65.421124 
z
" clip-path="url(#p2dcc9a2706)" style="fill: #1f77b4"/>
   </g>
   <g id="patch_177">
    <path d="M 342.511846 273.312 
L 344.133118 273.312 
L 344.133118 50.822046 
L 342.511846 50.822046 
z
" clip-path="url(#p2dcc9a2706)" style="fill: #1f77b4"/>
   </g>
   <g id="patch_178">
    <path d="M 344.133118 273.312 
L 345.75439 273.312 
L 345.75439 61.333382 
L 344.133118 61.333382 
z
" clip-path="url(#p2dcc9a2706)" style="fill: #1f77b4"/>
   </g>
   <g id="patch_179">
    <path d="M 345.75439 273.312 
L 347.375662 273.312 
L 347.375662 62.501309 
L 345.75439 62.501309 
z
" clip-path="url(#p2dcc9a2706)" style="fill: #1f77b4"/>
   </g>
   <g id="patch_180">
    <path d="M 347.375662 273.312 
L 348.996933 273.312 
L 348.996933 71.844719 
L 347.375662 71.844719 
z
" clip-path="url(#p2dcc9a2706)" style="fill: #1f77b4"/>
   </g>
   <g id="patch_181">
    <path d="M 348.996933 273.312 
L 350.618205 273.312 
L 350.618205 64.253198 
L 348.996933 64.253198 
z
" clip-path="url(#p2dcc9a2706)" style="fill: #1f77b4"/>
   </g>
   <g id="patch_182">
    <path d="M 350.618205 273.312 
L 352.239477 273.312 
L 352.239477 71.844719 
L 350.618205 71.844719 
z
" clip-path="url(#p2dcc9a2706)" style="fill: #1f77b4"/>
   </g>
   <g id="patch_183">
    <path d="M 352.239477 273.312 
L 353.860749 273.312 
L 353.860749 73.012645 
L 352.239477 73.012645 
z
" clip-path="url(#p2dcc9a2706)" style="fill: #1f77b4"/>
   </g>
   <g id="patch_184">
    <path d="M 353.860749 273.312 
L 355.482021 273.312 
L 355.482021 45.566378 
L 353.860749 45.566378 
z
" clip-path="url(#p2dcc9a2706)" style="fill: #1f77b4"/>
   </g>
   <g id="patch_185">
    <path d="M 355.482021 273.312 
L 357.103293 273.312 
L 357.103293 63.669235 
L 355.482021 63.669235 
z
" clip-path="url(#p2dcc9a2706)" style="fill: #1f77b4"/>
   </g>
   <g id="patch_186">
    <path d="M 357.103293 273.312 
L 358.724565 273.312 
L 358.724565 73.596608 
L 357.103293 73.596608 
z
" clip-path="url(#p2dcc9a2706)" style="fill: #1f77b4"/>
   </g>
   <g id="patch_187">
    <path d="M 358.724565 273.312 
L 360.345837 273.312 
L 360.345837 53.157899 
L 358.724565 53.157899 
z
" clip-path="url(#p2dcc9a2706)" style="fill: #1f77b4"/>
   </g>
   <g id="patch_188">
    <path d="M 360.345837 273.312 
L 361.967109 273.312 
L 361.967109 56.077714 
L 360.345837 56.077714 
z
" clip-path="url(#p2dcc9a2706)" style="fill: #1f77b4"/>
   </g>
   <g id="patch_189">
    <path d="M 361.967109 273.312 
L 363.588381 273.312 
L 363.588381 46.734304 
L 361.967109 46.734304 
z
" clip-path="url(#p2dcc9a2706)" style="fill: #1f77b4"/>
   </g>
   <g id="patch_190">
    <path d="M 363.588381 273.312 
L 365.209653 273.312 
L 365.209653 40.31071 
L 363.588381 40.31071 
z
" clip-path="url(#p2dcc9a2706)" style="fill: #1f77b4"/>
   </g>
   <g id="patch_191">
    <path d="M 365.209653 273.312 
L 366.830925 273.312 
L 366.830925 49.070157 
L 365.209653 49.070157 
z
" clip-path="url(#p2dcc9a2706)" style="fill: #1f77b4"/>
   </g>
   <g id="patch_192">
    <path d="M 366.830925 273.312 
L 368.452197 273.312 
L 368.452197 26.879558 
L 366.830925 26.879558 
z
" clip-path="url(#p2dcc9a2706)" style="fill: #1f77b4"/>
   </g>
   <g id="patch_193">
    <path d="M 368.452197 273.312 
L 370.073468 273.312 
L 370.073468 36.222968 
L 368.452197 36.222968 
z
" clip-path="url(#p2dcc9a2706)" style="fill: #1f77b4"/>
   </g>
   <g id="patch_194">
    <path d="M 370.073468 273.312 
L 371.69474 273.312 
L 371.69474 38.55882 
L 370.073468 38.55882 
z
" clip-path="url(#p2dcc9a2706)" style="fill: #1f77b4"/>
   </g>
   <g id="patch_195">
    <path d="M 371.69474 273.312 
L 373.316012 273.312 
L 373.316012 58.99753 
L 371.69474 58.99753 
z
" clip-path="url(#p2dcc9a2706)" style="fill: #1f77b4"/>
   </g>
   <g id="patch_196">
    <path d="M 373.316012 273.312 
L 374.937284 273.312 
L 374.937284 58.99753 
L 373.316012 58.99753 
z
" clip-path="url(#p2dcc9a2706)" style="fill: #1f77b4"/>
   </g>
   <g id="patch_197">
    <path d="M 374.937284 273.312 
L 376.558556 273.312 
L 376.558556 60.165456 
L 374.937284 60.165456 
z
" clip-path="url(#p2dcc9a2706)" style="fill: #1f77b4"/>
   </g>
   <g id="patch_198">
    <path d="M 376.558556 273.312 
L 378.179828 273.312 
L 378.179828 61.333382 
L 376.558556 61.333382 
z
" clip-path="url(#p2dcc9a2706)" style="fill: #1f77b4"/>
   </g>
   <g id="patch_199">
    <path d="M 378.179828 273.312 
L 379.8011 273.312 
L 379.8011 19.872 
L 378.179828 19.872 
z
" clip-path="url(#p2dcc9a2706)" style="fill: #1f77b4"/>
   </g>
   <g id="patch_200">
    <path d="M 379.8011 273.312 
L 381.422372 273.312 
L 381.422372 31.551263 
L 379.8011 31.551263 
z
" clip-path="url(#p2dcc9a2706)" style="fill: #1f77b4"/>
   </g>
   <g id="patch_201">
    <path d="M 381.422372 273.312 
L 383.043644 273.312 
L 383.043644 49.070157 
L 381.422372 49.070157 
z
" clip-path="url(#p2dcc9a2706)" style="fill: #1f77b4"/>
   </g>
   <g id="patch_202">
    <path d="M 383.043644 273.312 
L 384.664916 273.312 
L 384.664916 50.822046 
L 383.043644 50.822046 
z
" clip-path="url(#p2dcc9a2706)" style="fill: #1f77b4"/>
   </g>
   <g id="matplotlib.axis_1">
    <g id="xtick_1">
     <g id="line2d_1">
      <defs>
       <path id="m944cdb2980" d="M 0 0 
L 0 3.5 
" style="stroke: #000000; stroke-width: 0.8"/>
      </defs>
      <g>
       <use xlink:href="#m944cdb2980" x="60.013977" y="273.312" style="stroke: #000000; stroke-width: 0.8"/>
      </g>
     </g>
     <g id="text_1">
      <!-- 0.0 -->
      <g transform="translate(52.062415 287.910437)scale(0.1 -0.1)">
       <defs>
        <path id="DejaVuSans-30" d="M 2034 4250 
Q 1547 4250 1301 3770 
Q 1056 3291 1056 2328 
Q 1056 1369 1301 889 
Q 1547 409 2034 409 
Q 2525 409 2770 889 
Q 3016 1369 3016 2328 
Q 3016 3291 2770 3770 
Q 2525 4250 2034 4250 
z
M 2034 4750 
Q 2819 4750 3233 4129 
Q 3647 3509 3647 2328 
Q 3647 1150 3233 529 
Q 2819 -91 2034 -91 
Q 1250 -91 836 529 
Q 422 1150 422 2328 
Q 422 3509 836 4129 
Q 1250 4750 2034 4750 
z
" transform="scale(0.015625)"/>
        <path id="DejaVuSans-2e" d="M 684 794 
L 1344 794 
L 1344 0 
L 684 0 
L 684 794 
z
" transform="scale(0.015625)"/>
       </defs>
       <use xlink:href="#DejaVuSans-30"/>
       <use xlink:href="#DejaVuSans-2e" x="63.623047"/>
       <use xlink:href="#DejaVuSans-30" x="95.410156"/>
      </g>
     </g>
    </g>
    <g id="xtick_2">
     <g id="line2d_2">
      <g>
       <use xlink:href="#m944cdb2980" x="124.944886" y="273.312" style="stroke: #000000; stroke-width: 0.8"/>
      </g>
     </g>
     <g id="text_2">
      <!-- 0.2 -->
      <g transform="translate(116.993324 287.910437)scale(0.1 -0.1)">
       <defs>
        <path id="DejaVuSans-32" d="M 1228 531 
L 3431 531 
L 3431 0 
L 469 0 
L 469 531 
Q 828 903 1448 1529 
Q 2069 2156 2228 2338 
Q 2531 2678 2651 2914 
Q 2772 3150 2772 3378 
Q 2772 3750 2511 3984 
Q 2250 4219 1831 4219 
Q 1534 4219 1204 4116 
Q 875 4013 500 3803 
L 500 4441 
Q 881 4594 1212 4672 
Q 1544 4750 1819 4750 
Q 2544 4750 2975 4387 
Q 3406 4025 3406 3419 
Q 3406 3131 3298 2873 
Q 3191 2616 2906 2266 
Q 2828 2175 2409 1742 
Q 1991 1309 1228 531 
z
" transform="scale(0.015625)"/>
       </defs>
       <use xlink:href="#DejaVuSans-30"/>
       <use xlink:href="#DejaVuSans-2e" x="63.623047"/>
       <use xlink:href="#DejaVuSans-32" x="95.410156"/>
      </g>
     </g>
    </g>
    <g id="xtick_3">
     <g id="line2d_3">
      <g>
       <use xlink:href="#m944cdb2980" x="189.875795" y="273.312" style="stroke: #000000; stroke-width: 0.8"/>
      </g>
     </g>
     <g id="text_3">
      <!-- 0.4 -->
      <g transform="translate(181.924233 287.910437)scale(0.1 -0.1)">
       <defs>
        <path id="DejaVuSans-34" d="M 2419 4116 
L 825 1625 
L 2419 1625 
L 2419 4116 
z
M 2253 4666 
L 3047 4666 
L 3047 1625 
L 3713 1625 
L 3713 1100 
L 3047 1100 
L 3047 0 
L 2419 0 
L 2419 1100 
L 313 1100 
L 313 1709 
L 2253 4666 
z
" transform="scale(0.015625)"/>
       </defs>
       <use xlink:href="#DejaVuSans-30"/>
       <use xlink:href="#DejaVuSans-2e" x="63.623047"/>
       <use xlink:href="#DejaVuSans-34" x="95.410156"/>
      </g>
     </g>
    </g>
    <g id="xtick_4">
     <g id="line2d_4">
      <g>
       <use xlink:href="#m944cdb2980" x="254.806705" y="273.312" style="stroke: #000000; stroke-width: 0.8"/>
      </g>
     </g>
     <g id="text_4">
      <!-- 0.6 -->
      <g transform="translate(246.855142 287.910437)scale(0.1 -0.1)">
       <defs>
        <path id="DejaVuSans-36" d="M 2113 2584 
Q 1688 2584 1439 2293 
Q 1191 2003 1191 1497 
Q 1191 994 1439 701 
Q 1688 409 2113 409 
Q 2538 409 2786 701 
Q 3034 994 3034 1497 
Q 3034 2003 2786 2293 
Q 2538 2584 2113 2584 
z
M 3366 4563 
L 3366 3988 
Q 3128 4100 2886 4159 
Q 2644 4219 2406 4219 
Q 1781 4219 1451 3797 
Q 1122 3375 1075 2522 
Q 1259 2794 1537 2939 
Q 1816 3084 2150 3084 
Q 2853 3084 3261 2657 
Q 3669 2231 3669 1497 
Q 3669 778 3244 343 
Q 2819 -91 2113 -91 
Q 1303 -91 875 529 
Q 447 1150 447 2328 
Q 447 3434 972 4092 
Q 1497 4750 2381 4750 
Q 2619 4750 2861 4703 
Q 3103 4656 3366 4563 
z
" transform="scale(0.015625)"/>
       </defs>
       <use xlink:href="#DejaVuSans-30"/>
       <use xlink:href="#DejaVuSans-2e" x="63.623047"/>
       <use xlink:href="#DejaVuSans-36" x="95.410156"/>
      </g>
     </g>
    </g>
    <g id="xtick_5">
     <g id="line2d_5">
      <g>
       <use xlink:href="#m944cdb2980" x="319.737614" y="273.312" style="stroke: #000000; stroke-width: 0.8"/>
      </g>
     </g>
     <g id="text_5">
      <!-- 0.8 -->
      <g transform="translate(311.786051 287.910437)scale(0.1 -0.1)">
       <defs>
        <path id="DejaVuSans-38" d="M 2034 2216 
Q 1584 2216 1326 1975 
Q 1069 1734 1069 1313 
Q 1069 891 1326 650 
Q 1584 409 2034 409 
Q 2484 409 2743 651 
Q 3003 894 3003 1313 
Q 3003 1734 2745 1975 
Q 2488 2216 2034 2216 
z
M 1403 2484 
Q 997 2584 770 2862 
Q 544 3141 544 3541 
Q 544 4100 942 4425 
Q 1341 4750 2034 4750 
Q 2731 4750 3128 4425 
Q 3525 4100 3525 3541 
Q 3525 3141 3298 2862 
Q 3072 2584 2669 2484 
Q 3125 2378 3379 2068 
Q 3634 1759 3634 1313 
Q 3634 634 3220 271 
Q 2806 -91 2034 -91 
Q 1263 -91 848 271 
Q 434 634 434 1313 
Q 434 1759 690 2068 
Q 947 2378 1403 2484 
z
M 1172 3481 
Q 1172 3119 1398 2916 
Q 1625 2713 2034 2713 
Q 2441 2713 2670 2916 
Q 2900 3119 2900 3481 
Q 2900 3844 2670 4047 
Q 2441 4250 2034 4250 
Q 1625 4250 1398 4047 
Q 1172 3844 1172 3481 
z
" transform="scale(0.015625)"/>
       </defs>
       <use xlink:href="#DejaVuSans-30"/>
       <use xlink:href="#DejaVuSans-2e" x="63.623047"/>
       <use xlink:href="#DejaVuSans-38" x="95.410156"/>
      </g>
     </g>
    </g>
    <g id="xtick_6">
     <g id="line2d_6">
      <g>
       <use xlink:href="#m944cdb2980" x="384.668523" y="273.312" style="stroke: #000000; stroke-width: 0.8"/>
      </g>
     </g>
     <g id="text_6">
      <!-- 1.0 -->
      <g transform="translate(376.71696 287.910437)scale(0.1 -0.1)">
       <defs>
        <path id="DejaVuSans-31" d="M 794 531 
L 1825 531 
L 1825 4091 
L 703 3866 
L 703 4441 
L 1819 4666 
L 2450 4666 
L 2450 531 
L 3481 531 
L 3481 0 
L 794 0 
L 794 531 
z
" transform="scale(0.015625)"/>
       </defs>
       <use xlink:href="#DejaVuSans-31"/>
       <use xlink:href="#DejaVuSans-2e" x="63.623047"/>
       <use xlink:href="#DejaVuSans-30" x="95.410156"/>
      </g>
     </g>
    </g>
    <g id="text_7">
     <!-- Propagation direction -->
     <g transform="translate(168.859219 301.588562)scale(0.1 -0.1)">
      <defs>
       <path id="DejaVuSans-50" d="M 1259 4147 
L 1259 2394 
L 2053 2394 
Q 2494 2394 2734 2622 
Q 2975 2850 2975 3272 
Q 2975 3691 2734 3919 
Q 2494 4147 2053 4147 
L 1259 4147 
z
M 628 4666 
L 2053 4666 
Q 2838 4666 3239 4311 
Q 3641 3956 3641 3272 
Q 3641 2581 3239 2228 
Q 2838 1875 2053 1875 
L 1259 1875 
L 1259 0 
L 628 0 
L 628 4666 
z
" transform="scale(0.015625)"/>
       <path id="DejaVuSans-72" d="M 2631 2963 
Q 2534 3019 2420 3045 
Q 2306 3072 2169 3072 
Q 1681 3072 1420 2755 
Q 1159 2438 1159 1844 
L 1159 0 
L 581 0 
L 581 3500 
L 1159 3500 
L 1159 2956 
Q 1341 3275 1631 3429 
Q 1922 3584 2338 3584 
Q 2397 3584 2469 3576 
Q 2541 3569 2628 3553 
L 2631 2963 
z
" transform="scale(0.015625)"/>
       <path id="DejaVuSans-6f" d="M 1959 3097 
Q 1497 3097 1228 2736 
Q 959 2375 959 1747 
Q 959 1119 1226 758 
Q 1494 397 1959 397 
Q 2419 397 2687 759 
Q 2956 1122 2956 1747 
Q 2956 2369 2687 2733 
Q 2419 3097 1959 3097 
z
M 1959 3584 
Q 2709 3584 3137 3096 
Q 3566 2609 3566 1747 
Q 3566 888 3137 398 
Q 2709 -91 1959 -91 
Q 1206 -91 779 398 
Q 353 888 353 1747 
Q 353 2609 779 3096 
Q 1206 3584 1959 3584 
z
" transform="scale(0.015625)"/>
       <path id="DejaVuSans-70" d="M 1159 525 
L 1159 -1331 
L 581 -1331 
L 581 3500 
L 1159 3500 
L 1159 2969 
Q 1341 3281 1617 3432 
Q 1894 3584 2278 3584 
Q 2916 3584 3314 3078 
Q 3713 2572 3713 1747 
Q 3713 922 3314 415 
Q 2916 -91 2278 -91 
Q 1894 -91 1617 61 
Q 1341 213 1159 525 
z
M 3116 1747 
Q 3116 2381 2855 2742 
Q 2594 3103 2138 3103 
Q 1681 3103 1420 2742 
Q 1159 2381 1159 1747 
Q 1159 1113 1420 752 
Q 1681 391 2138 391 
Q 2594 391 2855 752 
Q 3116 1113 3116 1747 
z
" transform="scale(0.015625)"/>
       <path id="DejaVuSans-61" d="M 2194 1759 
Q 1497 1759 1228 1600 
Q 959 1441 959 1056 
Q 959 750 1161 570 
Q 1363 391 1709 391 
Q 2188 391 2477 730 
Q 2766 1069 2766 1631 
L 2766 1759 
L 2194 1759 
z
M 3341 1997 
L 3341 0 
L 2766 0 
L 2766 531 
Q 2569 213 2275 61 
Q 1981 -91 1556 -91 
Q 1019 -91 701 211 
Q 384 513 384 1019 
Q 384 1609 779 1909 
Q 1175 2209 1959 2209 
L 2766 2209 
L 2766 2266 
Q 2766 2663 2505 2880 
Q 2244 3097 1772 3097 
Q 1472 3097 1187 3025 
Q 903 2953 641 2809 
L 641 3341 
Q 956 3463 1253 3523 
Q 1550 3584 1831 3584 
Q 2591 3584 2966 3190 
Q 3341 2797 3341 1997 
z
" transform="scale(0.015625)"/>
       <path id="DejaVuSans-67" d="M 2906 1791 
Q 2906 2416 2648 2759 
Q 2391 3103 1925 3103 
Q 1463 3103 1205 2759 
Q 947 2416 947 1791 
Q 947 1169 1205 825 
Q 1463 481 1925 481 
Q 2391 481 2648 825 
Q 2906 1169 2906 1791 
z
M 3481 434 
Q 3481 -459 3084 -895 
Q 2688 -1331 1869 -1331 
Q 1566 -1331 1297 -1286 
Q 1028 -1241 775 -1147 
L 775 -588 
Q 1028 -725 1275 -790 
Q 1522 -856 1778 -856 
Q 2344 -856 2625 -561 
Q 2906 -266 2906 331 
L 2906 616 
Q 2728 306 2450 153 
Q 2172 0 1784 0 
Q 1141 0 747 490 
Q 353 981 353 1791 
Q 353 2603 747 3093 
Q 1141 3584 1784 3584 
Q 2172 3584 2450 3431 
Q 2728 3278 2906 2969 
L 2906 3500 
L 3481 3500 
L 3481 434 
z
" transform="scale(0.015625)"/>
       <path id="DejaVuSans-74" d="M 1172 4494 
L 1172 3500 
L 2356 3500 
L 2356 3053 
L 1172 3053 
L 1172 1153 
Q 1172 725 1289 603 
Q 1406 481 1766 481 
L 2356 481 
L 2356 0 
L 1766 0 
Q 1100 0 847 248 
Q 594 497 594 1153 
L 594 3053 
L 172 3053 
L 172 3500 
L 594 3500 
L 594 4494 
L 1172 4494 
z
" transform="scale(0.015625)"/>
       <path id="DejaVuSans-69" d="M 603 3500 
L 1178 3500 
L 1178 0 
L 603 0 
L 603 3500 
z
M 603 4863 
L 1178 4863 
L 1178 4134 
L 603 4134 
L 603 4863 
z
" transform="scale(0.015625)"/>
       <path id="DejaVuSans-6e" d="M 3513 2113 
L 3513 0 
L 2938 0 
L 2938 2094 
Q 2938 2591 2744 2837 
Q 2550 3084 2163 3084 
Q 1697 3084 1428 2787 
Q 1159 2491 1159 1978 
L 1159 0 
L 581 0 
L 581 3500 
L 1159 3500 
L 1159 2956 
Q 1366 3272 1645 3428 
Q 1925 3584 2291 3584 
Q 2894 3584 3203 3211 
Q 3513 2838 3513 2113 
z
" transform="scale(0.015625)"/>
       <path id="DejaVuSans-20" transform="scale(0.015625)"/>
       <path id="DejaVuSans-64" d="M 2906 2969 
L 2906 4863 
L 3481 4863 
L 3481 0 
L 2906 0 
L 2906 525 
Q 2725 213 2448 61 
Q 2172 -91 1784 -91 
Q 1150 -91 751 415 
Q 353 922 353 1747 
Q 353 2572 751 3078 
Q 1150 3584 1784 3584 
Q 2172 3584 2448 3432 
Q 2725 3281 2906 2969 
z
M 947 1747 
Q 947 1113 1208 752 
Q 1469 391 1925 391 
Q 2381 391 2643 752 
Q 2906 1113 2906 1747 
Q 2906 2381 2643 2742 
Q 2381 3103 1925 3103 
Q 1469 3103 1208 2742 
Q 947 2381 947 1747 
z
" transform="scale(0.015625)"/>
       <path id="DejaVuSans-65" d="M 3597 1894 
L 3597 1613 
L 953 1613 
Q 991 1019 1311 708 
Q 1631 397 2203 397 
Q 2534 397 2845 478 
Q 3156 559 3463 722 
L 3463 178 
Q 3153 47 2828 -22 
Q 2503 -91 2169 -91 
Q 1331 -91 842 396 
Q 353 884 353 1716 
Q 353 2575 817 3079 
Q 1281 3584 2069 3584 
Q 2775 3584 3186 3129 
Q 3597 2675 3597 1894 
z
M 3022 2063 
Q 3016 2534 2758 2815 
Q 2500 3097 2075 3097 
Q 1594 3097 1305 2825 
Q 1016 2553 972 2059 
L 3022 2063 
z
" transform="scale(0.015625)"/>
       <path id="DejaVuSans-63" d="M 3122 3366 
L 3122 2828 
Q 2878 2963 2633 3030 
Q 2388 3097 2138 3097 
Q 1578 3097 1268 2742 
Q 959 2388 959 1747 
Q 959 1106 1268 751 
Q 1578 397 2138 397 
Q 2388 397 2633 464 
Q 2878 531 3122 666 
L 3122 134 
Q 2881 22 2623 -34 
Q 2366 -91 2075 -91 
Q 1284 -91 818 406 
Q 353 903 353 1747 
Q 353 2603 823 3093 
Q 1294 3584 2113 3584 
Q 2378 3584 2631 3529 
Q 2884 3475 3122 3366 
z
" transform="scale(0.015625)"/>
      </defs>
      <use xlink:href="#DejaVuSans-50"/>
      <use xlink:href="#DejaVuSans-72" x="58.552734"/>
      <use xlink:href="#DejaVuSans-6f" x="97.416016"/>
      <use xlink:href="#DejaVuSans-70" x="158.597656"/>
      <use xlink:href="#DejaVuSans-61" x="222.074219"/>
      <use xlink:href="#DejaVuSans-67" x="283.353516"/>
      <use xlink:href="#DejaVuSans-61" x="346.830078"/>
      <use xlink:href="#DejaVuSans-74" x="408.109375"/>
      <use xlink:href="#DejaVuSans-69" x="447.318359"/>
      <use xlink:href="#DejaVuSans-6f" x="475.101562"/>
      <use xlink:href="#DejaVuSans-6e" x="536.283203"/>
      <use xlink:href="#DejaVuSans-20" x="599.662109"/>
      <use xlink:href="#DejaVuSans-64" x="631.449219"/>
      <use xlink:href="#DejaVuSans-69" x="694.925781"/>
      <use xlink:href="#DejaVuSans-72" x="722.708984"/>
      <use xlink:href="#DejaVuSans-65" x="761.572266"/>
      <use xlink:href="#DejaVuSans-63" x="823.095703"/>
      <use xlink:href="#DejaVuSans-74" x="878.076172"/>
      <use xlink:href="#DejaVuSans-69" x="917.285156"/>
      <use xlink:href="#DejaVuSans-6f" x="945.068359"/>
      <use xlink:href="#DejaVuSans-6e" x="1006.25"/>
     </g>
    </g>
   </g>
   <g id="matplotlib.axis_2">
    <g id="ytick_1">
     <g id="line2d_7">
      <defs>
       <path id="m24ea4d61d7" d="M 0 0 
L -3.5 0 
" style="stroke: #000000; stroke-width: 0.8"/>
      </defs>
      <g>
       <use xlink:href="#m24ea4d61d7" x="43.78125" y="273.312" style="stroke: #000000; stroke-width: 0.8"/>
      </g>
     </g>
     <g id="text_8">
      <!-- 0.0 -->
      <g transform="translate(20.878125 277.111219)scale(0.1 -0.1)">
       <use xlink:href="#DejaVuSans-30"/>
       <use xlink:href="#DejaVuSans-2e" x="63.623047"/>
       <use xlink:href="#DejaVuSans-30" x="95.410156"/>
      </g>
     </g>
    </g>
    <g id="ytick_2">
     <g id="line2d_8">
      <g>
       <use xlink:href="#m24ea4d61d7" x="43.78125" y="214.987664" style="stroke: #000000; stroke-width: 0.8"/>
      </g>
     </g>
     <g id="text_9">
      <!-- 0.5 -->
      <g transform="translate(20.878125 218.786883)scale(0.1 -0.1)">
       <defs>
        <path id="DejaVuSans-35" d="M 691 4666 
L 3169 4666 
L 3169 4134 
L 1269 4134 
L 1269 2991 
Q 1406 3038 1543 3061 
Q 1681 3084 1819 3084 
Q 2600 3084 3056 2656 
Q 3513 2228 3513 1497 
Q 3513 744 3044 326 
Q 2575 -91 1722 -91 
Q 1428 -91 1123 -41 
Q 819 9 494 109 
L 494 744 
Q 775 591 1075 516 
Q 1375 441 1709 441 
Q 2250 441 2565 725 
Q 2881 1009 2881 1497 
Q 2881 1984 2565 2268 
Q 2250 2553 1709 2553 
Q 1456 2553 1204 2497 
Q 953 2441 691 2322 
L 691 4666 
z
" transform="scale(0.015625)"/>
       </defs>
       <use xlink:href="#DejaVuSans-30"/>
       <use xlink:href="#DejaVuSans-2e" x="63.623047"/>
       <use xlink:href="#DejaVuSans-35" x="95.410156"/>
      </g>
     </g>
    </g>
    <g id="ytick_3">
     <g id="line2d_9">
      <g>
       <use xlink:href="#m24ea4d61d7" x="43.78125" y="156.663329" style="stroke: #000000; stroke-width: 0.8"/>
      </g>
     </g>
     <g id="text_10">
      <!-- 1.0 -->
      <g transform="translate(20.878125 160.462547)scale(0.1 -0.1)">
       <use xlink:href="#DejaVuSans-31"/>
       <use xlink:href="#DejaVuSans-2e" x="63.623047"/>
       <use xlink:href="#DejaVuSans-30" x="95.410156"/>
      </g>
     </g>
    </g>
    <g id="ytick_4">
     <g id="line2d_10">
      <g>
       <use xlink:href="#m24ea4d61d7" x="43.78125" y="98.338993" style="stroke: #000000; stroke-width: 0.8"/>
      </g>
     </g>
     <g id="text_11">
      <!-- 1.5 -->
      <g transform="translate(20.878125 102.138212)scale(0.1 -0.1)">
       <use xlink:href="#DejaVuSans-31"/>
       <use xlink:href="#DejaVuSans-2e" x="63.623047"/>
       <use xlink:href="#DejaVuSans-35" x="95.410156"/>
      </g>
     </g>
    </g>
    <g id="ytick_5">
     <g id="line2d_11">
      <g>
       <use xlink:href="#m24ea4d61d7" x="43.78125" y="40.014657" style="stroke: #000000; stroke-width: 0.8"/>
      </g>
     </g>
     <g id="text_12">
      <!-- 2.0 -->
      <g transform="translate(20.878125 43.813876)scale(0.1 -0.1)">
       <use xlink:href="#DejaVuSans-32"/>
       <use xlink:href="#DejaVuSans-2e" x="63.623047"/>
       <use xlink:href="#DejaVuSans-30" x="95.410156"/>
      </g>
     </g>
    </g>
    <g id="text_13">
     <!-- Probability density -->
     <g transform="translate(14.798438 186.606781)rotate(-90)scale(0.1 -0.1)">
      <defs>
       <path id="DejaVuSans-62" d="M 3116 1747 
Q 3116 2381 2855 2742 
Q 2594 3103 2138 3103 
Q 1681 3103 1420 2742 
Q 1159 2381 1159 1747 
Q 1159 1113 1420 752 
Q 1681 391 2138 391 
Q 2594 391 2855 752 
Q 3116 1113 3116 1747 
z
M 1159 2969 
Q 1341 3281 1617 3432 
Q 1894 3584 2278 3584 
Q 2916 3584 3314 3078 
Q 3713 2572 3713 1747 
Q 3713 922 3314 415 
Q 2916 -91 2278 -91 
Q 1894 -91 1617 61 
Q 1341 213 1159 525 
L 1159 0 
L 581 0 
L 581 4863 
L 1159 4863 
L 1159 2969 
z
" transform="scale(0.015625)"/>
       <path id="DejaVuSans-6c" d="M 603 4863 
L 1178 4863 
L 1178 0 
L 603 0 
L 603 4863 
z
" transform="scale(0.015625)"/>
       <path id="DejaVuSans-79" d="M 2059 -325 
Q 1816 -950 1584 -1140 
Q 1353 -1331 966 -1331 
L 506 -1331 
L 506 -850 
L 844 -850 
Q 1081 -850 1212 -737 
Q 1344 -625 1503 -206 
L 1606 56 
L 191 3500 
L 800 3500 
L 1894 763 
L 2988 3500 
L 3597 3500 
L 2059 -325 
z
" transform="scale(0.015625)"/>
       <path id="DejaVuSans-73" d="M 2834 3397 
L 2834 2853 
Q 2591 2978 2328 3040 
Q 2066 3103 1784 3103 
Q 1356 3103 1142 2972 
Q 928 2841 928 2578 
Q 928 2378 1081 2264 
Q 1234 2150 1697 2047 
L 1894 2003 
Q 2506 1872 2764 1633 
Q 3022 1394 3022 966 
Q 3022 478 2636 193 
Q 2250 -91 1575 -91 
Q 1294 -91 989 -36 
Q 684 19 347 128 
L 347 722 
Q 666 556 975 473 
Q 1284 391 1588 391 
Q 1994 391 2212 530 
Q 2431 669 2431 922 
Q 2431 1156 2273 1281 
Q 2116 1406 1581 1522 
L 1381 1569 
Q 847 1681 609 1914 
Q 372 2147 372 2553 
Q 372 3047 722 3315 
Q 1072 3584 1716 3584 
Q 2034 3584 2315 3537 
Q 2597 3491 2834 3397 
z
" transform="scale(0.015625)"/>
      </defs>
      <use xlink:href="#DejaVuSans-50"/>
      <use xlink:href="#DejaVuSans-72" x="58.552734"/>
      <use xlink:href="#DejaVuSans-6f" x="97.416016"/>
      <use xlink:href="#DejaVuSans-62" x="158.597656"/>
      <use xlink:href="#DejaVuSans-61" x="222.074219"/>
      <use xlink:href="#DejaVuSans-62" x="283.353516"/>
      <use xlink:href="#DejaVuSans-69" x="346.830078"/>
      <use xlink:href="#DejaVuSans-6c" x="374.613281"/>
      <use xlink:href="#DejaVuSans-69" x="402.396484"/>
      <use xlink:href="#DejaVuSans-74" x="430.179688"/>
      <use xlink:href="#DejaVuSans-79" x="469.388672"/>
      <use xlink:href="#DejaVuSans-20" x="528.568359"/>
      <use xlink:href="#DejaVuSans-64" x="560.355469"/>
      <use xlink:href="#DejaVuSans-65" x="623.832031"/>
      <use xlink:href="#DejaVuSans-6e" x="685.355469"/>
      <use xlink:href="#DejaVuSans-73" x="748.734375"/>
      <use xlink:href="#DejaVuSans-69" x="800.833984"/>
      <use xlink:href="#DejaVuSans-74" x="828.617188"/>
      <use xlink:href="#DejaVuSans-79" x="867.826172"/>
     </g>
    </g>
   </g>
   <g id="line2d_12">
    <path d="M 60.013977 273.312 
L 384.668523 40.014657 
L 384.668523 40.014657 
" clip-path="url(#p2dcc9a2706)" style="fill: none; stroke: #ff7f0e; stroke-width: 1.5; stroke-linecap: square"/>
   </g>
   <g id="patch_203">
    <path d="M 43.78125 273.312 
L 43.78125 7.2 
" style="fill: none; stroke: #000000; stroke-width: 0.8; stroke-linejoin: miter; stroke-linecap: square"/>
   </g>
   <g id="patch_204">
    <path d="M 400.90125 273.312 
L 400.90125 7.2 
" style="fill: none; stroke: #000000; stroke-width: 0.8; stroke-linejoin: miter; stroke-linecap: square"/>
   </g>
   <g id="patch_205">
    <path d="M 43.78125 273.312 
L 400.90125 273.312 
" style="fill: none; stroke: #000000; stroke-width: 0.8; stroke-linejoin: miter; stroke-linecap: square"/>
   </g>
   <g id="patch_206">
    <path d="M 43.78125 7.2 
L 400.90125 7.2 
" style="fill: none; stroke: #000000; stroke-width: 0.8; stroke-linejoin: miter; stroke-linecap: square"/>
   </g>
  </g>
 </g>
 <defs>
  <clipPath id="p2dcc9a2706">
   <rect x="43.78125" y="7.2" width="357.12" height="266.112"/>
  </clipPath>
 </defs>
</svg>
