<?xml version="1.0" encoding="utf-8" standalone="no"?>
<!DOCTYPE svg PUBLIC "-//W3C//DTD SVG 1.1//EN"
  "http://www.w3.org/Graphics/SVG/1.1/DTD/svg11.dtd">
<svg xmlns:xlink="http://www.w3.org/1999/xlink" width="408.10125pt" height="310.86825pt" viewBox="0 0 408.10125 310.86825" xmlns="http://www.w3.org/2000/svg" version="1.1">
 <metadata>
  <rdf:RDF xmlns:dc="http://purl.org/dc/elements/1.1/" xmlns:cc="http://creativecommons.org/ns#" xmlns:rdf="http://www.w3.org/1999/02/22-rdf-syntax-ns#">
   <cc:Work>
    <dc:type rdf:resource="http://purl.org/dc/dcmitype/StillImage"/>
    <dc:date>2022-04-01T12:35:17.662529</dc:date>
    <dc:format>image/svg+xml</dc:format>
    <dc:creator>
     <cc:Agent>
      <dc:title>Matplotlib v3.5.1, https://matplotlib.org/</dc:title>
     </cc:Agent>
    </dc:creator>
   </cc:Work>
  </rdf:RDF>
 </metadata>
 <defs>
  <style type="text/css">*{stroke-linejoin: round; stroke-linecap: butt}</style>
 </defs>
 <g id="figure_1">
  <g id="patch_1">
   <path d="M 0 310.86825 
L 408.10125 310.86825 
L 408.10125 0 
L 0 0 
z
" style="fill: #ffffff"/>
  </g>
  <g id="axes_1">
   <g id="patch_2">
    <path d="M 43.78125 273.312 
L 400.90125 273.312 
L 400.90125 7.2 
L 43.78125 7.2 
z
" style="fill: #ffffff"/>
   </g>
   <g id="patch_3">
    <path d="M 60.988234 273.312 
L 62.605373 273.312 
L 62.605373 263.706402 
L 60.988234 263.706402 
z
" clip-path="url(#p69b8aaa35b)" style="fill: #1f77b4"/>
   </g>
   <g id="patch_4">
    <path d="M 62.605373 273.312 
L 64.222513 273.312 
L 64.222513 267.400863 
L 62.605373 267.400863 
z
" clip-path="url(#p69b8aaa35b)" style="fill: #1f77b4"/>
   </g>
   <g id="patch_5">
    <path d="M 64.222513 273.312 
L 65.839652 273.312 
L 65.839652 260.750834 
L 64.222513 260.750834 
z
" clip-path="url(#p69b8aaa35b)" style="fill: #1f77b4"/>
   </g>
   <g id="patch_6">
    <path d="M 65.839652 273.312 
L 67.456791 273.312 
L 67.456791 260.750834 
L 65.839652 260.750834 
z
" clip-path="url(#p69b8aaa35b)" style="fill: #1f77b4"/>
   </g>
   <g id="patch_7">
    <path d="M 67.456791 273.312 
L 69.07393 273.312 
L 69.07393 258.534157 
L 67.456791 258.534157 
z
" clip-path="url(#p69b8aaa35b)" style="fill: #1f77b4"/>
   </g>
   <g id="patch_8">
    <path d="M 69.07393 273.312 
L 70.691069 273.312 
L 70.691069 254.839697 
L 69.07393 254.839697 
z
" clip-path="url(#p69b8aaa35b)" style="fill: #1f77b4"/>
   </g>
   <g id="patch_9">
    <path d="M 70.691069 273.312 
L 72.308208 273.312 
L 72.308208 248.92856 
L 70.691069 248.92856 
z
" clip-path="url(#p69b8aaa35b)" style="fill: #1f77b4"/>
   </g>
   <g id="patch_10">
    <path d="M 72.308208 273.312 
L 73.925348 273.312 
L 73.925348 237.845178 
L 72.308208 237.845178 
z
" clip-path="url(#p69b8aaa35b)" style="fill: #1f77b4"/>
   </g>
   <g id="patch_11">
    <path d="M 73.925348 273.312 
L 75.542487 273.312 
L 75.542487 249.667452 
L 73.925348 249.667452 
z
" clip-path="url(#p69b8aaa35b)" style="fill: #1f77b4"/>
   </g>
   <g id="patch_12">
    <path d="M 75.542487 273.312 
L 77.159626 273.312 
L 77.159626 238.58407 
L 75.542487 238.58407 
z
" clip-path="url(#p69b8aaa35b)" style="fill: #1f77b4"/>
   </g>
   <g id="patch_13">
    <path d="M 77.159626 273.312 
L 78.776765 273.312 
L 78.776765 238.58407 
L 77.159626 238.58407 
z
" clip-path="url(#p69b8aaa35b)" style="fill: #1f77b4"/>
   </g>
   <g id="patch_14">
    <path d="M 78.776765 273.312 
L 80.393904 273.312 
L 80.393904 227.500688 
L 78.776765 227.500688 
z
" clip-path="url(#p69b8aaa35b)" style="fill: #1f77b4"/>
   </g>
   <g id="patch_15">
    <path d="M 80.393904 273.312 
L 82.011043 273.312 
L 82.011043 232.672933 
L 80.393904 232.672933 
z
" clip-path="url(#p69b8aaa35b)" style="fill: #1f77b4"/>
   </g>
   <g id="patch_16">
    <path d="M 82.011043 273.312 
L 83.628183 273.312 
L 83.628183 223.806227 
L 82.011043 223.806227 
z
" clip-path="url(#p69b8aaa35b)" style="fill: #1f77b4"/>
   </g>
   <g id="patch_17">
    <path d="M 83.628183 273.312 
L 85.245322 273.312 
L 85.245322 221.589551 
L 83.628183 221.589551 
z
" clip-path="url(#p69b8aaa35b)" style="fill: #1f77b4"/>
   </g>
   <g id="patch_18">
    <path d="M 85.245322 273.312 
L 86.862461 273.312 
L 86.862461 209.028385 
L 85.245322 209.028385 
z
" clip-path="url(#p69b8aaa35b)" style="fill: #1f77b4"/>
   </g>
   <g id="patch_19">
    <path d="M 86.862461 273.312 
L 88.4796 273.312 
L 88.4796 206.811708 
L 86.862461 206.811708 
z
" clip-path="url(#p69b8aaa35b)" style="fill: #1f77b4"/>
   </g>
   <g id="patch_20">
    <path d="M 88.4796 273.312 
L 90.096739 273.312 
L 90.096739 220.111767 
L 88.4796 220.111767 
z
" clip-path="url(#p69b8aaa35b)" style="fill: #1f77b4"/>
   </g>
   <g id="patch_21">
    <path d="M 90.096739 273.312 
L 91.713879 273.312 
L 91.713879 207.550601 
L 90.096739 207.550601 
z
" clip-path="url(#p69b8aaa35b)" style="fill: #1f77b4"/>
   </g>
   <g id="patch_22">
    <path d="M 91.713879 273.312 
L 93.331018 273.312 
L 93.331018 201.639464 
L 91.713879 201.639464 
z
" clip-path="url(#p69b8aaa35b)" style="fill: #1f77b4"/>
   </g>
   <g id="patch_23">
    <path d="M 93.331018 273.312 
L 94.948157 273.312 
L 94.948157 178.733808 
L 93.331018 178.733808 
z
" clip-path="url(#p69b8aaa35b)" style="fill: #1f77b4"/>
   </g>
   <g id="patch_24">
    <path d="M 94.948157 273.312 
L 96.565296 273.312 
L 96.565296 197.206111 
L 94.948157 197.206111 
z
" clip-path="url(#p69b8aaa35b)" style="fill: #1f77b4"/>
   </g>
   <g id="patch_25">
    <path d="M 96.565296 273.312 
L 98.182435 273.312 
L 98.182435 192.033866 
L 96.565296 192.033866 
z
" clip-path="url(#p69b8aaa35b)" style="fill: #1f77b4"/>
   </g>
   <g id="patch_26">
    <path d="M 98.182435 273.312 
L 99.799574 273.312 
L 99.799574 175.778239 
L 98.182435 175.778239 
z
" clip-path="url(#p69b8aaa35b)" style="fill: #1f77b4"/>
   </g>
   <g id="patch_27">
    <path d="M 99.799574 273.312 
L 101.416714 273.312 
L 101.416714 166.172641 
L 99.799574 166.172641 
z
" clip-path="url(#p69b8aaa35b)" style="fill: #1f77b4"/>
   </g>
   <g id="patch_28">
    <path d="M 101.416714 273.312 
L 103.033853 273.312 
L 103.033853 190.556082 
L 101.416714 190.556082 
z
" clip-path="url(#p69b8aaa35b)" style="fill: #1f77b4"/>
   </g>
   <g id="patch_29">
    <path d="M 103.033853 273.312 
L 104.650992 273.312 
L 104.650992 180.950484 
L 103.033853 180.950484 
z
" clip-path="url(#p69b8aaa35b)" style="fill: #1f77b4"/>
   </g>
   <g id="patch_30">
    <path d="M 104.650992 273.312 
L 106.268131 273.312 
L 106.268131 182.428268 
L 104.650992 182.428268 
z
" clip-path="url(#p69b8aaa35b)" style="fill: #1f77b4"/>
   </g>
   <g id="patch_31">
    <path d="M 106.268131 273.312 
L 107.88527 273.312 
L 107.88527 176.517131 
L 106.268131 176.517131 
z
" clip-path="url(#p69b8aaa35b)" style="fill: #1f77b4"/>
   </g>
   <g id="patch_32">
    <path d="M 107.88527 273.312 
L 109.502409 273.312 
L 109.502409 172.083778 
L 107.88527 172.083778 
z
" clip-path="url(#p69b8aaa35b)" style="fill: #1f77b4"/>
   </g>
   <g id="patch_33">
    <path d="M 109.502409 273.312 
L 111.119549 273.312 
L 111.119549 175.039347 
L 109.502409 175.039347 
z
" clip-path="url(#p69b8aaa35b)" style="fill: #1f77b4"/>
   </g>
   <g id="patch_34">
    <path d="M 111.119549 273.312 
L 112.736688 273.312 
L 112.736688 163.955965 
L 111.119549 163.955965 
z
" clip-path="url(#p69b8aaa35b)" style="fill: #1f77b4"/>
   </g>
   <g id="patch_35">
    <path d="M 112.736688 273.312 
L 114.353827 273.312 
L 114.353827 160.261504 
L 112.736688 160.261504 
z
" clip-path="url(#p69b8aaa35b)" style="fill: #1f77b4"/>
   </g>
   <g id="patch_36">
    <path d="M 114.353827 273.312 
L 115.970966 273.312 
L 115.970966 182.428268 
L 114.353827 182.428268 
z
" clip-path="url(#p69b8aaa35b)" style="fill: #1f77b4"/>
   </g>
   <g id="patch_37">
    <path d="M 115.970966 273.312 
L 117.588105 273.312 
L 117.588105 144.005878 
L 115.970966 144.005878 
z
" clip-path="url(#p69b8aaa35b)" style="fill: #1f77b4"/>
   </g>
   <g id="patch_38">
    <path d="M 117.588105 273.312 
L 119.205244 273.312 
L 119.205244 147.700338 
L 117.588105 147.700338 
z
" clip-path="url(#p69b8aaa35b)" style="fill: #1f77b4"/>
   </g>
   <g id="patch_39">
    <path d="M 119.205244 273.312 
L 120.822384 273.312 
L 120.822384 133.661388 
L 119.205244 133.661388 
z
" clip-path="url(#p69b8aaa35b)" style="fill: #1f77b4"/>
   </g>
   <g id="patch_40">
    <path d="M 120.822384 273.312 
L 122.439523 273.312 
L 122.439523 146.961446 
L 120.822384 146.961446 
z
" clip-path="url(#p69b8aaa35b)" style="fill: #1f77b4"/>
   </g>
   <g id="patch_41">
    <path d="M 122.439523 273.312 
L 124.056662 273.312 
L 124.056662 142.528093 
L 122.439523 142.528093 
z
" clip-path="url(#p69b8aaa35b)" style="fill: #1f77b4"/>
   </g>
   <g id="patch_42">
    <path d="M 124.056662 273.312 
L 125.673801 273.312 
L 125.673801 114.450192 
L 124.056662 114.450192 
z
" clip-path="url(#p69b8aaa35b)" style="fill: #1f77b4"/>
   </g>
   <g id="patch_43">
    <path d="M 125.673801 273.312 
L 127.29094 273.312 
L 127.29094 118.883545 
L 125.673801 118.883545 
z
" clip-path="url(#p69b8aaa35b)" style="fill: #1f77b4"/>
   </g>
   <g id="patch_44">
    <path d="M 127.29094 273.312 
L 128.908079 273.312 
L 128.908079 122.578006 
L 127.29094 122.578006 
z
" clip-path="url(#p69b8aaa35b)" style="fill: #1f77b4"/>
   </g>
   <g id="patch_45">
    <path d="M 128.908079 273.312 
L 130.525219 273.312 
L 130.525219 124.05579 
L 128.908079 124.05579 
z
" clip-path="url(#p69b8aaa35b)" style="fill: #1f77b4"/>
   </g>
   <g id="patch_46">
    <path d="M 130.525219 273.312 
L 132.142358 273.312 
L 132.142358 125.533574 
L 130.525219 125.533574 
z
" clip-path="url(#p69b8aaa35b)" style="fill: #1f77b4"/>
   </g>
   <g id="patch_47">
    <path d="M 132.142358 273.312 
L 133.759497 273.312 
L 133.759497 110.755732 
L 132.142358 110.755732 
z
" clip-path="url(#p69b8aaa35b)" style="fill: #1f77b4"/>
   </g>
   <g id="patch_48">
    <path d="M 133.759497 273.312 
L 135.376636 273.312 
L 135.376636 113.7113 
L 133.759497 113.7113 
z
" clip-path="url(#p69b8aaa35b)" style="fill: #1f77b4"/>
   </g>
   <g id="patch_49">
    <path d="M 135.376636 273.312 
L 136.993775 273.312 
L 136.993775 115.927977 
L 135.376636 115.927977 
z
" clip-path="url(#p69b8aaa35b)" style="fill: #1f77b4"/>
   </g>
   <g id="patch_50">
    <path d="M 136.993775 273.312 
L 138.610915 273.312 
L 138.610915 110.01684 
L 136.993775 110.01684 
z
" clip-path="url(#p69b8aaa35b)" style="fill: #1f77b4"/>
   </g>
   <g id="patch_51">
    <path d="M 138.610915 273.312 
L 140.228054 273.312 
L 140.228054 109.277948 
L 138.610915 109.277948 
z
" clip-path="url(#p69b8aaa35b)" style="fill: #1f77b4"/>
   </g>
   <g id="patch_52">
    <path d="M 140.228054 273.312 
L 141.845193 273.312 
L 141.845193 91.544536 
L 140.228054 91.544536 
z
" clip-path="url(#p69b8aaa35b)" style="fill: #1f77b4"/>
   </g>
   <g id="patch_53">
    <path d="M 141.845193 273.312 
L 143.462332 273.312 
L 143.462332 115.189085 
L 141.845193 115.189085 
z
" clip-path="url(#p69b8aaa35b)" style="fill: #1f77b4"/>
   </g>
   <g id="patch_54">
    <path d="M 143.462332 273.312 
L 145.079471 273.312 
L 145.079471 110.01684 
L 143.462332 110.01684 
z
" clip-path="url(#p69b8aaa35b)" style="fill: #1f77b4"/>
   </g>
   <g id="patch_55">
    <path d="M 145.079471 273.312 
L 146.69661 273.312 
L 146.69661 121.839114 
L 145.079471 121.839114 
z
" clip-path="url(#p69b8aaa35b)" style="fill: #1f77b4"/>
   </g>
   <g id="patch_56">
    <path d="M 146.69661 273.312 
L 148.31375 273.312 
L 148.31375 98.933458 
L 146.69661 98.933458 
z
" clip-path="url(#p69b8aaa35b)" style="fill: #1f77b4"/>
   </g>
   <g id="patch_57">
    <path d="M 148.31375 273.312 
L 149.930889 273.312 
L 149.930889 99.67235 
L 148.31375 99.67235 
z
" clip-path="url(#p69b8aaa35b)" style="fill: #1f77b4"/>
   </g>
   <g id="patch_58">
    <path d="M 149.930889 273.312 
L 151.548028 273.312 
L 151.548028 74.550017 
L 149.930889 74.550017 
z
" clip-path="url(#p69b8aaa35b)" style="fill: #1f77b4"/>
   </g>
   <g id="patch_59">
    <path d="M 151.548028 273.312 
L 153.165167 273.312 
L 153.165167 103.36681 
L 151.548028 103.36681 
z
" clip-path="url(#p69b8aaa35b)" style="fill: #1f77b4"/>
   </g>
   <g id="patch_60">
    <path d="M 153.165167 273.312 
L 154.782306 273.312 
L 154.782306 88.588968 
L 153.165167 88.588968 
z
" clip-path="url(#p69b8aaa35b)" style="fill: #1f77b4"/>
   </g>
   <g id="patch_61">
    <path d="M 154.782306 273.312 
L 156.399445 273.312 
L 156.399445 104.105703 
L 154.782306 104.105703 
z
" clip-path="url(#p69b8aaa35b)" style="fill: #1f77b4"/>
   </g>
   <g id="patch_62">
    <path d="M 156.399445 273.312 
L 158.016585 273.312 
L 158.016585 92.283429 
L 156.399445 92.283429 
z
" clip-path="url(#p69b8aaa35b)" style="fill: #1f77b4"/>
   </g>
   <g id="patch_63">
    <path d="M 158.016585 273.312 
L 159.633724 273.312 
L 159.633724 87.111184 
L 158.016585 87.111184 
z
" clip-path="url(#p69b8aaa35b)" style="fill: #1f77b4"/>
   </g>
   <g id="patch_64">
    <path d="M 159.633724 273.312 
L 161.250863 273.312 
L 161.250863 76.766694 
L 159.633724 76.766694 
z
" clip-path="url(#p69b8aaa35b)" style="fill: #1f77b4"/>
   </g>
   <g id="patch_65">
    <path d="M 161.250863 273.312 
L 162.868002 273.312 
L 162.868002 77.505586 
L 161.250863 77.505586 
z
" clip-path="url(#p69b8aaa35b)" style="fill: #1f77b4"/>
   </g>
   <g id="patch_66">
    <path d="M 162.868002 273.312 
L 164.485141 273.312 
L 164.485141 68.63888 
L 162.868002 68.63888 
z
" clip-path="url(#p69b8aaa35b)" style="fill: #1f77b4"/>
   </g>
   <g id="patch_67">
    <path d="M 164.485141 273.312 
L 166.10228 273.312 
L 166.10228 61.988851 
L 164.485141 61.988851 
z
" clip-path="url(#p69b8aaa35b)" style="fill: #1f77b4"/>
   </g>
   <g id="patch_68">
    <path d="M 166.10228 273.312 
L 167.71942 273.312 
L 167.71942 64.205528 
L 166.10228 64.205528 
z
" clip-path="url(#p69b8aaa35b)" style="fill: #1f77b4"/>
   </g>
   <g id="patch_69">
    <path d="M 167.71942 273.312 
L 169.336559 273.312 
L 169.336559 56.077714 
L 167.71942 56.077714 
z
" clip-path="url(#p69b8aaa35b)" style="fill: #1f77b4"/>
   </g>
   <g id="patch_70">
    <path d="M 169.336559 273.312 
L 170.953698 273.312 
L 170.953698 71.594449 
L 169.336559 71.594449 
z
" clip-path="url(#p69b8aaa35b)" style="fill: #1f77b4"/>
   </g>
   <g id="patch_71">
    <path d="M 170.953698 273.312 
L 172.570837 273.312 
L 172.570837 70.116665 
L 170.953698 70.116665 
z
" clip-path="url(#p69b8aaa35b)" style="fill: #1f77b4"/>
   </g>
   <g id="patch_72">
    <path d="M 172.570837 273.312 
L 174.187976 273.312 
L 174.187976 78.244478 
L 172.570837 78.244478 
z
" clip-path="url(#p69b8aaa35b)" style="fill: #1f77b4"/>
   </g>
   <g id="patch_73">
    <path d="M 174.187976 273.312 
L 175.805116 273.312 
L 175.805116 57.555499 
L 174.187976 57.555499 
z
" clip-path="url(#p69b8aaa35b)" style="fill: #1f77b4"/>
   </g>
   <g id="patch_74">
    <path d="M 175.805116 273.312 
L 177.422255 273.312 
L 177.422255 71.594449 
L 175.805116 71.594449 
z
" clip-path="url(#p69b8aaa35b)" style="fill: #1f77b4"/>
   </g>
   <g id="patch_75">
    <path d="M 177.422255 273.312 
L 179.039394 273.312 
L 179.039394 63.466636 
L 177.422255 63.466636 
z
" clip-path="url(#p69b8aaa35b)" style="fill: #1f77b4"/>
   </g>
   <g id="patch_76">
    <path d="M 179.039394 273.312 
L 180.656533 273.312 
L 180.656533 70.855557 
L 179.039394 70.855557 
z
" clip-path="url(#p69b8aaa35b)" style="fill: #1f77b4"/>
   </g>
   <g id="patch_77">
    <path d="M 180.656533 273.312 
L 182.273672 273.312 
L 182.273672 40.56098 
L 180.656533 40.56098 
z
" clip-path="url(#p69b8aaa35b)" style="fill: #1f77b4"/>
   </g>
   <g id="patch_78">
    <path d="M 182.273672 273.312 
L 183.890811 273.312 
L 183.890811 62.727743 
L 182.273672 62.727743 
z
" clip-path="url(#p69b8aaa35b)" style="fill: #1f77b4"/>
   </g>
   <g id="patch_79">
    <path d="M 183.890811 273.312 
L 185.507951 273.312 
L 185.507951 39.822087 
L 183.890811 39.822087 
z
" clip-path="url(#p69b8aaa35b)" style="fill: #1f77b4"/>
   </g>
   <g id="patch_80">
    <path d="M 185.507951 273.312 
L 187.12509 273.312 
L 187.12509 61.249959 
L 185.507951 61.249959 
z
" clip-path="url(#p69b8aaa35b)" style="fill: #1f77b4"/>
   </g>
   <g id="patch_81">
    <path d="M 187.12509 273.312 
L 188.742229 273.312 
L 188.742229 59.772175 
L 187.12509 59.772175 
z
" clip-path="url(#p69b8aaa35b)" style="fill: #1f77b4"/>
   </g>
   <g id="patch_82">
    <path d="M 188.742229 273.312 
L 190.359368 273.312 
L 190.359368 50.905469 
L 188.742229 50.905469 
z
" clip-path="url(#p69b8aaa35b)" style="fill: #1f77b4"/>
   </g>
   <g id="patch_83">
    <path d="M 190.359368 273.312 
L 191.976507 273.312 
L 191.976507 67.899988 
L 190.359368 67.899988 
z
" clip-path="url(#p69b8aaa35b)" style="fill: #1f77b4"/>
   </g>
   <g id="patch_84">
    <path d="M 191.976507 273.312 
L 193.593646 273.312 
L 193.593646 47.211009 
L 191.976507 47.211009 
z
" clip-path="url(#p69b8aaa35b)" style="fill: #1f77b4"/>
   </g>
   <g id="patch_85">
    <path d="M 193.593646 273.312 
L 195.210786 273.312 
L 195.210786 45.733224 
L 193.593646 45.733224 
z
" clip-path="url(#p69b8aaa35b)" style="fill: #1f77b4"/>
   </g>
   <g id="patch_86">
    <path d="M 195.210786 273.312 
L 196.827925 273.312 
L 196.827925 56.816606 
L 195.210786 56.816606 
z
" clip-path="url(#p69b8aaa35b)" style="fill: #1f77b4"/>
   </g>
   <g id="patch_87">
    <path d="M 196.827925 273.312 
L 198.445064 273.312 
L 198.445064 46.472117 
L 196.827925 46.472117 
z
" clip-path="url(#p69b8aaa35b)" style="fill: #1f77b4"/>
   </g>
   <g id="patch_88">
    <path d="M 198.445064 273.312 
L 200.062203 273.312 
L 200.062203 61.249959 
L 198.445064 61.249959 
z
" clip-path="url(#p69b8aaa35b)" style="fill: #1f77b4"/>
   </g>
   <g id="patch_89">
    <path d="M 200.062203 273.312 
L 201.679342 273.312 
L 201.679342 26.522029 
L 200.062203 26.522029 
z
" clip-path="url(#p69b8aaa35b)" style="fill: #1f77b4"/>
   </g>
   <g id="patch_90">
    <path d="M 201.679342 273.312 
L 203.296481 273.312 
L 203.296481 56.816606 
L 201.679342 56.816606 
z
" clip-path="url(#p69b8aaa35b)" style="fill: #1f77b4"/>
   </g>
   <g id="patch_91">
    <path d="M 203.296481 273.312 
L 204.913621 273.312 
L 204.913621 53.861038 
L 203.296481 53.861038 
z
" clip-path="url(#p69b8aaa35b)" style="fill: #1f77b4"/>
   </g>
   <g id="patch_92">
    <path d="M 204.913621 273.312 
L 206.53076 273.312 
L 206.53076 19.872 
L 204.913621 19.872 
z
" clip-path="url(#p69b8aaa35b)" style="fill: #1f77b4"/>
   </g>
   <g id="patch_93">
    <path d="M 206.53076 273.312 
L 208.147899 273.312 
L 208.147899 47.949901 
L 206.53076 47.949901 
z
" clip-path="url(#p69b8aaa35b)" style="fill: #1f77b4"/>
   </g>
   <g id="patch_94">
    <path d="M 208.147899 273.312 
L 209.765038 273.312 
L 209.765038 54.59993 
L 208.147899 54.59993 
z
" clip-path="url(#p69b8aaa35b)" style="fill: #1f77b4"/>
   </g>
   <g id="patch_95">
    <path d="M 209.765038 273.312 
L 211.382177 273.312 
L 211.382177 50.905469 
L 209.765038 50.905469 
z
" clip-path="url(#p69b8aaa35b)" style="fill: #1f77b4"/>
   </g>
   <g id="patch_96">
    <path d="M 211.382177 273.312 
L 212.999316 273.312 
L 212.999316 40.56098 
L 211.382177 40.56098 
z
" clip-path="url(#p69b8aaa35b)" style="fill: #1f77b4"/>
   </g>
   <g id="patch_97">
    <path d="M 212.999316 273.312 
L 214.616456 273.312 
L 214.616456 19.872 
L 212.999316 19.872 
z
" clip-path="url(#p69b8aaa35b)" style="fill: #1f77b4"/>
   </g>
   <g id="patch_98">
    <path d="M 214.616456 273.312 
L 216.233595 273.312 
L 216.233595 45.733224 
L 214.616456 45.733224 
z
" clip-path="url(#p69b8aaa35b)" style="fill: #1f77b4"/>
   </g>
   <g id="patch_99">
    <path d="M 216.233595 273.312 
L 217.850734 273.312 
L 217.850734 36.866519 
L 216.233595 36.866519 
z
" clip-path="url(#p69b8aaa35b)" style="fill: #1f77b4"/>
   </g>
   <g id="patch_100">
    <path d="M 217.850734 273.312 
L 219.467873 273.312 
L 219.467873 45.733224 
L 217.850734 45.733224 
z
" clip-path="url(#p69b8aaa35b)" style="fill: #1f77b4"/>
   </g>
   <g id="patch_101">
    <path d="M 219.467873 273.312 
L 221.085012 273.312 
L 221.085012 69.377773 
L 219.467873 69.377773 
z
" clip-path="url(#p69b8aaa35b)" style="fill: #1f77b4"/>
   </g>
   <g id="patch_102">
    <path d="M 221.085012 273.312 
L 222.702152 273.312 
L 222.702152 69.377773 
L 221.085012 69.377773 
z
" clip-path="url(#p69b8aaa35b)" style="fill: #1f77b4"/>
   </g>
   <g id="patch_103">
    <path d="M 222.702152 273.312 
L 224.319291 273.312 
L 224.319291 55.338822 
L 222.702152 55.338822 
z
" clip-path="url(#p69b8aaa35b)" style="fill: #1f77b4"/>
   </g>
   <g id="patch_104">
    <path d="M 224.319291 273.312 
L 225.93643 273.312 
L 225.93643 56.816606 
L 224.319291 56.816606 
z
" clip-path="url(#p69b8aaa35b)" style="fill: #1f77b4"/>
   </g>
   <g id="patch_105">
    <path d="M 225.93643 273.312 
L 227.553569 273.312 
L 227.553569 42.038764 
L 225.93643 42.038764 
z
" clip-path="url(#p69b8aaa35b)" style="fill: #1f77b4"/>
   </g>
   <g id="patch_106">
    <path d="M 227.553569 273.312 
L 229.170708 273.312 
L 229.170708 28.738706 
L 227.553569 28.738706 
z
" clip-path="url(#p69b8aaa35b)" style="fill: #1f77b4"/>
   </g>
   <g id="patch_107">
    <path d="M 229.170708 273.312 
L 230.787847 273.312 
L 230.787847 28.738706 
L 229.170708 28.738706 
z
" clip-path="url(#p69b8aaa35b)" style="fill: #1f77b4"/>
   </g>
   <g id="patch_108">
    <path d="M 230.787847 273.312 
L 232.404987 273.312 
L 232.404987 19.872 
L 230.787847 19.872 
z
" clip-path="url(#p69b8aaa35b)" style="fill: #1f77b4"/>
   </g>
   <g id="patch_109">
    <path d="M 232.404987 273.312 
L 234.022126 273.312 
L 234.022126 36.866519 
L 232.404987 36.866519 
z
" clip-path="url(#p69b8aaa35b)" style="fill: #1f77b4"/>
   </g>
   <g id="patch_110">
    <path d="M 234.022126 273.312 
L 235.639265 273.312 
L 235.639265 46.472117 
L 234.022126 46.472117 
z
" clip-path="url(#p69b8aaa35b)" style="fill: #1f77b4"/>
   </g>
   <g id="patch_111">
    <path d="M 235.639265 273.312 
L 237.256404 273.312 
L 237.256404 36.127627 
L 235.639265 36.127627 
z
" clip-path="url(#p69b8aaa35b)" style="fill: #1f77b4"/>
   </g>
   <g id="patch_112">
    <path d="M 237.256404 273.312 
L 238.873543 273.312 
L 238.873543 47.949901 
L 237.256404 47.949901 
z
" clip-path="url(#p69b8aaa35b)" style="fill: #1f77b4"/>
   </g>
   <g id="patch_113">
    <path d="M 238.873543 273.312 
L 240.490682 273.312 
L 240.490682 45.733224 
L 238.873543 45.733224 
z
" clip-path="url(#p69b8aaa35b)" style="fill: #1f77b4"/>
   </g>
   <g id="patch_114">
    <path d="M 240.490682 273.312 
L 242.107822 273.312 
L 242.107822 50.905469 
L 240.490682 50.905469 
z
" clip-path="url(#p69b8aaa35b)" style="fill: #1f77b4"/>
   </g>
   <g id="patch_115">
    <path d="M 242.107822 273.312 
L 243.724961 273.312 
L 243.724961 33.91095 
L 242.107822 33.91095 
z
" clip-path="url(#p69b8aaa35b)" style="fill: #1f77b4"/>
   </g>
   <g id="patch_116">
    <path d="M 243.724961 273.312 
L 245.3421 273.312 
L 245.3421 49.427685 
L 243.724961 49.427685 
z
" clip-path="url(#p69b8aaa35b)" style="fill: #1f77b4"/>
   </g>
   <g id="patch_117">
    <path d="M 245.3421 273.312 
L 246.959239 273.312 
L 246.959239 67.899988 
L 245.3421 67.899988 
z
" clip-path="url(#p69b8aaa35b)" style="fill: #1f77b4"/>
   </g>
   <g id="patch_118">
    <path d="M 246.959239 273.312 
L 248.576378 273.312 
L 248.576378 33.91095 
L 246.959239 33.91095 
z
" clip-path="url(#p69b8aaa35b)" style="fill: #1f77b4"/>
   </g>
   <g id="patch_119">
    <path d="M 248.576378 273.312 
L 250.193517 273.312 
L 250.193517 48.688793 
L 248.576378 48.688793 
z
" clip-path="url(#p69b8aaa35b)" style="fill: #1f77b4"/>
   </g>
   <g id="patch_120">
    <path d="M 250.193517 273.312 
L 251.810657 273.312 
L 251.810657 62.727743 
L 250.193517 62.727743 
z
" clip-path="url(#p69b8aaa35b)" style="fill: #1f77b4"/>
   </g>
   <g id="patch_121">
    <path d="M 251.810657 273.312 
L 253.427796 273.312 
L 253.427796 42.038764 
L 251.810657 42.038764 
z
" clip-path="url(#p69b8aaa35b)" style="fill: #1f77b4"/>
   </g>
   <g id="patch_122">
    <path d="M 253.427796 273.312 
L 255.044935 273.312 
L 255.044935 39.822087 
L 253.427796 39.822087 
z
" clip-path="url(#p69b8aaa35b)" style="fill: #1f77b4"/>
   </g>
   <g id="patch_123">
    <path d="M 255.044935 273.312 
L 256.662074 273.312 
L 256.662074 50.166577 
L 255.044935 50.166577 
z
" clip-path="url(#p69b8aaa35b)" style="fill: #1f77b4"/>
   </g>
   <g id="patch_124">
    <path d="M 256.662074 273.312 
L 258.279213 273.312 
L 258.279213 78.98337 
L 256.662074 78.98337 
z
" clip-path="url(#p69b8aaa35b)" style="fill: #1f77b4"/>
   </g>
   <g id="patch_125">
    <path d="M 258.279213 273.312 
L 259.896353 273.312 
L 259.896353 56.077714 
L 258.279213 56.077714 
z
" clip-path="url(#p69b8aaa35b)" style="fill: #1f77b4"/>
   </g>
   <g id="patch_126">
    <path d="M 259.896353 273.312 
L 261.513492 273.312 
L 261.513492 65.683312 
L 259.896353 65.683312 
z
" clip-path="url(#p69b8aaa35b)" style="fill: #1f77b4"/>
   </g>
   <g id="patch_127">
    <path d="M 261.513492 273.312 
L 263.130631 273.312 
L 263.130631 69.377773 
L 261.513492 69.377773 
z
" clip-path="url(#p69b8aaa35b)" style="fill: #1f77b4"/>
   </g>
   <g id="patch_128">
    <path d="M 263.130631 273.312 
L 264.74777 273.312 
L 264.74777 83.416723 
L 263.130631 83.416723 
z
" clip-path="url(#p69b8aaa35b)" style="fill: #1f77b4"/>
   </g>
   <g id="patch_129">
    <path d="M 264.74777 273.312 
L 266.364909 273.312 
L 266.364909 54.59993 
L 264.74777 54.59993 
z
" clip-path="url(#p69b8aaa35b)" style="fill: #1f77b4"/>
   </g>
   <g id="patch_130">
    <path d="M 266.364909 273.312 
L 267.982048 273.312 
L 267.982048 65.683312 
L 266.364909 65.683312 
z
" clip-path="url(#p69b8aaa35b)" style="fill: #1f77b4"/>
   </g>
   <g id="patch_131">
    <path d="M 267.982048 273.312 
L 269.599188 273.312 
L 269.599188 60.511067 
L 267.982048 60.511067 
z
" clip-path="url(#p69b8aaa35b)" style="fill: #1f77b4"/>
   </g>
   <g id="patch_132">
    <path d="M 269.599188 273.312 
L 271.216327 273.312 
L 271.216327 75.28891 
L 269.599188 75.28891 
z
" clip-path="url(#p69b8aaa35b)" style="fill: #1f77b4"/>
   </g>
   <g id="patch_133">
    <path d="M 271.216327 273.312 
L 272.833466 273.312 
L 272.833466 84.894507 
L 271.216327 84.894507 
z
" clip-path="url(#p69b8aaa35b)" style="fill: #1f77b4"/>
   </g>
   <g id="patch_134">
    <path d="M 272.833466 273.312 
L 274.450605 273.312 
L 274.450605 67.899988 
L 272.833466 67.899988 
z
" clip-path="url(#p69b8aaa35b)" style="fill: #1f77b4"/>
   </g>
   <g id="patch_135">
    <path d="M 274.450605 273.312 
L 276.067744 273.312 
L 276.067744 75.28891 
L 274.450605 75.28891 
z
" clip-path="url(#p69b8aaa35b)" style="fill: #1f77b4"/>
   </g>
   <g id="patch_136">
    <path d="M 276.067744 273.312 
L 277.684883 273.312 
L 277.684883 73.072233 
L 276.067744 73.072233 
z
" clip-path="url(#p69b8aaa35b)" style="fill: #1f77b4"/>
   </g>
   <g id="patch_137">
    <path d="M 277.684883 273.312 
L 279.302023 273.312 
L 279.302023 82.677831 
L 277.684883 82.677831 
z
" clip-path="url(#p69b8aaa35b)" style="fill: #1f77b4"/>
   </g>
   <g id="patch_138">
    <path d="M 279.302023 273.312 
L 280.919162 273.312 
L 280.919162 84.894507 
L 279.302023 84.894507 
z
" clip-path="url(#p69b8aaa35b)" style="fill: #1f77b4"/>
   </g>
   <g id="patch_139">
    <path d="M 280.919162 273.312 
L 282.536301 273.312 
L 282.536301 75.28891 
L 280.919162 75.28891 
z
" clip-path="url(#p69b8aaa35b)" style="fill: #1f77b4"/>
   </g>
   <g id="patch_140">
    <path d="M 282.536301 273.312 
L 284.15344 273.312 
L 284.15344 78.98337 
L 282.536301 78.98337 
z
" clip-path="url(#p69b8aaa35b)" style="fill: #1f77b4"/>
   </g>
   <g id="patch_141">
    <path d="M 284.15344 273.312 
L 285.770579 273.312 
L 285.770579 77.505586 
L 284.15344 77.505586 
z
" clip-path="url(#p69b8aaa35b)" style="fill: #1f77b4"/>
   </g>
   <g id="patch_142">
    <path d="M 285.770579 273.312 
L 287.387718 273.312 
L 287.387718 84.155615 
L 285.770579 84.155615 
z
" clip-path="url(#p69b8aaa35b)" style="fill: #1f77b4"/>
   </g>
   <g id="patch_143">
    <path d="M 287.387718 273.312 
L 289.004858 273.312 
L 289.004858 104.105703 
L 287.387718 104.105703 
z
" clip-path="url(#p69b8aaa35b)" style="fill: #1f77b4"/>
   </g>
   <g id="patch_144">
    <path d="M 289.004858 273.312 
L 290.621997 273.312 
L 290.621997 90.066752 
L 289.004858 90.066752 
z
" clip-path="url(#p69b8aaa35b)" style="fill: #1f77b4"/>
   </g>
   <g id="patch_145">
    <path d="M 290.621997 273.312 
L 292.239136 273.312 
L 292.239136 94.500105 
L 290.621997 94.500105 
z
" clip-path="url(#p69b8aaa35b)" style="fill: #1f77b4"/>
   </g>
   <g id="patch_146">
    <path d="M 292.239136 273.312 
L 293.856275 273.312 
L 293.856275 82.677831 
L 292.239136 82.677831 
z
" clip-path="url(#p69b8aaa35b)" style="fill: #1f77b4"/>
   </g>
   <g id="patch_147">
    <path d="M 293.856275 273.312 
L 295.473414 273.312 
L 295.473414 99.67235 
L 293.856275 99.67235 
z
" clip-path="url(#p69b8aaa35b)" style="fill: #1f77b4"/>
   </g>
   <g id="patch_148">
    <path d="M 295.473414 273.312 
L 297.090553 273.312 
L 297.090553 76.766694 
L 295.473414 76.766694 
z
" clip-path="url(#p69b8aaa35b)" style="fill: #1f77b4"/>
   </g>
   <g id="patch_149">
    <path d="M 297.090553 273.312 
L 298.707693 273.312 
L 298.707693 88.588968 
L 297.090553 88.588968 
z
" clip-path="url(#p69b8aaa35b)" style="fill: #1f77b4"/>
   </g>
   <g id="patch_150">
    <path d="M 298.707693 273.312 
L 300.324832 273.312 
L 300.324832 118.883545 
L 298.707693 118.883545 
z
" clip-path="url(#p69b8aaa35b)" style="fill: #1f77b4"/>
   </g>
   <g id="patch_151">
    <path d="M 300.324832 273.312 
L 301.941971 273.312 
L 301.941971 87.111184 
L 300.324832 87.111184 
z
" clip-path="url(#p69b8aaa35b)" style="fill: #1f77b4"/>
   </g>
   <g id="patch_152">
    <path d="M 301.941971 273.312 
L 303.55911 273.312 
L 303.55911 98.194566 
L 301.941971 98.194566 
z
" clip-path="url(#p69b8aaa35b)" style="fill: #1f77b4"/>
   </g>
   <g id="patch_153">
    <path d="M 303.55911 273.312 
L 305.176249 273.312 
L 305.176249 102.627918 
L 303.55911 102.627918 
z
" clip-path="url(#p69b8aaa35b)" style="fill: #1f77b4"/>
   </g>
   <g id="patch_154">
    <path d="M 305.176249 273.312 
L 306.793389 273.312 
L 306.793389 99.67235 
L 305.176249 99.67235 
z
" clip-path="url(#p69b8aaa35b)" style="fill: #1f77b4"/>
   </g>
   <g id="patch_155">
    <path d="M 306.793389 273.312 
L 308.410528 273.312 
L 308.410528 98.194566 
L 306.793389 98.194566 
z
" clip-path="url(#p69b8aaa35b)" style="fill: #1f77b4"/>
   </g>
   <g id="patch_156">
    <path d="M 308.410528 273.312 
L 310.027667 273.312 
L 310.027667 100.411242 
L 308.410528 100.411242 
z
" clip-path="url(#p69b8aaa35b)" style="fill: #1f77b4"/>
   </g>
   <g id="patch_157">
    <path d="M 310.027667 273.312 
L 311.644806 273.312 
L 311.644806 114.450192 
L 310.027667 114.450192 
z
" clip-path="url(#p69b8aaa35b)" style="fill: #1f77b4"/>
   </g>
   <g id="patch_158">
    <path d="M 311.644806 273.312 
L 313.261945 273.312 
L 313.261945 127.750251 
L 311.644806 127.750251 
z
" clip-path="url(#p69b8aaa35b)" style="fill: #1f77b4"/>
   </g>
   <g id="patch_159">
    <path d="M 313.261945 273.312 
L 314.879084 273.312 
L 314.879084 127.011359 
L 313.261945 127.011359 
z
" clip-path="url(#p69b8aaa35b)" style="fill: #1f77b4"/>
   </g>
   <g id="patch_160">
    <path d="M 314.879084 273.312 
L 316.496224 273.312 
L 316.496224 127.750251 
L 314.879084 127.750251 
z
" clip-path="url(#p69b8aaa35b)" style="fill: #1f77b4"/>
   </g>
   <g id="patch_161">
    <path d="M 316.496224 273.312 
L 318.113363 273.312 
L 318.113363 129.228035 
L 316.496224 129.228035 
z
" clip-path="url(#p69b8aaa35b)" style="fill: #1f77b4"/>
   </g>
   <g id="patch_162">
    <path d="M 318.113363 273.312 
L 319.730502 273.312 
L 319.730502 135.139172 
L 318.113363 135.139172 
z
" clip-path="url(#p69b8aaa35b)" style="fill: #1f77b4"/>
   </g>
   <g id="patch_163">
    <path d="M 319.730502 273.312 
L 321.347641 273.312 
L 321.347641 124.05579 
L 319.730502 124.05579 
z
" clip-path="url(#p69b8aaa35b)" style="fill: #1f77b4"/>
   </g>
   <g id="patch_164">
    <path d="M 321.347641 273.312 
L 322.96478 273.312 
L 322.96478 151.394799 
L 321.347641 151.394799 
z
" clip-path="url(#p69b8aaa35b)" style="fill: #1f77b4"/>
   </g>
   <g id="patch_165">
    <path d="M 322.96478 273.312 
L 324.581919 273.312 
L 324.581919 148.43923 
L 322.96478 148.43923 
z
" clip-path="url(#p69b8aaa35b)" style="fill: #1f77b4"/>
   </g>
   <g id="patch_166">
    <path d="M 324.581919 273.312 
L 326.199059 273.312 
L 326.199059 144.74477 
L 324.581919 144.74477 
z
" clip-path="url(#p69b8aaa35b)" style="fill: #1f77b4"/>
   </g>
   <g id="patch_167">
    <path d="M 326.199059 273.312 
L 327.816198 273.312 
L 327.816198 153.611475 
L 326.199059 153.611475 
z
" clip-path="url(#p69b8aaa35b)" style="fill: #1f77b4"/>
   </g>
   <g id="patch_168">
    <path d="M 327.816198 273.312 
L 329.433337 273.312 
L 329.433337 155.089259 
L 327.816198 155.089259 
z
" clip-path="url(#p69b8aaa35b)" style="fill: #1f77b4"/>
   </g>
   <g id="patch_169">
    <path d="M 329.433337 273.312 
L 331.050476 273.312 
L 331.050476 169.12821 
L 329.433337 169.12821 
z
" clip-path="url(#p69b8aaa35b)" style="fill: #1f77b4"/>
   </g>
   <g id="patch_170">
    <path d="M 331.050476 273.312 
L 332.667615 273.312 
L 332.667615 157.305936 
L 331.050476 157.305936 
z
" clip-path="url(#p69b8aaa35b)" style="fill: #1f77b4"/>
   </g>
   <g id="patch_171">
    <path d="M 332.667615 273.312 
L 334.284754 273.312 
L 334.284754 174.300455 
L 332.667615 174.300455 
z
" clip-path="url(#p69b8aaa35b)" style="fill: #1f77b4"/>
   </g>
   <g id="patch_172">
    <path d="M 334.284754 273.312 
L 335.901894 273.312 
L 335.901894 158.78372 
L 334.284754 158.78372 
z
" clip-path="url(#p69b8aaa35b)" style="fill: #1f77b4"/>
   </g>
   <g id="patch_173">
    <path d="M 335.901894 273.312 
L 337.519033 273.312 
L 337.519033 163.217073 
L 335.901894 163.217073 
z
" clip-path="url(#p69b8aaa35b)" style="fill: #1f77b4"/>
   </g>
   <g id="patch_174">
    <path d="M 337.519033 273.312 
L 339.136172 273.312 
L 339.136172 178.733808 
L 337.519033 178.733808 
z
" clip-path="url(#p69b8aaa35b)" style="fill: #1f77b4"/>
   </g>
   <g id="patch_175">
    <path d="M 339.136172 273.312 
L 340.753311 273.312 
L 340.753311 192.033866 
L 339.136172 192.033866 
z
" clip-path="url(#p69b8aaa35b)" style="fill: #1f77b4"/>
   </g>
   <g id="patch_176">
    <path d="M 340.753311 273.312 
L 342.37045 273.312 
L 342.37045 180.950484 
L 340.753311 180.950484 
z
" clip-path="url(#p69b8aaa35b)" style="fill: #1f77b4"/>
   </g>
   <g id="patch_177">
    <path d="M 342.37045 273.312 
L 343.987589 273.312 
L 343.987589 199.422787 
L 342.37045 199.422787 
z
" clip-path="url(#p69b8aaa35b)" style="fill: #1f77b4"/>
   </g>
   <g id="patch_178">
    <path d="M 343.987589 273.312 
L 345.604729 273.312 
L 345.604729 194.989434 
L 343.987589 194.989434 
z
" clip-path="url(#p69b8aaa35b)" style="fill: #1f77b4"/>
   </g>
   <g id="patch_179">
    <path d="M 345.604729 273.312 
L 347.221868 273.312 
L 347.221868 196.467219 
L 345.604729 196.467219 
z
" clip-path="url(#p69b8aaa35b)" style="fill: #1f77b4"/>
   </g>
   <g id="patch_180">
    <path d="M 347.221868 273.312 
L 348.839007 273.312 
L 348.839007 193.51165 
L 347.221868 193.51165 
z
" clip-path="url(#p69b8aaa35b)" style="fill: #1f77b4"/>
   </g>
   <g id="patch_181">
    <path d="M 348.839007 273.312 
L 350.456146 273.312 
L 350.456146 201.639464 
L 348.839007 201.639464 
z
" clip-path="url(#p69b8aaa35b)" style="fill: #1f77b4"/>
   </g>
   <g id="patch_182">
    <path d="M 350.456146 273.312 
L 352.073285 273.312 
L 352.073285 205.333924 
L 350.456146 205.333924 
z
" clip-path="url(#p69b8aaa35b)" style="fill: #1f77b4"/>
   </g>
   <g id="patch_183">
    <path d="M 352.073285 273.312 
L 353.690425 273.312 
L 353.690425 209.767277 
L 352.073285 209.767277 
z
" clip-path="url(#p69b8aaa35b)" style="fill: #1f77b4"/>
   </g>
   <g id="patch_184">
    <path d="M 353.690425 273.312 
L 355.307564 273.312 
L 355.307564 203.85614 
L 353.690425 203.85614 
z
" clip-path="url(#p69b8aaa35b)" style="fill: #1f77b4"/>
   </g>
   <g id="patch_185">
    <path d="M 355.307564 273.312 
L 356.924703 273.312 
L 356.924703 217.156198 
L 355.307564 217.156198 
z
" clip-path="url(#p69b8aaa35b)" style="fill: #1f77b4"/>
   </g>
   <g id="patch_186">
    <path d="M 356.924703 273.312 
L 358.541842 273.312 
L 358.541842 209.028385 
L 356.924703 209.028385 
z
" clip-path="url(#p69b8aaa35b)" style="fill: #1f77b4"/>
   </g>
   <g id="patch_187">
    <path d="M 358.541842 273.312 
L 360.158981 273.312 
L 360.158981 224.54512 
L 358.541842 224.54512 
z
" clip-path="url(#p69b8aaa35b)" style="fill: #1f77b4"/>
   </g>
   <g id="patch_188">
    <path d="M 360.158981 273.312 
L 361.77612 273.312 
L 361.77612 218.633983 
L 360.158981 218.633983 
z
" clip-path="url(#p69b8aaa35b)" style="fill: #1f77b4"/>
   </g>
   <g id="patch_189">
    <path d="M 361.77612 273.312 
L 363.39326 273.312 
L 363.39326 224.54512 
L 361.77612 224.54512 
z
" clip-path="url(#p69b8aaa35b)" style="fill: #1f77b4"/>
   </g>
   <g id="patch_190">
    <path d="M 363.39326 273.312 
L 365.010399 273.312 
L 365.010399 234.150717 
L 363.39326 234.150717 
z
" clip-path="url(#p69b8aaa35b)" style="fill: #1f77b4"/>
   </g>
   <g id="patch_191">
    <path d="M 365.010399 273.312 
L 366.627538 273.312 
L 366.627538 238.58407 
L 365.010399 238.58407 
z
" clip-path="url(#p69b8aaa35b)" style="fill: #1f77b4"/>
   </g>
   <g id="patch_192">
    <path d="M 366.627538 273.312 
L 368.244677 273.312 
L 368.244677 238.58407 
L 366.627538 238.58407 
z
" clip-path="url(#p69b8aaa35b)" style="fill: #1f77b4"/>
   </g>
   <g id="patch_193">
    <path d="M 368.244677 273.312 
L 369.861816 273.312 
L 369.861816 240.061854 
L 368.244677 240.061854 
z
" clip-path="url(#p69b8aaa35b)" style="fill: #1f77b4"/>
   </g>
   <g id="patch_194">
    <path d="M 369.861816 273.312 
L 371.478955 273.312 
L 371.478955 251.145236 
L 369.861816 251.145236 
z
" clip-path="url(#p69b8aaa35b)" style="fill: #1f77b4"/>
   </g>
   <g id="patch_195">
    <path d="M 371.478955 273.312 
L 373.096095 273.312 
L 373.096095 248.92856 
L 371.478955 248.92856 
z
" clip-path="url(#p69b8aaa35b)" style="fill: #1f77b4"/>
   </g>
   <g id="patch_196">
    <path d="M 373.096095 273.312 
L 374.713234 273.312 
L 374.713234 246.711883 
L 373.096095 246.711883 
z
" clip-path="url(#p69b8aaa35b)" style="fill: #1f77b4"/>
   </g>
   <g id="patch_197">
    <path d="M 374.713234 273.312 
L 376.330373 273.312 
L 376.330373 256.317481 
L 374.713234 256.317481 
z
" clip-path="url(#p69b8aaa35b)" style="fill: #1f77b4"/>
   </g>
   <g id="patch_198">
    <path d="M 376.330373 273.312 
L 377.947512 273.312 
L 377.947512 260.750834 
L 376.330373 260.750834 
z
" clip-path="url(#p69b8aaa35b)" style="fill: #1f77b4"/>
   </g>
   <g id="patch_199">
    <path d="M 377.947512 273.312 
L 379.564651 273.312 
L 379.564651 261.489726 
L 377.947512 261.489726 
z
" clip-path="url(#p69b8aaa35b)" style="fill: #1f77b4"/>
   </g>
   <g id="patch_200">
    <path d="M 379.564651 273.312 
L 381.18179 273.312 
L 381.18179 262.96751 
L 379.564651 262.96751 
z
" clip-path="url(#p69b8aaa35b)" style="fill: #1f77b4"/>
   </g>
   <g id="patch_201">
    <path d="M 381.18179 273.312 
L 382.79893 273.312 
L 382.79893 264.445294 
L 381.18179 264.445294 
z
" clip-path="url(#p69b8aaa35b)" style="fill: #1f77b4"/>
   </g>
   <g id="patch_202">
    <path d="M 382.79893 273.312 
L 384.416069 273.312 
L 384.416069 271.834216 
L 382.79893 271.834216 
z
" clip-path="url(#p69b8aaa35b)" style="fill: #1f77b4"/>
   </g>
   <g id="matplotlib.axis_1">
    <g id="xtick_1">
     <g id="line2d_1">
      <defs>
       <path id="mf582be5b31" d="M 0 0 
L 0 3.5 
" style="stroke: #000000; stroke-width: 0.8"/>
      </defs>
      <g>
       <use xlink:href="#mf582be5b31" x="60.013977" y="273.312" style="stroke: #000000; stroke-width: 0.8"/>
      </g>
     </g>
     <g id="text_1">
      <!-- 0.0 -->
      <g transform="translate(52.062415 287.910437)scale(0.1 -0.1)">
       <defs>
        <path id="DejaVuSans-30" d="M 2034 4250 
Q 1547 4250 1301 3770 
Q 1056 3291 1056 2328 
Q 1056 1369 1301 889 
Q 1547 409 2034 409 
Q 2525 409 2770 889 
Q 3016 1369 3016 2328 
Q 3016 3291 2770 3770 
Q 2525 4250 2034 4250 
z
M 2034 4750 
Q 2819 4750 3233 4129 
Q 3647 3509 3647 2328 
Q 3647 1150 3233 529 
Q 2819 -91 2034 -91 
Q 1250 -91 836 529 
Q 422 1150 422 2328 
Q 422 3509 836 4129 
Q 1250 4750 2034 4750 
z
" transform="scale(0.015625)"/>
        <path id="DejaVuSans-2e" d="M 684 794 
L 1344 794 
L 1344 0 
L 684 0 
L 684 794 
z
" transform="scale(0.015625)"/>
       </defs>
       <use xlink:href="#DejaVuSans-30"/>
       <use xlink:href="#DejaVuSans-2e" x="63.623047"/>
       <use xlink:href="#DejaVuSans-30" x="95.410156"/>
      </g>
     </g>
    </g>
    <g id="xtick_2">
     <g id="line2d_2">
      <g>
       <use xlink:href="#mf582be5b31" x="101.350278" y="273.312" style="stroke: #000000; stroke-width: 0.8"/>
      </g>
     </g>
     <g id="text_2">
      <!-- 0.2 -->
      <g transform="translate(93.398715 287.910437)scale(0.1 -0.1)">
       <defs>
        <path id="DejaVuSans-32" d="M 1228 531 
L 3431 531 
L 3431 0 
L 469 0 
L 469 531 
Q 828 903 1448 1529 
Q 2069 2156 2228 2338 
Q 2531 2678 2651 2914 
Q 2772 3150 2772 3378 
Q 2772 3750 2511 3984 
Q 2250 4219 1831 4219 
Q 1534 4219 1204 4116 
Q 875 4013 500 3803 
L 500 4441 
Q 881 4594 1212 4672 
Q 1544 4750 1819 4750 
Q 2544 4750 2975 4387 
Q 3406 4025 3406 3419 
Q 3406 3131 3298 2873 
Q 3191 2616 2906 2266 
Q 2828 2175 2409 1742 
Q 1991 1309 1228 531 
z
" transform="scale(0.015625)"/>
       </defs>
       <use xlink:href="#DejaVuSans-30"/>
       <use xlink:href="#DejaVuSans-2e" x="63.623047"/>
       <use xlink:href="#DejaVuSans-32" x="95.410156"/>
      </g>
     </g>
    </g>
    <g id="xtick_3">
     <g id="line2d_3">
      <g>
       <use xlink:href="#mf582be5b31" x="142.686578" y="273.312" style="stroke: #000000; stroke-width: 0.8"/>
      </g>
     </g>
     <g id="text_3">
      <!-- 0.4 -->
      <g transform="translate(134.735016 287.910437)scale(0.1 -0.1)">
       <defs>
        <path id="DejaVuSans-34" d="M 2419 4116 
L 825 1625 
L 2419 1625 
L 2419 4116 
z
M 2253 4666 
L 3047 4666 
L 3047 1625 
L 3713 1625 
L 3713 1100 
L 3047 1100 
L 3047 0 
L 2419 0 
L 2419 1100 
L 313 1100 
L 313 1709 
L 2253 4666 
z
" transform="scale(0.015625)"/>
       </defs>
       <use xlink:href="#DejaVuSans-30"/>
       <use xlink:href="#DejaVuSans-2e" x="63.623047"/>
       <use xlink:href="#DejaVuSans-34" x="95.410156"/>
      </g>
     </g>
    </g>
    <g id="xtick_4">
     <g id="line2d_4">
      <g>
       <use xlink:href="#mf582be5b31" x="184.022879" y="273.312" style="stroke: #000000; stroke-width: 0.8"/>
      </g>
     </g>
     <g id="text_4">
      <!-- 0.6 -->
      <g transform="translate(176.071316 287.910437)scale(0.1 -0.1)">
       <defs>
        <path id="DejaVuSans-36" d="M 2113 2584 
Q 1688 2584 1439 2293 
Q 1191 2003 1191 1497 
Q 1191 994 1439 701 
Q 1688 409 2113 409 
Q 2538 409 2786 701 
Q 3034 994 3034 1497 
Q 3034 2003 2786 2293 
Q 2538 2584 2113 2584 
z
M 3366 4563 
L 3366 3988 
Q 3128 4100 2886 4159 
Q 2644 4219 2406 4219 
Q 1781 4219 1451 3797 
Q 1122 3375 1075 2522 
Q 1259 2794 1537 2939 
Q 1816 3084 2150 3084 
Q 2853 3084 3261 2657 
Q 3669 2231 3669 1497 
Q 3669 778 3244 343 
Q 2819 -91 2113 -91 
Q 1303 -91 875 529 
Q 447 1150 447 2328 
Q 447 3434 972 4092 
Q 1497 4750 2381 4750 
Q 2619 4750 2861 4703 
Q 3103 4656 3366 4563 
z
" transform="scale(0.015625)"/>
       </defs>
       <use xlink:href="#DejaVuSans-30"/>
       <use xlink:href="#DejaVuSans-2e" x="63.623047"/>
       <use xlink:href="#DejaVuSans-36" x="95.410156"/>
      </g>
     </g>
    </g>
    <g id="xtick_5">
     <g id="line2d_5">
      <g>
       <use xlink:href="#mf582be5b31" x="225.35918" y="273.312" style="stroke: #000000; stroke-width: 0.8"/>
      </g>
     </g>
     <g id="text_5">
      <!-- 0.8 -->
      <g transform="translate(217.407617 287.910437)scale(0.1 -0.1)">
       <defs>
        <path id="DejaVuSans-38" d="M 2034 2216 
Q 1584 2216 1326 1975 
Q 1069 1734 1069 1313 
Q 1069 891 1326 650 
Q 1584 409 2034 409 
Q 2484 409 2743 651 
Q 3003 894 3003 1313 
Q 3003 1734 2745 1975 
Q 2488 2216 2034 2216 
z
M 1403 2484 
Q 997 2584 770 2862 
Q 544 3141 544 3541 
Q 544 4100 942 4425 
Q 1341 4750 2034 4750 
Q 2731 4750 3128 4425 
Q 3525 4100 3525 3541 
Q 3525 3141 3298 2862 
Q 3072 2584 2669 2484 
Q 3125 2378 3379 2068 
Q 3634 1759 3634 1313 
Q 3634 634 3220 271 
Q 2806 -91 2034 -91 
Q 1263 -91 848 271 
Q 434 634 434 1313 
Q 434 1759 690 2068 
Q 947 2378 1403 2484 
z
M 1172 3481 
Q 1172 3119 1398 2916 
Q 1625 2713 2034 2713 
Q 2441 2713 2670 2916 
Q 2900 3119 2900 3481 
Q 2900 3844 2670 4047 
Q 2441 4250 2034 4250 
Q 1625 4250 1398 4047 
Q 1172 3844 1172 3481 
z
" transform="scale(0.015625)"/>
       </defs>
       <use xlink:href="#DejaVuSans-30"/>
       <use xlink:href="#DejaVuSans-2e" x="63.623047"/>
       <use xlink:href="#DejaVuSans-38" x="95.410156"/>
      </g>
     </g>
    </g>
    <g id="xtick_6">
     <g id="line2d_6">
      <g>
       <use xlink:href="#mf582be5b31" x="266.69548" y="273.312" style="stroke: #000000; stroke-width: 0.8"/>
      </g>
     </g>
     <g id="text_6">
      <!-- 1.0 -->
      <g transform="translate(258.743918 287.910437)scale(0.1 -0.1)">
       <defs>
        <path id="DejaVuSans-31" d="M 794 531 
L 1825 531 
L 1825 4091 
L 703 3866 
L 703 4441 
L 1819 4666 
L 2450 4666 
L 2450 531 
L 3481 531 
L 3481 0 
L 794 0 
L 794 531 
z
" transform="scale(0.015625)"/>
       </defs>
       <use xlink:href="#DejaVuSans-31"/>
       <use xlink:href="#DejaVuSans-2e" x="63.623047"/>
       <use xlink:href="#DejaVuSans-30" x="95.410156"/>
      </g>
     </g>
    </g>
    <g id="xtick_7">
     <g id="line2d_7">
      <g>
       <use xlink:href="#mf582be5b31" x="308.031781" y="273.312" style="stroke: #000000; stroke-width: 0.8"/>
      </g>
     </g>
     <g id="text_7">
      <!-- 1.2 -->
      <g transform="translate(300.080218 287.910437)scale(0.1 -0.1)">
       <use xlink:href="#DejaVuSans-31"/>
       <use xlink:href="#DejaVuSans-2e" x="63.623047"/>
       <use xlink:href="#DejaVuSans-32" x="95.410156"/>
      </g>
     </g>
    </g>
    <g id="xtick_8">
     <g id="line2d_8">
      <g>
       <use xlink:href="#mf582be5b31" x="349.368081" y="273.312" style="stroke: #000000; stroke-width: 0.8"/>
      </g>
     </g>
     <g id="text_8">
      <!-- 1.4 -->
      <g transform="translate(341.416519 287.910437)scale(0.1 -0.1)">
       <use xlink:href="#DejaVuSans-31"/>
       <use xlink:href="#DejaVuSans-2e" x="63.623047"/>
       <use xlink:href="#DejaVuSans-34" x="95.410156"/>
      </g>
     </g>
    </g>
    <g id="xtick_9">
     <g id="line2d_9">
      <g>
       <use xlink:href="#mf582be5b31" x="390.704382" y="273.312" style="stroke: #000000; stroke-width: 0.8"/>
      </g>
     </g>
     <g id="text_9">
      <!-- 1.6 -->
      <g transform="translate(382.752819 287.910437)scale(0.1 -0.1)">
       <use xlink:href="#DejaVuSans-31"/>
       <use xlink:href="#DejaVuSans-2e" x="63.623047"/>
       <use xlink:href="#DejaVuSans-36" x="95.410156"/>
      </g>
     </g>
    </g>
    <g id="text_10">
     <!-- Angle with normal (rad) -->
     <g transform="translate(163.023281 301.588562)scale(0.1 -0.1)">
      <defs>
       <path id="DejaVuSans-41" d="M 2188 4044 
L 1331 1722 
L 3047 1722 
L 2188 4044 
z
M 1831 4666 
L 2547 4666 
L 4325 0 
L 3669 0 
L 3244 1197 
L 1141 1197 
L 716 0 
L 50 0 
L 1831 4666 
z
" transform="scale(0.015625)"/>
       <path id="DejaVuSans-6e" d="M 3513 2113 
L 3513 0 
L 2938 0 
L 2938 2094 
Q 2938 2591 2744 2837 
Q 2550 3084 2163 3084 
Q 1697 3084 1428 2787 
Q 1159 2491 1159 1978 
L 1159 0 
L 581 0 
L 581 3500 
L 1159 3500 
L 1159 2956 
Q 1366 3272 1645 3428 
Q 1925 3584 2291 3584 
Q 2894 3584 3203 3211 
Q 3513 2838 3513 2113 
z
" transform="scale(0.015625)"/>
       <path id="DejaVuSans-67" d="M 2906 1791 
Q 2906 2416 2648 2759 
Q 2391 3103 1925 3103 
Q 1463 3103 1205 2759 
Q 947 2416 947 1791 
Q 947 1169 1205 825 
Q 1463 481 1925 481 
Q 2391 481 2648 825 
Q 2906 1169 2906 1791 
z
M 3481 434 
Q 3481 -459 3084 -895 
Q 2688 -1331 1869 -1331 
Q 1566 -1331 1297 -1286 
Q 1028 -1241 775 -1147 
L 775 -588 
Q 1028 -725 1275 -790 
Q 1522 -856 1778 -856 
Q 2344 -856 2625 -561 
Q 2906 -266 2906 331 
L 2906 616 
Q 2728 306 2450 153 
Q 2172 0 1784 0 
Q 1141 0 747 490 
Q 353 981 353 1791 
Q 353 2603 747 3093 
Q 1141 3584 1784 3584 
Q 2172 3584 2450 3431 
Q 2728 3278 2906 2969 
L 2906 3500 
L 3481 3500 
L 3481 434 
z
" transform="scale(0.015625)"/>
       <path id="DejaVuSans-6c" d="M 603 4863 
L 1178 4863 
L 1178 0 
L 603 0 
L 603 4863 
z
" transform="scale(0.015625)"/>
       <path id="DejaVuSans-65" d="M 3597 1894 
L 3597 1613 
L 953 1613 
Q 991 1019 1311 708 
Q 1631 397 2203 397 
Q 2534 397 2845 478 
Q 3156 559 3463 722 
L 3463 178 
Q 3153 47 2828 -22 
Q 2503 -91 2169 -91 
Q 1331 -91 842 396 
Q 353 884 353 1716 
Q 353 2575 817 3079 
Q 1281 3584 2069 3584 
Q 2775 3584 3186 3129 
Q 3597 2675 3597 1894 
z
M 3022 2063 
Q 3016 2534 2758 2815 
Q 2500 3097 2075 3097 
Q 1594 3097 1305 2825 
Q 1016 2553 972 2059 
L 3022 2063 
z
" transform="scale(0.015625)"/>
       <path id="DejaVuSans-20" transform="scale(0.015625)"/>
       <path id="DejaVuSans-77" d="M 269 3500 
L 844 3500 
L 1563 769 
L 2278 3500 
L 2956 3500 
L 3675 769 
L 4391 3500 
L 4966 3500 
L 4050 0 
L 3372 0 
L 2619 2869 
L 1863 0 
L 1184 0 
L 269 3500 
z
" transform="scale(0.015625)"/>
       <path id="DejaVuSans-69" d="M 603 3500 
L 1178 3500 
L 1178 0 
L 603 0 
L 603 3500 
z
M 603 4863 
L 1178 4863 
L 1178 4134 
L 603 4134 
L 603 4863 
z
" transform="scale(0.015625)"/>
       <path id="DejaVuSans-74" d="M 1172 4494 
L 1172 3500 
L 2356 3500 
L 2356 3053 
L 1172 3053 
L 1172 1153 
Q 1172 725 1289 603 
Q 1406 481 1766 481 
L 2356 481 
L 2356 0 
L 1766 0 
Q 1100 0 847 248 
Q 594 497 594 1153 
L 594 3053 
L 172 3053 
L 172 3500 
L 594 3500 
L 594 4494 
L 1172 4494 
z
" transform="scale(0.015625)"/>
       <path id="DejaVuSans-68" d="M 3513 2113 
L 3513 0 
L 2938 0 
L 2938 2094 
Q 2938 2591 2744 2837 
Q 2550 3084 2163 3084 
Q 1697 3084 1428 2787 
Q 1159 2491 1159 1978 
L 1159 0 
L 581 0 
L 581 4863 
L 1159 4863 
L 1159 2956 
Q 1366 3272 1645 3428 
Q 1925 3584 2291 3584 
Q 2894 3584 3203 3211 
Q 3513 2838 3513 2113 
z
" transform="scale(0.015625)"/>
       <path id="DejaVuSans-6f" d="M 1959 3097 
Q 1497 3097 1228 2736 
Q 959 2375 959 1747 
Q 959 1119 1226 758 
Q 1494 397 1959 397 
Q 2419 397 2687 759 
Q 2956 1122 2956 1747 
Q 2956 2369 2687 2733 
Q 2419 3097 1959 3097 
z
M 1959 3584 
Q 2709 3584 3137 3096 
Q 3566 2609 3566 1747 
Q 3566 888 3137 398 
Q 2709 -91 1959 -91 
Q 1206 -91 779 398 
Q 353 888 353 1747 
Q 353 2609 779 3096 
Q 1206 3584 1959 3584 
z
" transform="scale(0.015625)"/>
       <path id="DejaVuSans-72" d="M 2631 2963 
Q 2534 3019 2420 3045 
Q 2306 3072 2169 3072 
Q 1681 3072 1420 2755 
Q 1159 2438 1159 1844 
L 1159 0 
L 581 0 
L 581 3500 
L 1159 3500 
L 1159 2956 
Q 1341 3275 1631 3429 
Q 1922 3584 2338 3584 
Q 2397 3584 2469 3576 
Q 2541 3569 2628 3553 
L 2631 2963 
z
" transform="scale(0.015625)"/>
       <path id="DejaVuSans-6d" d="M 3328 2828 
Q 3544 3216 3844 3400 
Q 4144 3584 4550 3584 
Q 5097 3584 5394 3201 
Q 5691 2819 5691 2113 
L 5691 0 
L 5113 0 
L 5113 2094 
Q 5113 2597 4934 2840 
Q 4756 3084 4391 3084 
Q 3944 3084 3684 2787 
Q 3425 2491 3425 1978 
L 3425 0 
L 2847 0 
L 2847 2094 
Q 2847 2600 2669 2842 
Q 2491 3084 2119 3084 
Q 1678 3084 1418 2786 
Q 1159 2488 1159 1978 
L 1159 0 
L 581 0 
L 581 3500 
L 1159 3500 
L 1159 2956 
Q 1356 3278 1631 3431 
Q 1906 3584 2284 3584 
Q 2666 3584 2933 3390 
Q 3200 3197 3328 2828 
z
" transform="scale(0.015625)"/>
       <path id="DejaVuSans-61" d="M 2194 1759 
Q 1497 1759 1228 1600 
Q 959 1441 959 1056 
Q 959 750 1161 570 
Q 1363 391 1709 391 
Q 2188 391 2477 730 
Q 2766 1069 2766 1631 
L 2766 1759 
L 2194 1759 
z
M 3341 1997 
L 3341 0 
L 2766 0 
L 2766 531 
Q 2569 213 2275 61 
Q 1981 -91 1556 -91 
Q 1019 -91 701 211 
Q 384 513 384 1019 
Q 384 1609 779 1909 
Q 1175 2209 1959 2209 
L 2766 2209 
L 2766 2266 
Q 2766 2663 2505 2880 
Q 2244 3097 1772 3097 
Q 1472 3097 1187 3025 
Q 903 2953 641 2809 
L 641 3341 
Q 956 3463 1253 3523 
Q 1550 3584 1831 3584 
Q 2591 3584 2966 3190 
Q 3341 2797 3341 1997 
z
" transform="scale(0.015625)"/>
       <path id="DejaVuSans-28" d="M 1984 4856 
Q 1566 4138 1362 3434 
Q 1159 2731 1159 2009 
Q 1159 1288 1364 580 
Q 1569 -128 1984 -844 
L 1484 -844 
Q 1016 -109 783 600 
Q 550 1309 550 2009 
Q 550 2706 781 3412 
Q 1013 4119 1484 4856 
L 1984 4856 
z
" transform="scale(0.015625)"/>
       <path id="DejaVuSans-64" d="M 2906 2969 
L 2906 4863 
L 3481 4863 
L 3481 0 
L 2906 0 
L 2906 525 
Q 2725 213 2448 61 
Q 2172 -91 1784 -91 
Q 1150 -91 751 415 
Q 353 922 353 1747 
Q 353 2572 751 3078 
Q 1150 3584 1784 3584 
Q 2172 3584 2448 3432 
Q 2725 3281 2906 2969 
z
M 947 1747 
Q 947 1113 1208 752 
Q 1469 391 1925 391 
Q 2381 391 2643 752 
Q 2906 1113 2906 1747 
Q 2906 2381 2643 2742 
Q 2381 3103 1925 3103 
Q 1469 3103 1208 2742 
Q 947 2381 947 1747 
z
" transform="scale(0.015625)"/>
       <path id="DejaVuSans-29" d="M 513 4856 
L 1013 4856 
Q 1481 4119 1714 3412 
Q 1947 2706 1947 2009 
Q 1947 1309 1714 600 
Q 1481 -109 1013 -844 
L 513 -844 
Q 928 -128 1133 580 
Q 1338 1288 1338 2009 
Q 1338 2731 1133 3434 
Q 928 4138 513 4856 
z
" transform="scale(0.015625)"/>
      </defs>
      <use xlink:href="#DejaVuSans-41"/>
      <use xlink:href="#DejaVuSans-6e" x="68.408203"/>
      <use xlink:href="#DejaVuSans-67" x="131.787109"/>
      <use xlink:href="#DejaVuSans-6c" x="195.263672"/>
      <use xlink:href="#DejaVuSans-65" x="223.046875"/>
      <use xlink:href="#DejaVuSans-20" x="284.570312"/>
      <use xlink:href="#DejaVuSans-77" x="316.357422"/>
      <use xlink:href="#DejaVuSans-69" x="398.144531"/>
      <use xlink:href="#DejaVuSans-74" x="425.927734"/>
      <use xlink:href="#DejaVuSans-68" x="465.136719"/>
      <use xlink:href="#DejaVuSans-20" x="528.515625"/>
      <use xlink:href="#DejaVuSans-6e" x="560.302734"/>
      <use xlink:href="#DejaVuSans-6f" x="623.681641"/>
      <use xlink:href="#DejaVuSans-72" x="684.863281"/>
      <use xlink:href="#DejaVuSans-6d" x="724.226562"/>
      <use xlink:href="#DejaVuSans-61" x="821.638672"/>
      <use xlink:href="#DejaVuSans-6c" x="882.917969"/>
      <use xlink:href="#DejaVuSans-20" x="910.701172"/>
      <use xlink:href="#DejaVuSans-28" x="942.488281"/>
      <use xlink:href="#DejaVuSans-72" x="981.501953"/>
      <use xlink:href="#DejaVuSans-61" x="1022.615234"/>
      <use xlink:href="#DejaVuSans-64" x="1083.894531"/>
      <use xlink:href="#DejaVuSans-29" x="1147.371094"/>
     </g>
    </g>
   </g>
   <g id="matplotlib.axis_2">
    <g id="ytick_1">
     <g id="line2d_10">
      <defs>
       <path id="md44735154d" d="M 0 0 
L -3.5 0 
" style="stroke: #000000; stroke-width: 0.8"/>
      </defs>
      <g>
       <use xlink:href="#md44735154d" x="43.78125" y="273.312" style="stroke: #000000; stroke-width: 0.8"/>
      </g>
     </g>
     <g id="text_11">
      <!-- 0.0 -->
      <g transform="translate(20.878125 277.111219)scale(0.1 -0.1)">
       <use xlink:href="#DejaVuSans-30"/>
       <use xlink:href="#DejaVuSans-2e" x="63.623047"/>
       <use xlink:href="#DejaVuSans-30" x="95.410156"/>
      </g>
     </g>
    </g>
    <g id="ytick_2">
     <g id="line2d_11">
      <g>
       <use xlink:href="#md44735154d" x="43.78125" y="227.061459" style="stroke: #000000; stroke-width: 0.8"/>
      </g>
     </g>
     <g id="text_12">
      <!-- 0.2 -->
      <g transform="translate(20.878125 230.860678)scale(0.1 -0.1)">
       <use xlink:href="#DejaVuSans-30"/>
       <use xlink:href="#DejaVuSans-2e" x="63.623047"/>
       <use xlink:href="#DejaVuSans-32" x="95.410156"/>
      </g>
     </g>
    </g>
    <g id="ytick_3">
     <g id="line2d_12">
      <g>
       <use xlink:href="#md44735154d" x="43.78125" y="180.810919" style="stroke: #000000; stroke-width: 0.8"/>
      </g>
     </g>
     <g id="text_13">
      <!-- 0.4 -->
      <g transform="translate(20.878125 184.610138)scale(0.1 -0.1)">
       <use xlink:href="#DejaVuSans-30"/>
       <use xlink:href="#DejaVuSans-2e" x="63.623047"/>
       <use xlink:href="#DejaVuSans-34" x="95.410156"/>
      </g>
     </g>
    </g>
    <g id="ytick_4">
     <g id="line2d_13">
      <g>
       <use xlink:href="#md44735154d" x="43.78125" y="134.560378" style="stroke: #000000; stroke-width: 0.8"/>
      </g>
     </g>
     <g id="text_14">
      <!-- 0.6 -->
      <g transform="translate(20.878125 138.359597)scale(0.1 -0.1)">
       <use xlink:href="#DejaVuSans-30"/>
       <use xlink:href="#DejaVuSans-2e" x="63.623047"/>
       <use xlink:href="#DejaVuSans-36" x="95.410156"/>
      </g>
     </g>
    </g>
    <g id="ytick_5">
     <g id="line2d_14">
      <g>
       <use xlink:href="#md44735154d" x="43.78125" y="88.309838" style="stroke: #000000; stroke-width: 0.8"/>
      </g>
     </g>
     <g id="text_15">
      <!-- 0.8 -->
      <g transform="translate(20.878125 92.109056)scale(0.1 -0.1)">
       <use xlink:href="#DejaVuSans-30"/>
       <use xlink:href="#DejaVuSans-2e" x="63.623047"/>
       <use xlink:href="#DejaVuSans-38" x="95.410156"/>
      </g>
     </g>
    </g>
    <g id="ytick_6">
     <g id="line2d_15">
      <g>
       <use xlink:href="#md44735154d" x="43.78125" y="42.059297" style="stroke: #000000; stroke-width: 0.8"/>
      </g>
     </g>
     <g id="text_16">
      <!-- 1.0 -->
      <g transform="translate(20.878125 45.858516)scale(0.1 -0.1)">
       <use xlink:href="#DejaVuSans-31"/>
       <use xlink:href="#DejaVuSans-2e" x="63.623047"/>
       <use xlink:href="#DejaVuSans-30" x="95.410156"/>
      </g>
     </g>
    </g>
    <g id="text_17">
     <!-- Probability density -->
     <g transform="translate(14.798438 186.606781)rotate(-90)scale(0.1 -0.1)">
      <defs>
       <path id="DejaVuSans-50" d="M 1259 4147 
L 1259 2394 
L 2053 2394 
Q 2494 2394 2734 2622 
Q 2975 2850 2975 3272 
Q 2975 3691 2734 3919 
Q 2494 4147 2053 4147 
L 1259 4147 
z
M 628 4666 
L 2053 4666 
Q 2838 4666 3239 4311 
Q 3641 3956 3641 3272 
Q 3641 2581 3239 2228 
Q 2838 1875 2053 1875 
L 1259 1875 
L 1259 0 
L 628 0 
L 628 4666 
z
" transform="scale(0.015625)"/>
       <path id="DejaVuSans-62" d="M 3116 1747 
Q 3116 2381 2855 2742 
Q 2594 3103 2138 3103 
Q 1681 3103 1420 2742 
Q 1159 2381 1159 1747 
Q 1159 1113 1420 752 
Q 1681 391 2138 391 
Q 2594 391 2855 752 
Q 3116 1113 3116 1747 
z
M 1159 2969 
Q 1341 3281 1617 3432 
Q 1894 3584 2278 3584 
Q 2916 3584 3314 3078 
Q 3713 2572 3713 1747 
Q 3713 922 3314 415 
Q 2916 -91 2278 -91 
Q 1894 -91 1617 61 
Q 1341 213 1159 525 
L 1159 0 
L 581 0 
L 581 4863 
L 1159 4863 
L 1159 2969 
z
" transform="scale(0.015625)"/>
       <path id="DejaVuSans-79" d="M 2059 -325 
Q 1816 -950 1584 -1140 
Q 1353 -1331 966 -1331 
L 506 -1331 
L 506 -850 
L 844 -850 
Q 1081 -850 1212 -737 
Q 1344 -625 1503 -206 
L 1606 56 
L 191 3500 
L 800 3500 
L 1894 763 
L 2988 3500 
L 3597 3500 
L 2059 -325 
z
" transform="scale(0.015625)"/>
       <path id="DejaVuSans-73" d="M 2834 3397 
L 2834 2853 
Q 2591 2978 2328 3040 
Q 2066 3103 1784 3103 
Q 1356 3103 1142 2972 
Q 928 2841 928 2578 
Q 928 2378 1081 2264 
Q 1234 2150 1697 2047 
L 1894 2003 
Q 2506 1872 2764 1633 
Q 3022 1394 3022 966 
Q 3022 478 2636 193 
Q 2250 -91 1575 -91 
Q 1294 -91 989 -36 
Q 684 19 347 128 
L 347 722 
Q 666 556 975 473 
Q 1284 391 1588 391 
Q 1994 391 2212 530 
Q 2431 669 2431 922 
Q 2431 1156 2273 1281 
Q 2116 1406 1581 1522 
L 1381 1569 
Q 847 1681 609 1914 
Q 372 2147 372 2553 
Q 372 3047 722 3315 
Q 1072 3584 1716 3584 
Q 2034 3584 2315 3537 
Q 2597 3491 2834 3397 
z
" transform="scale(0.015625)"/>
      </defs>
      <use xlink:href="#DejaVuSans-50"/>
      <use xlink:href="#DejaVuSans-72" x="58.552734"/>
      <use xlink:href="#DejaVuSans-6f" x="97.416016"/>
      <use xlink:href="#DejaVuSans-62" x="158.597656"/>
      <use xlink:href="#DejaVuSans-61" x="222.074219"/>
      <use xlink:href="#DejaVuSans-62" x="283.353516"/>
      <use xlink:href="#DejaVuSans-69" x="346.830078"/>
      <use xlink:href="#DejaVuSans-6c" x="374.613281"/>
      <use xlink:href="#DejaVuSans-69" x="402.396484"/>
      <use xlink:href="#DejaVuSans-74" x="430.179688"/>
      <use xlink:href="#DejaVuSans-79" x="469.388672"/>
      <use xlink:href="#DejaVuSans-20" x="528.568359"/>
      <use xlink:href="#DejaVuSans-64" x="560.355469"/>
      <use xlink:href="#DejaVuSans-65" x="623.832031"/>
      <use xlink:href="#DejaVuSans-6e" x="685.355469"/>
      <use xlink:href="#DejaVuSans-73" x="748.734375"/>
      <use xlink:href="#DejaVuSans-69" x="800.833984"/>
      <use xlink:href="#DejaVuSans-74" x="828.617188"/>
      <use xlink:href="#DejaVuSans-79" x="867.826172"/>
     </g>
    </g>
   </g>
   <g id="line2d_16">
    <path d="M 60.013977 273.312 
L 79.837728 229.222598 
L 90.237073 206.63972 
L 99.01152 188.101069 
L 106.811029 172.133621 
L 113.960578 158.000691 
L 120.460169 145.629602 
L 126.63478 134.34401 
L 132.484411 124.109274 
L 138.009063 114.881446 
L 143.208736 106.609507 
L 148.408408 98.759516 
L 153.283101 91.80105 
L 157.832814 85.670507 
L 162.382528 79.903615 
L 166.607261 74.884038 
L 170.831995 70.196049 
L 175.056729 65.847482 
L 178.956483 62.140975 
L 182.856238 58.735154 
L 186.755992 55.63487 
L 190.330767 53.065126 
L 193.905542 50.758906 
L 197.480316 48.71897 
L 201.055091 46.947758 
L 204.304886 45.572545 
L 207.554682 44.422534 
L 210.804477 43.498862 
L 214.054272 42.802441 
L 217.304067 42.333962 
L 220.553863 42.093886 
L 223.803658 42.082452 
L 227.053453 42.29967 
L 230.303248 42.745327 
L 233.553044 43.41898 
L 236.802839 44.319965 
L 240.052634 45.447389 
L 243.302429 46.800139 
L 246.552225 48.376877 
L 250.126999 50.368126 
L 253.701774 52.626127 
L 257.276549 55.148177 
L 260.851324 57.931259 
L 264.751078 61.261133 
L 268.650832 64.892947 
L 272.550587 68.821529 
L 276.77532 73.405889 
L 281.000054 78.324306 
L 285.549768 83.985214 
L 290.099481 90.013039 
L 294.974174 96.865301 
L 299.848867 104.110103 
L 305.048539 112.252383 
L 310.248212 120.802328 
L 315.772863 130.309102 
L 321.622495 140.819867 
L 327.797106 152.374302 
L 334.296696 165.00236 
L 341.446246 179.385942 
L 349.245755 195.587216 
L 358.020202 214.337918 
L 368.419546 237.100194 
L 383.693584 271.130345 
L 384.668523 273.312 
L 384.668523 273.312 
" clip-path="url(#p69b8aaa35b)" style="fill: none; stroke: #ff7f0e; stroke-width: 1.5; stroke-linecap: square"/>
   </g>
   <g id="patch_203">
    <path d="M 43.78125 273.312 
L 43.78125 7.2 
" style="fill: none; stroke: #000000; stroke-width: 0.8; stroke-linejoin: miter; stroke-linecap: square"/>
   </g>
   <g id="patch_204">
    <path d="M 400.90125 273.312 
L 400.90125 7.2 
" style="fill: none; stroke: #000000; stroke-width: 0.8; stroke-linejoin: miter; stroke-linecap: square"/>
   </g>
   <g id="patch_205">
    <path d="M 43.78125 273.312 
L 400.90125 273.312 
" style="fill: none; stroke: #000000; stroke-width: 0.8; stroke-linejoin: miter; stroke-linecap: square"/>
   </g>
   <g id="patch_206">
    <path d="M 43.78125 7.2 
L 400.90125 7.2 
" style="fill: none; stroke: #000000; stroke-width: 0.8; stroke-linejoin: miter; stroke-linecap: square"/>
   </g>
  </g>
 </g>
 <defs>
  <clipPath id="p69b8aaa35b">
   <rect x="43.78125" y="7.2" width="357.12" height="266.112"/>
  </clipPath>
 </defs>
</svg>
