<?xml version="1.0" encoding="utf-8" standalone="no"?>
<!DOCTYPE svg PUBLIC "-//W3C//DTD SVG 1.1//EN"
  "http://www.w3.org/Graphics/SVG/1.1/DTD/svg11.dtd">
<svg xmlns:xlink="http://www.w3.org/1999/xlink" width="408.10125pt" height="310.86825pt" viewBox="0 0 408.10125 310.86825" xmlns="http://www.w3.org/2000/svg" version="1.1">
 <metadata>
  <rdf:RDF xmlns:dc="http://purl.org/dc/elements/1.1/" xmlns:cc="http://creativecommons.org/ns#" xmlns:rdf="http://www.w3.org/1999/02/22-rdf-syntax-ns#">
   <cc:Work>
    <dc:type rdf:resource="http://purl.org/dc/dcmitype/StillImage"/>
    <dc:date>2022-04-01T12:13:37.094540</dc:date>
    <dc:format>image/svg+xml</dc:format>
    <dc:creator>
     <cc:Agent>
      <dc:title>Matplotlib v3.5.1, https://matplotlib.org/</dc:title>
     </cc:Agent>
    </dc:creator>
   </cc:Work>
  </rdf:RDF>
 </metadata>
 <defs>
  <style type="text/css">*{stroke-linejoin: round; stroke-linecap: butt}</style>
 </defs>
 <g id="figure_1">
  <g id="patch_1">
   <path d="M 0 310.86825 
L 408.10125 310.86825 
L 408.10125 0 
L 0 0 
z
" style="fill: #ffffff"/>
  </g>
  <g id="axes_1">
   <g id="patch_2">
    <path d="M 43.78125 273.312 
L 400.90125 273.312 
L 400.90125 7.2 
L 43.78125 7.2 
z
" style="fill: #ffffff"/>
   </g>
   <g id="patch_3">
    <path d="M 61.132412 273.312 
L 62.742229 273.312 
L 62.742229 268.300475 
L 61.132412 268.300475 
z
" clip-path="url(#p21bc3fd9a8)" style="fill: #1f77b4"/>
   </g>
   <g id="patch_4">
    <path d="M 62.742229 273.312 
L 64.352046 273.312 
L 64.352046 258.993356 
L 62.742229 258.993356 
z
" clip-path="url(#p21bc3fd9a8)" style="fill: #1f77b4"/>
   </g>
   <g id="patch_5">
    <path d="M 64.352046 273.312 
L 65.961864 273.312 
L 65.961864 261.857085 
L 64.352046 261.857085 
z
" clip-path="url(#p21bc3fd9a8)" style="fill: #1f77b4"/>
   </g>
   <g id="patch_6">
    <path d="M 65.961864 273.312 
L 67.571681 273.312 
L 67.571681 261.141153 
L 65.961864 261.141153 
z
" clip-path="url(#p21bc3fd9a8)" style="fill: #1f77b4"/>
   </g>
   <g id="patch_7">
    <path d="M 67.571681 273.312 
L 69.181498 273.312 
L 69.181498 264.004881 
L 67.571681 264.004881 
z
" clip-path="url(#p21bc3fd9a8)" style="fill: #1f77b4"/>
   </g>
   <g id="patch_8">
    <path d="M 69.181498 273.312 
L 70.791316 273.312 
L 70.791316 248.254373 
L 69.181498 248.254373 
z
" clip-path="url(#p21bc3fd9a8)" style="fill: #1f77b4"/>
   </g>
   <g id="patch_9">
    <path d="M 70.791316 273.312 
L 72.401133 273.312 
L 72.401133 245.390644 
L 70.791316 245.390644 
z
" clip-path="url(#p21bc3fd9a8)" style="fill: #1f77b4"/>
   </g>
   <g id="patch_10">
    <path d="M 72.401133 273.312 
L 74.01095 273.312 
L 74.01095 240.379119 
L 72.401133 240.379119 
z
" clip-path="url(#p21bc3fd9a8)" style="fill: #1f77b4"/>
   </g>
   <g id="patch_11">
    <path d="M 74.01095 273.312 
L 75.620768 273.312 
L 75.620768 238.947254 
L 74.01095 238.947254 
z
" clip-path="url(#p21bc3fd9a8)" style="fill: #1f77b4"/>
   </g>
   <g id="patch_12">
    <path d="M 75.620768 273.312 
L 77.230585 273.312 
L 77.230585 231.787932 
L 75.620768 231.787932 
z
" clip-path="url(#p21bc3fd9a8)" style="fill: #1f77b4"/>
   </g>
   <g id="patch_13">
    <path d="M 77.230585 273.312 
L 78.840402 273.312 
L 78.840402 235.367593 
L 77.230585 235.367593 
z
" clip-path="url(#p21bc3fd9a8)" style="fill: #1f77b4"/>
   </g>
   <g id="patch_14">
    <path d="M 78.840402 273.312 
L 80.45022 273.312 
L 80.45022 227.492339 
L 78.840402 227.492339 
z
" clip-path="url(#p21bc3fd9a8)" style="fill: #1f77b4"/>
   </g>
   <g id="patch_15">
    <path d="M 80.45022 273.312 
L 82.060037 273.312 
L 82.060037 225.344542 
L 80.45022 225.344542 
z
" clip-path="url(#p21bc3fd9a8)" style="fill: #1f77b4"/>
   </g>
   <g id="patch_16">
    <path d="M 82.060037 273.312 
L 83.669854 273.312 
L 83.669854 232.503864 
L 82.060037 232.503864 
z
" clip-path="url(#p21bc3fd9a8)" style="fill: #1f77b4"/>
   </g>
   <g id="patch_17">
    <path d="M 83.669854 273.312 
L 85.279672 273.312 
L 85.279672 230.356068 
L 83.669854 230.356068 
z
" clip-path="url(#p21bc3fd9a8)" style="fill: #1f77b4"/>
   </g>
   <g id="patch_18">
    <path d="M 85.279672 273.312 
L 86.889489 273.312 
L 86.889489 213.173695 
L 85.279672 213.173695 
z
" clip-path="url(#p21bc3fd9a8)" style="fill: #1f77b4"/>
   </g>
   <g id="patch_19">
    <path d="M 86.889489 273.312 
L 88.499306 273.312 
L 88.499306 217.469288 
L 86.889489 217.469288 
z
" clip-path="url(#p21bc3fd9a8)" style="fill: #1f77b4"/>
   </g>
   <g id="patch_20">
    <path d="M 88.499306 273.312 
L 90.109124 273.312 
L 90.109124 218.18522 
L 88.499306 218.18522 
z
" clip-path="url(#p21bc3fd9a8)" style="fill: #1f77b4"/>
   </g>
   <g id="patch_21">
    <path d="M 90.109124 273.312 
L 91.718941 273.312 
L 91.718941 208.162169 
L 90.109124 208.162169 
z
" clip-path="url(#p21bc3fd9a8)" style="fill: #1f77b4"/>
   </g>
   <g id="patch_22">
    <path d="M 91.718941 273.312 
L 93.328758 273.312 
L 93.328758 195.991322 
L 91.718941 195.991322 
z
" clip-path="url(#p21bc3fd9a8)" style="fill: #1f77b4"/>
   </g>
   <g id="patch_23">
    <path d="M 93.328758 273.312 
L 94.938576 273.312 
L 94.938576 185.252339 
L 93.328758 185.252339 
z
" clip-path="url(#p21bc3fd9a8)" style="fill: #1f77b4"/>
   </g>
   <g id="patch_24">
    <path d="M 94.938576 273.312 
L 96.548393 273.312 
L 96.548393 200.286915 
L 94.938576 200.286915 
z
" clip-path="url(#p21bc3fd9a8)" style="fill: #1f77b4"/>
   </g>
   <g id="patch_25">
    <path d="M 96.548393 273.312 
L 98.15821 273.312 
L 98.15821 193.127593 
L 96.548393 193.127593 
z
" clip-path="url(#p21bc3fd9a8)" style="fill: #1f77b4"/>
   </g>
   <g id="patch_26">
    <path d="M 98.15821 273.312 
L 99.768028 273.312 
L 99.768028 202.434712 
L 98.15821 202.434712 
z
" clip-path="url(#p21bc3fd9a8)" style="fill: #1f77b4"/>
   </g>
   <g id="patch_27">
    <path d="M 99.768028 273.312 
L 101.377845 273.312 
L 101.377845 175.94522 
L 99.768028 175.94522 
z
" clip-path="url(#p21bc3fd9a8)" style="fill: #1f77b4"/>
   </g>
   <g id="patch_28">
    <path d="M 101.377845 273.312 
L 102.987663 273.312 
L 102.987663 177.377085 
L 101.377845 177.377085 
z
" clip-path="url(#p21bc3fd9a8)" style="fill: #1f77b4"/>
   </g>
   <g id="patch_29">
    <path d="M 102.987663 273.312 
L 104.59748 273.312 
L 104.59748 187.400136 
L 102.987663 187.400136 
z
" clip-path="url(#p21bc3fd9a8)" style="fill: #1f77b4"/>
   </g>
   <g id="patch_30">
    <path d="M 104.59748 273.312 
L 106.207297 273.312 
L 106.207297 179.524881 
L 104.59748 179.524881 
z
" clip-path="url(#p21bc3fd9a8)" style="fill: #1f77b4"/>
   </g>
   <g id="patch_31">
    <path d="M 106.207297 273.312 
L 107.817115 273.312 
L 107.817115 166.638102 
L 106.207297 166.638102 
z
" clip-path="url(#p21bc3fd9a8)" style="fill: #1f77b4"/>
   </g>
   <g id="patch_32">
    <path d="M 107.817115 273.312 
L 109.426932 273.312 
L 109.426932 181.672678 
L 107.817115 181.672678 
z
" clip-path="url(#p21bc3fd9a8)" style="fill: #1f77b4"/>
   </g>
   <g id="patch_33">
    <path d="M 109.426932 273.312 
L 111.036749 273.312 
L 111.036749 178.093017 
L 109.426932 178.093017 
z
" clip-path="url(#p21bc3fd9a8)" style="fill: #1f77b4"/>
   </g>
   <g id="patch_34">
    <path d="M 111.036749 273.312 
L 112.646567 273.312 
L 112.646567 161.626576 
L 111.036749 161.626576 
z
" clip-path="url(#p21bc3fd9a8)" style="fill: #1f77b4"/>
   </g>
   <g id="patch_35">
    <path d="M 112.646567 273.312 
L 114.256384 273.312 
L 114.256384 151.603525 
L 112.646567 151.603525 
z
" clip-path="url(#p21bc3fd9a8)" style="fill: #1f77b4"/>
   </g>
   <g id="patch_36">
    <path d="M 114.256384 273.312 
L 115.866201 273.312 
L 115.866201 164.490305 
L 114.256384 164.490305 
z
" clip-path="url(#p21bc3fd9a8)" style="fill: #1f77b4"/>
   </g>
   <g id="patch_37">
    <path d="M 115.866201 273.312 
L 117.476019 273.312 
L 117.476019 154.467254 
L 115.866201 154.467254 
z
" clip-path="url(#p21bc3fd9a8)" style="fill: #1f77b4"/>
   </g>
   <g id="patch_38">
    <path d="M 117.476019 273.312 
L 119.085836 273.312 
L 119.085836 142.296407 
L 117.476019 142.296407 
z
" clip-path="url(#p21bc3fd9a8)" style="fill: #1f77b4"/>
   </g>
   <g id="patch_39">
    <path d="M 119.085836 273.312 
L 120.695653 273.312 
L 120.695653 139.432678 
L 119.085836 139.432678 
z
" clip-path="url(#p21bc3fd9a8)" style="fill: #1f77b4"/>
   </g>
   <g id="patch_40">
    <path d="M 120.695653 273.312 
L 122.305471 273.312 
L 122.305471 157.330983 
L 120.695653 157.330983 
z
" clip-path="url(#p21bc3fd9a8)" style="fill: #1f77b4"/>
   </g>
   <g id="patch_41">
    <path d="M 122.305471 273.312 
L 123.915288 273.312 
L 123.915288 145.876068 
L 122.305471 145.876068 
z
" clip-path="url(#p21bc3fd9a8)" style="fill: #1f77b4"/>
   </g>
   <g id="patch_42">
    <path d="M 123.915288 273.312 
L 125.525105 273.312 
L 125.525105 131.557424 
L 123.915288 131.557424 
z
" clip-path="url(#p21bc3fd9a8)" style="fill: #1f77b4"/>
   </g>
   <g id="patch_43">
    <path d="M 125.525105 273.312 
L 127.134923 273.312 
L 127.134923 134.421153 
L 125.525105 134.421153 
z
" clip-path="url(#p21bc3fd9a8)" style="fill: #1f77b4"/>
   </g>
   <g id="patch_44">
    <path d="M 127.134923 273.312 
L 128.74474 273.312 
L 128.74474 145.160136 
L 127.134923 145.160136 
z
" clip-path="url(#p21bc3fd9a8)" style="fill: #1f77b4"/>
   </g>
   <g id="patch_45">
    <path d="M 128.74474 273.312 
L 130.354557 273.312 
L 130.354557 128.693695 
L 128.74474 128.693695 
z
" clip-path="url(#p21bc3fd9a8)" style="fill: #1f77b4"/>
   </g>
   <g id="patch_46">
    <path d="M 130.354557 273.312 
L 131.964375 273.312 
L 131.964375 141.580475 
L 130.354557 141.580475 
z
" clip-path="url(#p21bc3fd9a8)" style="fill: #1f77b4"/>
   </g>
   <g id="patch_47">
    <path d="M 131.964375 273.312 
L 133.574192 273.312 
L 133.574192 136.568949 
L 131.964375 136.568949 
z
" clip-path="url(#p21bc3fd9a8)" style="fill: #1f77b4"/>
   </g>
   <g id="patch_48">
    <path d="M 133.574192 273.312 
L 135.184009 273.312 
L 135.184009 120.818441 
L 133.574192 120.818441 
z
" clip-path="url(#p21bc3fd9a8)" style="fill: #1f77b4"/>
   </g>
   <g id="patch_49">
    <path d="M 135.184009 273.312 
L 136.793827 273.312 
L 136.793827 120.102508 
L 135.184009 120.102508 
z
" clip-path="url(#p21bc3fd9a8)" style="fill: #1f77b4"/>
   </g>
   <g id="patch_50">
    <path d="M 136.793827 273.312 
L 138.403644 273.312 
L 138.403644 102.920136 
L 136.793827 102.920136 
z
" clip-path="url(#p21bc3fd9a8)" style="fill: #1f77b4"/>
   </g>
   <g id="patch_51">
    <path d="M 138.403644 273.312 
L 140.013461 273.312 
L 140.013461 132.989288 
L 138.403644 132.989288 
z
" clip-path="url(#p21bc3fd9a8)" style="fill: #1f77b4"/>
   </g>
   <g id="patch_52">
    <path d="M 140.013461 273.312 
L 141.623279 273.312 
L 141.623279 110.79539 
L 140.013461 110.79539 
z
" clip-path="url(#p21bc3fd9a8)" style="fill: #1f77b4"/>
   </g>
   <g id="patch_53">
    <path d="M 141.623279 273.312 
L 143.233096 273.312 
L 143.233096 113.659119 
L 141.623279 113.659119 
z
" clip-path="url(#p21bc3fd9a8)" style="fill: #1f77b4"/>
   </g>
   <g id="patch_54">
    <path d="M 143.233096 273.312 
L 144.842913 273.312 
L 144.842913 108.647593 
L 143.233096 108.647593 
z
" clip-path="url(#p21bc3fd9a8)" style="fill: #1f77b4"/>
   </g>
   <g id="patch_55">
    <path d="M 144.842913 273.312 
L 146.452731 273.312 
L 146.452731 87.169627 
L 144.842913 87.169627 
z
" clip-path="url(#p21bc3fd9a8)" style="fill: #1f77b4"/>
   </g>
   <g id="patch_56">
    <path d="M 146.452731 273.312 
L 148.062548 273.312 
L 148.062548 115.090983 
L 146.452731 115.090983 
z
" clip-path="url(#p21bc3fd9a8)" style="fill: #1f77b4"/>
   </g>
   <g id="patch_57">
    <path d="M 148.062548 273.312 
L 149.672365 273.312 
L 149.672365 87.885559 
L 148.062548 87.885559 
z
" clip-path="url(#p21bc3fd9a8)" style="fill: #1f77b4"/>
   </g>
   <g id="patch_58">
    <path d="M 149.672365 273.312 
L 151.282183 273.312 
L 151.282183 122.966237 
L 149.672365 122.966237 
z
" clip-path="url(#p21bc3fd9a8)" style="fill: #1f77b4"/>
   </g>
   <g id="patch_59">
    <path d="M 151.282183 273.312 
L 152.892 273.312 
L 152.892 107.215729 
L 151.282183 107.215729 
z
" clip-path="url(#p21bc3fd9a8)" style="fill: #1f77b4"/>
   </g>
   <g id="patch_60">
    <path d="M 152.892 273.312 
L 154.501817 273.312 
L 154.501817 100.772339 
L 152.892 100.772339 
z
" clip-path="url(#p21bc3fd9a8)" style="fill: #1f77b4"/>
   </g>
   <g id="patch_61">
    <path d="M 154.501817 273.312 
L 156.111635 273.312 
L 156.111635 114.375051 
L 154.501817 114.375051 
z
" clip-path="url(#p21bc3fd9a8)" style="fill: #1f77b4"/>
   </g>
   <g id="patch_62">
    <path d="M 156.111635 273.312 
L 157.721452 273.312 
L 157.721452 102.204203 
L 156.111635 102.204203 
z
" clip-path="url(#p21bc3fd9a8)" style="fill: #1f77b4"/>
   </g>
   <g id="patch_63">
    <path d="M 157.721452 273.312 
L 159.33127 273.312 
L 159.33127 103.636068 
L 157.721452 103.636068 
z
" clip-path="url(#p21bc3fd9a8)" style="fill: #1f77b4"/>
   </g>
   <g id="patch_64">
    <path d="M 159.33127 273.312 
L 160.941087 273.312 
L 160.941087 87.885559 
L 159.33127 87.885559 
z
" clip-path="url(#p21bc3fd9a8)" style="fill: #1f77b4"/>
   </g>
   <g id="patch_65">
    <path d="M 160.941087 273.312 
L 162.550904 273.312 
L 162.550904 67.123525 
L 160.941087 67.123525 
z
" clip-path="url(#p21bc3fd9a8)" style="fill: #1f77b4"/>
   </g>
   <g id="patch_66">
    <path d="M 162.550904 273.312 
L 164.160722 273.312 
L 164.160722 76.430644 
L 162.550904 76.430644 
z
" clip-path="url(#p21bc3fd9a8)" style="fill: #1f77b4"/>
   </g>
   <g id="patch_67">
    <path d="M 164.160722 273.312 
L 165.770539 273.312 
L 165.770539 85.021831 
L 164.160722 85.021831 
z
" clip-path="url(#p21bc3fd9a8)" style="fill: #1f77b4"/>
   </g>
   <g id="patch_68">
    <path d="M 165.770539 273.312 
L 167.380356 273.312 
L 167.380356 82.158102 
L 165.770539 82.158102 
z
" clip-path="url(#p21bc3fd9a8)" style="fill: #1f77b4"/>
   </g>
   <g id="patch_69">
    <path d="M 167.380356 273.312 
L 168.990174 273.312 
L 168.990174 102.920136 
L 167.380356 102.920136 
z
" clip-path="url(#p21bc3fd9a8)" style="fill: #1f77b4"/>
   </g>
   <g id="patch_70">
    <path d="M 168.990174 273.312 
L 170.599991 273.312 
L 170.599991 82.874034 
L 168.990174 82.874034 
z
" clip-path="url(#p21bc3fd9a8)" style="fill: #1f77b4"/>
   </g>
   <g id="patch_71">
    <path d="M 170.599991 273.312 
L 172.209808 273.312 
L 172.209808 97.192678 
L 170.599991 97.192678 
z
" clip-path="url(#p21bc3fd9a8)" style="fill: #1f77b4"/>
   </g>
   <g id="patch_72">
    <path d="M 172.209808 273.312 
L 173.819626 273.312 
L 173.819626 70.703186 
L 172.209808 70.703186 
z
" clip-path="url(#p21bc3fd9a8)" style="fill: #1f77b4"/>
   </g>
   <g id="patch_73">
    <path d="M 173.819626 273.312 
L 175.429443 273.312 
L 175.429443 69.271322 
L 173.819626 69.271322 
z
" clip-path="url(#p21bc3fd9a8)" style="fill: #1f77b4"/>
   </g>
   <g id="patch_74">
    <path d="M 175.429443 273.312 
L 177.03926 273.312 
L 177.03926 76.430644 
L 175.429443 76.430644 
z
" clip-path="url(#p21bc3fd9a8)" style="fill: #1f77b4"/>
   </g>
   <g id="patch_75">
    <path d="M 177.03926 273.312 
L 178.649078 273.312 
L 178.649078 73.566915 
L 177.03926 73.566915 
z
" clip-path="url(#p21bc3fd9a8)" style="fill: #1f77b4"/>
   </g>
   <g id="patch_76">
    <path d="M 178.649078 273.312 
L 180.258895 273.312 
L 180.258895 64.975729 
L 178.649078 64.975729 
z
" clip-path="url(#p21bc3fd9a8)" style="fill: #1f77b4"/>
   </g>
   <g id="patch_77">
    <path d="M 180.258895 273.312 
L 181.868712 273.312 
L 181.868712 57.100475 
L 180.258895 57.100475 
z
" clip-path="url(#p21bc3fd9a8)" style="fill: #1f77b4"/>
   </g>
   <g id="patch_78">
    <path d="M 181.868712 273.312 
L 183.47853 273.312 
L 183.47853 76.430644 
L 181.868712 76.430644 
z
" clip-path="url(#p21bc3fd9a8)" style="fill: #1f77b4"/>
   </g>
   <g id="patch_79">
    <path d="M 183.47853 273.312 
L 185.088347 273.312 
L 185.088347 66.407593 
L 183.47853 66.407593 
z
" clip-path="url(#p21bc3fd9a8)" style="fill: #1f77b4"/>
   </g>
   <g id="patch_80">
    <path d="M 185.088347 273.312 
L 186.698164 273.312 
L 186.698164 60.680136 
L 185.088347 60.680136 
z
" clip-path="url(#p21bc3fd9a8)" style="fill: #1f77b4"/>
   </g>
   <g id="patch_81">
    <path d="M 186.698164 273.312 
L 188.307982 273.312 
L 188.307982 77.862508 
L 186.698164 77.862508 
z
" clip-path="url(#p21bc3fd9a8)" style="fill: #1f77b4"/>
   </g>
   <g id="patch_82">
    <path d="M 188.307982 273.312 
L 189.917799 273.312 
L 189.917799 50.657085 
L 188.307982 50.657085 
z
" clip-path="url(#p21bc3fd9a8)" style="fill: #1f77b4"/>
   </g>
   <g id="patch_83">
    <path d="M 189.917799 273.312 
L 191.527616 273.312 
L 191.527616 54.236746 
L 189.917799 54.236746 
z
" clip-path="url(#p21bc3fd9a8)" style="fill: #1f77b4"/>
   </g>
   <g id="patch_84">
    <path d="M 191.527616 273.312 
L 193.137434 273.312 
L 193.137434 47.077424 
L 191.527616 47.077424 
z
" clip-path="url(#p21bc3fd9a8)" style="fill: #1f77b4"/>
   </g>
   <g id="patch_85">
    <path d="M 193.137434 273.312 
L 194.747251 273.312 
L 194.747251 52.088949 
L 193.137434 52.088949 
z
" clip-path="url(#p21bc3fd9a8)" style="fill: #1f77b4"/>
   </g>
   <g id="patch_86">
    <path d="M 194.747251 273.312 
L 196.357068 273.312 
L 196.357068 42.065898 
L 194.747251 42.065898 
z
" clip-path="url(#p21bc3fd9a8)" style="fill: #1f77b4"/>
   </g>
   <g id="patch_87">
    <path d="M 196.357068 273.312 
L 197.966886 273.312 
L 197.966886 47.793356 
L 196.357068 47.793356 
z
" clip-path="url(#p21bc3fd9a8)" style="fill: #1f77b4"/>
   </g>
   <g id="patch_88">
    <path d="M 197.966886 273.312 
L 199.576703 273.312 
L 199.576703 75.714712 
L 197.966886 75.714712 
z
" clip-path="url(#p21bc3fd9a8)" style="fill: #1f77b4"/>
   </g>
   <g id="patch_89">
    <path d="M 199.576703 273.312 
L 201.18652 273.312 
L 201.18652 81.442169 
L 199.576703 81.442169 
z
" clip-path="url(#p21bc3fd9a8)" style="fill: #1f77b4"/>
   </g>
   <g id="patch_90">
    <path d="M 201.18652 273.312 
L 202.796338 273.312 
L 202.796338 52.804881 
L 201.18652 52.804881 
z
" clip-path="url(#p21bc3fd9a8)" style="fill: #1f77b4"/>
   </g>
   <g id="patch_91">
    <path d="M 202.796338 273.312 
L 204.406155 273.312 
L 204.406155 50.657085 
L 202.796338 50.657085 
z
" clip-path="url(#p21bc3fd9a8)" style="fill: #1f77b4"/>
   </g>
   <g id="patch_92">
    <path d="M 204.406155 273.312 
L 206.015972 273.312 
L 206.015972 36.338441 
L 204.406155 36.338441 
z
" clip-path="url(#p21bc3fd9a8)" style="fill: #1f77b4"/>
   </g>
   <g id="patch_93">
    <path d="M 206.015972 273.312 
L 207.62579 273.312 
L 207.62579 57.816407 
L 206.015972 57.816407 
z
" clip-path="url(#p21bc3fd9a8)" style="fill: #1f77b4"/>
   </g>
   <g id="patch_94">
    <path d="M 207.62579 273.312 
L 209.235607 273.312 
L 209.235607 54.236746 
L 207.62579 54.236746 
z
" clip-path="url(#p21bc3fd9a8)" style="fill: #1f77b4"/>
   </g>
   <g id="patch_95">
    <path d="M 209.235607 273.312 
L 210.845424 273.312 
L 210.845424 43.497763 
L 209.235607 43.497763 
z
" clip-path="url(#p21bc3fd9a8)" style="fill: #1f77b4"/>
   </g>
   <g id="patch_96">
    <path d="M 210.845424 273.312 
L 212.455242 273.312 
L 212.455242 40.634034 
L 210.845424 40.634034 
z
" clip-path="url(#p21bc3fd9a8)" style="fill: #1f77b4"/>
   </g>
   <g id="patch_97">
    <path d="M 212.455242 273.312 
L 214.065059 273.312 
L 214.065059 50.657085 
L 212.455242 50.657085 
z
" clip-path="url(#p21bc3fd9a8)" style="fill: #1f77b4"/>
   </g>
   <g id="patch_98">
    <path d="M 214.065059 273.312 
L 215.674877 273.312 
L 215.674877 34.906576 
L 214.065059 34.906576 
z
" clip-path="url(#p21bc3fd9a8)" style="fill: #1f77b4"/>
   </g>
   <g id="patch_99">
    <path d="M 215.674877 273.312 
L 217.284694 273.312 
L 217.284694 43.497763 
L 215.674877 43.497763 
z
" clip-path="url(#p21bc3fd9a8)" style="fill: #1f77b4"/>
   </g>
   <g id="patch_100">
    <path d="M 217.284694 273.312 
L 218.894511 273.312 
L 218.894511 76.430644 
L 217.284694 76.430644 
z
" clip-path="url(#p21bc3fd9a8)" style="fill: #1f77b4"/>
   </g>
   <g id="patch_101">
    <path d="M 218.894511 273.312 
L 220.504329 273.312 
L 220.504329 42.781831 
L 218.894511 42.781831 
z
" clip-path="url(#p21bc3fd9a8)" style="fill: #1f77b4"/>
   </g>
   <g id="patch_102">
    <path d="M 220.504329 273.312 
L 222.114146 273.312 
L 222.114146 22.735729 
L 220.504329 22.735729 
z
" clip-path="url(#p21bc3fd9a8)" style="fill: #1f77b4"/>
   </g>
   <g id="patch_103">
    <path d="M 222.114146 273.312 
L 223.723963 273.312 
L 223.723963 40.634034 
L 222.114146 40.634034 
z
" clip-path="url(#p21bc3fd9a8)" style="fill: #1f77b4"/>
   </g>
   <g id="patch_104">
    <path d="M 223.723963 273.312 
L 225.333781 273.312 
L 225.333781 19.872 
L 223.723963 19.872 
z
" clip-path="url(#p21bc3fd9a8)" style="fill: #1f77b4"/>
   </g>
   <g id="patch_105">
    <path d="M 225.333781 273.312 
L 226.943598 273.312 
L 226.943598 56.384542 
L 225.333781 56.384542 
z
" clip-path="url(#p21bc3fd9a8)" style="fill: #1f77b4"/>
   </g>
   <g id="patch_106">
    <path d="M 226.943598 273.312 
L 228.553415 273.312 
L 228.553415 47.793356 
L 226.943598 47.793356 
z
" clip-path="url(#p21bc3fd9a8)" style="fill: #1f77b4"/>
   </g>
   <g id="patch_107">
    <path d="M 228.553415 273.312 
L 230.163233 273.312 
L 230.163233 41.349966 
L 228.553415 41.349966 
z
" clip-path="url(#p21bc3fd9a8)" style="fill: #1f77b4"/>
   </g>
   <g id="patch_108">
    <path d="M 230.163233 273.312 
L 231.77305 273.312 
L 231.77305 48.509288 
L 230.163233 48.509288 
z
" clip-path="url(#p21bc3fd9a8)" style="fill: #1f77b4"/>
   </g>
   <g id="patch_109">
    <path d="M 231.77305 273.312 
L 233.382867 273.312 
L 233.382867 53.520814 
L 231.77305 53.520814 
z
" clip-path="url(#p21bc3fd9a8)" style="fill: #1f77b4"/>
   </g>
   <g id="patch_110">
    <path d="M 233.382867 273.312 
L 234.992685 273.312 
L 234.992685 52.804881 
L 233.382867 52.804881 
z
" clip-path="url(#p21bc3fd9a8)" style="fill: #1f77b4"/>
   </g>
   <g id="patch_111">
    <path d="M 234.992685 273.312 
L 236.602502 273.312 
L 236.602502 35.622508 
L 234.992685 35.622508 
z
" clip-path="url(#p21bc3fd9a8)" style="fill: #1f77b4"/>
   </g>
   <g id="patch_112">
    <path d="M 236.602502 273.312 
L 238.212319 273.312 
L 238.212319 56.384542 
L 236.602502 56.384542 
z
" clip-path="url(#p21bc3fd9a8)" style="fill: #1f77b4"/>
   </g>
   <g id="patch_113">
    <path d="M 238.212319 273.312 
L 239.822137 273.312 
L 239.822137 57.816407 
L 238.212319 57.816407 
z
" clip-path="url(#p21bc3fd9a8)" style="fill: #1f77b4"/>
   </g>
   <g id="patch_114">
    <path d="M 239.822137 273.312 
L 241.431954 273.312 
L 241.431954 61.396068 
L 239.822137 61.396068 
z
" clip-path="url(#p21bc3fd9a8)" style="fill: #1f77b4"/>
   </g>
   <g id="patch_115">
    <path d="M 241.431954 273.312 
L 243.041771 273.312 
L 243.041771 59.964203 
L 241.431954 59.964203 
z
" clip-path="url(#p21bc3fd9a8)" style="fill: #1f77b4"/>
   </g>
   <g id="patch_116">
    <path d="M 243.041771 273.312 
L 244.651589 273.312 
L 244.651589 49.941153 
L 243.041771 49.941153 
z
" clip-path="url(#p21bc3fd9a8)" style="fill: #1f77b4"/>
   </g>
   <g id="patch_117">
    <path d="M 244.651589 273.312 
L 246.261406 273.312 
L 246.261406 49.22522 
L 244.651589 49.22522 
z
" clip-path="url(#p21bc3fd9a8)" style="fill: #1f77b4"/>
   </g>
   <g id="patch_118">
    <path d="M 246.261406 273.312 
L 247.871223 273.312 
L 247.871223 57.816407 
L 246.261406 57.816407 
z
" clip-path="url(#p21bc3fd9a8)" style="fill: #1f77b4"/>
   </g>
   <g id="patch_119">
    <path d="M 247.871223 273.312 
L 249.481041 273.312 
L 249.481041 72.135051 
L 247.871223 72.135051 
z
" clip-path="url(#p21bc3fd9a8)" style="fill: #1f77b4"/>
   </g>
   <g id="patch_120">
    <path d="M 249.481041 273.312 
L 251.090858 273.312 
L 251.090858 47.793356 
L 249.481041 47.793356 
z
" clip-path="url(#p21bc3fd9a8)" style="fill: #1f77b4"/>
   </g>
   <g id="patch_121">
    <path d="M 251.090858 273.312 
L 252.700675 273.312 
L 252.700675 39.202169 
L 251.090858 39.202169 
z
" clip-path="url(#p21bc3fd9a8)" style="fill: #1f77b4"/>
   </g>
   <g id="patch_122">
    <path d="M 252.700675 273.312 
L 254.310493 273.312 
L 254.310493 63.543864 
L 252.700675 63.543864 
z
" clip-path="url(#p21bc3fd9a8)" style="fill: #1f77b4"/>
   </g>
   <g id="patch_123">
    <path d="M 254.310493 273.312 
L 255.92031 273.312 
L 255.92031 71.419119 
L 254.310493 71.419119 
z
" clip-path="url(#p21bc3fd9a8)" style="fill: #1f77b4"/>
   </g>
   <g id="patch_124">
    <path d="M 255.92031 273.312 
L 257.530127 273.312 
L 257.530127 59.248271 
L 255.92031 59.248271 
z
" clip-path="url(#p21bc3fd9a8)" style="fill: #1f77b4"/>
   </g>
   <g id="patch_125">
    <path d="M 257.530127 273.312 
L 259.139945 273.312 
L 259.139945 81.442169 
L 257.530127 81.442169 
z
" clip-path="url(#p21bc3fd9a8)" style="fill: #1f77b4"/>
   </g>
   <g id="patch_126">
    <path d="M 259.139945 273.312 
L 260.749762 273.312 
L 260.749762 71.419119 
L 259.139945 71.419119 
z
" clip-path="url(#p21bc3fd9a8)" style="fill: #1f77b4"/>
   </g>
   <g id="patch_127">
    <path d="M 260.749762 273.312 
L 262.359579 273.312 
L 262.359579 59.964203 
L 260.749762 59.964203 
z
" clip-path="url(#p21bc3fd9a8)" style="fill: #1f77b4"/>
   </g>
   <g id="patch_128">
    <path d="M 262.359579 273.312 
L 263.969397 273.312 
L 263.969397 73.566915 
L 262.359579 73.566915 
z
" clip-path="url(#p21bc3fd9a8)" style="fill: #1f77b4"/>
   </g>
   <g id="patch_129">
    <path d="M 263.969397 273.312 
L 265.579214 273.312 
L 265.579214 83.589966 
L 263.969397 83.589966 
z
" clip-path="url(#p21bc3fd9a8)" style="fill: #1f77b4"/>
   </g>
   <g id="patch_130">
    <path d="M 265.579214 273.312 
L 267.189031 273.312 
L 267.189031 79.294373 
L 265.579214 79.294373 
z
" clip-path="url(#p21bc3fd9a8)" style="fill: #1f77b4"/>
   </g>
   <g id="patch_131">
    <path d="M 267.189031 273.312 
L 268.798849 273.312 
L 268.798849 80.726237 
L 267.189031 80.726237 
z
" clip-path="url(#p21bc3fd9a8)" style="fill: #1f77b4"/>
   </g>
   <g id="patch_132">
    <path d="M 268.798849 273.312 
L 270.408666 273.312 
L 270.408666 60.680136 
L 268.798849 60.680136 
z
" clip-path="url(#p21bc3fd9a8)" style="fill: #1f77b4"/>
   </g>
   <g id="patch_133">
    <path d="M 270.408666 273.312 
L 272.018484 273.312 
L 272.018484 68.55539 
L 270.408666 68.55539 
z
" clip-path="url(#p21bc3fd9a8)" style="fill: #1f77b4"/>
   </g>
   <g id="patch_134">
    <path d="M 272.018484 273.312 
L 273.628301 273.312 
L 273.628301 96.476746 
L 272.018484 96.476746 
z
" clip-path="url(#p21bc3fd9a8)" style="fill: #1f77b4"/>
   </g>
   <g id="patch_135">
    <path d="M 273.628301 273.312 
L 275.238118 273.312 
L 275.238118 92.897085 
L 273.628301 92.897085 
z
" clip-path="url(#p21bc3fd9a8)" style="fill: #1f77b4"/>
   </g>
   <g id="patch_136">
    <path d="M 275.238118 273.312 
L 276.847936 273.312 
L 276.847936 81.442169 
L 275.238118 81.442169 
z
" clip-path="url(#p21bc3fd9a8)" style="fill: #1f77b4"/>
   </g>
   <g id="patch_137">
    <path d="M 276.847936 273.312 
L 278.457753 273.312 
L 278.457753 90.033356 
L 276.847936 90.033356 
z
" clip-path="url(#p21bc3fd9a8)" style="fill: #1f77b4"/>
   </g>
   <g id="patch_138">
    <path d="M 278.457753 273.312 
L 280.06757 273.312 
L 280.06757 96.476746 
L 278.457753 96.476746 
z
" clip-path="url(#p21bc3fd9a8)" style="fill: #1f77b4"/>
   </g>
   <g id="patch_139">
    <path d="M 280.06757 273.312 
L 281.677388 273.312 
L 281.677388 91.46522 
L 280.06757 91.46522 
z
" clip-path="url(#p21bc3fd9a8)" style="fill: #1f77b4"/>
   </g>
   <g id="patch_140">
    <path d="M 281.677388 273.312 
L 283.287205 273.312 
L 283.287205 87.885559 
L 281.677388 87.885559 
z
" clip-path="url(#p21bc3fd9a8)" style="fill: #1f77b4"/>
   </g>
   <g id="patch_141">
    <path d="M 283.287205 273.312 
L 284.897022 273.312 
L 284.897022 72.135051 
L 283.287205 72.135051 
z
" clip-path="url(#p21bc3fd9a8)" style="fill: #1f77b4"/>
   </g>
   <g id="patch_142">
    <path d="M 284.897022 273.312 
L 286.50684 273.312 
L 286.50684 108.647593 
L 284.897022 108.647593 
z
" clip-path="url(#p21bc3fd9a8)" style="fill: #1f77b4"/>
   </g>
   <g id="patch_143">
    <path d="M 286.50684 273.312 
L 288.116657 273.312 
L 288.116657 82.874034 
L 286.50684 82.874034 
z
" clip-path="url(#p21bc3fd9a8)" style="fill: #1f77b4"/>
   </g>
   <g id="patch_144">
    <path d="M 288.116657 273.312 
L 289.726474 273.312 
L 289.726474 100.056407 
L 288.116657 100.056407 
z
" clip-path="url(#p21bc3fd9a8)" style="fill: #1f77b4"/>
   </g>
   <g id="patch_145">
    <path d="M 289.726474 273.312 
L 291.336292 273.312 
L 291.336292 71.419119 
L 289.726474 71.419119 
z
" clip-path="url(#p21bc3fd9a8)" style="fill: #1f77b4"/>
   </g>
   <g id="patch_146">
    <path d="M 291.336292 273.312 
L 292.946109 273.312 
L 292.946109 80.010305 
L 291.336292 80.010305 
z
" clip-path="url(#p21bc3fd9a8)" style="fill: #1f77b4"/>
   </g>
   <g id="patch_147">
    <path d="M 292.946109 273.312 
L 294.555926 273.312 
L 294.555926 101.488271 
L 292.946109 101.488271 
z
" clip-path="url(#p21bc3fd9a8)" style="fill: #1f77b4"/>
   </g>
   <g id="patch_148">
    <path d="M 294.555926 273.312 
L 296.165744 273.312 
L 296.165744 120.102508 
L 294.555926 120.102508 
z
" clip-path="url(#p21bc3fd9a8)" style="fill: #1f77b4"/>
   </g>
   <g id="patch_149">
    <path d="M 296.165744 273.312 
L 297.775561 273.312 
L 297.775561 117.23878 
L 296.165744 117.23878 
z
" clip-path="url(#p21bc3fd9a8)" style="fill: #1f77b4"/>
   </g>
   <g id="patch_150">
    <path d="M 297.775561 273.312 
L 299.385378 273.312 
L 299.385378 102.920136 
L 297.775561 102.920136 
z
" clip-path="url(#p21bc3fd9a8)" style="fill: #1f77b4"/>
   </g>
   <g id="patch_151">
    <path d="M 299.385378 273.312 
L 300.995196 273.312 
L 300.995196 140.864542 
L 299.385378 140.864542 
z
" clip-path="url(#p21bc3fd9a8)" style="fill: #1f77b4"/>
   </g>
   <g id="patch_152">
    <path d="M 300.995196 273.312 
L 302.605013 273.312 
L 302.605013 130.125559 
L 300.995196 130.125559 
z
" clip-path="url(#p21bc3fd9a8)" style="fill: #1f77b4"/>
   </g>
   <g id="patch_153">
    <path d="M 302.605013 273.312 
L 304.21483 273.312 
L 304.21483 139.432678 
L 302.605013 139.432678 
z
" clip-path="url(#p21bc3fd9a8)" style="fill: #1f77b4"/>
   </g>
   <g id="patch_154">
    <path d="M 304.21483 273.312 
L 305.824648 273.312 
L 305.824648 116.522847 
L 304.21483 116.522847 
z
" clip-path="url(#p21bc3fd9a8)" style="fill: #1f77b4"/>
   </g>
   <g id="patch_155">
    <path d="M 305.824648 273.312 
L 307.434465 273.312 
L 307.434465 110.079458 
L 305.824648 110.079458 
z
" clip-path="url(#p21bc3fd9a8)" style="fill: #1f77b4"/>
   </g>
   <g id="patch_156">
    <path d="M 307.434465 273.312 
L 309.044282 273.312 
L 309.044282 120.818441 
L 307.434465 120.818441 
z
" clip-path="url(#p21bc3fd9a8)" style="fill: #1f77b4"/>
   </g>
   <g id="patch_157">
    <path d="M 309.044282 273.312 
L 310.6541 273.312 
L 310.6541 127.261831 
L 309.044282 127.261831 
z
" clip-path="url(#p21bc3fd9a8)" style="fill: #1f77b4"/>
   </g>
   <g id="patch_158">
    <path d="M 310.6541 273.312 
L 312.263917 273.312 
L 312.263917 123.682169 
L 310.6541 123.682169 
z
" clip-path="url(#p21bc3fd9a8)" style="fill: #1f77b4"/>
   </g>
   <g id="patch_159">
    <path d="M 312.263917 273.312 
L 313.873734 273.312 
L 313.873734 130.125559 
L 312.263917 130.125559 
z
" clip-path="url(#p21bc3fd9a8)" style="fill: #1f77b4"/>
   </g>
   <g id="patch_160">
    <path d="M 313.873734 273.312 
L 315.483552 273.312 
L 315.483552 146.592 
L 313.873734 146.592 
z
" clip-path="url(#p21bc3fd9a8)" style="fill: #1f77b4"/>
   </g>
   <g id="patch_161">
    <path d="M 315.483552 273.312 
L 317.093369 273.312 
L 317.093369 135.137085 
L 315.483552 135.137085 
z
" clip-path="url(#p21bc3fd9a8)" style="fill: #1f77b4"/>
   </g>
   <g id="patch_162">
    <path d="M 317.093369 273.312 
L 318.703186 273.312 
L 318.703186 133.70522 
L 317.093369 133.70522 
z
" clip-path="url(#p21bc3fd9a8)" style="fill: #1f77b4"/>
   </g>
   <g id="patch_163">
    <path d="M 318.703186 273.312 
L 320.313004 273.312 
L 320.313004 140.14861 
L 318.703186 140.14861 
z
" clip-path="url(#p21bc3fd9a8)" style="fill: #1f77b4"/>
   </g>
   <g id="patch_164">
    <path d="M 320.313004 273.312 
L 321.922821 273.312 
L 321.922821 132.989288 
L 320.313004 132.989288 
z
" clip-path="url(#p21bc3fd9a8)" style="fill: #1f77b4"/>
   </g>
   <g id="patch_165">
    <path d="M 321.922821 273.312 
L 323.532638 273.312 
L 323.532638 143.728271 
L 321.922821 143.728271 
z
" clip-path="url(#p21bc3fd9a8)" style="fill: #1f77b4"/>
   </g>
   <g id="patch_166">
    <path d="M 323.532638 273.312 
L 325.142456 273.312 
L 325.142456 148.023864 
L 323.532638 148.023864 
z
" clip-path="url(#p21bc3fd9a8)" style="fill: #1f77b4"/>
   </g>
   <g id="patch_167">
    <path d="M 325.142456 273.312 
L 326.752273 273.312 
L 326.752273 153.751322 
L 325.142456 153.751322 
z
" clip-path="url(#p21bc3fd9a8)" style="fill: #1f77b4"/>
   </g>
   <g id="patch_168">
    <path d="M 326.752273 273.312 
L 328.362091 273.312 
L 328.362091 162.342508 
L 326.752273 162.342508 
z
" clip-path="url(#p21bc3fd9a8)" style="fill: #1f77b4"/>
   </g>
   <g id="patch_169">
    <path d="M 328.362091 273.312 
L 329.971908 273.312 
L 329.971908 165.206237 
L 328.362091 165.206237 
z
" clip-path="url(#p21bc3fd9a8)" style="fill: #1f77b4"/>
   </g>
   <g id="patch_170">
    <path d="M 329.971908 273.312 
L 331.581725 273.312 
L 331.581725 167.354034 
L 329.971908 167.354034 
z
" clip-path="url(#p21bc3fd9a8)" style="fill: #1f77b4"/>
   </g>
   <g id="patch_171">
    <path d="M 331.581725 273.312 
L 333.191543 273.312 
L 333.191543 170.933695 
L 331.581725 170.933695 
z
" clip-path="url(#p21bc3fd9a8)" style="fill: #1f77b4"/>
   </g>
   <g id="patch_172">
    <path d="M 333.191543 273.312 
L 334.80136 273.312 
L 334.80136 160.910644 
L 333.191543 160.910644 
z
" clip-path="url(#p21bc3fd9a8)" style="fill: #1f77b4"/>
   </g>
   <g id="patch_173">
    <path d="M 334.80136 273.312 
L 336.411177 273.312 
L 336.411177 191.695729 
L 334.80136 191.695729 
z
" clip-path="url(#p21bc3fd9a8)" style="fill: #1f77b4"/>
   </g>
   <g id="patch_174">
    <path d="M 336.411177 273.312 
L 338.020995 273.312 
L 338.020995 167.354034 
L 336.411177 167.354034 
z
" clip-path="url(#p21bc3fd9a8)" style="fill: #1f77b4"/>
   </g>
   <g id="patch_175">
    <path d="M 338.020995 273.312 
L 339.630812 273.312 
L 339.630812 156.615051 
L 338.020995 156.615051 
z
" clip-path="url(#p21bc3fd9a8)" style="fill: #1f77b4"/>
   </g>
   <g id="patch_176">
    <path d="M 339.630812 273.312 
L 341.240629 273.312 
L 341.240629 196.707254 
L 339.630812 196.707254 
z
" clip-path="url(#p21bc3fd9a8)" style="fill: #1f77b4"/>
   </g>
   <g id="patch_177">
    <path d="M 341.240629 273.312 
L 342.850447 273.312 
L 342.850447 193.127593 
L 341.240629 193.127593 
z
" clip-path="url(#p21bc3fd9a8)" style="fill: #1f77b4"/>
   </g>
   <g id="patch_178">
    <path d="M 342.850447 273.312 
L 344.460264 273.312 
L 344.460264 190.979797 
L 342.850447 190.979797 
z
" clip-path="url(#p21bc3fd9a8)" style="fill: #1f77b4"/>
   </g>
   <g id="patch_179">
    <path d="M 344.460264 273.312 
L 346.070081 273.312 
L 346.070081 188.116068 
L 344.460264 188.116068 
z
" clip-path="url(#p21bc3fd9a8)" style="fill: #1f77b4"/>
   </g>
   <g id="patch_180">
    <path d="M 346.070081 273.312 
L 347.679899 273.312 
L 347.679899 185.968271 
L 346.070081 185.968271 
z
" clip-path="url(#p21bc3fd9a8)" style="fill: #1f77b4"/>
   </g>
   <g id="patch_181">
    <path d="M 347.679899 273.312 
L 349.289716 273.312 
L 349.289716 191.695729 
L 347.679899 191.695729 
z
" clip-path="url(#p21bc3fd9a8)" style="fill: #1f77b4"/>
   </g>
   <g id="patch_182">
    <path d="M 349.289716 273.312 
L 350.899533 273.312 
L 350.899533 190.979797 
L 349.289716 190.979797 
z
" clip-path="url(#p21bc3fd9a8)" style="fill: #1f77b4"/>
   </g>
   <g id="patch_183">
    <path d="M 350.899533 273.312 
L 352.509351 273.312 
L 352.509351 217.469288 
L 350.899533 217.469288 
z
" clip-path="url(#p21bc3fd9a8)" style="fill: #1f77b4"/>
   </g>
   <g id="patch_184">
    <path d="M 352.509351 273.312 
L 354.119168 273.312 
L 354.119168 202.434712 
L 352.509351 202.434712 
z
" clip-path="url(#p21bc3fd9a8)" style="fill: #1f77b4"/>
   </g>
   <g id="patch_185">
    <path d="M 354.119168 273.312 
L 355.728985 273.312 
L 355.728985 206.014373 
L 354.119168 206.014373 
z
" clip-path="url(#p21bc3fd9a8)" style="fill: #1f77b4"/>
   </g>
   <g id="patch_186">
    <path d="M 355.728985 273.312 
L 357.338803 273.312 
L 357.338803 218.18522 
L 355.728985 218.18522 
z
" clip-path="url(#p21bc3fd9a8)" style="fill: #1f77b4"/>
   </g>
   <g id="patch_187">
    <path d="M 357.338803 273.312 
L 358.94862 273.312 
L 358.94862 223.912678 
L 357.338803 223.912678 
z
" clip-path="url(#p21bc3fd9a8)" style="fill: #1f77b4"/>
   </g>
   <g id="patch_188">
    <path d="M 358.94862 273.312 
L 360.558437 273.312 
L 360.558437 211.025898 
L 358.94862 211.025898 
z
" clip-path="url(#p21bc3fd9a8)" style="fill: #1f77b4"/>
   </g>
   <g id="patch_189">
    <path d="M 360.558437 273.312 
L 362.168255 273.312 
L 362.168255 234.651661 
L 360.558437 234.651661 
z
" clip-path="url(#p21bc3fd9a8)" style="fill: #1f77b4"/>
   </g>
   <g id="patch_190">
    <path d="M 362.168255 273.312 
L 363.778072 273.312 
L 363.778072 222.480814 
L 362.168255 222.480814 
z
" clip-path="url(#p21bc3fd9a8)" style="fill: #1f77b4"/>
   </g>
   <g id="patch_191">
    <path d="M 363.778072 273.312 
L 365.387889 273.312 
L 365.387889 227.492339 
L 363.778072 227.492339 
z
" clip-path="url(#p21bc3fd9a8)" style="fill: #1f77b4"/>
   </g>
   <g id="patch_192">
    <path d="M 365.387889 273.312 
L 366.997707 273.312 
L 366.997707 234.651661 
L 365.387889 234.651661 
z
" clip-path="url(#p21bc3fd9a8)" style="fill: #1f77b4"/>
   </g>
   <g id="patch_193">
    <path d="M 366.997707 273.312 
L 368.607524 273.312 
L 368.607524 228.924203 
L 366.997707 228.924203 
z
" clip-path="url(#p21bc3fd9a8)" style="fill: #1f77b4"/>
   </g>
   <g id="patch_194">
    <path d="M 368.607524 273.312 
L 370.217341 273.312 
L 370.217341 239.663186 
L 368.607524 239.663186 
z
" clip-path="url(#p21bc3fd9a8)" style="fill: #1f77b4"/>
   </g>
   <g id="patch_195">
    <path d="M 370.217341 273.312 
L 371.827159 273.312 
L 371.827159 241.095051 
L 370.217341 241.095051 
z
" clip-path="url(#p21bc3fd9a8)" style="fill: #1f77b4"/>
   </g>
   <g id="patch_196">
    <path d="M 371.827159 273.312 
L 373.436976 273.312 
L 373.436976 244.674712 
L 371.827159 244.674712 
z
" clip-path="url(#p21bc3fd9a8)" style="fill: #1f77b4"/>
   </g>
   <g id="patch_197">
    <path d="M 373.436976 273.312 
L 375.046793 273.312 
L 375.046793 258.993356 
L 373.436976 258.993356 
z
" clip-path="url(#p21bc3fd9a8)" style="fill: #1f77b4"/>
   </g>
   <g id="patch_198">
    <path d="M 375.046793 273.312 
L 376.656611 273.312 
L 376.656611 251.834034 
L 375.046793 251.834034 
z
" clip-path="url(#p21bc3fd9a8)" style="fill: #1f77b4"/>
   </g>
   <g id="patch_199">
    <path d="M 376.656611 273.312 
L 378.266428 273.312 
L 378.266428 255.413695 
L 376.656611 255.413695 
z
" clip-path="url(#p21bc3fd9a8)" style="fill: #1f77b4"/>
   </g>
   <g id="patch_200">
    <path d="M 378.266428 273.312 
L 379.876246 273.312 
L 379.876246 258.277424 
L 378.266428 258.277424 
z
" clip-path="url(#p21bc3fd9a8)" style="fill: #1f77b4"/>
   </g>
   <g id="patch_201">
    <path d="M 379.876246 273.312 
L 381.486063 273.312 
L 381.486063 264.004881 
L 379.876246 264.004881 
z
" clip-path="url(#p21bc3fd9a8)" style="fill: #1f77b4"/>
   </g>
   <g id="patch_202">
    <path d="M 381.486063 273.312 
L 383.09588 273.312 
L 383.09588 265.436746 
L 381.486063 265.436746 
z
" clip-path="url(#p21bc3fd9a8)" style="fill: #1f77b4"/>
   </g>
   <g id="matplotlib.axis_1">
    <g id="xtick_1">
     <g id="line2d_1">
      <defs>
       <path id="mc3f68fcf18" d="M 0 0 
L 0 3.5 
" style="stroke: #000000; stroke-width: 0.8"/>
      </defs>
      <g>
       <use xlink:href="#mc3f68fcf18" x="60.013977" y="273.312" style="stroke: #000000; stroke-width: 0.8"/>
      </g>
     </g>
     <g id="text_1">
      <!-- 0.0 -->
      <g transform="translate(52.062415 287.910437)scale(0.1 -0.1)">
       <defs>
        <path id="DejaVuSans-30" d="M 2034 4250 
Q 1547 4250 1301 3770 
Q 1056 3291 1056 2328 
Q 1056 1369 1301 889 
Q 1547 409 2034 409 
Q 2525 409 2770 889 
Q 3016 1369 3016 2328 
Q 3016 3291 2770 3770 
Q 2525 4250 2034 4250 
z
M 2034 4750 
Q 2819 4750 3233 4129 
Q 3647 3509 3647 2328 
Q 3647 1150 3233 529 
Q 2819 -91 2034 -91 
Q 1250 -91 836 529 
Q 422 1150 422 2328 
Q 422 3509 836 4129 
Q 1250 4750 2034 4750 
z
" transform="scale(0.015625)"/>
        <path id="DejaVuSans-2e" d="M 684 794 
L 1344 794 
L 1344 0 
L 684 0 
L 684 794 
z
" transform="scale(0.015625)"/>
       </defs>
       <use xlink:href="#DejaVuSans-30"/>
       <use xlink:href="#DejaVuSans-2e" x="63.623047"/>
       <use xlink:href="#DejaVuSans-30" x="95.410156"/>
      </g>
     </g>
    </g>
    <g id="xtick_2">
     <g id="line2d_2">
      <g>
       <use xlink:href="#mc3f68fcf18" x="101.350278" y="273.312" style="stroke: #000000; stroke-width: 0.8"/>
      </g>
     </g>
     <g id="text_2">
      <!-- 0.2 -->
      <g transform="translate(93.398715 287.910437)scale(0.1 -0.1)">
       <defs>
        <path id="DejaVuSans-32" d="M 1228 531 
L 3431 531 
L 3431 0 
L 469 0 
L 469 531 
Q 828 903 1448 1529 
Q 2069 2156 2228 2338 
Q 2531 2678 2651 2914 
Q 2772 3150 2772 3378 
Q 2772 3750 2511 3984 
Q 2250 4219 1831 4219 
Q 1534 4219 1204 4116 
Q 875 4013 500 3803 
L 500 4441 
Q 881 4594 1212 4672 
Q 1544 4750 1819 4750 
Q 2544 4750 2975 4387 
Q 3406 4025 3406 3419 
Q 3406 3131 3298 2873 
Q 3191 2616 2906 2266 
Q 2828 2175 2409 1742 
Q 1991 1309 1228 531 
z
" transform="scale(0.015625)"/>
       </defs>
       <use xlink:href="#DejaVuSans-30"/>
       <use xlink:href="#DejaVuSans-2e" x="63.623047"/>
       <use xlink:href="#DejaVuSans-32" x="95.410156"/>
      </g>
     </g>
    </g>
    <g id="xtick_3">
     <g id="line2d_3">
      <g>
       <use xlink:href="#mc3f68fcf18" x="142.686578" y="273.312" style="stroke: #000000; stroke-width: 0.8"/>
      </g>
     </g>
     <g id="text_3">
      <!-- 0.4 -->
      <g transform="translate(134.735016 287.910437)scale(0.1 -0.1)">
       <defs>
        <path id="DejaVuSans-34" d="M 2419 4116 
L 825 1625 
L 2419 1625 
L 2419 4116 
z
M 2253 4666 
L 3047 4666 
L 3047 1625 
L 3713 1625 
L 3713 1100 
L 3047 1100 
L 3047 0 
L 2419 0 
L 2419 1100 
L 313 1100 
L 313 1709 
L 2253 4666 
z
" transform="scale(0.015625)"/>
       </defs>
       <use xlink:href="#DejaVuSans-30"/>
       <use xlink:href="#DejaVuSans-2e" x="63.623047"/>
       <use xlink:href="#DejaVuSans-34" x="95.410156"/>
      </g>
     </g>
    </g>
    <g id="xtick_4">
     <g id="line2d_4">
      <g>
       <use xlink:href="#mc3f68fcf18" x="184.022879" y="273.312" style="stroke: #000000; stroke-width: 0.8"/>
      </g>
     </g>
     <g id="text_4">
      <!-- 0.6 -->
      <g transform="translate(176.071316 287.910437)scale(0.1 -0.1)">
       <defs>
        <path id="DejaVuSans-36" d="M 2113 2584 
Q 1688 2584 1439 2293 
Q 1191 2003 1191 1497 
Q 1191 994 1439 701 
Q 1688 409 2113 409 
Q 2538 409 2786 701 
Q 3034 994 3034 1497 
Q 3034 2003 2786 2293 
Q 2538 2584 2113 2584 
z
M 3366 4563 
L 3366 3988 
Q 3128 4100 2886 4159 
Q 2644 4219 2406 4219 
Q 1781 4219 1451 3797 
Q 1122 3375 1075 2522 
Q 1259 2794 1537 2939 
Q 1816 3084 2150 3084 
Q 2853 3084 3261 2657 
Q 3669 2231 3669 1497 
Q 3669 778 3244 343 
Q 2819 -91 2113 -91 
Q 1303 -91 875 529 
Q 447 1150 447 2328 
Q 447 3434 972 4092 
Q 1497 4750 2381 4750 
Q 2619 4750 2861 4703 
Q 3103 4656 3366 4563 
z
" transform="scale(0.015625)"/>
       </defs>
       <use xlink:href="#DejaVuSans-30"/>
       <use xlink:href="#DejaVuSans-2e" x="63.623047"/>
       <use xlink:href="#DejaVuSans-36" x="95.410156"/>
      </g>
     </g>
    </g>
    <g id="xtick_5">
     <g id="line2d_5">
      <g>
       <use xlink:href="#mc3f68fcf18" x="225.35918" y="273.312" style="stroke: #000000; stroke-width: 0.8"/>
      </g>
     </g>
     <g id="text_5">
      <!-- 0.8 -->
      <g transform="translate(217.407617 287.910437)scale(0.1 -0.1)">
       <defs>
        <path id="DejaVuSans-38" d="M 2034 2216 
Q 1584 2216 1326 1975 
Q 1069 1734 1069 1313 
Q 1069 891 1326 650 
Q 1584 409 2034 409 
Q 2484 409 2743 651 
Q 3003 894 3003 1313 
Q 3003 1734 2745 1975 
Q 2488 2216 2034 2216 
z
M 1403 2484 
Q 997 2584 770 2862 
Q 544 3141 544 3541 
Q 544 4100 942 4425 
Q 1341 4750 2034 4750 
Q 2731 4750 3128 4425 
Q 3525 4100 3525 3541 
Q 3525 3141 3298 2862 
Q 3072 2584 2669 2484 
Q 3125 2378 3379 2068 
Q 3634 1759 3634 1313 
Q 3634 634 3220 271 
Q 2806 -91 2034 -91 
Q 1263 -91 848 271 
Q 434 634 434 1313 
Q 434 1759 690 2068 
Q 947 2378 1403 2484 
z
M 1172 3481 
Q 1172 3119 1398 2916 
Q 1625 2713 2034 2713 
Q 2441 2713 2670 2916 
Q 2900 3119 2900 3481 
Q 2900 3844 2670 4047 
Q 2441 4250 2034 4250 
Q 1625 4250 1398 4047 
Q 1172 3844 1172 3481 
z
" transform="scale(0.015625)"/>
       </defs>
       <use xlink:href="#DejaVuSans-30"/>
       <use xlink:href="#DejaVuSans-2e" x="63.623047"/>
       <use xlink:href="#DejaVuSans-38" x="95.410156"/>
      </g>
     </g>
    </g>
    <g id="xtick_6">
     <g id="line2d_6">
      <g>
       <use xlink:href="#mc3f68fcf18" x="266.69548" y="273.312" style="stroke: #000000; stroke-width: 0.8"/>
      </g>
     </g>
     <g id="text_6">
      <!-- 1.0 -->
      <g transform="translate(258.743918 287.910437)scale(0.1 -0.1)">
       <defs>
        <path id="DejaVuSans-31" d="M 794 531 
L 1825 531 
L 1825 4091 
L 703 3866 
L 703 4441 
L 1819 4666 
L 2450 4666 
L 2450 531 
L 3481 531 
L 3481 0 
L 794 0 
L 794 531 
z
" transform="scale(0.015625)"/>
       </defs>
       <use xlink:href="#DejaVuSans-31"/>
       <use xlink:href="#DejaVuSans-2e" x="63.623047"/>
       <use xlink:href="#DejaVuSans-30" x="95.410156"/>
      </g>
     </g>
    </g>
    <g id="xtick_7">
     <g id="line2d_7">
      <g>
       <use xlink:href="#mc3f68fcf18" x="308.031781" y="273.312" style="stroke: #000000; stroke-width: 0.8"/>
      </g>
     </g>
     <g id="text_7">
      <!-- 1.2 -->
      <g transform="translate(300.080218 287.910437)scale(0.1 -0.1)">
       <use xlink:href="#DejaVuSans-31"/>
       <use xlink:href="#DejaVuSans-2e" x="63.623047"/>
       <use xlink:href="#DejaVuSans-32" x="95.410156"/>
      </g>
     </g>
    </g>
    <g id="xtick_8">
     <g id="line2d_8">
      <g>
       <use xlink:href="#mc3f68fcf18" x="349.368081" y="273.312" style="stroke: #000000; stroke-width: 0.8"/>
      </g>
     </g>
     <g id="text_8">
      <!-- 1.4 -->
      <g transform="translate(341.416519 287.910437)scale(0.1 -0.1)">
       <use xlink:href="#DejaVuSans-31"/>
       <use xlink:href="#DejaVuSans-2e" x="63.623047"/>
       <use xlink:href="#DejaVuSans-34" x="95.410156"/>
      </g>
     </g>
    </g>
    <g id="xtick_9">
     <g id="line2d_9">
      <g>
       <use xlink:href="#mc3f68fcf18" x="390.704382" y="273.312" style="stroke: #000000; stroke-width: 0.8"/>
      </g>
     </g>
     <g id="text_9">
      <!-- 1.6 -->
      <g transform="translate(382.752819 287.910437)scale(0.1 -0.1)">
       <use xlink:href="#DejaVuSans-31"/>
       <use xlink:href="#DejaVuSans-2e" x="63.623047"/>
       <use xlink:href="#DejaVuSans-36" x="95.410156"/>
      </g>
     </g>
    </g>
    <g id="text_10">
     <!-- Angle with normal (rad) -->
     <g transform="translate(163.023281 301.588562)scale(0.1 -0.1)">
      <defs>
       <path id="DejaVuSans-41" d="M 2188 4044 
L 1331 1722 
L 3047 1722 
L 2188 4044 
z
M 1831 4666 
L 2547 4666 
L 4325 0 
L 3669 0 
L 3244 1197 
L 1141 1197 
L 716 0 
L 50 0 
L 1831 4666 
z
" transform="scale(0.015625)"/>
       <path id="DejaVuSans-6e" d="M 3513 2113 
L 3513 0 
L 2938 0 
L 2938 2094 
Q 2938 2591 2744 2837 
Q 2550 3084 2163 3084 
Q 1697 3084 1428 2787 
Q 1159 2491 1159 1978 
L 1159 0 
L 581 0 
L 581 3500 
L 1159 3500 
L 1159 2956 
Q 1366 3272 1645 3428 
Q 1925 3584 2291 3584 
Q 2894 3584 3203 3211 
Q 3513 2838 3513 2113 
z
" transform="scale(0.015625)"/>
       <path id="DejaVuSans-67" d="M 2906 1791 
Q 2906 2416 2648 2759 
Q 2391 3103 1925 3103 
Q 1463 3103 1205 2759 
Q 947 2416 947 1791 
Q 947 1169 1205 825 
Q 1463 481 1925 481 
Q 2391 481 2648 825 
Q 2906 1169 2906 1791 
z
M 3481 434 
Q 3481 -459 3084 -895 
Q 2688 -1331 1869 -1331 
Q 1566 -1331 1297 -1286 
Q 1028 -1241 775 -1147 
L 775 -588 
Q 1028 -725 1275 -790 
Q 1522 -856 1778 -856 
Q 2344 -856 2625 -561 
Q 2906 -266 2906 331 
L 2906 616 
Q 2728 306 2450 153 
Q 2172 0 1784 0 
Q 1141 0 747 490 
Q 353 981 353 1791 
Q 353 2603 747 3093 
Q 1141 3584 1784 3584 
Q 2172 3584 2450 3431 
Q 2728 3278 2906 2969 
L 2906 3500 
L 3481 3500 
L 3481 434 
z
" transform="scale(0.015625)"/>
       <path id="DejaVuSans-6c" d="M 603 4863 
L 1178 4863 
L 1178 0 
L 603 0 
L 603 4863 
z
" transform="scale(0.015625)"/>
       <path id="DejaVuSans-65" d="M 3597 1894 
L 3597 1613 
L 953 1613 
Q 991 1019 1311 708 
Q 1631 397 2203 397 
Q 2534 397 2845 478 
Q 3156 559 3463 722 
L 3463 178 
Q 3153 47 2828 -22 
Q 2503 -91 2169 -91 
Q 1331 -91 842 396 
Q 353 884 353 1716 
Q 353 2575 817 3079 
Q 1281 3584 2069 3584 
Q 2775 3584 3186 3129 
Q 3597 2675 3597 1894 
z
M 3022 2063 
Q 3016 2534 2758 2815 
Q 2500 3097 2075 3097 
Q 1594 3097 1305 2825 
Q 1016 2553 972 2059 
L 3022 2063 
z
" transform="scale(0.015625)"/>
       <path id="DejaVuSans-20" transform="scale(0.015625)"/>
       <path id="DejaVuSans-77" d="M 269 3500 
L 844 3500 
L 1563 769 
L 2278 3500 
L 2956 3500 
L 3675 769 
L 4391 3500 
L 4966 3500 
L 4050 0 
L 3372 0 
L 2619 2869 
L 1863 0 
L 1184 0 
L 269 3500 
z
" transform="scale(0.015625)"/>
       <path id="DejaVuSans-69" d="M 603 3500 
L 1178 3500 
L 1178 0 
L 603 0 
L 603 3500 
z
M 603 4863 
L 1178 4863 
L 1178 4134 
L 603 4134 
L 603 4863 
z
" transform="scale(0.015625)"/>
       <path id="DejaVuSans-74" d="M 1172 4494 
L 1172 3500 
L 2356 3500 
L 2356 3053 
L 1172 3053 
L 1172 1153 
Q 1172 725 1289 603 
Q 1406 481 1766 481 
L 2356 481 
L 2356 0 
L 1766 0 
Q 1100 0 847 248 
Q 594 497 594 1153 
L 594 3053 
L 172 3053 
L 172 3500 
L 594 3500 
L 594 4494 
L 1172 4494 
z
" transform="scale(0.015625)"/>
       <path id="DejaVuSans-68" d="M 3513 2113 
L 3513 0 
L 2938 0 
L 2938 2094 
Q 2938 2591 2744 2837 
Q 2550 3084 2163 3084 
Q 1697 3084 1428 2787 
Q 1159 2491 1159 1978 
L 1159 0 
L 581 0 
L 581 4863 
L 1159 4863 
L 1159 2956 
Q 1366 3272 1645 3428 
Q 1925 3584 2291 3584 
Q 2894 3584 3203 3211 
Q 3513 2838 3513 2113 
z
" transform="scale(0.015625)"/>
       <path id="DejaVuSans-6f" d="M 1959 3097 
Q 1497 3097 1228 2736 
Q 959 2375 959 1747 
Q 959 1119 1226 758 
Q 1494 397 1959 397 
Q 2419 397 2687 759 
Q 2956 1122 2956 1747 
Q 2956 2369 2687 2733 
Q 2419 3097 1959 3097 
z
M 1959 3584 
Q 2709 3584 3137 3096 
Q 3566 2609 3566 1747 
Q 3566 888 3137 398 
Q 2709 -91 1959 -91 
Q 1206 -91 779 398 
Q 353 888 353 1747 
Q 353 2609 779 3096 
Q 1206 3584 1959 3584 
z
" transform="scale(0.015625)"/>
       <path id="DejaVuSans-72" d="M 2631 2963 
Q 2534 3019 2420 3045 
Q 2306 3072 2169 3072 
Q 1681 3072 1420 2755 
Q 1159 2438 1159 1844 
L 1159 0 
L 581 0 
L 581 3500 
L 1159 3500 
L 1159 2956 
Q 1341 3275 1631 3429 
Q 1922 3584 2338 3584 
Q 2397 3584 2469 3576 
Q 2541 3569 2628 3553 
L 2631 2963 
z
" transform="scale(0.015625)"/>
       <path id="DejaVuSans-6d" d="M 3328 2828 
Q 3544 3216 3844 3400 
Q 4144 3584 4550 3584 
Q 5097 3584 5394 3201 
Q 5691 2819 5691 2113 
L 5691 0 
L 5113 0 
L 5113 2094 
Q 5113 2597 4934 2840 
Q 4756 3084 4391 3084 
Q 3944 3084 3684 2787 
Q 3425 2491 3425 1978 
L 3425 0 
L 2847 0 
L 2847 2094 
Q 2847 2600 2669 2842 
Q 2491 3084 2119 3084 
Q 1678 3084 1418 2786 
Q 1159 2488 1159 1978 
L 1159 0 
L 581 0 
L 581 3500 
L 1159 3500 
L 1159 2956 
Q 1356 3278 1631 3431 
Q 1906 3584 2284 3584 
Q 2666 3584 2933 3390 
Q 3200 3197 3328 2828 
z
" transform="scale(0.015625)"/>
       <path id="DejaVuSans-61" d="M 2194 1759 
Q 1497 1759 1228 1600 
Q 959 1441 959 1056 
Q 959 750 1161 570 
Q 1363 391 1709 391 
Q 2188 391 2477 730 
Q 2766 1069 2766 1631 
L 2766 1759 
L 2194 1759 
z
M 3341 1997 
L 3341 0 
L 2766 0 
L 2766 531 
Q 2569 213 2275 61 
Q 1981 -91 1556 -91 
Q 1019 -91 701 211 
Q 384 513 384 1019 
Q 384 1609 779 1909 
Q 1175 2209 1959 2209 
L 2766 2209 
L 2766 2266 
Q 2766 2663 2505 2880 
Q 2244 3097 1772 3097 
Q 1472 3097 1187 3025 
Q 903 2953 641 2809 
L 641 3341 
Q 956 3463 1253 3523 
Q 1550 3584 1831 3584 
Q 2591 3584 2966 3190 
Q 3341 2797 3341 1997 
z
" transform="scale(0.015625)"/>
       <path id="DejaVuSans-28" d="M 1984 4856 
Q 1566 4138 1362 3434 
Q 1159 2731 1159 2009 
Q 1159 1288 1364 580 
Q 1569 -128 1984 -844 
L 1484 -844 
Q 1016 -109 783 600 
Q 550 1309 550 2009 
Q 550 2706 781 3412 
Q 1013 4119 1484 4856 
L 1984 4856 
z
" transform="scale(0.015625)"/>
       <path id="DejaVuSans-64" d="M 2906 2969 
L 2906 4863 
L 3481 4863 
L 3481 0 
L 2906 0 
L 2906 525 
Q 2725 213 2448 61 
Q 2172 -91 1784 -91 
Q 1150 -91 751 415 
Q 353 922 353 1747 
Q 353 2572 751 3078 
Q 1150 3584 1784 3584 
Q 2172 3584 2448 3432 
Q 2725 3281 2906 2969 
z
M 947 1747 
Q 947 1113 1208 752 
Q 1469 391 1925 391 
Q 2381 391 2643 752 
Q 2906 1113 2906 1747 
Q 2906 2381 2643 2742 
Q 2381 3103 1925 3103 
Q 1469 3103 1208 2742 
Q 947 2381 947 1747 
z
" transform="scale(0.015625)"/>
       <path id="DejaVuSans-29" d="M 513 4856 
L 1013 4856 
Q 1481 4119 1714 3412 
Q 1947 2706 1947 2009 
Q 1947 1309 1714 600 
Q 1481 -109 1013 -844 
L 513 -844 
Q 928 -128 1133 580 
Q 1338 1288 1338 2009 
Q 1338 2731 1133 3434 
Q 928 4138 513 4856 
z
" transform="scale(0.015625)"/>
      </defs>
      <use xlink:href="#DejaVuSans-41"/>
      <use xlink:href="#DejaVuSans-6e" x="68.408203"/>
      <use xlink:href="#DejaVuSans-67" x="131.787109"/>
      <use xlink:href="#DejaVuSans-6c" x="195.263672"/>
      <use xlink:href="#DejaVuSans-65" x="223.046875"/>
      <use xlink:href="#DejaVuSans-20" x="284.570312"/>
      <use xlink:href="#DejaVuSans-77" x="316.357422"/>
      <use xlink:href="#DejaVuSans-69" x="398.144531"/>
      <use xlink:href="#DejaVuSans-74" x="425.927734"/>
      <use xlink:href="#DejaVuSans-68" x="465.136719"/>
      <use xlink:href="#DejaVuSans-20" x="528.515625"/>
      <use xlink:href="#DejaVuSans-6e" x="560.302734"/>
      <use xlink:href="#DejaVuSans-6f" x="623.681641"/>
      <use xlink:href="#DejaVuSans-72" x="684.863281"/>
      <use xlink:href="#DejaVuSans-6d" x="724.226562"/>
      <use xlink:href="#DejaVuSans-61" x="821.638672"/>
      <use xlink:href="#DejaVuSans-6c" x="882.917969"/>
      <use xlink:href="#DejaVuSans-20" x="910.701172"/>
      <use xlink:href="#DejaVuSans-28" x="942.488281"/>
      <use xlink:href="#DejaVuSans-72" x="981.501953"/>
      <use xlink:href="#DejaVuSans-61" x="1022.615234"/>
      <use xlink:href="#DejaVuSans-64" x="1083.894531"/>
      <use xlink:href="#DejaVuSans-29" x="1147.371094"/>
     </g>
    </g>
   </g>
   <g id="matplotlib.axis_2">
    <g id="ytick_1">
     <g id="line2d_10">
      <defs>
       <path id="mc02bf5f6a4" d="M 0 0 
L -3.5 0 
" style="stroke: #000000; stroke-width: 0.8"/>
      </defs>
      <g>
       <use xlink:href="#mc02bf5f6a4" x="43.78125" y="273.312" style="stroke: #000000; stroke-width: 0.8"/>
      </g>
     </g>
     <g id="text_11">
      <!-- 0.0 -->
      <g transform="translate(20.878125 277.111219)scale(0.1 -0.1)">
       <use xlink:href="#DejaVuSans-30"/>
       <use xlink:href="#DejaVuSans-2e" x="63.623047"/>
       <use xlink:href="#DejaVuSans-30" x="95.410156"/>
      </g>
     </g>
    </g>
    <g id="ytick_2">
     <g id="line2d_11">
      <g>
       <use xlink:href="#mc02bf5f6a4" x="43.78125" y="228.701522" style="stroke: #000000; stroke-width: 0.8"/>
      </g>
     </g>
     <g id="text_12">
      <!-- 0.2 -->
      <g transform="translate(20.878125 232.500741)scale(0.1 -0.1)">
       <use xlink:href="#DejaVuSans-30"/>
       <use xlink:href="#DejaVuSans-2e" x="63.623047"/>
       <use xlink:href="#DejaVuSans-32" x="95.410156"/>
      </g>
     </g>
    </g>
    <g id="ytick_3">
     <g id="line2d_12">
      <g>
       <use xlink:href="#mc02bf5f6a4" x="43.78125" y="184.091044" style="stroke: #000000; stroke-width: 0.8"/>
      </g>
     </g>
     <g id="text_13">
      <!-- 0.4 -->
      <g transform="translate(20.878125 187.890263)scale(0.1 -0.1)">
       <use xlink:href="#DejaVuSans-30"/>
       <use xlink:href="#DejaVuSans-2e" x="63.623047"/>
       <use xlink:href="#DejaVuSans-34" x="95.410156"/>
      </g>
     </g>
    </g>
    <g id="ytick_4">
     <g id="line2d_13">
      <g>
       <use xlink:href="#mc02bf5f6a4" x="43.78125" y="139.480566" style="stroke: #000000; stroke-width: 0.8"/>
      </g>
     </g>
     <g id="text_14">
      <!-- 0.6 -->
      <g transform="translate(20.878125 143.279785)scale(0.1 -0.1)">
       <use xlink:href="#DejaVuSans-30"/>
       <use xlink:href="#DejaVuSans-2e" x="63.623047"/>
       <use xlink:href="#DejaVuSans-36" x="95.410156"/>
      </g>
     </g>
    </g>
    <g id="ytick_5">
     <g id="line2d_14">
      <g>
       <use xlink:href="#mc02bf5f6a4" x="43.78125" y="94.870088" style="stroke: #000000; stroke-width: 0.8"/>
      </g>
     </g>
     <g id="text_15">
      <!-- 0.8 -->
      <g transform="translate(20.878125 98.669307)scale(0.1 -0.1)">
       <use xlink:href="#DejaVuSans-30"/>
       <use xlink:href="#DejaVuSans-2e" x="63.623047"/>
       <use xlink:href="#DejaVuSans-38" x="95.410156"/>
      </g>
     </g>
    </g>
    <g id="ytick_6">
     <g id="line2d_15">
      <g>
       <use xlink:href="#mc02bf5f6a4" x="43.78125" y="50.25961" style="stroke: #000000; stroke-width: 0.8"/>
      </g>
     </g>
     <g id="text_16">
      <!-- 1.0 -->
      <g transform="translate(20.878125 54.058829)scale(0.1 -0.1)">
       <use xlink:href="#DejaVuSans-31"/>
       <use xlink:href="#DejaVuSans-2e" x="63.623047"/>
       <use xlink:href="#DejaVuSans-30" x="95.410156"/>
      </g>
     </g>
    </g>
    <g id="text_17">
     <!-- Probability density -->
     <g transform="translate(14.798438 186.606781)rotate(-90)scale(0.1 -0.1)">
      <defs>
       <path id="DejaVuSans-50" d="M 1259 4147 
L 1259 2394 
L 2053 2394 
Q 2494 2394 2734 2622 
Q 2975 2850 2975 3272 
Q 2975 3691 2734 3919 
Q 2494 4147 2053 4147 
L 1259 4147 
z
M 628 4666 
L 2053 4666 
Q 2838 4666 3239 4311 
Q 3641 3956 3641 3272 
Q 3641 2581 3239 2228 
Q 2838 1875 2053 1875 
L 1259 1875 
L 1259 0 
L 628 0 
L 628 4666 
z
" transform="scale(0.015625)"/>
       <path id="DejaVuSans-62" d="M 3116 1747 
Q 3116 2381 2855 2742 
Q 2594 3103 2138 3103 
Q 1681 3103 1420 2742 
Q 1159 2381 1159 1747 
Q 1159 1113 1420 752 
Q 1681 391 2138 391 
Q 2594 391 2855 752 
Q 3116 1113 3116 1747 
z
M 1159 2969 
Q 1341 3281 1617 3432 
Q 1894 3584 2278 3584 
Q 2916 3584 3314 3078 
Q 3713 2572 3713 1747 
Q 3713 922 3314 415 
Q 2916 -91 2278 -91 
Q 1894 -91 1617 61 
Q 1341 213 1159 525 
L 1159 0 
L 581 0 
L 581 4863 
L 1159 4863 
L 1159 2969 
z
" transform="scale(0.015625)"/>
       <path id="DejaVuSans-79" d="M 2059 -325 
Q 1816 -950 1584 -1140 
Q 1353 -1331 966 -1331 
L 506 -1331 
L 506 -850 
L 844 -850 
Q 1081 -850 1212 -737 
Q 1344 -625 1503 -206 
L 1606 56 
L 191 3500 
L 800 3500 
L 1894 763 
L 2988 3500 
L 3597 3500 
L 2059 -325 
z
" transform="scale(0.015625)"/>
       <path id="DejaVuSans-73" d="M 2834 3397 
L 2834 2853 
Q 2591 2978 2328 3040 
Q 2066 3103 1784 3103 
Q 1356 3103 1142 2972 
Q 928 2841 928 2578 
Q 928 2378 1081 2264 
Q 1234 2150 1697 2047 
L 1894 2003 
Q 2506 1872 2764 1633 
Q 3022 1394 3022 966 
Q 3022 478 2636 193 
Q 2250 -91 1575 -91 
Q 1294 -91 989 -36 
Q 684 19 347 128 
L 347 722 
Q 666 556 975 473 
Q 1284 391 1588 391 
Q 1994 391 2212 530 
Q 2431 669 2431 922 
Q 2431 1156 2273 1281 
Q 2116 1406 1581 1522 
L 1381 1569 
Q 847 1681 609 1914 
Q 372 2147 372 2553 
Q 372 3047 722 3315 
Q 1072 3584 1716 3584 
Q 2034 3584 2315 3537 
Q 2597 3491 2834 3397 
z
" transform="scale(0.015625)"/>
      </defs>
      <use xlink:href="#DejaVuSans-50"/>
      <use xlink:href="#DejaVuSans-72" x="58.552734"/>
      <use xlink:href="#DejaVuSans-6f" x="97.416016"/>
      <use xlink:href="#DejaVuSans-62" x="158.597656"/>
      <use xlink:href="#DejaVuSans-61" x="222.074219"/>
      <use xlink:href="#DejaVuSans-62" x="283.353516"/>
      <use xlink:href="#DejaVuSans-69" x="346.830078"/>
      <use xlink:href="#DejaVuSans-6c" x="374.613281"/>
      <use xlink:href="#DejaVuSans-69" x="402.396484"/>
      <use xlink:href="#DejaVuSans-74" x="430.179688"/>
      <use xlink:href="#DejaVuSans-79" x="469.388672"/>
      <use xlink:href="#DejaVuSans-20" x="528.568359"/>
      <use xlink:href="#DejaVuSans-64" x="560.355469"/>
      <use xlink:href="#DejaVuSans-65" x="623.832031"/>
      <use xlink:href="#DejaVuSans-6e" x="685.355469"/>
      <use xlink:href="#DejaVuSans-73" x="748.734375"/>
      <use xlink:href="#DejaVuSans-69" x="800.833984"/>
      <use xlink:href="#DejaVuSans-74" x="828.617188"/>
      <use xlink:href="#DejaVuSans-79" x="867.826172"/>
     </g>
    </g>
   </g>
   <g id="line2d_16">
    <path d="M 60.013977 273.312 
L 79.837728 230.786026 
L 90.237073 209.003946 
L 99.01152 191.122683 
L 106.811029 175.721447 
L 113.960578 162.089676 
L 120.460169 150.157271 
L 126.63478 139.271871 
L 132.484411 129.400062 
L 138.009063 120.499457 
L 143.208736 112.520844 
L 148.408408 104.949217 
L 153.283101 98.237501 
L 158.157794 91.915272 
L 162.707507 86.37835 
L 167.257221 81.203707 
L 171.481954 76.731844 
L 175.706688 72.588482 
L 179.606442 69.061404 
L 183.506197 65.825158 
L 187.405951 62.884354 
L 190.980726 60.451736 
L 194.555501 58.273805 
L 198.130275 56.353166 
L 201.70505 54.692118 
L 205.279825 53.292646 
L 208.52962 52.248803 
L 211.779415 51.42356 
L 215.029211 50.817733 
L 218.279006 50.43192 
L 221.528801 50.266504 
L 224.778596 50.321647 
L 228.028392 50.597296 
L 231.278187 51.093177 
L 234.527982 51.808801 
L 237.777777 52.743459 
L 241.027573 53.896228 
L 244.602347 55.414825 
L 248.177122 57.194134 
L 251.751897 59.232028 
L 255.326672 61.526067 
L 258.901447 64.073507 
L 262.801201 67.137945 
L 266.700955 70.495954 
L 270.600709 74.142754 
L 274.825443 78.413312 
L 279.050177 83.00956 
L 283.274911 87.923817 
L 287.824624 93.562306 
L 292.374338 99.549151 
L 297.249031 106.337 
L 302.123723 113.496318 
L 307.323396 121.524405 
L 312.848048 130.474731 
L 318.697679 140.395835 
L 324.87229 151.32936 
L 331.371881 163.307901 
L 338.196451 176.352669 
L 345.67098 191.122683 
L 354.120447 208.332609 
L 363.869833 228.722225 
L 376.544035 255.794029 
L 384.668523 273.312 
L 384.668523 273.312 
" clip-path="url(#p21bc3fd9a8)" style="fill: none; stroke: #ff7f0e; stroke-width: 1.5; stroke-linecap: square"/>
   </g>
   <g id="patch_203">
    <path d="M 43.78125 273.312 
L 43.78125 7.2 
" style="fill: none; stroke: #000000; stroke-width: 0.8; stroke-linejoin: miter; stroke-linecap: square"/>
   </g>
   <g id="patch_204">
    <path d="M 400.90125 273.312 
L 400.90125 7.2 
" style="fill: none; stroke: #000000; stroke-width: 0.8; stroke-linejoin: miter; stroke-linecap: square"/>
   </g>
   <g id="patch_205">
    <path d="M 43.78125 273.312 
L 400.90125 273.312 
" style="fill: none; stroke: #000000; stroke-width: 0.8; stroke-linejoin: miter; stroke-linecap: square"/>
   </g>
   <g id="patch_206">
    <path d="M 43.78125 7.2 
L 400.90125 7.2 
" style="fill: none; stroke: #000000; stroke-width: 0.8; stroke-linejoin: miter; stroke-linecap: square"/>
   </g>
  </g>
 </g>
 <defs>
  <clipPath id="p21bc3fd9a8">
   <rect x="43.78125" y="7.2" width="357.12" height="266.112"/>
  </clipPath>
 </defs>
</svg>
